<?xml version="1.0" encoding="UTF-8" ?>
<!DOCTYPE svg PUBLIC "-//W3C//DTD SVG 1.1//EN" "http://www.w3.org/Graphics/SVG/1.1/DTD/svg11.dtd">
<svg width="128pt" height="128pt" viewBox="0 0 128 128" version="1.1" xmlns="http://www.w3.org/2000/svg">
<g id="#44e837ff">
<path fill="#44e837" opacity="1.00" d=" M 28.46 8.78 C 32.59 8.13 36.78 8.15 40.95 8.11 C 56.61 8.11 72.28 8.10 87.94 8.11 C 92.32 8.19 96.76 8.13 101.06 9.08 C 110.07 10.94 117.56 18.68 119.09 27.76 C 120.19 34.10 119.79 40.58 119.87 46.98 C 119.79 62.67 120.00 78.35 119.72 94.03 C 119.68 101.06 117.38 108.33 112.00 113.10 C 107.04 118.07 99.83 119.76 93.01 119.75 C 76.00 119.95 58.99 119.77 41.98 119.84 C 36.13 119.74 30.11 120.05 24.47 118.21 C 16.87 115.66 10.74 108.95 9.11 101.07 C 8.15 96.80 8.22 92.38 8.16 88.03 C 8.14 72.02 8.14 56.02 8.12 40.02 C 8.18 35.65 8.14 31.22 9.09 26.93 C 10.99 17.67 19.10 10.08 28.46 8.78 M 32.30 40.35 C 28.27 40.91 25.33 44.96 25.64 48.95 C 25.70 59.30 25.61 69.65 25.74 79.99 C 25.70 84.28 29.69 87.90 33.91 87.76 C 46.96 87.81 60.02 87.77 73.07 87.77 C 77.44 88.10 81.68 84.45 81.71 80.01 C 81.86 70.33 81.70 60.65 81.80 50.96 C 81.84 48.25 81.85 45.21 79.88 43.08 C 78.02 40.69 74.88 40.00 71.99 40.17 C 58.76 40.33 45.52 39.96 32.30 40.35 M 85.36 56.51 C 85.34 61.55 85.37 66.58 85.36 71.61 C 90.55 75.20 95.72 78.83 100.93 82.39 C 100.93 70.15 100.95 57.91 100.93 45.68 C 95.75 49.30 90.56 52.92 85.36 56.51 M 103.50 82.50 C 104.10 82.50 105.32 82.50 105.92 82.50 C 105.93 70.22 105.93 57.95 105.93 45.67 C 105.31 45.67 104.06 45.67 103.44 45.66 C 103.46 57.94 103.44 70.22 103.50 82.50 M 24.35 58.41 C 24.51 55.88 24.62 53.33 24.46 50.80 C 20.90 51.48 21.06 57.41 24.35 58.41 Z" />
</g>
<g id="#ffffffff">
<path fill="#ffffff" opacity="1.00" d=" M 32.30 40.35 C 45.52 39.96 58.76 40.33 71.99 40.17 C 74.88 40.00 78.02 40.69 79.88 43.08 C 81.85 45.21 81.84 48.25 81.80 50.96 C 81.70 60.65 81.86 70.33 81.71 80.01 C 81.68 84.45 77.44 88.10 73.07 87.77 C 60.02 87.77 46.96 87.81 33.91 87.76 C 29.69 87.90 25.70 84.28 25.74 79.99 C 25.61 69.65 25.70 59.30 25.64 48.95 C 25.33 44.96 28.27 40.91 32.30 40.35 Z" />
<path fill="#ffffff" opacity="1.00" d=" M 85.36 56.51 C 90.56 52.92 95.75 49.30 100.93 45.68 C 100.95 57.91 100.93 70.15 100.93 82.39 C 95.72 78.83 90.55 75.20 85.36 71.61 C 85.37 66.58 85.34 61.55 85.36 56.51 Z" />
<path fill="#ffffff" opacity="1.00" d=" M 103.50 82.50 C 103.44 70.22 103.46 57.94 103.44 45.66 C 104.06 45.67 105.31 45.67 105.93 45.67 C 105.93 57.95 105.93 70.22 105.92 82.50 C 105.32 82.50 104.10 82.50 103.50 82.50 Z" />
<path fill="#ffffff" opacity="1.00" d=" M 24.35 58.41 C 21.06 57.41 20.90 51.48 24.46 50.80 C 24.62 53.33 24.51 55.88 24.35 58.41 Z" />
</g>
</svg>
