<?xml version="1.0" encoding="UTF-8" ?>
<!DOCTYPE svg PUBLIC "-//W3C//DTD SVG 1.1//EN" "http://www.w3.org/Graphics/SVG/1.1/DTD/svg11.dtd">
<svg width="120pt" height="120pt" viewBox="0 0 120 120" version="1.1" xmlns="http://www.w3.org/2000/svg">
<g id="#ddddddff">
<path fill="#dddddd" opacity="1.00" d=" M 11.47 5.51 C 17.36 1.26 24.94 0.44 32.00 0.43 C 50.99 0.40 69.98 0.37 88.97 0.44 C 91.64 0.62 94.54 0.16 96.97 1.55 C 97.03 11.00 96.94 20.45 96.99 29.90 C 97.01 39.92 97.00 49.94 97.00 59.96 C 97.00 70.01 97.00 80.07 97.00 90.12 C 97.00 94.90 96.99 99.68 97.01 104.46 C 91.59 101.74 85.92 99.34 79.86 98.54 C 75.20 97.57 69.77 97.35 66.18 93.85 C 64.14 90.31 64.38 85.97 64.04 82.02 C 67.82 78.27 68.36 72.88 69.15 67.90 C 69.24 64.95 72.42 63.63 73.07 60.93 C 74.07 57.32 75.32 53.73 75.65 49.99 C 76.03 48.15 74.35 47.24 73.19 46.23 C 75.01 36.90 77.31 25.99 71.28 17.68 C 69.65 14.73 66.32 13.66 63.34 12.63 C 58.35 10.98 53.36 8.36 47.95 9.10 C 41.50 10.29 35.29 12.89 30.34 17.24 C 25.32 19.31 22.94 24.83 23.11 30.02 C 23.33 35.54 23.91 41.05 24.84 46.49 C 24.21 46.87 22.97 47.62 22.35 48.00 C 22.53 52.47 24.15 56.67 25.23 60.97 C 25.80 63.69 29.11 64.91 29.11 67.90 C 29.79 72.93 30.57 78.19 34.24 82.02 C 33.40 86.20 34.33 91.75 30.73 94.74 C 26.87 97.12 22.17 97.30 17.84 98.21 C 12.82 98.99 8.20 101.16 3.59 103.16 L 2.53 103.63 C 1.64 99.43 0.43 95.27 0.49 90.94 C 0.30 73.62 0.46 56.31 0.40 39.00 C 0.44 31.14 -0.02 22.95 3.17 15.56 C 4.75 11.38 8.30 8.47 11.47 5.51 Z" />
</g>
<g id="#b3b2afff">
<path fill="#b3b2af" opacity="1.00" d=" M 96.97 1.55 C 99.13 1.83 101.28 2.22 103.43 2.62 L 103.19 3.66 C 101.89 12.35 102.74 21.24 102.73 30.00 C 100.82 29.98 98.90 29.93 96.99 29.90 C 96.94 20.45 97.03 11.00 96.97 1.55 Z" />
</g>
<g id="#c9c8c5ff">
<path fill="#c9c8c5" opacity="1.00" d=" M 103.19 3.66 C 105.36 3.19 107.01 4.83 108.64 5.97 C 112.21 8.63 115.06 12.22 116.99 16.23 C 118.62 20.61 119.30 25.29 119.56 29.94 C 113.95 30.02 108.34 30.00 102.73 30.00 C 102.74 21.24 101.89 12.35 103.19 3.66 M 105.06 22.30 C 106.40 22.01 106.83 20.46 108.02 20.02 C 109.89 19.51 110.33 21.97 111.95 22.33 C 111.16 19.69 110.03 17.18 108.93 14.66 C 106.43 16.30 106.19 19.74 105.06 22.30 Z" />
</g>
<g id="#9a9a9aff">
<path fill="#9a9a9a" opacity="1.00" d=" M 30.34 17.24 C 35.29 12.89 41.50 10.29 47.95 9.10 C 53.36 8.36 58.35 10.98 63.34 12.63 C 66.32 13.66 69.65 14.73 71.28 17.68 C 77.31 25.99 75.01 36.90 73.19 46.23 C 74.35 47.24 76.03 48.15 75.65 49.99 C 75.32 53.73 74.07 57.32 73.07 60.93 C 72.42 63.63 69.24 64.95 69.15 67.90 C 68.36 72.88 67.82 78.27 64.04 82.02 C 64.38 85.97 64.14 90.31 66.18 93.85 C 69.77 97.35 75.20 97.57 79.86 98.54 C 85.92 99.34 91.59 101.74 97.01 104.46 C 97.04 108.99 97.02 113.53 96.99 118.07 C 96.40 118.11 95.22 118.20 94.63 118.24 C 93.23 119.06 91.59 119.12 90.02 119.13 C 70.00 119.11 49.98 119.11 29.96 119.12 C 28.38 119.11 26.75 119.05 25.33 118.27 C 23.32 118.06 21.14 118.38 19.33 117.27 C 18.89 117.20 18.01 117.07 17.56 117.00 C 11.55 114.10 6.07 109.50 3.59 103.16 C 8.20 101.16 12.82 98.99 17.84 98.21 C 22.17 97.30 26.87 97.12 30.73 94.74 C 34.33 91.75 33.40 86.20 34.24 82.02 C 30.57 78.19 29.79 72.93 29.11 67.90 C 29.11 64.91 25.80 63.69 25.23 60.97 C 24.15 56.67 22.53 52.47 22.35 48.00 C 22.97 47.62 24.21 46.87 24.84 46.49 C 23.91 41.05 23.33 35.54 23.11 30.02 C 22.94 24.83 25.32 19.31 30.34 17.24 Z" />
</g>
<g id="#82817fff">
<path fill="#82817f" opacity="1.00" d=" M 105.06 22.30 C 106.19 19.74 106.43 16.30 108.93 14.66 C 110.03 17.18 111.16 19.69 111.95 22.33 C 110.33 21.97 109.89 19.51 108.02 20.02 C 106.83 20.46 106.40 22.01 105.06 22.30 M 108.05 17.35 C 106.57 20.42 111.32 17.46 108.05 17.35 Z" />
</g>
<g id="#c6c5c2ff">
<path fill="#c6c5c2" opacity="1.00" d=" M 108.05 17.35 C 111.32 17.46 106.57 20.42 108.05 17.35 Z" />
</g>
<g id="#4ba7d1ff">
<path fill="#4ba7d1" opacity="1.00" d=" M 96.99 29.90 C 98.90 29.93 100.82 29.98 102.73 30.00 C 108.34 30.00 113.95 30.02 119.56 29.94 C 119.57 30.57 119.60 31.84 119.62 32.47 C 113.69 34.33 107.20 31.94 101.46 34.52 C 100.10 42.93 100.95 51.49 100.80 59.97 C 99.53 59.96 98.26 59.96 97.00 59.96 C 97.00 49.94 97.01 39.92 96.99 29.90 Z" />
</g>
<g id="#5ac8faff">
<path fill="#5ac8fa" opacity="1.00" d=" M 119.62 32.47 L 120.00 32.34 L 120.00 59.46 L 119.05 60.03 C 112.97 60.00 106.88 59.99 100.80 59.97 C 100.95 51.49 100.10 42.93 101.46 34.52 C 107.20 31.94 113.69 34.33 119.62 32.47 M 106.00 41.92 C 105.99 44.31 105.99 46.69 106.00 49.07 C 107.32 49.06 108.65 49.00 109.97 48.89 C 111.79 47.51 110.60 44.83 111.02 42.90 C 109.59 41.75 107.70 42.01 106.00 41.92 Z" />
</g>
<g id="#347490ff">
<path fill="#347490" opacity="1.00" d=" M 106.00 41.92 C 107.70 42.01 109.59 41.75 111.02 42.90 C 110.60 44.83 111.79 47.51 109.97 48.89 C 108.65 49.00 107.32 49.06 106.00 49.07 C 105.99 46.69 105.99 44.31 106.00 41.92 M 107.30 43.26 C 106.82 44.79 107.44 45.28 109.16 44.75 C 109.64 43.20 109.02 42.71 107.30 43.26 M 107.13 46.30 C 105.93 47.90 108.95 48.93 109.85 47.67 C 111.02 46.10 108.01 45.07 107.13 46.30 Z" />
</g>
<g id="#59c6f7ff">
<path fill="#59c6f7" opacity="1.00" d=" M 107.30 43.26 C 109.02 42.71 109.64 43.20 109.16 44.75 C 107.44 45.28 106.82 44.79 107.30 43.26 Z" />
</g>
<g id="#58c3f3ff">
<path fill="#58c3f3" opacity="1.00" d=" M 107.13 46.30 C 108.01 45.07 111.02 46.10 109.85 47.67 C 108.95 48.93 105.93 47.90 107.13 46.30 Z" />
</g>
<g id="#42bc57ff">
<path fill="#42bc57" opacity="1.00" d=" M 97.00 59.96 C 98.26 59.96 99.53 59.96 100.80 59.97 C 106.88 59.99 112.97 60.00 119.05 60.03 C 118.99 61.31 118.97 62.59 118.99 63.87 C 114.37 63.83 109.69 63.30 105.10 64.08 C 102.81 64.41 101.57 66.77 101.76 68.93 C 101.72 75.97 101.76 83.02 101.86 90.07 C 100.24 90.08 98.62 90.10 97.00 90.12 C 97.00 80.07 97.00 70.01 97.00 59.96 Z" />
</g>
<g id="#3aa54cc6">
<path fill="#3aa54c" opacity="0.78" d=" M 119.05 60.03 L 120.00 59.46 L 120.00 90.63 L 119.12 89.93 C 118.99 81.25 119.28 72.56 118.99 63.87 C 118.97 62.59 118.99 61.31 119.05 60.03 Z" />
</g>
<g id="#4cd964ff">
<path fill="#4cd964" opacity="1.00" d=" M 101.76 68.93 C 101.57 66.77 102.81 64.41 105.10 64.08 C 109.69 63.30 114.37 63.83 118.99 63.87 C 119.28 72.56 118.99 81.25 119.12 89.93 C 113.36 90.10 107.61 90.01 101.86 90.07 C 101.76 83.02 101.72 75.97 101.76 68.93 M 107.04 71.92 C 105.66 74.09 105.57 76.86 107.05 79.01 C 107.77 78.99 109.21 78.96 109.93 78.95 C 110.39 77.88 110.86 76.81 111.33 75.75 C 110.11 76.42 108.94 77.20 107.94 78.18 C 106.80 76.55 107.02 74.67 108.07 73.05 C 109.14 73.40 110.22 73.74 111.30 74.07 C 110.76 72.05 108.81 71.82 107.04 71.92 Z" />
</g>
<g id="#30893fff">
<path fill="#30893f" opacity="1.00" d=" M 107.04 71.92 C 108.81 71.82 110.76 72.05 111.30 74.07 C 110.22 73.74 109.14 73.40 108.07 73.05 C 107.02 74.67 106.80 76.55 107.94 78.18 C 108.94 77.20 110.11 76.42 111.33 75.75 C 110.86 76.81 110.39 77.88 109.93 78.95 C 109.21 78.96 107.77 78.99 107.05 79.01 C 105.57 76.86 105.66 74.09 107.04 71.92 Z" />
</g>
<g id="#d57c00ff">
<path fill="#d57c00" opacity="1.00" d=" M 97.00 90.12 C 98.62 90.10 100.24 90.08 101.86 90.07 C 107.61 90.01 113.36 90.10 119.12 89.93 L 120.00 90.63 L 120.00 95.43 L 119.82 95.00 C 118.32 92.14 114.60 93.50 112.01 93.16 C 108.61 93.50 104.56 92.41 101.69 94.74 C 100.35 96.86 100.83 99.59 100.70 101.99 C 100.96 107.58 100.42 113.18 100.76 118.77 C 99.51 119.02 98.24 119.19 96.98 119.39 L 96.99 118.07 C 97.02 113.53 97.04 108.99 97.01 104.46 C 96.99 99.68 97.00 94.90 97.00 90.12 Z" />
</g>
<g id="#ff9500ff">
<path fill="#ff9500" opacity="1.00" d=" M 101.69 94.74 C 104.56 92.41 108.61 93.50 112.01 93.16 C 114.60 93.50 118.32 92.14 119.82 95.00 C 119.13 105.91 111.54 116.09 100.76 118.77 C 100.42 113.18 100.96 107.58 100.70 101.99 C 100.83 99.59 100.35 96.86 101.69 94.74 M 106.00 98.91 C 105.99 101.30 105.99 103.70 106.00 106.09 C 107.63 105.81 109.82 106.53 110.85 104.82 C 111.13 103.28 111.12 101.68 110.86 100.14 C 109.83 98.45 107.62 99.21 106.00 98.91 Z" />
</g>
<g id="#8d5200ff">
<path fill="#8d5200" opacity="1.00" d=" M 106.00 98.91 C 107.62 99.21 109.83 98.45 110.86 100.14 C 111.12 101.68 111.13 103.28 110.85 104.82 C 109.82 106.53 107.63 105.81 106.00 106.09 C 105.99 103.70 105.99 101.30 106.00 98.91 M 107.04 99.84 C 107.03 101.58 107.01 103.32 106.99 105.06 C 107.71 104.98 109.16 104.83 109.88 104.76 C 110.27 102.45 110.24 99.44 107.04 99.84 Z" />
</g>
<g id="#fd9400ff">
<path fill="#fd9400" opacity="1.00" d=" M 107.04 99.84 C 110.24 99.44 110.27 102.45 109.88 104.76 C 109.16 104.83 107.71 104.98 106.99 105.06 C 107.01 103.32 107.03 101.58 107.04 99.84 Z" />
</g>
</svg>
