<?xml version="1.0" encoding="UTF-8" ?>
<!DOCTYPE svg PUBLIC "-//W3C//DTD SVG 1.1//EN" "http://www.w3.org/Graphics/SVG/1.1/DTD/svg11.dtd">
<svg width="390pt" height="323pt" viewBox="0 0 390 323" version="1.1" xmlns="http://www.w3.org/2000/svg">
<g id="#ffd52fff">
<path fill="#ffd52f" opacity="1.00" d=" M 181.47 10.62 C 196.20 4.51 213.21 4.24 228.08 10.06 C 240.49 14.73 250.76 23.75 259.07 33.89 C 268.70 45.60 273.64 60.90 273.16 76.01 C 272.28 84.80 270.78 93.51 269.21 102.18 C 268.17 106.22 266.15 109.91 264.18 113.55 C 260.78 119.47 257.00 125.21 254.49 131.59 C 250.28 141.68 241.89 149.14 236.73 158.68 C 235.69 159.35 234.62 159.98 233.56 160.62 C 214.63 160.58 195.70 160.67 176.77 160.57 C 174.43 157.54 171.64 154.83 169.73 151.48 C 165.51 143.84 159.81 137.15 155.16 129.77 C 151.94 125.26 148.21 121.09 145.59 116.17 C 138.66 104.36 137.14 90.40 136.77 76.98 C 137.29 63.58 140.07 49.88 147.30 38.41 C 155.11 25.57 167.81 16.42 181.47 10.62 M 192.84 46.81 C 180.55 51.16 171.65 63.87 172.61 77.00 C 173.11 84.15 175.66 92.05 181.97 96.11 C 184.92 98.94 188.21 101.47 192.07 102.91 C 193.33 103.39 194.62 103.79 195.86 104.33 C 203.36 105.28 211.36 105.38 218.05 101.36 C 229.33 95.25 235.61 81.35 232.59 68.87 C 230.62 59.06 223.23 50.72 213.95 47.14 C 207.25 44.57 199.64 44.71 192.84 46.81 Z" />
</g>
<g id="#ff4c3eff">
<path fill="#ff4c3e" opacity="1.00" d=" M 303.38 113.68 C 304.56 112.96 305.84 112.47 307.08 111.88 C 308.29 112.32 309.63 112.55 310.72 113.29 C 311.83 115.09 311.64 117.40 312.76 119.21 C 318.24 128.28 324.17 137.08 329.41 146.30 C 330.97 150.27 333.39 153.80 335.57 157.44 C 339.57 163.71 343.15 170.27 347.56 176.27 C 349.10 182.13 353.87 186.37 355.90 192.01 C 357.08 195.40 353.02 196.39 351.05 198.06 C 343.32 203.91 335.36 209.49 327.78 215.54 C 321.76 218.00 317.37 223.23 311.87 226.55 C 303.87 230.76 297.83 237.83 289.76 241.95 C 287.74 242.85 285.58 244.58 283.27 243.73 C 280.80 241.40 279.44 238.20 277.65 235.37 C 273.23 227.85 267.82 220.94 263.84 213.16 C 258.86 203.42 252.41 194.56 246.92 185.11 C 243.37 179.13 240.06 172.97 235.65 167.55 C 234.91 165.25 234.22 162.94 233.56 160.62 C 234.62 159.98 235.69 159.35 236.73 158.68 C 244.56 153.59 252.19 148.22 259.78 142.80 C 271.12 136.48 281.39 128.47 292.11 121.18 C 296.04 118.94 299.71 116.30 303.38 113.68 Z" />
</g>
<g id="#613735ff">
<path fill="#613735" opacity="1.00" d=" M 264.18 113.55 C 277.25 113.62 290.32 113.62 303.38 113.68 C 299.71 116.30 296.04 118.94 292.11 121.18 C 281.39 128.47 271.12 136.48 259.78 142.80 C 252.19 148.22 244.56 153.59 236.73 158.68 C 241.89 149.14 250.28 141.68 254.49 131.59 C 257.00 125.21 260.78 119.47 264.18 113.55 Z" />
<path fill="#613735" opacity="1.00" d=" M 112.72 138.54 C 124.35 132.09 134.60 123.57 145.59 116.17 C 148.21 121.09 151.94 125.26 155.16 129.77 C 159.81 137.15 165.51 143.84 169.73 151.48 C 171.64 154.83 174.43 157.54 176.77 160.57 C 147.52 160.57 118.27 160.78 89.01 160.64 C 86.58 160.62 84.15 160.64 81.73 160.84 C 81.99 160.34 82.51 159.33 82.76 158.83 C 93.24 152.81 103.18 145.93 112.72 138.54 Z" />
</g>
<g id="#ff1300ff">
<path fill="#ff1300" opacity="1.00" d=" M 79.58 164.35 C 79.84 162.97 80.06 161.14 81.73 160.84 C 84.15 160.64 86.58 160.62 89.01 160.64 C 118.27 160.78 147.52 160.57 176.77 160.57 C 195.70 160.67 214.63 160.58 233.56 160.62 C 234.22 162.94 234.91 165.25 235.65 167.55 C 235.55 209.69 235.66 251.83 235.60 293.97 C 235.53 298.16 235.29 302.45 236.71 306.47 L 236.76 306.66 C 189.51 306.46 142.25 306.64 94.99 306.57 C 90.37 306.49 85.66 306.97 81.13 305.85 C 79.43 304.98 79.75 302.63 79.58 301.03 C 79.61 274.23 79.58 247.42 79.60 220.62 C 79.59 201.86 79.60 183.11 79.58 164.35 M 90.27 190.27 C 90.26 218.84 90.28 247.42 90.26 275.99 C 94.33 276.00 98.40 276.00 102.47 276.00 C 102.48 257.58 102.45 239.15 102.48 220.73 C 104.49 220.73 106.51 220.73 108.52 220.74 C 108.54 224.82 108.53 228.91 108.54 233.00 C 110.60 233.00 112.67 233.00 114.74 233.01 C 114.73 237.09 114.73 241.18 114.74 245.26 C 118.82 245.27 122.91 245.27 127.00 245.27 C 127.00 241.18 127.00 237.09 127.00 233.00 C 129.00 233.00 131.00 233.00 133.00 233.00 C 133.00 228.91 133.00 224.82 133.00 220.73 C 135.09 220.73 137.17 220.73 139.26 220.74 C 139.27 239.15 139.27 257.57 139.26 275.99 C 143.33 276.00 147.40 276.00 151.46 276.00 C 151.49 247.41 151.43 218.83 151.49 190.25 C 147.42 190.28 143.34 190.26 139.27 190.27 C 139.27 192.27 139.26 194.26 139.26 196.26 C 137.17 196.26 135.09 196.26 133.01 196.26 C 133.00 200.36 133.00 204.45 132.99 208.54 C 130.99 208.53 129.00 208.53 127.00 208.53 C 127.00 212.60 127.00 216.67 126.99 220.74 C 122.91 220.73 118.82 220.73 114.74 220.74 C 114.73 216.66 114.72 212.58 114.75 208.50 C 112.66 208.52 110.57 208.53 108.48 208.54 C 108.46 204.44 108.45 200.34 108.49 196.25 C 106.49 196.26 104.48 196.26 102.47 196.27 C 102.47 194.26 102.47 192.25 102.49 190.24 C 98.41 190.28 94.34 190.26 90.27 190.27 M 164.27 190.27 C 164.26 194.35 164.27 198.42 164.26 202.50 C 178.50 202.41 192.74 202.50 206.99 202.46 C 207.01 206.55 207.00 210.64 206.99 214.74 C 204.99 214.73 203.00 214.73 201.01 214.73 C 201.00 216.73 200.99 218.73 200.99 220.74 C 198.90 220.73 196.82 220.73 194.74 220.74 C 194.73 222.82 194.73 224.90 194.74 226.99 C 192.73 226.99 190.73 227.00 188.74 227.00 C 188.73 231.07 188.70 235.15 188.78 239.22 C 186.68 239.25 184.59 239.26 182.50 239.27 C 182.52 241.26 182.53 243.26 182.54 245.26 C 180.52 245.26 178.51 245.26 176.50 245.26 C 176.52 247.35 176.53 249.45 176.53 251.54 C 174.45 251.53 172.37 251.50 170.30 251.46 C 170.25 255.55 170.27 259.64 170.27 263.73 C 168.26 263.73 166.26 263.73 164.27 263.74 C 164.27 267.82 164.27 271.91 164.26 275.99 C 184.66 276.01 205.06 276.00 225.46 276.00 C 225.47 271.91 225.47 267.82 225.46 263.73 C 211.13 263.73 196.80 263.73 182.46 263.73 C 182.47 259.64 182.46 255.55 182.48 251.46 C 184.57 251.46 186.66 251.48 188.75 251.50 C 188.73 249.43 188.72 247.37 188.70 245.31 C 190.71 245.28 192.72 245.26 194.74 245.25 C 194.73 243.26 194.73 241.26 194.73 239.28 C 196.82 239.27 198.91 239.26 201.01 239.25 C 200.99 235.17 201.00 231.08 201.00 227.00 C 203.00 227.00 205.00 227.00 207.00 227.00 C 207.00 224.91 207.00 222.82 207.00 220.74 C 209.09 220.73 211.18 220.73 213.27 220.73 C 213.27 218.72 213.27 216.73 213.27 214.73 C 215.26 214.73 217.26 214.73 219.26 214.74 C 219.27 210.64 219.27 206.55 219.27 202.46 C 221.34 202.46 223.41 202.47 225.49 202.48 C 225.45 198.41 225.44 194.34 225.51 190.27 C 205.10 190.26 184.68 190.27 164.27 190.27 Z" />
</g>
<g id="#271515ff">
<path fill="#271515" opacity="1.00" d=" M 74.58 174.65 C 76.47 171.32 77.41 167.53 79.58 164.35 C 79.60 183.11 79.59 201.86 79.60 220.62 C 69.07 228.52 57.76 235.30 47.22 243.19 C 45.73 244.70 42.25 244.42 41.99 241.96 C 40.89 238.26 43.66 235.29 45.38 232.37 C 48.31 223.84 53.49 216.32 56.97 208.03 C 63.54 197.28 68.15 185.47 74.58 174.65 Z" />
</g>
<g id="#cd3e33ff">
<path fill="#cd3e33" opacity="1.00" d=" M 235.65 167.55 C 240.06 172.97 243.37 179.13 246.92 185.11 C 252.41 194.56 258.86 203.42 263.84 213.16 C 267.82 220.94 273.23 227.85 277.65 235.37 C 279.44 238.20 280.80 241.40 283.27 243.73 C 285.58 244.58 287.74 242.85 289.76 241.95 C 297.83 237.83 303.87 230.76 311.87 226.55 C 311.91 235.03 311.65 243.53 312.35 251.99 C 312.50 254.37 310.37 255.77 308.47 256.61 C 297.48 264.90 286.07 272.70 275.33 281.36 C 263.70 288.83 253.43 298.21 241.80 305.66 C 240.30 306.70 238.40 306.33 236.71 306.47 C 235.29 302.45 235.53 298.16 235.60 293.97 C 235.66 251.83 235.55 209.69 235.65 167.55 Z" />
</g>
<g id="#ffffffff">
<path fill="#ffffff" opacity="1.00" d=" M 90.27 190.27 C 94.34 190.26 98.41 190.28 102.49 190.24 C 102.47 192.25 102.47 194.26 102.47 196.27 C 104.48 196.26 106.49 196.26 108.49 196.25 C 108.45 200.34 108.46 204.44 108.48 208.54 C 110.57 208.53 112.66 208.52 114.75 208.50 C 114.72 212.58 114.73 216.66 114.74 220.74 C 118.82 220.73 122.91 220.73 126.99 220.74 C 127.00 216.67 127.00 212.60 127.00 208.53 C 129.00 208.53 130.99 208.53 132.99 208.54 C 133.00 204.45 133.00 200.36 133.01 196.26 C 135.09 196.26 137.17 196.26 139.26 196.26 C 139.26 194.26 139.27 192.27 139.27 190.27 C 143.34 190.26 147.42 190.28 151.49 190.25 C 151.43 218.83 151.49 247.41 151.46 276.00 C 147.40 276.00 143.33 276.00 139.26 275.99 C 139.27 257.57 139.27 239.15 139.26 220.74 C 137.17 220.73 135.09 220.73 133.00 220.73 C 133.00 224.82 133.00 228.91 133.00 233.00 C 131.00 233.00 129.00 233.00 127.00 233.00 C 127.00 237.09 127.00 241.18 127.00 245.27 C 122.91 245.27 118.82 245.27 114.74 245.26 C 114.73 241.18 114.73 237.09 114.74 233.01 C 112.67 233.00 110.60 233.00 108.54 233.00 C 108.53 228.91 108.54 224.82 108.52 220.74 C 106.51 220.73 104.49 220.73 102.48 220.73 C 102.45 239.15 102.48 257.58 102.47 276.00 C 98.40 276.00 94.33 276.00 90.26 275.99 C 90.28 247.42 90.26 218.84 90.27 190.27 Z" />
<path fill="#ffffff" opacity="1.00" d=" M 164.27 190.27 C 184.68 190.27 205.10 190.26 225.51 190.27 C 225.44 194.34 225.45 198.41 225.49 202.48 C 223.41 202.47 221.34 202.46 219.27 202.46 C 219.27 206.55 219.27 210.64 219.26 214.74 C 217.26 214.73 215.26 214.73 213.27 214.73 C 213.27 216.73 213.27 218.72 213.27 220.73 C 211.18 220.73 209.09 220.73 207.00 220.74 C 207.00 222.82 207.00 224.91 207.00 227.00 C 205.00 227.00 203.00 227.00 201.00 227.00 C 201.00 231.08 200.99 235.17 201.01 239.25 C 198.91 239.26 196.82 239.27 194.73 239.28 C 194.73 241.26 194.73 243.26 194.74 245.25 C 192.72 245.26 190.71 245.28 188.70 245.31 C 188.72 247.37 188.73 249.43 188.75 251.50 C 186.66 251.48 184.57 251.46 182.48 251.46 C 182.46 255.55 182.47 259.64 182.46 263.73 C 196.80 263.73 211.13 263.73 225.46 263.73 C 225.47 267.82 225.47 271.91 225.46 276.00 C 205.06 276.00 184.66 276.01 164.26 275.99 C 164.27 271.91 164.27 267.82 164.27 263.74 C 166.26 263.73 168.26 263.73 170.27 263.73 C 170.27 259.64 170.25 255.55 170.30 251.46 C 172.37 251.50 174.45 251.53 176.53 251.54 C 176.53 249.45 176.52 247.35 176.50 245.26 C 178.51 245.26 180.52 245.26 182.54 245.26 C 182.53 243.26 182.52 241.26 182.50 239.27 C 184.59 239.26 186.68 239.25 188.78 239.22 C 188.70 235.15 188.73 231.07 188.74 227.00 C 190.73 227.00 192.73 226.99 194.74 226.99 C 194.73 224.90 194.73 222.82 194.74 220.74 C 196.82 220.73 198.90 220.73 200.99 220.74 C 200.99 218.73 201.00 216.73 201.01 214.73 C 203.00 214.73 204.99 214.73 206.99 214.74 C 207.00 210.64 207.01 206.55 206.99 202.46 C 192.74 202.50 178.50 202.41 164.26 202.50 C 164.27 198.42 164.26 194.35 164.27 190.27 Z" />
</g>
</svg>
