<?xml version="1.0" encoding="UTF-8" ?>
<!DOCTYPE svg PUBLIC "-//W3C//DTD SVG 1.1//EN" "http://www.w3.org/Graphics/SVG/1.1/DTD/svg11.dtd">
<svg width="120pt" height="120pt" viewBox="0 0 120 120" version="1.1" xmlns="http://www.w3.org/2000/svg">
<g id="#cdced0ff">
<path fill="#cdced0" opacity="1.00" d=" M 22.38 1.42 C 25.50 0.46 28.80 0.78 32.02 0.67 C 50.67 0.65 69.33 0.65 87.99 0.67 C 91.19 0.78 94.49 0.46 97.60 1.41 C 101.63 1.98 105.29 3.70 108.64 5.95 C 110.54 7.64 112.35 9.46 114.04 11.37 C 116.28 14.71 117.99 18.38 118.54 22.40 C 119.14 24.19 119.21 26.09 119.23 27.96 C 119.30 36.06 119.18 44.16 119.20 52.27 C 116.76 52.79 114.32 53.32 111.88 53.83 C 111.23 52.21 110.55 50.59 109.95 48.95 C 109.86 48.59 109.68 47.88 109.59 47.52 C 106.63 47.51 103.67 47.46 100.72 47.27 C 102.79 44.98 105.19 43.02 107.74 41.26 C 107.17 39.95 106.62 38.64 106.06 37.33 C 103.06 37.92 100.04 38.45 96.99 38.74 C 98.82 36.30 100.82 33.98 102.86 31.72 C 102.08 30.54 101.29 29.37 100.50 28.20 C 97.71 29.40 94.92 30.58 92.07 31.63 C 93.26 28.70 94.68 25.87 96.20 23.10 C 95.22 22.23 94.24 21.37 93.25 20.51 C 90.70 22.34 88.11 24.13 85.39 25.70 C 85.68 22.43 86.57 19.26 87.59 16.15 C 86.50 15.48 85.41 14.81 84.32 14.14 C 82.18 16.51 80.01 18.86 77.67 21.03 C 76.99 17.73 77.29 14.36 77.61 11.05 C 76.42 10.66 75.23 10.28 74.04 9.90 C 72.21 12.27 71.49 16.46 68.42 17.26 C 67.71 14.33 67.40 11.33 67.01 8.35 C 65.79 8.26 64.57 8.17 63.35 8.08 C 62.36 11.15 61.29 14.20 59.97 17.15 C 58.28 14.30 57.10 11.20 56.11 8.06 C 54.89 8.18 53.67 8.31 52.45 8.44 C 52.11 11.68 51.98 15.06 50.40 18.00 C 48.65 15.41 47.03 12.73 45.42 10.04 C 44.28 10.44 43.14 10.83 42.00 11.22 C 42.22 14.45 42.40 17.68 42.37 20.91 C 40.01 18.79 37.82 16.50 35.69 14.14 C 34.59 14.81 33.49 15.49 32.39 16.16 C 33.33 19.19 34.26 22.23 34.92 25.35 C 31.97 24.14 29.32 22.37 26.80 20.44 C 25.81 21.32 24.82 22.21 23.83 23.10 C 25.19 25.89 27.45 28.46 27.63 31.67 C 24.69 31.03 21.97 29.72 19.21 28.57 C 18.44 29.72 17.67 30.88 16.91 32.03 C 18.98 34.32 20.98 36.67 22.81 39.16 C 19.82 38.73 16.83 38.23 13.86 37.67 C 13.28 38.93 12.71 40.20 12.13 41.48 C 14.65 43.30 17.11 45.21 19.33 47.38 C 16.33 47.58 13.32 47.66 10.32 47.71 L 10.08 48.83 C 9.46 50.45 8.77 52.05 8.09 53.65 C 5.66 53.61 3.23 53.58 0.80 53.55 C 0.82 45.38 0.72 37.20 0.76 29.03 C 0.78 26.81 0.74 24.54 1.45 22.40 C 1.95 19.63 2.85 16.95 3.97 14.37 C 4.75 13.45 5.51 12.48 5.97 11.35 C 7.66 9.45 9.46 7.65 11.36 5.96 C 12.48 5.49 13.44 4.75 14.36 3.96 C 16.93 2.81 19.60 1.90 22.38 1.42 Z" />
<path fill="#cdced0" opacity="1.00" d=" M 31.81 35.83 C 40.21 25.07 54.84 20.19 68.11 23.08 C 66.75 28.54 64.67 33.78 63.05 39.16 C 56.41 38.42 49.73 40.59 44.91 45.23 C 40.55 42.08 36.22 38.89 31.81 35.83 Z" />
<path fill="#cdced0" opacity="1.00" d=" M 74.04 25.10 C 86.90 30.49 95.82 43.46 96.75 57.31 C 91.49 57.29 86.23 57.31 80.97 57.29 C 79.98 50.26 75.37 44.11 69.05 40.95 C 70.62 35.64 72.44 30.41 74.04 25.10 Z" />
<path fill="#cdced0" opacity="1.00" d=" M 28.15 40.80 C 32.53 43.77 36.70 47.03 41.05 50.06 C 40.15 52.91 39.54 55.83 38.71 58.70 C 38.26 59.98 37.75 61.25 37.25 62.52 C 32.52 62.54 27.85 61.64 23.13 61.42 C 23.10 54.23 24.81 47.16 28.15 40.80 Z" />
</g>
<g id="#333435ff">
<path fill="#333435" opacity="1.00" d=" M 52.45 8.44 C 53.67 8.31 54.89 8.18 56.11 8.06 C 57.10 11.20 58.28 14.30 59.97 17.15 C 61.29 14.20 62.36 11.15 63.35 8.08 C 64.57 8.17 65.79 8.26 67.01 8.35 C 67.40 11.33 67.71 14.33 68.42 17.26 C 71.49 16.46 72.21 12.27 74.04 9.90 C 75.23 10.28 76.42 10.66 77.61 11.05 C 77.29 14.36 76.99 17.73 77.67 21.03 C 80.01 18.86 82.18 16.51 84.32 14.14 C 85.41 14.81 86.50 15.48 87.59 16.15 C 86.57 19.26 85.68 22.43 85.39 25.70 C 88.11 24.13 90.70 22.34 93.25 20.51 C 94.24 21.37 95.22 22.23 96.20 23.10 C 94.68 25.87 93.26 28.70 92.07 31.63 C 94.92 30.58 97.71 29.40 100.50 28.20 C 101.29 29.37 102.08 30.54 102.86 31.72 C 100.82 33.98 98.82 36.30 96.99 38.74 C 100.04 38.45 103.06 37.92 106.06 37.33 C 106.62 38.64 107.17 39.95 107.74 41.26 C 105.19 43.02 102.79 44.98 100.72 47.27 C 103.67 47.46 106.63 47.51 109.59 47.52 C 109.68 47.88 109.86 48.59 109.95 48.95 C 110.05 49.66 110.25 51.08 110.35 51.79 C 107.84 52.91 105.27 53.96 102.93 55.42 C 103.00 55.69 103.14 56.22 103.21 56.48 C 105.68 57.41 108.30 57.88 110.88 58.44 C 110.90 59.86 110.92 61.27 110.94 62.68 C 108.00 63.33 105.07 64.06 102.18 64.89 C 104.83 66.50 107.57 67.94 110.39 69.24 C 109.92 70.52 109.71 71.94 108.94 73.08 C 106.12 73.43 103.27 73.31 100.43 73.42 C 102.30 75.97 104.78 77.95 107.30 79.81 C 106.80 81.02 106.31 82.22 105.83 83.43 C 102.72 82.87 99.62 82.32 96.48 81.96 C 98.13 84.64 100.07 87.12 102.12 89.49 C 101.39 90.60 100.65 91.71 99.91 92.83 C 97.04 91.60 94.16 90.38 91.23 89.29 C 92.46 92.19 93.86 95.02 95.34 97.80 C 94.31 98.69 93.28 99.58 92.25 100.47 C 89.77 98.54 87.18 96.73 84.46 95.14 C 85.05 98.35 85.88 101.51 86.86 104.62 C 85.66 105.06 84.56 106.11 83.25 106.08 C 80.88 104.12 78.95 101.69 76.76 99.54 C 76.81 102.75 77.02 105.95 77.28 109.14 C 76.05 109.60 74.83 110.07 73.60 110.53 C 71.94 107.76 70.35 104.95 68.64 102.22 C 67.53 105.26 67.27 108.50 66.57 111.64 C 65.36 111.96 64.15 112.24 62.92 112.47 C 61.97 109.34 60.87 106.27 59.55 103.28 C 58.48 106.05 57.75 108.96 56.34 111.58 C 55.28 112.41 53.71 111.76 52.46 111.94 C 52.17 108.61 51.99 105.19 50.52 102.12 C 48.82 104.71 47.26 107.37 45.71 110.05 C 44.40 109.69 43.09 109.32 41.77 108.96 C 42.14 105.78 42.44 102.60 42.59 99.41 C 39.83 101.06 37.63 103.40 35.61 105.87 C 34.44 105.20 33.28 104.53 32.11 103.86 C 33.11 100.74 34.02 97.58 34.67 94.37 C 31.84 95.73 29.21 97.46 26.73 99.39 C 25.65 98.56 24.57 97.73 23.50 96.91 C 25.00 94.10 26.55 91.30 27.99 88.46 C 25.05 89.37 22.19 90.50 19.40 91.81 C 18.67 90.62 17.88 89.45 17.31 88.18 C 19.17 85.73 21.30 83.49 22.85 80.83 C 19.93 81.47 17.06 82.29 14.19 83.14 C 13.67 81.84 13.16 80.54 12.65 79.23 C 15.17 77.50 17.56 75.56 19.64 73.31 C 16.77 73.17 13.88 73.29 11.03 72.87 C 10.07 71.90 10.11 70.30 9.58 69.08 C 12.48 67.85 15.40 66.54 17.73 64.38 C 14.91 63.63 12.06 63.01 9.20 62.44 C 9.14 61.05 9.08 59.65 9.02 58.26 C 11.98 57.63 14.92 56.83 17.73 55.68 C 15.07 54.37 12.37 53.14 9.66 51.94 C 9.76 51.16 9.97 49.61 10.08 48.83 L 10.32 47.71 C 13.32 47.66 16.33 47.58 19.33 47.38 C 17.11 45.21 14.65 43.30 12.13 41.48 C 12.71 40.20 13.28 38.93 13.86 37.67 C 16.83 38.23 19.82 38.73 22.81 39.16 C 20.98 36.67 18.98 34.32 16.91 32.03 C 17.67 30.88 18.44 29.72 19.21 28.57 C 21.97 29.72 24.69 31.03 27.63 31.67 C 27.45 28.46 25.19 25.89 23.83 23.10 C 24.82 22.21 25.81 21.32 26.80 20.44 C 29.32 22.37 31.97 24.14 34.92 25.35 C 34.26 22.23 33.33 19.19 32.39 16.16 C 33.49 15.49 34.59 14.81 35.69 14.14 C 37.82 16.50 40.01 18.79 42.37 20.91 C 42.40 17.68 42.22 14.45 42.00 11.22 C 43.14 10.83 44.28 10.44 45.42 10.04 C 47.03 12.73 48.65 15.41 50.40 18.00 C 51.98 15.06 52.11 11.68 52.45 8.44 M 31.81 35.83 C 36.22 38.89 40.55 42.08 44.91 45.23 C 49.73 40.59 56.41 38.42 63.05 39.16 C 64.67 33.78 66.75 28.54 68.11 23.08 C 54.84 20.19 40.21 25.07 31.81 35.83 M 74.04 25.10 C 72.44 30.41 70.62 35.64 69.05 40.95 C 75.37 44.11 79.98 50.26 80.97 57.29 C 86.23 57.31 91.49 57.29 96.75 57.31 C 95.82 43.46 86.90 30.49 74.04 25.10 M 28.15 40.80 C 24.81 47.16 23.10 54.23 23.13 61.42 C 23.25 67.98 25.40 74.36 28.70 79.99 C 32.92 76.63 37.14 73.29 41.43 70.01 C 39.96 66.39 39.23 62.55 38.71 58.70 C 39.54 55.83 40.15 52.91 41.05 50.06 C 36.70 47.03 32.53 43.77 28.15 40.80 M 58.16 53.20 C 53.20 54.47 51.08 61.41 54.83 65.04 C 58.33 69.38 66.20 67.43 67.23 61.94 C 68.79 56.81 63.22 51.46 58.16 53.20 M 80.83 63.31 C 79.39 70.08 75.00 75.96 68.81 79.11 C 70.48 84.39 72.23 89.64 73.94 94.90 C 86.57 89.50 95.63 77.06 96.86 63.37 C 91.52 63.32 86.17 63.38 80.83 63.31 M 32.38 85.01 C 41.04 94.85 54.95 99.68 67.82 96.78 C 66.13 91.49 64.45 86.20 62.81 80.89 C 56.53 81.33 50.06 79.50 45.52 75.00 C 41.06 78.23 36.76 81.67 32.38 85.01 Z" />
<path fill="#333435" opacity="1.00" d=" M 58.41 57.63 C 60.50 55.75 64.03 58.28 63.08 60.89 C 62.77 63.23 59.22 63.93 57.91 62.08 C 56.55 60.87 56.99 58.61 58.41 57.63 Z" />
</g>
<g id="#999c9fff">
<path fill="#999c9f" opacity="1.00" d=" M 8.09 53.65 C 8.77 52.05 9.46 50.45 10.08 48.83 C 9.97 49.61 9.76 51.16 9.66 51.94 C 12.37 53.14 15.07 54.37 17.73 55.68 C 14.92 56.83 11.98 57.63 9.02 58.26 C 9.08 59.65 9.14 61.05 9.20 62.44 C 12.06 63.01 14.91 63.63 17.73 64.38 C 15.40 66.54 12.48 67.85 9.58 69.08 C 10.11 70.30 10.07 71.90 11.03 72.87 C 13.88 73.29 16.77 73.17 19.64 73.31 C 17.56 75.56 15.17 77.50 12.65 79.23 C 13.16 80.54 13.67 81.84 14.19 83.14 C 17.06 82.29 19.93 81.47 22.85 80.83 C 21.30 83.49 19.17 85.73 17.31 88.18 C 17.88 89.45 18.67 90.62 19.40 91.81 C 22.19 90.50 25.05 89.37 27.99 88.46 C 26.55 91.30 25.00 94.10 23.50 96.91 C 24.57 97.73 25.65 98.56 26.73 99.39 C 29.21 97.46 31.84 95.73 34.67 94.37 C 34.02 97.58 33.11 100.74 32.11 103.86 C 33.28 104.53 34.44 105.20 35.61 105.87 C 37.63 103.40 39.83 101.06 42.59 99.41 C 42.44 102.60 42.14 105.78 41.77 108.96 C 43.09 109.32 44.40 109.69 45.71 110.05 C 47.26 107.37 48.82 104.71 50.52 102.12 C 51.99 105.19 52.17 108.61 52.46 111.94 C 53.71 111.76 55.28 112.41 56.34 111.58 C 57.75 108.96 58.48 106.05 59.55 103.28 C 60.87 106.27 61.97 109.34 62.92 112.47 C 64.15 112.24 65.36 111.96 66.57 111.64 C 67.27 108.50 67.53 105.26 68.64 102.22 C 70.35 104.95 71.94 107.76 73.60 110.53 C 74.83 110.07 76.05 109.60 77.28 109.14 C 77.02 105.95 76.81 102.75 76.76 99.54 C 78.95 101.69 80.88 104.12 83.25 106.08 C 84.56 106.11 85.66 105.06 86.86 104.62 C 85.88 101.51 85.05 98.35 84.46 95.14 C 87.18 96.73 89.77 98.54 92.25 100.47 C 93.28 99.58 94.31 98.69 95.34 97.80 C 93.86 95.02 92.46 92.19 91.23 89.29 C 94.16 90.38 97.04 91.60 99.91 92.83 C 100.65 91.71 101.39 90.60 102.12 89.49 C 100.07 87.12 98.13 84.64 96.48 81.96 C 99.62 82.32 102.72 82.87 105.83 83.43 C 106.31 82.22 106.80 81.02 107.30 79.81 C 104.78 77.95 102.30 75.97 100.43 73.42 C 103.27 73.31 106.12 73.43 108.94 73.08 C 109.71 71.94 109.92 70.52 110.39 69.24 C 107.57 67.94 104.83 66.50 102.18 64.89 C 105.07 64.06 108.00 63.33 110.94 62.68 C 110.92 61.27 110.90 59.86 110.88 58.44 C 108.30 57.88 105.68 57.41 103.21 56.48 C 103.14 56.22 103.00 55.69 102.93 55.42 C 105.27 53.96 107.84 52.91 110.35 51.79 C 110.25 51.08 110.05 49.66 109.95 48.95 C 110.55 50.59 111.23 52.21 111.88 53.83 C 114.32 53.32 116.76 52.79 119.20 52.27 C 119.20 64.85 119.09 77.44 119.10 90.03 C 119.08 91.61 119.16 93.28 118.19 94.64 C 118.00 96.66 118.39 98.84 117.21 100.63 C 117.13 101.08 116.98 101.99 116.90 102.44 C 116.35 103.45 115.82 104.46 115.31 105.48 C 113.39 108.76 110.29 111.09 107.61 113.71 C 106.52 114.32 105.49 115.02 104.47 115.75 C 103.45 116.02 102.44 116.31 101.43 116.62 C 100.40 117.00 99.38 117.42 98.38 117.87 C 95.72 118.18 92.74 117.26 90.38 118.87 C 70.13 119.01 49.87 119.00 29.62 118.87 C 27.26 117.25 24.28 118.18 21.62 117.87 C 20.62 117.42 19.60 117.00 18.57 116.62 C 17.56 116.31 16.55 116.01 15.52 115.74 C 14.51 115.02 13.48 114.32 12.39 113.71 C 9.71 111.09 6.61 108.76 4.69 105.49 C 4.18 104.46 3.65 103.45 3.10 102.45 C 3.02 101.99 2.87 101.08 2.79 100.62 C 1.58 98.85 2.01 96.65 1.81 94.64 C 0.66 92.97 0.97 90.91 0.90 89.01 C 0.91 77.19 0.80 65.37 0.80 53.55 C 3.23 53.58 5.66 53.61 8.09 53.65 Z" />
<path fill="#999c9f" opacity="1.00" d=" M 58.16 53.20 C 63.22 51.46 68.79 56.81 67.23 61.94 C 66.20 67.43 58.33 69.38 54.83 65.04 C 51.08 61.41 53.20 54.47 58.16 53.20 M 58.41 57.63 C 56.99 58.61 56.55 60.87 57.91 62.08 C 59.22 63.93 62.77 63.23 63.08 60.89 C 64.03 58.28 60.50 55.75 58.41 57.63 Z" />
<path fill="#999c9f" opacity="1.00" d=" M 37.25 62.52 C 37.75 61.25 38.26 59.98 38.71 58.70 C 39.23 62.55 39.96 66.39 41.43 70.01 C 37.14 73.29 32.92 76.63 28.70 79.99 C 25.40 74.36 23.25 67.98 23.13 61.42 C 27.85 61.64 32.52 62.54 37.25 62.52 Z" />
<path fill="#999c9f" opacity="1.00" d=" M 80.83 63.31 C 86.17 63.38 91.52 63.32 96.86 63.37 C 95.63 77.06 86.57 89.50 73.94 94.90 C 72.23 89.64 70.48 84.39 68.81 79.11 C 75.00 75.96 79.39 70.08 80.83 63.31 Z" />
<path fill="#999c9f" opacity="1.00" d=" M 32.38 85.01 C 36.76 81.67 41.06 78.23 45.52 75.00 C 50.06 79.50 56.53 81.33 62.81 80.89 C 64.45 86.20 66.13 91.49 67.82 96.78 C 54.95 99.68 41.04 94.85 32.38 85.01 Z" />
</g>
</svg>
