<?xml version="1.0" encoding="UTF-8" ?>
<!DOCTYPE svg PUBLIC "-//W3C//DTD SVG 1.1//EN" "http://www.w3.org/Graphics/SVG/1.1/DTD/svg11.dtd">
<svg width="120pt" height="120pt" viewBox="0 0 120 120" version="1.1" xmlns="http://www.w3.org/2000/svg">
<g id="#1964d5e1">
<path fill="#1964d5" opacity="0.88" d=" M 0.00 0.00 L 120.00 0.00 L 120.00 120.00 L 0.00 120.00 L 0.00 0.00 M 15.30 3.70 C 7.11 7.52 1.84 16.15 1.07 25.01 C 0.87 43.32 1.52 61.64 1.40 79.95 C 4.22 80.88 7.23 80.66 10.00 79.67 C 16.12 81.54 22.57 79.77 28.82 80.76 C 31.13 85.08 35.96 88.24 40.95 87.87 C 55.66 87.98 70.35 88.03 85.05 87.87 C 90.31 88.17 95.41 85.30 98.67 81.31 C 101.35 82.28 104.18 82.92 106.95 81.91 C 110.78 82.89 114.80 82.65 118.56 81.49 C 118.52 63.00 119.06 44.52 118.96 26.03 C 119.14 22.03 117.35 18.32 115.97 14.66 C 111.97 6.85 103.63 1.68 94.96 1.01 C 71.96 0.98 48.95 1.01 25.95 1.00 C 22.21 0.81 18.72 2.41 15.30 3.70 Z" />
</g>
<g id="#1bbcfaff">
<path fill="#1bbcfa" opacity="1.00" d=" M 15.30 3.70 C 18.72 2.41 22.21 0.81 25.95 1.00 C 48.95 1.01 71.96 0.98 94.96 1.01 C 103.63 1.68 111.97 6.85 115.97 14.66 C 117.35 18.32 119.14 22.03 118.96 26.03 C 119.06 44.52 118.52 63.00 118.56 81.49 C 114.80 82.65 110.78 82.89 106.95 81.91 C 104.18 82.92 101.35 82.28 98.67 81.31 C 103.35 75.78 104.37 67.44 100.95 61.03 C 97.74 54.45 90.54 50.83 83.41 50.57 C 79.30 43.21 71.63 37.33 62.92 37.45 C 54.46 36.83 46.09 41.51 41.68 48.65 C 39.63 52.00 38.87 55.89 38.14 59.69 C 34.95 61.06 31.62 62.65 29.67 65.67 C 26.27 69.90 26.21 76.12 28.82 80.76 C 22.57 79.77 16.12 81.54 10.00 79.67 C 7.23 80.66 4.22 80.88 1.40 79.95 C 1.52 61.64 0.87 43.32 1.07 25.01 C 1.84 16.15 7.11 7.52 15.30 3.70 M 17.13 45.90 C 16.35 53.79 20.37 61.74 26.78 66.27 C 28.99 62.42 32.34 58.97 36.85 58.04 C 37.48 52.41 39.63 46.80 43.65 42.71 C 47.68 38.38 53.40 36.15 59.18 35.44 C 54.84 29.26 47.63 24.90 39.96 25.06 C 28.51 24.79 17.94 34.50 17.13 45.90 Z" />
</g>
<g id="#ffffffff">
<path fill="#ffffff" opacity="1.00" d=" M 17.13 45.90 C 17.94 34.50 28.51 24.79 39.96 25.06 C 47.63 24.90 54.84 29.26 59.18 35.44 C 53.40 36.15 47.68 38.38 43.65 42.71 C 39.63 46.80 37.48 52.41 36.85 58.04 C 32.34 58.97 28.99 62.42 26.78 66.27 C 20.37 61.74 16.35 53.79 17.13 45.90 Z" />
</g>
<g id="#c6e4fdff">
<path fill="#c6e4fd" opacity="1.00" d=" M 41.68 48.65 C 46.09 41.51 54.46 36.83 62.92 37.45 C 71.63 37.33 79.30 43.21 83.41 50.57 C 90.54 50.83 97.74 54.45 100.95 61.03 C 104.37 67.44 103.35 75.78 98.67 81.31 C 95.41 85.30 90.31 88.17 85.05 87.87 C 70.35 88.03 55.66 87.98 40.95 87.87 C 35.96 88.24 31.13 85.08 28.82 80.76 C 26.21 76.12 26.27 69.90 29.67 65.67 C 31.62 62.65 34.95 61.06 38.14 59.69 C 38.87 55.89 39.63 52.00 41.68 48.65 Z" />
</g>
</svg>
