<?xml version="1.0" encoding="UTF-8" ?>
<!DOCTYPE svg PUBLIC "-//W3C//DTD SVG 1.1//EN" "http://www.w3.org/Graphics/SVG/1.1/DTD/svg11.dtd">
<svg width="120pt" height="120pt" viewBox="0 0 120 120" version="1.1" xmlns="http://www.w3.org/2000/svg">
<g id="#cfd0d2ff">
<path fill="#cfd0d2" opacity="1.00" d=" M 22.36 1.39 C 25.52 0.54 28.81 0.74 32.04 0.67 C 50.35 0.65 68.66 0.66 86.97 0.66 C 90.52 0.76 94.14 0.47 97.62 1.39 C 100.36 1.94 103.03 2.84 105.59 3.96 C 106.56 4.73 107.58 5.45 108.69 6.02 C 110.56 7.67 112.33 9.44 113.97 11.33 C 114.54 12.43 115.25 13.45 116.02 14.42 C 117.14 16.98 118.02 19.65 118.56 22.39 C 119.34 25.18 119.21 28.10 119.25 30.97 C 119.25 42.81 119.15 54.64 119.15 66.48 C 113.79 66.39 108.42 66.28 103.07 66.61 C 103.29 59.09 103.10 51.56 103.11 44.03 C 103.09 41.17 102.98 37.35 99.76 36.20 C 94.09 34.85 88.16 36.37 82.43 35.43 C 77.58 33.44 75.78 26.57 70.11 26.18 C 63.38 26.03 56.64 26.04 49.91 26.17 C 44.11 26.35 42.48 33.45 37.64 35.43 C 32.15 36.25 26.56 35.13 21.07 35.95 C 18.28 36.43 16.86 39.32 16.99 41.93 C 16.79 50.15 16.76 58.38 16.93 66.60 C 11.58 66.32 6.21 66.36 0.85 66.50 C 0.85 54.66 0.76 42.82 0.75 30.98 C 0.78 28.11 0.65 25.19 1.44 22.40 C 1.98 19.66 2.86 16.98 3.98 14.42 C 4.74 13.45 5.46 12.43 6.03 11.33 C 7.67 9.44 9.44 7.67 11.33 6.02 C 12.43 5.45 13.44 4.72 14.41 3.96 C 16.96 2.83 19.63 1.95 22.36 1.39 M 26.58 32.90 C 29.22 33.13 31.87 33.13 34.51 32.90 C 34.46 31.51 34.42 30.13 34.37 28.74 C 31.81 28.74 29.26 28.74 26.70 28.74 C 26.66 30.13 26.62 31.51 26.58 32.90 Z" />
<path fill="#cfd0d2" opacity="1.00" d=" M 41.41 57.04 C 43.72 47.79 53.64 41.23 63.06 43.01 C 71.06 44.21 77.79 50.95 79.01 58.94 C 80.04 63.66 78.37 68.36 76.41 72.60 L 76.22 72.58 C 74.77 72.45 73.32 72.33 71.88 72.21 C 77.57 65.69 76.27 54.75 69.18 49.79 C 62.76 44.72 52.61 46.21 47.79 52.76 C 43.34 58.24 43.54 66.56 47.93 72.01 C 47.61 72.37 46.96 73.08 46.64 73.44 C 45.71 73.16 44.78 72.89 43.85 72.62 L 43.57 72.54 C 41.25 67.77 39.72 62.28 41.41 57.04 Z" />
<path fill="#cfd0d2" opacity="1.00" d=" M 82.23 46.58 C 82.36 44.93 82.77 43.32 83.89 42.03 C 84.73 43.00 87.64 44.46 85.82 45.98 C 85.07 47.14 83.35 46.28 82.23 46.58 Z" />
</g>
<g id="#333434ff">
<path fill="#333434" opacity="1.00" d=" M 37.64 35.43 C 42.48 33.45 44.11 26.35 49.91 26.17 C 56.64 26.04 63.38 26.03 70.11 26.18 C 75.78 26.57 77.58 33.44 82.43 35.43 C 88.16 36.37 94.09 34.85 99.76 36.20 C 102.98 37.35 103.09 41.17 103.11 44.03 C 103.10 51.56 103.29 59.09 103.07 66.61 C 102.66 73.04 103.38 79.52 102.74 85.93 C 102.32 89.11 98.82 90.22 96.04 90.00 C 72.03 89.98 48.00 89.98 23.99 90.00 C 21.21 90.22 17.70 89.14 17.26 85.96 C 16.62 79.53 17.34 73.05 16.93 66.60 C 16.76 58.38 16.79 50.15 16.99 41.93 C 16.86 39.32 18.28 36.43 21.07 35.95 C 26.56 35.13 32.15 36.25 37.64 35.43 M 41.41 57.04 C 39.72 62.28 41.25 67.77 43.57 72.54 L 43.85 72.62 C 50.29 84.55 69.77 84.48 76.22 72.58 L 76.41 72.60 C 78.37 68.36 80.04 63.66 79.01 58.94 C 77.79 50.95 71.06 44.21 63.06 43.01 C 53.64 41.23 43.72 47.79 41.41 57.04 M 82.23 46.58 C 83.35 46.28 85.07 47.14 85.82 45.98 C 87.64 44.46 84.73 43.00 83.89 42.03 C 82.77 43.32 82.36 44.93 82.23 46.58 Z" />
<path fill="#333434" opacity="1.00" d=" M 26.58 32.90 C 26.62 31.51 26.66 30.13 26.70 28.74 C 29.26 28.74 31.81 28.74 34.37 28.74 C 34.42 30.13 34.46 31.51 34.51 32.90 C 31.87 33.13 29.22 33.13 26.58 32.90 Z" />
<path fill="#333434" opacity="1.00" d=" M 47.79 52.76 C 52.61 46.21 62.76 44.72 69.18 49.79 C 76.27 54.75 77.57 65.69 71.88 72.21 C 68.62 75.20 64.51 77.63 59.94 77.49 C 55.32 77.60 51.19 75.07 47.93 72.01 C 43.54 66.56 43.34 58.24 47.79 52.76 Z" />
</g>
<g id="#97999dff">
<path fill="#97999d" opacity="1.00" d=" M 0.85 66.50 C 6.21 66.36 11.58 66.32 16.93 66.60 C 17.34 73.05 16.62 79.53 17.26 85.96 C 17.70 89.14 21.21 90.22 23.99 90.00 C 48.00 89.98 72.03 89.98 96.04 90.00 C 98.82 90.22 102.32 89.11 102.74 85.93 C 103.38 79.52 102.66 73.04 103.07 66.61 C 108.42 66.28 113.79 66.39 119.15 66.48 C 119.16 73.97 119.09 81.47 119.10 88.96 C 119.06 90.89 119.23 92.94 118.24 94.69 C 118.05 96.70 118.19 98.80 117.28 100.66 C 117.18 101.11 116.98 102.01 116.89 102.46 C 115.05 107.12 111.24 110.42 107.63 113.69 C 106.55 114.33 105.51 115.03 104.48 115.75 C 103.46 116.03 102.45 116.32 101.45 116.63 C 100.40 117.00 99.37 117.41 98.35 117.87 C 95.68 118.11 92.74 117.40 90.31 118.86 C 70.11 119.02 49.89 119.03 29.69 118.85 C 27.25 117.43 24.32 118.09 21.65 117.87 C 20.63 117.42 19.60 117.00 18.55 116.63 C 17.54 116.33 16.53 116.03 15.52 115.74 C 14.49 115.03 13.45 114.32 12.37 113.70 C 9.65 111.12 6.67 108.70 4.64 105.50 C 4.17 104.47 3.66 103.46 3.14 102.46 C 3.03 102.01 2.82 101.11 2.72 100.66 C 1.81 98.80 1.95 96.70 1.76 94.69 C 0.80 92.95 0.93 90.93 0.89 89.02 C 0.92 81.51 0.84 74.01 0.85 66.50 Z" />
<path fill="#97999d" opacity="1.00" d=" M 47.93 72.01 C 51.19 75.07 55.32 77.60 59.94 77.49 C 64.51 77.63 68.62 75.20 71.88 72.21 C 73.32 72.33 74.77 72.45 76.22 72.58 C 69.77 84.48 50.29 84.55 43.85 72.62 C 44.78 72.89 45.71 73.16 46.64 73.44 C 46.96 73.08 47.61 72.37 47.93 72.01 Z" />
</g>
</svg>
