<?xml version="1.0" encoding="UTF-8" ?>
<!DOCTYPE svg PUBLIC "-//W3C//DTD SVG 1.1//EN" "http://www.w3.org/Graphics/SVG/1.1/DTD/svg11.dtd">
<svg width="120pt" height="120pt" viewBox="0 0 120 120" version="1.1" xmlns="http://www.w3.org/2000/svg">
<g id="#3c7fecff">
<path fill="#3c7fec" opacity="1.00" d=" M 13.26 4.42 C 18.02 1.67 23.54 0.42 29.02 0.48 C 47.34 0.31 65.67 0.46 84.00 0.40 C 90.26 0.50 96.77 0.07 102.69 2.51 C 112.05 5.88 118.53 15.18 119.30 24.99 C 108.53 24.93 97.76 25.15 87.00 24.88 C 82.96 24.79 78.97 25.48 74.97 25.91 C 71.85 20.98 67.17 16.33 60.95 16.22 C 53.63 15.32 46.92 20.23 44.23 26.85 C 43.20 26.03 43.14 24.54 42.11 23.77 C 36.24 21.97 30.05 23.16 24.04 23.27 C 16.34 23.71 8.64 23.14 0.93 23.02 C 2.09 15.39 6.66 8.43 13.26 4.42 Z" />
</g>
<g id="#ffffffff">
<path fill="#ffffff" opacity="1.00" d=" M 44.23 26.85 C 46.92 20.23 53.63 15.32 60.95 16.22 C 67.17 16.33 71.85 20.98 74.97 25.91 C 75.67 31.92 75.57 37.97 75.57 44.01 C 75.49 51.03 75.41 58.07 75.70 65.09 C 74.84 69.39 73.09 73.82 69.34 76.38 C 62.95 81.28 53.00 80.38 47.65 74.34 C 44.99 71.58 44.11 67.73 43.53 64.07 C 43.84 57.02 43.76 49.97 43.65 42.92 C 43.64 37.56 43.64 32.19 44.23 26.85 Z" />
<path fill="#ffffff" opacity="1.00" d=" M 36.30 49.32 C 36.65 49.33 37.35 49.33 37.70 49.33 C 38.12 53.87 37.66 58.42 37.87 62.96 C 37.98 68.26 39.86 73.58 43.55 77.45 C 48.95 83.46 57.87 85.93 65.60 83.62 C 73.88 81.36 80.35 73.73 81.15 65.17 C 81.60 59.92 80.98 54.65 81.40 49.40 C 81.74 49.37 82.42 49.32 82.76 49.29 C 83.13 54.19 82.87 59.10 83.04 64.00 C 82.61 70.11 79.76 75.68 75.77 80.23 C 71.51 83.55 66.41 85.32 61.23 86.58 C 60.04 90.21 60.64 94.11 60.56 97.86 C 60.59 99.29 60.69 100.71 60.87 102.12 C 65.43 102.56 70.02 101.97 74.58 102.38 C 74.74 102.75 75.06 103.51 75.22 103.88 C 64.73 104.06 54.22 104.06 43.73 103.87 C 43.90 103.50 44.26 102.75 44.43 102.38 C 49.01 102.02 53.60 102.42 58.18 102.28 C 59.34 97.21 58.92 91.85 58.40 86.72 C 53.45 85.29 48.30 84.09 44.16 80.82 C 38.73 75.68 35.67 68.40 36.05 60.90 C 36.11 57.04 35.93 53.17 36.30 49.32 Z" />
</g>
<g id="#4074ebff">
<path fill="#4074eb" opacity="1.00" d=" M 0.93 23.02 C 8.64 23.14 16.34 23.71 24.04 23.27 C 30.05 23.16 36.24 21.97 42.11 23.77 C 43.14 24.54 43.20 26.03 44.23 26.85 C 43.64 32.19 43.64 37.56 43.65 42.92 C 34.93 42.36 26.17 42.87 17.43 42.33 C 11.81 42.70 6.17 43.00 0.56 42.16 C 0.37 35.79 0.25 29.37 0.93 23.02 Z" />
</g>
<g id="#4072ebff">
<path fill="#4072eb" opacity="1.00" d=" M 74.97 25.91 C 78.97 25.48 82.96 24.79 87.00 24.88 C 97.76 25.15 108.53 24.93 119.30 24.99 C 119.65 31.32 119.66 37.67 119.44 44.00 C 104.81 44.02 90.19 44.02 75.57 44.01 C 75.57 37.97 75.67 31.92 74.97 25.91 Z" />
</g>
<g id="#4566e9ff">
<path fill="#4566e9" opacity="1.00" d=" M 0.56 42.16 C 6.17 43.00 11.81 42.70 17.43 42.33 C 26.17 42.87 34.93 42.36 43.65 42.92 C 43.76 49.97 43.84 57.02 43.53 64.07 C 41.65 63.69 39.76 63.33 37.87 62.96 C 37.66 58.42 38.12 53.87 37.70 49.33 C 37.35 49.33 36.65 49.33 36.30 49.32 C 35.93 53.17 36.11 57.04 36.05 60.90 C 28.08 60.30 20.07 59.62 12.09 60.33 C 8.26 60.73 4.41 60.42 0.57 60.35 C 0.41 54.29 0.36 48.22 0.56 42.16 Z" />
</g>
<g id="#4664e9ff">
<path fill="#4664e9" opacity="1.00" d=" M 75.57 44.01 C 90.19 44.02 104.81 44.02 119.44 44.00 C 119.63 50.43 119.59 56.87 119.42 63.29 C 107.35 65.24 95.16 62.61 83.04 64.00 C 82.87 59.10 83.13 54.19 82.76 49.29 C 82.42 49.32 81.74 49.37 81.40 49.40 C 80.98 54.65 81.60 59.92 81.15 65.17 C 79.33 65.09 77.51 65.07 75.70 65.09 C 75.41 58.07 75.49 51.03 75.57 44.01 Z" />
</g>
<g id="#4a58e7ff">
<path fill="#4a58e7" opacity="1.00" d=" M 0.57 60.35 C 4.41 60.42 8.26 60.73 12.09 60.33 C 20.07 59.62 28.08 60.30 36.05 60.90 C 35.67 68.40 38.73 75.68 44.16 80.82 C 38.57 77.97 32.14 77.47 25.99 78.20 C 17.53 78.68 9.08 77.65 0.62 78.03 C 0.41 72.14 0.41 66.23 0.57 60.35 Z" />
</g>
<g id="#4c52e6ff">
<path fill="#4c52e6" opacity="1.00" d=" M 37.87 62.96 C 39.76 63.33 41.65 63.69 43.53 64.07 C 44.11 67.73 44.99 71.58 47.65 74.34 C 53.00 80.38 62.95 81.28 69.34 76.38 C 73.09 73.82 74.84 69.39 75.70 65.09 C 77.51 65.07 79.33 65.09 81.15 65.17 C 80.35 73.73 73.88 81.36 65.60 83.62 C 57.87 85.93 48.95 83.46 43.55 77.45 C 39.86 73.58 37.98 68.26 37.87 62.96 Z" />
</g>
<g id="#4b56e7ff">
<path fill="#4b56e7" opacity="1.00" d=" M 83.04 64.00 C 95.16 62.61 107.35 65.24 119.42 63.29 C 119.59 69.19 119.59 75.10 119.38 80.99 C 108.92 81.05 98.46 80.83 88.01 81.11 C 83.90 81.23 79.85 80.48 75.77 80.23 C 79.76 75.68 82.61 70.11 83.04 64.00 Z" />
</g>
<g id="#4f4ae5ff">
<path fill="#4f4ae5" opacity="1.00" d=" M 0.62 78.03 C 9.08 77.65 17.53 78.68 25.99 78.20 C 32.14 77.47 38.57 77.97 44.16 80.82 C 48.30 84.09 53.45 85.29 58.40 86.72 C 58.92 91.85 59.34 97.21 58.18 102.28 C 58.04 100.84 57.91 99.40 57.66 97.98 C 53.32 97.01 48.90 98.04 44.53 97.91 C 37.01 97.47 29.49 98.08 21.97 97.88 C 15.28 97.76 8.56 97.38 1.89 98.20 C 0.39 96.49 0.74 94.10 0.58 92.01 C 0.54 87.35 0.35 82.68 0.62 78.03 Z" />
<path fill="#4f4ae5" opacity="1.00" d=" M 61.23 86.58 C 66.41 85.32 71.51 83.55 75.77 80.23 C 79.85 80.48 83.90 81.23 88.01 81.11 C 98.46 80.83 108.92 81.05 119.38 80.99 C 119.55 86.21 119.71 91.50 119.01 96.69 C 118.78 97.07 118.33 97.85 118.11 98.24 C 110.46 97.39 102.75 97.34 95.07 97.86 C 83.57 98.67 72.06 96.99 60.56 97.86 C 60.64 94.11 60.04 90.21 61.23 86.58 Z" />
</g>
<g id="#533fe4ff">
<path fill="#533fe4" opacity="1.00" d=" M 1.89 98.20 C 8.56 97.38 15.28 97.76 21.97 97.88 C 29.49 98.08 37.01 97.47 44.53 97.91 C 48.90 98.04 53.32 97.01 57.66 97.98 C 57.91 99.40 58.04 100.84 58.18 102.28 C 53.60 102.42 49.01 102.02 44.43 102.38 C 44.26 102.75 43.90 103.50 43.73 103.87 C 54.22 104.06 64.73 104.06 75.22 103.88 C 75.06 103.51 74.74 102.75 74.58 102.38 C 70.02 101.97 65.43 102.56 60.87 102.12 C 60.69 100.71 60.59 99.29 60.56 97.86 C 72.06 96.99 83.57 98.67 95.07 97.86 C 102.75 97.34 110.46 97.39 118.11 98.24 L 118.75 98.93 C 116.43 108.33 108.84 116.61 99.16 118.48 C 94.20 119.74 89.06 119.50 84.00 119.57 C 66.34 119.53 48.68 119.59 31.02 119.54 C 25.49 119.53 19.82 118.83 14.79 116.40 C 8.06 112.81 3.08 106.31 1.24 98.91 L 1.89 98.20 Z" />
</g>
</svg>
