<?xml version="1.0" encoding="UTF-8" ?>
<!DOCTYPE svg PUBLIC "-//W3C//DTD SVG 1.1//EN" "http://www.w3.org/Graphics/SVG/1.1/DTD/svg11.dtd">
<svg width="120pt" height="120pt" viewBox="0 0 120 120" version="1.1" xmlns="http://www.w3.org/2000/svg">
<g id="#f4f4f4ff">
<path fill="#f4f4f4" opacity="1.00" d=" M 42.93 0.00 L 61.53 0.00 C 62.38 0.23 64.07 0.69 64.91 0.92 C 70.73 6.52 76.29 12.38 82.07 18.03 C 74.73 17.99 67.39 18.00 60.04 18.02 C 55.14 13.25 50.38 8.33 45.45 3.59 C 44.64 2.81 43.88 1.96 43.38 0.94 L 42.93 0.00 Z" />
<path fill="#f4f4f4" opacity="1.00" d=" M 9.68 6.82 C 13.28 3.82 17.72 1.89 22.35 1.19 C 22.96 1.53 23.57 1.87 24.17 2.23 C 29.62 7.34 34.70 12.82 40.07 18.02 C 32.73 18.00 25.38 17.99 18.03 18.02 C 14.92 14.93 11.80 11.85 8.76 8.69 C 8.99 8.22 9.45 7.29 9.68 6.82 Z" />
<path fill="#f4f4f4" opacity="1.00" d=" M 84.42 0.74 C 93.70 -0.22 104.20 0.99 111.25 7.71 C 111.48 7.98 111.96 8.51 112.19 8.77 C 114.53 11.15 116.28 14.00 117.58 17.06 C 117.56 17.30 117.54 17.77 117.52 18.00 C 112.36 18.01 107.19 17.99 102.03 18.01 C 96.10 12.32 90.52 6.25 84.42 0.74 Z" />
<path fill="#f4f4f4" opacity="1.00" d=" M 18.01 19.00 C 25.36 18.98 32.71 19.03 40.06 18.98 C 34.52 24.44 29.00 29.94 23.52 35.47 C 22.57 36.36 21.59 37.55 20.11 37.28 C 14.09 37.31 8.06 37.36 2.03 37.24 L 1.18 36.76 L 2.17 35.04 C 7.29 29.55 12.74 24.36 18.01 19.00 Z" />
<path fill="#f4f4f4" opacity="1.00" d=" M 60.05 18.99 C 67.39 19.00 74.74 19.02 82.09 18.98 C 75.94 25.01 69.83 31.08 63.79 37.21 C 56.42 37.41 49.04 37.23 41.67 37.31 C 47.88 31.29 53.88 25.05 60.05 18.99 Z" />
<path fill="#f4f4f4" opacity="1.00" d=" M 102.01 19.00 C 107.07 18.99 112.12 19.01 117.18 18.97 C 117.51 19.07 118.18 19.26 118.52 19.36 C 118.64 21.13 118.77 22.97 118.13 24.68 C 114.20 29.04 109.81 32.95 105.79 37.22 C 98.42 37.40 91.06 37.24 83.69 37.31 C 89.86 31.27 95.89 25.09 102.01 19.00 Z" />
</g>
<g id="#161616ff">
<path fill="#161616" opacity="1.00" d=" M 25.40 1.17 C 31.34 0.48 37.40 0.96 43.38 0.94 C 43.88 1.96 44.64 2.81 45.45 3.59 C 50.38 8.33 55.14 13.25 60.04 18.02 C 67.39 18.00 74.73 17.99 82.07 18.03 C 76.29 12.38 70.73 6.52 64.91 0.92 C 71.41 0.73 77.92 1.02 84.42 0.74 C 90.52 6.25 96.10 12.32 102.03 18.01 C 107.19 17.99 112.36 18.01 117.52 18.00 L 117.18 18.97 C 112.12 19.01 107.07 18.99 102.01 19.00 C 95.89 25.09 89.86 31.27 83.69 37.31 C 91.06 37.24 98.42 37.40 105.79 37.22 C 109.81 32.95 114.20 29.04 118.13 24.68 C 118.37 24.90 118.84 25.34 119.07 25.56 C 119.62 29.12 119.30 32.74 119.32 36.32 C 119.49 36.32 119.83 36.33 120.00 36.33 L 120.00 37.70 C 107.66 37.13 95.32 39.11 82.99 37.78 C 68.66 36.80 54.31 39.27 40.00 37.70 C 27.33 37.07 14.71 38.71 2.03 38.09 L 2.03 37.24 C 8.06 37.36 14.09 37.31 20.11 37.28 C 21.59 37.55 22.57 36.36 23.52 35.47 C 29.00 29.94 34.52 24.44 40.06 18.98 C 32.71 19.03 25.36 18.98 18.01 19.00 C 12.74 24.36 7.29 29.55 2.17 35.04 C 1.77 34.99 0.98 34.87 0.58 34.81 C 0.06 25.49 1.98 15.54 8.76 8.69 C 11.80 11.85 14.92 14.93 18.03 18.02 C 25.38 17.99 32.73 18.00 40.07 18.02 C 34.70 12.82 29.62 7.34 24.17 2.23 C 24.48 1.96 25.09 1.44 25.40 1.17 M 60.05 18.99 C 53.88 25.05 47.88 31.29 41.67 37.31 C 49.04 37.23 56.42 37.41 63.79 37.21 C 69.83 31.08 75.94 25.01 82.09 18.98 C 74.74 19.02 67.39 19.00 60.05 18.99 Z" />
</g>
<g id="#56d9e2ff">
<path fill="#56d9e2" opacity="1.00" d=" M 0.00 38.59 C 0.51 38.46 1.52 38.22 2.03 38.09 C 14.71 38.71 27.33 37.07 40.00 37.70 C 54.31 39.27 68.66 36.80 82.99 37.78 C 95.32 39.11 107.66 37.13 120.00 37.70 L 120.00 91.86 C 118.93 95.45 118.94 99.29 117.58 102.82 C 114.84 111.00 107.35 117.26 98.86 118.71 C 95.13 119.52 91.30 119.52 87.53 120.00 L 33.58 120.00 C 24.67 119.56 14.66 118.83 8.12 111.93 C 2.02 106.20 0.84 97.54 0.00 89.66 L 0.00 38.59 Z" />
</g>
</svg>
