<?xml version="1.0" encoding="UTF-8" ?>
<!DOCTYPE svg PUBLIC "-//W3C//DTD SVG 1.1//EN" "http://www.w3.org/Graphics/SVG/1.1/DTD/svg11.dtd">
<svg width="128pt" height="128pt" viewBox="0 0 128 128" version="1.1" xmlns="http://www.w3.org/2000/svg">
<g id="#f1f1f1ff">
<path fill="#f1f1f1" opacity="1.00" d=" M 10.85 21.87 C 13.95 15.54 19.95 10.55 26.92 9.14 C 31.85 8.05 36.95 8.25 41.97 8.17 C 58.97 8.23 75.97 8.05 92.97 8.27 C 99.79 8.25 107.02 9.93 111.98 14.91 C 117.12 19.45 119.53 26.33 119.65 33.07 C 120.02 45.05 119.72 57.04 119.82 69.02 C 110.94 69.02 102.05 68.98 93.17 69.01 C 92.64 63.68 91.42 58.17 88.09 53.85 C 82.20 46.01 68.73 45.94 62.75 53.71 C 59.32 58.06 58.08 63.67 57.56 69.08 C 54.22 69.04 50.89 69.01 47.56 68.97 C 47.57 62.31 47.54 55.66 47.58 49.00 C 47.00 48.97 45.85 48.91 45.27 48.88 C 42.27 53.78 37.30 56.74 31.95 58.46 C 31.73 59.02 31.28 60.13 31.06 60.69 C 35.65 60.14 40.12 58.49 43.67 55.49 C 43.80 59.96 43.99 64.44 43.83 68.92 C 31.95 69.30 20.06 68.79 8.18 69.05 C 8.21 58.70 8.15 48.36 8.20 38.02 C 8.27 32.56 8.42 26.87 10.85 21.87 M 34.05 23.48 C 33.94 28.12 34.03 32.77 34.00 37.41 L 35.05 37.30 C 35.06 33.53 35.00 29.76 35.08 25.99 C 37.10 29.90 38.38 34.14 40.53 37.99 C 42.75 34.26 44.16 30.12 45.68 26.07 C 46.10 29.81 45.99 33.57 45.99 37.32 L 47.00 37.44 C 46.97 32.76 47.06 28.09 46.95 23.41 C 43.11 26.42 42.86 31.96 40.47 36.02 C 38.36 31.90 38.03 26.25 34.05 23.48 M 76.00 23.99 C 76.00 25.53 76.00 27.06 76.00 28.60 C 74.52 28.05 73.01 26.59 71.33 27.38 C 67.44 28.71 66.80 34.55 70.02 36.95 C 72.11 38.78 74.68 36.68 77.06 37.08 C 76.96 32.71 77.01 28.34 77.00 23.98 L 76.00 23.99 M 52.13 27.14 C 47.53 28.20 47.14 35.78 51.36 37.56 C 54.00 39.07 57.13 36.60 57.79 33.99 C 58.91 30.65 55.75 26.23 52.13 27.14 M 58.94 27.89 C 59.01 31.03 59.00 34.16 59.00 37.30 L 60.00 37.42 C 60.03 35.28 59.90 33.14 60.16 31.01 C 60.60 28.73 64.03 26.91 65.48 29.45 C 66.62 32.13 65.23 35.37 66.81 37.97 C 66.87 34.93 67.69 31.53 66.36 28.68 C 64.59 26.03 61.41 28.24 58.94 27.89 M 78.62 31.37 C 80.36 29.92 82.62 26.84 84.94 29.22 C 86.03 32.32 81.85 31.38 80.11 32.30 C 78.01 32.94 78.64 35.59 78.69 37.22 C 81.51 38.09 84.39 37.31 87.26 37.29 C 86.27 34.25 86.30 31.04 86.16 27.88 C 83.09 26.19 78.69 27.31 78.62 31.37 M 86.97 27.11 C 87.80 30.32 89.37 33.25 90.55 36.33 C 91.71 38.58 88.74 39.86 87.63 41.35 C 88.89 40.91 90.70 40.97 91.27 39.47 C 93.22 35.54 94.64 31.35 95.95 27.16 C 93.19 29.13 92.95 32.80 91.47 35.62 C 90.55 33.15 89.61 30.70 88.68 28.25 C 88.25 27.96 87.40 27.40 86.97 27.11 Z" />
</g>
<g id="#f74e5aff">
<path fill="#f74e5a" opacity="1.00" d=" M 34.05 23.48 C 38.03 26.25 38.36 31.90 40.47 36.02 C 42.86 31.96 43.11 26.42 46.95 23.41 C 47.06 28.09 46.97 32.76 47.00 37.44 L 45.99 37.32 C 45.99 33.57 46.10 29.81 45.68 26.07 C 44.16 30.12 42.75 34.26 40.53 37.99 C 38.38 34.14 37.10 29.90 35.08 25.99 C 35.00 29.76 35.06 33.53 35.05 37.30 L 34.00 37.41 C 34.03 32.77 33.94 28.12 34.05 23.48 Z" />
</g>
<g id="#f7616aff">
<path fill="#f7616a" opacity="1.00" d=" M 76.00 23.99 L 77.00 23.98 C 77.01 28.34 76.96 32.71 77.06 37.08 C 74.68 36.68 72.11 38.78 70.02 36.95 C 66.80 34.55 67.44 28.71 71.33 27.38 C 73.01 26.59 74.52 28.05 76.00 28.60 C 76.00 27.06 76.00 25.53 76.00 23.99 M 70.06 28.96 C 69.14 31.26 69.14 33.70 70.06 36.00 C 72.93 37.86 76.63 35.31 76.00 31.97 C 75.90 28.96 72.54 27.48 70.06 28.96 Z" />
</g>
<g id="#f58189ff">
<path fill="#f58189" opacity="1.00" d=" M 52.13 27.14 C 55.75 26.23 58.91 30.65 57.79 33.99 C 57.13 36.60 54.00 39.07 51.36 37.56 C 47.14 35.78 47.53 28.20 52.13 27.14 M 50.01 30.15 C 50.01 31.71 50.01 33.28 50.02 34.85 C 51.01 35.50 52.01 36.16 53.01 36.81 C 53.71 36.52 55.11 35.95 55.81 35.66 C 56.27 33.57 56.26 31.45 55.82 29.36 C 55.14 29.06 53.76 28.47 53.07 28.18 C 52.05 28.83 51.03 29.49 50.01 30.15 Z" />
</g>
<g id="#f75863ff">
<path fill="#f75863" opacity="1.00" d=" M 58.94 27.89 C 61.41 28.24 64.59 26.03 66.36 28.68 C 67.69 31.53 66.87 34.93 66.81 37.97 C 65.23 35.37 66.62 32.13 65.48 29.45 C 64.03 26.91 60.60 28.73 60.16 31.01 C 59.90 33.14 60.03 35.28 60.00 37.42 L 59.00 37.30 C 59.00 34.16 59.01 31.03 58.94 27.89 Z" />
</g>
<g id="#f67780ff">
<path fill="#f67780" opacity="1.00" d=" M 78.62 31.37 C 78.69 27.31 83.09 26.19 86.16 27.88 C 86.30 31.04 86.27 34.25 87.26 37.29 C 84.39 37.31 81.51 38.09 78.69 37.22 C 78.64 35.59 78.01 32.94 80.11 32.30 C 81.85 31.38 86.03 32.32 84.94 29.22 C 82.62 26.84 80.36 29.92 78.62 31.37 M 80.05 33.17 C 80.03 33.93 79.97 35.45 79.94 36.21 C 82.54 37.26 85.53 35.86 85.32 32.75 C 83.56 32.89 81.81 33.03 80.05 33.17 Z" />
</g>
<g id="#f66c76ff">
<path fill="#f66c76" opacity="1.00" d=" M 86.97 27.11 C 87.40 27.40 88.25 27.96 88.68 28.25 C 89.61 30.70 90.55 33.15 91.47 35.62 C 92.95 32.80 93.19 29.13 95.95 27.16 C 94.64 31.35 93.22 35.54 91.27 39.47 C 90.70 40.97 88.89 40.91 87.63 41.35 C 88.74 39.86 91.71 38.58 90.55 36.33 C 89.37 33.25 87.80 30.32 86.97 27.11 Z" />
</g>
<g id="#f2f2f2ff">
<path fill="#f2f2f2" opacity="1.00" d=" M 70.06 28.96 C 72.54 27.48 75.90 28.96 76.00 31.97 C 76.63 35.31 72.93 37.86 70.06 36.00 C 69.14 33.70 69.14 31.26 70.06 28.96 Z" />
<path fill="#f2f2f2" opacity="1.00" d=" M 50.01 30.15 C 51.03 29.49 52.05 28.83 53.07 28.18 C 53.76 28.47 55.14 29.06 55.82 29.36 C 56.26 31.45 56.27 33.57 55.81 35.66 C 55.11 35.95 53.71 36.52 53.01 36.81 C 52.01 36.16 51.01 35.50 50.02 34.85 C 50.01 33.28 50.01 31.71 50.01 30.15 Z" />
</g>
<g id="#f1f2f2ff">
<path fill="#f1f2f2" opacity="1.00" d=" M 80.05 33.17 C 81.81 33.03 83.56 32.89 85.32 32.75 C 85.53 35.86 82.54 37.26 79.94 36.21 C 79.97 35.45 80.03 33.93 80.05 33.17 Z" />
</g>
<g id="#000000ff">
<path fill="#000000" opacity="1.00" d=" M 62.75 53.71 C 68.73 45.94 82.20 46.01 88.09 53.85 C 91.42 58.17 92.64 63.68 93.17 69.01 C 93.63 77.02 93.24 85.70 88.72 92.63 C 83.01 101.60 67.95 101.69 62.12 92.80 C 57.49 85.89 57.11 77.13 57.56 69.08 C 58.08 63.67 59.32 58.06 62.75 53.71 M 69.48 51.63 C 63.41 54.56 61.23 61.69 60.48 67.91 C 59.73 75.86 60.03 84.58 64.54 91.48 C 69.02 98.37 80.27 98.85 85.41 92.48 C 89.58 87.32 90.45 80.38 90.58 73.96 C 90.53 67.53 89.73 60.62 85.78 55.31 C 82.14 50.35 74.91 49.15 69.48 51.63 Z" />
<path fill="#000000" opacity="1.00" d=" M 45.27 48.88 C 45.85 48.91 47.00 48.97 47.58 49.00 C 47.54 55.66 47.57 62.31 47.56 68.97 C 47.54 78.81 47.57 88.65 47.55 98.49 C 46.87 98.48 45.50 98.46 44.82 98.45 C 44.83 83.72 44.83 68.99 44.84 54.25 C 44.55 54.56 43.97 55.18 43.67 55.49 C 40.12 58.49 35.65 60.14 31.06 60.69 C 31.28 60.13 31.73 59.02 31.95 58.46 C 37.30 56.74 42.27 53.78 45.27 48.88 Z" />
</g>
<g id="#ecececff">
<path fill="#ececec" opacity="1.00" d=" M 69.48 51.63 C 74.91 49.15 82.14 50.35 85.78 55.31 C 89.73 60.62 90.53 67.53 90.58 73.96 C 90.45 80.38 89.58 87.32 85.41 92.48 C 80.27 98.85 69.02 98.37 64.54 91.48 C 60.03 84.58 59.73 75.86 60.48 67.91 C 61.23 61.69 63.41 54.56 69.48 51.63 Z" />
</g>
<g id="#eaeaeaff">
<path fill="#eaeaea" opacity="1.00" d=" M 43.67 55.49 C 43.97 55.18 44.55 54.56 44.84 54.25 C 44.83 68.99 44.83 83.72 44.82 98.45 C 45.50 98.46 46.87 98.48 47.55 98.49 C 47.57 88.65 47.54 78.81 47.56 68.97 C 50.89 69.01 54.22 69.04 57.56 69.08 C 57.11 77.13 57.49 85.89 62.12 92.80 C 67.95 101.69 83.01 101.60 88.72 92.63 C 93.24 85.70 93.63 77.02 93.17 69.01 C 102.05 68.98 110.94 69.02 119.82 69.02 C 119.68 78.68 120.19 88.36 119.40 97.99 C 118.67 106.83 112.52 114.93 104.19 117.97 C 98.66 119.97 92.69 119.73 86.91 119.82 C 69.59 119.76 52.27 119.93 34.96 119.73 C 28.36 119.71 21.38 118.17 16.46 113.50 C 11.64 109.36 8.88 103.20 8.49 96.90 C 7.90 87.63 8.28 78.33 8.18 69.05 C 20.06 68.79 31.95 69.30 43.83 68.92 C 43.99 64.44 43.80 59.96 43.67 55.49 Z" />
</g>
</svg>
