<?xml version="1.0" encoding="UTF-8" ?>
<!DOCTYPE svg PUBLIC "-//W3C//DTD SVG 1.1//EN" "http://www.w3.org/Graphics/SVG/1.1/DTD/svg11.dtd">
<svg width="120pt" height="120pt" viewBox="0 0 120 120" version="1.1" xmlns="http://www.w3.org/2000/svg">
<g id="#2f2f2fff">
<path fill="#2f2f2f" opacity="1.00" d=" M 24.53 1.85 C 25.59 0.46 27.48 1.09 28.95 0.91 C 46.62 0.85 64.30 1.02 81.97 0.82 C 82.13 10.90 81.72 21.01 82.21 31.06 L 83.28 32.21 C 83.76 30.49 83.96 28.70 83.92 26.92 C 83.82 18.27 83.98 9.62 83.86 0.97 C 87.65 1.36 92.15 -0.15 95.49 1.86 C 97.13 2.14 99.28 1.27 100.45 2.83 C 100.97 2.88 102.00 2.97 102.52 3.02 C 105.51 4.79 108.69 6.35 111.32 8.65 C 113.64 11.29 115.22 14.47 116.99 17.49 C 117.04 18.00 117.14 19.04 117.19 19.56 C 118.73 20.73 117.89 22.87 118.17 24.50 C 120.17 27.80 118.60 32.15 119.18 35.87 C 117.71 35.63 116.23 35.40 114.76 35.17 C 114.63 35.55 114.38 36.32 114.25 36.71 C 110.72 35.76 107.07 35.31 103.42 35.64 C 100.86 36.06 98.51 34.33 95.97 34.92 C 93.15 35.39 90.32 35.80 87.46 35.87 C 86.22 34.12 84.35 32.56 82.04 33.07 C 78.90 33.37 77.10 37.07 78.17 39.90 C 77.24 38.42 76.40 36.89 75.54 35.36 C 72.43 36.50 69.22 36.12 66.08 35.34 C 61.57 36.73 56.99 35.01 52.40 35.54 C 46.42 35.98 40.27 34.57 34.41 36.18 C 33.85 35.63 33.28 35.08 32.73 34.53 C 25.80 36.50 18.56 34.57 11.58 36.06 C 8.00 35.95 4.48 34.48 0.87 35.26 C 1.35 31.75 -0.15 27.59 1.83 24.50 C 2.07 22.84 1.32 20.75 2.82 19.51 C 2.87 19.00 2.97 17.98 3.02 17.47 C 4.78 14.47 6.35 11.31 8.65 8.68 C 11.28 6.34 14.48 4.79 17.49 3.02 C 18.01 2.97 19.05 2.88 19.57 2.83 C 20.72 1.25 22.89 2.14 24.53 1.85 Z" />
</g>
<g id="#b1b1b1ff">
<path fill="#b1b1b1" opacity="1.00" d=" M 81.97 0.82 C 82.44 0.86 83.39 0.94 83.86 0.97 C 83.98 9.62 83.82 18.27 83.92 26.92 C 83.96 28.70 83.76 30.49 83.28 32.21 L 82.21 31.06 C 81.72 21.01 82.13 10.90 81.97 0.82 Z" />
</g>
<g id="#ffffffff">
<path fill="#ffffff" opacity="1.00" d=" M 78.17 39.90 C 77.10 37.07 78.90 33.37 82.04 33.07 C 84.35 32.56 86.22 34.12 87.46 35.87 C 88.34 38.43 87.02 40.90 85.03 42.47 C 84.16 42.53 82.44 42.66 81.57 42.72 L 80.99 41.17 C 79.89 47.39 77.20 53.21 75.39 59.25 C 73.08 59.98 70.54 60.23 68.42 61.46 C 66.76 63.31 65.73 65.61 64.45 67.73 C 63.15 70.01 61.77 72.25 60.33 74.45 C 57.66 72.50 54.40 71.29 52.07 68.93 C 49.84 63.68 48.08 58.23 45.92 52.94 C 45.66 52.68 45.14 52.15 44.87 51.89 C 42.61 57.09 40.25 62.25 37.97 67.45 C 35.42 65.54 32.91 63.57 30.17 61.95 C 27.88 65.11 25.73 68.38 23.14 71.29 C 20.68 72.57 17.84 72.89 15.19 73.67 C 11.07 71.72 6.73 70.29 2.24 69.48 C 2.17 69.21 2.03 68.68 1.96 68.41 C 5.78 69.35 9.65 70.13 13.23 71.85 C 16.05 73.34 19.07 71.39 21.97 71.16 C 24.97 67.81 27.39 64.00 30.20 60.49 C 32.60 62.26 35.00 64.03 37.33 65.91 C 40.33 60.38 42.59 54.49 45.18 48.77 C 48.11 55.15 50.11 61.92 52.92 68.34 C 54.87 70.49 57.76 71.50 60.15 73.09 C 62.66 68.93 65.05 64.70 67.60 60.56 C 70.09 59.82 72.58 59.04 75.02 58.15 C 76.06 53.16 78.35 48.53 79.28 43.53 C 79.65 43.05 80.03 42.58 80.41 42.11 C 79.85 41.56 78.73 40.46 78.17 39.90 Z" />
<path fill="#ffffff" opacity="1.00" d=" M 105.11 63.31 C 109.20 56.25 110.76 47.32 117.86 42.41 C 118.04 42.34 118.38 42.21 118.55 42.15 C 118.32 42.59 117.85 43.48 117.62 43.92 C 110.87 49.33 109.47 58.36 105.15 65.44 C 102.40 60.40 100.23 55.06 97.26 50.14 C 94.93 52.15 92.47 54.00 89.93 55.75 C 88.32 51.42 85.82 47.34 85.18 42.71 C 87.40 46.21 88.65 50.23 90.07 54.10 C 92.92 52.69 95.24 50.48 97.93 48.80 C 100.33 53.64 102.68 58.49 105.11 63.31 Z" />
<path fill="#ffffff" opacity="1.00" d=" M 82.43 43.34 C 82.67 43.56 83.17 44.01 83.41 44.23 C 83.79 52.13 83.43 60.06 83.56 67.98 C 83.57 75.61 83.55 83.24 83.56 90.87 C 83.52 100.23 83.64 109.60 83.49 118.96 C 83.20 119.03 82.63 119.18 82.34 119.26 C 82.30 107.88 82.32 96.50 82.31 85.13 C 82.32 79.43 82.31 73.73 82.31 68.03 C 82.39 59.80 82.16 51.57 82.43 43.34 Z" />
</g>
<g id="#262626ff">
<path fill="#262626" opacity="1.00" d=" M 0.87 35.26 C 4.48 34.48 8.00 35.95 11.58 36.06 C 18.56 34.57 25.80 36.50 32.73 34.53 C 33.28 35.08 33.85 35.63 34.41 36.18 C 40.27 34.57 46.42 35.98 52.40 35.54 C 56.99 35.01 61.57 36.73 66.08 35.34 C 69.22 36.12 72.43 36.50 75.54 35.36 C 76.40 36.89 77.24 38.42 78.17 39.90 C 78.73 40.46 79.85 41.56 80.41 42.11 C 80.03 42.58 79.65 43.05 79.28 43.53 C 78.35 48.53 76.06 53.16 75.02 58.15 C 72.58 59.04 70.09 59.82 67.60 60.56 C 65.05 64.70 62.66 68.93 60.15 73.09 C 57.76 71.50 54.87 70.49 52.92 68.34 C 50.11 61.92 48.11 55.15 45.18 48.77 C 42.59 54.49 40.33 60.38 37.33 65.91 C 35.00 64.03 32.60 62.26 30.20 60.49 C 27.39 64.00 24.97 67.81 21.97 71.16 C 19.07 71.39 16.05 73.34 13.23 71.85 C 9.65 70.13 5.78 69.35 1.96 68.41 C 1.64 68.17 1.02 67.69 0.71 67.45 C 1.00 56.72 0.78 45.99 0.87 35.26 Z" />
</g>
<g id="#282828ff">
<path fill="#282828" opacity="1.00" d=" M 95.97 34.92 C 98.51 34.33 100.86 36.06 103.42 35.64 C 107.07 35.31 110.72 35.76 114.25 36.71 C 114.38 36.32 114.63 35.55 114.76 35.17 C 116.23 35.40 117.71 35.63 119.18 35.87 C 119.40 37.24 119.09 38.44 118.25 39.47 C 118.15 40.20 117.96 41.67 117.86 42.41 C 110.76 47.32 109.20 56.25 105.11 63.31 C 102.68 58.49 100.33 53.64 97.93 48.80 C 95.24 50.48 92.92 52.69 90.07 54.10 C 88.65 50.23 87.40 46.21 85.18 42.71 L 85.03 42.47 C 87.02 40.90 88.34 38.43 87.46 35.87 C 90.32 35.80 93.15 35.39 95.97 34.92 Z" />
</g>
<g id="#222222ff">
<path fill="#222222" opacity="1.00" d=" M 75.39 59.25 C 77.20 53.21 79.89 47.39 80.99 41.17 L 81.57 42.72 C 82.44 42.66 84.16 42.53 85.03 42.47 L 85.18 42.71 C 85.82 47.34 88.32 51.42 89.93 55.75 C 92.47 54.00 94.93 52.15 97.26 50.14 C 100.23 55.06 102.40 60.40 105.15 65.44 C 109.47 58.36 110.87 49.33 117.62 43.92 L 119.11 43.94 C 119.19 52.28 119.15 60.62 119.17 68.96 C 113.59 68.13 107.98 69.39 102.39 68.64 C 96.10 68.83 89.76 69.51 83.56 67.98 C 83.43 60.06 83.79 52.13 83.41 44.23 C 83.17 44.01 82.67 43.56 82.43 43.34 C 82.16 51.57 82.39 59.80 82.31 68.03 C 76.36 68.03 70.39 68.26 64.45 67.73 C 65.73 65.61 66.76 63.31 68.42 61.46 C 70.54 60.23 73.08 59.98 75.39 59.25 Z" />
</g>
<g id="#1c1c1cff">
<path fill="#1c1c1c" opacity="1.00" d=" M 44.87 51.89 C 45.14 52.15 45.66 52.68 45.92 52.94 C 48.08 58.23 49.84 63.68 52.07 68.93 C 54.40 71.29 57.66 72.50 60.33 74.45 C 61.77 72.25 63.15 70.01 64.45 67.73 C 70.39 68.26 76.36 68.03 82.31 68.03 C 82.31 73.73 82.32 79.43 82.31 85.13 C 77.43 85.63 72.41 84.53 67.66 86.08 C 65.55 85.38 63.35 85.72 61.21 86.00 C 60.78 85.64 59.94 84.94 59.51 84.58 C 59.08 85.28 58.64 85.98 58.21 86.69 C 57.19 85.94 56.18 85.19 55.16 84.45 C 52.46 86.48 49.16 85.31 46.16 84.91 C 44.11 84.47 42.15 85.79 40.12 85.47 C 35.57 83.99 30.91 86.32 26.28 85.79 C 21.98 85.06 17.63 85.93 13.30 85.54 C 9.09 85.90 5.01 84.23 0.80 85.09 C 0.88 80.67 0.67 76.25 0.89 71.84 C 1.23 71.25 1.90 70.07 2.24 69.48 C 6.73 70.29 11.07 71.72 15.19 73.67 C 17.84 72.89 20.68 72.57 23.14 71.29 C 25.73 68.38 27.88 65.11 30.17 61.95 C 32.91 63.57 35.42 65.54 37.97 67.45 C 40.25 62.25 42.61 57.09 44.87 51.89 Z" />
</g>
<g id="#1b1b1bff">
<path fill="#1b1b1b" opacity="1.00" d=" M 83.56 67.98 C 89.76 69.51 96.10 68.83 102.39 68.64 C 107.98 69.39 113.59 68.13 119.17 68.96 C 119.19 76.29 119.20 83.62 119.18 90.95 C 115.22 91.65 111.27 91.31 107.35 90.63 C 99.49 92.60 91.51 89.54 83.56 90.87 C 83.55 83.24 83.57 75.61 83.56 67.98 Z" />
</g>
<g id="#151515ff">
<path fill="#151515" opacity="1.00" d=" M 0.80 85.09 C 5.01 84.23 9.09 85.90 13.30 85.54 C 17.63 85.93 21.98 85.06 26.28 85.79 C 30.91 86.32 35.57 83.99 40.12 85.47 C 42.15 85.79 44.11 84.47 46.16 84.91 C 49.16 85.31 52.46 86.48 55.16 84.45 C 56.18 85.19 57.19 85.94 58.21 86.69 C 58.64 85.98 59.08 85.28 59.51 84.58 C 59.94 84.94 60.78 85.64 61.21 86.00 C 63.35 85.72 65.55 85.38 67.66 86.08 C 72.41 84.53 77.43 85.63 82.31 85.13 C 82.32 96.50 82.30 107.88 82.34 119.26 C 64.23 119.17 46.13 119.27 28.03 119.20 C 26.46 119.16 24.79 119.33 23.46 118.32 C 19.14 118.78 15.81 115.67 12.00 114.20 C 8.82 112.03 5.91 109.10 4.56 105.40 C 0.78 99.34 0.65 92.05 0.80 85.09 Z" />
</g>
<g id="#141414ff">
<path fill="#141414" opacity="1.00" d=" M 83.56 90.87 C 91.51 89.54 99.49 92.60 107.35 90.63 C 111.27 91.31 115.22 91.65 119.18 90.95 C 119.03 92.82 119.58 94.95 118.30 96.54 C 118.79 100.65 115.89 103.82 114.49 107.43 C 111.60 113.10 105.49 115.49 100.08 118.09 C 98.90 118.20 97.72 118.27 96.54 118.32 C 92.52 120.02 87.77 119.08 83.49 118.96 C 83.64 109.60 83.52 100.23 83.56 90.87 Z" />
</g>
</svg>
