<?xml version="1.0" encoding="UTF-8" ?>
<!DOCTYPE svg PUBLIC "-//W3C//DTD SVG 1.1//EN" "http://www.w3.org/Graphics/SVG/1.1/DTD/svg11.dtd">
<svg width="120pt" height="120pt" viewBox="0 0 120 120" version="1.1" xmlns="http://www.w3.org/2000/svg">
<g id="#1ac3fbff">
<path fill="#1ac3fb" opacity="1.00" d=" M 12.45 4.58 C 18.50 0.60 25.99 0.28 33.00 0.24 C 51.33 0.23 69.67 0.20 88.01 0.25 C 94.93 0.30 102.32 0.86 108.15 4.98 C 116.09 10.00 120.15 19.88 119.33 29.06 C 118.78 38.02 118.62 47.02 118.69 56.00 C 112.85 56.80 106.91 56.29 101.03 56.21 C 100.94 49.75 101.03 43.30 100.99 36.84 C 92.67 43.46 84.18 49.87 75.99 56.65 C 78.21 59.23 80.44 61.80 82.57 64.45 C 82.31 65.14 81.79 66.53 81.53 67.22 C 78.97 64.20 76.44 61.16 73.95 58.10 C 69.27 61.65 64.83 65.54 60.02 68.90 C 55.35 65.51 50.87 61.85 46.42 58.17 C 43.83 60.58 41.82 63.50 39.49 66.13 C 39.04 65.67 38.14 64.75 37.69 64.29 C 39.77 61.60 42.19 59.18 44.06 56.34 C 35.61 49.99 27.44 43.25 19.04 36.82 C 19.03 45.51 19.12 54.21 19.01 62.90 C 16.37 63.53 13.64 63.69 11.00 63.00 C 7.78 62.06 4.58 63.36 1.41 63.87 C 1.46 52.19 1.26 40.50 0.67 28.83 C -0.15 19.46 4.25 9.49 12.45 4.58 M 19.60 33.05 C 32.90 43.88 46.58 54.26 59.98 64.97 C 72.75 55.14 85.32 45.04 98.05 35.16 C 98.88 34.55 99.63 33.84 100.29 33.05 C 73.39 32.97 46.50 32.97 19.60 33.05 Z" />
</g>
<g id="#1c75f2ff">
<path fill="#1c75f2" opacity="1.00" d=" M 0.00 27.54 L 0.67 28.83 C 1.26 40.50 1.46 52.19 1.41 63.87 C 4.58 63.36 7.78 62.06 11.00 63.00 C 13.64 63.69 16.37 63.53 19.01 62.90 C 18.87 70.83 18.96 78.77 19.03 86.70 C 25.31 79.28 31.54 71.82 37.69 64.29 C 38.14 64.75 39.04 65.67 39.49 66.13 C 33.66 73.05 27.92 80.05 22.15 87.01 C 47.42 86.94 72.69 87.17 97.96 86.90 C 92.39 80.42 87.05 73.74 81.53 67.22 C 81.79 66.53 82.31 65.14 82.57 64.45 C 88.63 71.86 94.71 79.26 100.96 86.50 C 101.08 76.41 101.09 66.31 101.03 56.21 C 106.91 56.29 112.85 56.80 118.69 56.00 C 118.62 47.02 118.78 38.02 119.33 29.06 L 120.00 27.93 L 120.00 64.43 C 119.18 75.25 120.39 86.18 119.14 96.98 C 118.01 106.15 111.67 114.55 102.87 117.61 C 98.86 119.37 94.43 119.10 90.24 120.00 L 30.19 120.00 C 25.90 119.15 21.37 119.42 17.26 117.65 C 9.14 114.85 2.96 107.53 1.26 99.15 C 0.50 96.24 0.75 93.19 0.00 90.29 L 0.00 27.54 Z" />
</g>
<g id="#ffffffff">
<path fill="#ffffff" opacity="1.00" d=" M 19.60 33.05 C 46.50 32.97 73.39 32.97 100.29 33.05 C 99.63 33.84 98.88 34.55 98.05 35.16 C 85.32 45.04 72.75 55.14 59.98 64.97 C 46.58 54.26 32.90 43.88 19.60 33.05 Z" />
<path fill="#ffffff" opacity="1.00" d=" M 19.04 36.82 C 27.44 43.25 35.61 49.99 44.06 56.34 C 42.19 59.18 39.77 61.60 37.69 64.29 C 31.54 71.82 25.31 79.28 19.03 86.70 C 18.96 78.77 18.87 70.83 19.01 62.90 C 19.12 54.21 19.03 45.51 19.04 36.82 Z" />
<path fill="#ffffff" opacity="1.00" d=" M 75.99 56.65 C 84.18 49.87 92.67 43.46 100.99 36.84 C 101.03 43.30 100.94 49.75 101.03 56.21 C 101.09 66.31 101.08 76.41 100.96 86.50 C 94.71 79.26 88.63 71.86 82.57 64.45 C 80.44 61.80 78.21 59.23 75.99 56.65 Z" />
<path fill="#ffffff" opacity="1.00" d=" M 39.49 66.13 C 41.82 63.50 43.83 60.58 46.42 58.17 C 50.87 61.85 55.35 65.51 60.02 68.90 C 64.83 65.54 69.27 61.65 73.95 58.10 C 76.44 61.16 78.97 64.20 81.53 67.22 C 87.05 73.74 92.39 80.42 97.96 86.90 C 72.69 87.17 47.42 86.94 22.15 87.01 C 27.92 80.05 33.66 73.05 39.49 66.13 Z" />
</g>
</svg>
