<?xml version="1.0" encoding="UTF-8" ?>
<!DOCTYPE svg PUBLIC "-//W3C//DTD SVG 1.1//EN" "http://www.w3.org/Graphics/SVG/1.1/DTD/svg11.dtd">
<svg width="512pt" height="512pt" viewBox="0 0 512 512" version="1.1" xmlns="http://www.w3.org/2000/svg">
<g id="#ffffffff">
<path fill="#ffffff" opacity="1.00" d=" M 440.81 11.79 C 446.93 4.07 457.29 0.05 467.02 1.63 C 478.54 3.20 488.38 12.67 490.47 24.10 C 492.18 32.72 489.65 42.09 483.64 48.54 C 477.54 55.35 467.99 58.82 458.94 57.50 C 450.49 56.47 442.94 51.22 438.45 44.08 C 329.35 76.83 220.29 109.75 111.16 142.38 C 113.08 147.22 114.29 152.31 114.47 157.53 C 226.98 157.54 339.49 157.52 452.01 157.54 C 468.14 157.31 484.23 163.93 495.39 175.62 C 505.87 186.36 511.88 201.22 512.00 216.22 L 512.00 454.46 C 511.55 469.66 505.10 484.59 494.14 495.16 C 483.66 505.51 469.20 511.54 454.50 512.00 L 57.64 512.00 C 42.41 511.58 27.43 505.12 16.84 494.14 C 6.50 483.67 0.47 469.22 0.00 454.53 L 0.00 216.17 C 0.16 204.80 3.53 193.48 9.86 184.01 C 17.58 172.24 29.67 163.62 43.13 159.69 C 42.44 146.58 49.29 133.33 60.78 126.84 C 69.47 121.66 80.42 120.55 90.00 123.78 C 92.59 124.80 95.21 123.44 97.73 122.86 C 209.95 91.72 322.19 60.69 434.40 29.55 C 434.72 23.17 436.68 16.76 440.81 11.79 M 59.06 196.94 C 59.07 223.19 59.05 249.44 59.07 275.69 C 144.40 275.68 229.73 275.69 315.05 275.69 C 315.06 249.44 315.06 223.19 315.06 196.94 C 229.73 196.94 144.40 196.94 59.06 196.94 M 334.79 196.94 C 334.77 223.18 334.80 249.42 334.77 275.66 C 374.16 275.73 413.54 275.66 452.93 275.69 C 452.95 249.44 452.93 223.19 452.94 196.94 C 413.55 196.94 374.17 196.94 334.79 196.94 M 381.59 332.76 C 360.41 336.81 342.05 352.73 335.08 373.14 C 329.12 389.84 330.79 409.05 339.58 424.46 C 346.84 437.45 358.95 447.63 373.00 452.55 C 386.76 457.51 402.29 457.32 415.95 452.09 C 430.50 446.64 442.81 435.49 449.65 421.54 C 456.98 406.93 458.18 389.39 452.88 373.94 C 448.28 360.13 438.64 348.08 426.17 340.58 C 412.99 332.51 396.73 329.68 381.59 332.76 M 67.07 335.10 C 61.97 335.86 58.76 341.06 59.07 345.98 C 59.10 378.33 58.98 410.68 59.13 443.02 C 59.08 448.66 64.50 453.66 70.14 452.72 C 75.31 452.24 79.01 447.18 78.76 442.15 C 78.78 409.77 78.82 377.38 78.74 344.99 C 78.96 338.99 73.04 333.64 67.07 335.10 M 104.50 335.61 C 100.77 337.17 98.50 341.08 98.50 345.06 C 98.42 376.35 98.51 407.65 98.46 438.94 C 98.43 442.39 98.33 446.28 100.69 449.08 C 103.69 453.19 110.06 454.03 114.05 450.91 C 116.94 448.95 118.16 445.36 118.14 441.98 C 118.18 410.66 118.12 379.34 118.17 348.02 C 118.17 344.90 118.16 341.45 116.14 338.86 C 113.64 335.21 108.54 333.96 104.50 335.61 M 143.53 335.79 C 139.67 337.55 137.69 341.81 137.85 345.92 C 137.85 377.94 137.83 409.97 137.86 441.99 C 137.58 446.97 141.06 452.06 146.19 452.67 C 151.97 453.84 157.60 448.68 157.48 442.90 C 157.60 410.58 157.50 378.26 157.53 345.93 C 157.56 342.50 156.42 338.80 153.47 336.79 C 150.69 334.61 146.70 334.37 143.53 335.79 M 183.40 335.57 C 179.29 337.21 177.03 341.61 177.22 345.91 C 177.22 377.94 177.21 409.97 177.23 442.00 C 177.22 445.32 178.40 448.82 181.19 450.81 C 184.64 453.59 189.99 453.43 193.32 450.53 C 196.17 448.28 197.05 444.50 196.95 441.03 C 196.89 408.98 197.01 376.92 196.89 344.88 C 197.14 338.13 189.65 332.84 183.40 335.57 M 222.49 335.69 C 218.90 337.31 216.58 341.09 216.67 345.03 C 216.58 377.35 216.64 409.67 216.64 441.99 C 216.27 447.06 219.97 452.16 225.15 452.71 C 231.26 453.78 236.82 448.04 236.30 442.01 C 236.29 409.66 236.36 377.31 236.27 344.96 C 236.62 338.04 228.80 332.66 222.49 335.69 M 262.33 335.51 C 258.10 337.07 255.82 341.60 256.01 345.94 C 256.00 377.98 255.99 410.03 256.01 442.07 C 255.80 446.60 258.63 451.26 263.14 452.42 C 269.15 454.43 275.73 449.27 275.62 443.03 C 275.78 411.03 275.62 379.02 275.70 347.01 C 275.71 344.06 275.42 340.84 273.41 338.51 C 270.90 335.18 266.17 334.07 262.33 335.51 Z" />
<path fill="#ffffff" opacity="1.00" d=" M 384.42 359.54 C 393.53 357.03 403.67 358.27 411.80 363.12 C 419.60 367.64 425.61 375.26 428.02 383.96 C 430.80 393.31 429.44 403.83 424.36 412.16 C 419.01 421.19 409.46 427.61 399.06 429.04 C 389.36 430.54 379.04 427.77 371.47 421.50 C 363.72 415.36 358.82 405.80 358.34 395.92 C 357.03 379.62 368.58 363.53 384.42 359.54 Z" />
</g>
</svg>
