<?xml version="1.0" encoding="UTF-8" ?>
<!DOCTYPE svg PUBLIC "-//W3C//DTD SVG 1.1//EN" "http://www.w3.org/Graphics/SVG/1.1/DTD/svg11.dtd">
<svg width="120pt" height="120pt" viewBox="0 0 120 120" version="1.1" xmlns="http://www.w3.org/2000/svg">
<g id="#3e79ebff">
<path fill="#3e79eb" opacity="1.00" d=" M 14.42 3.60 C 18.77 1.91 23.29 0.39 28.03 0.52 C 44.71 0.31 61.39 0.48 78.07 0.43 C 87.30 0.58 96.99 -0.52 105.59 3.61 C 109.97 6.26 113.73 10.05 116.39 14.42 C 117.87 18.47 119.46 22.61 119.42 27.00 C 119.67 41.17 119.42 55.35 119.48 69.52 C 114.47 70.98 109.08 69.38 104.21 71.42 C 102.89 66.90 100.46 62.75 97.22 59.34 C 99.61 55.12 102.38 50.97 103.32 46.13 C 105.74 35.48 101.52 23.70 92.83 17.08 C 83.76 9.82 70.39 9.09 60.38 14.86 C 60.20 14.80 59.84 14.68 59.66 14.62 C 48.68 11.34 36.27 13.12 26.91 19.82 C 14.65 28.22 8.58 44.27 11.88 58.72 C 8.09 58.42 4.29 58.48 0.50 58.72 C 0.56 48.16 0.34 37.61 0.58 27.06 C 0.55 22.68 2.06 18.53 3.58 14.49 C 6.22 10.07 10.02 6.28 14.42 3.60 Z" />
</g>
<g id="#8cabf3ff">
<path fill="#8cabf3" opacity="1.00" d=" M 60.38 14.86 C 70.39 9.09 83.76 9.82 92.83 17.08 C 101.52 23.70 105.74 35.48 103.32 46.13 C 102.38 50.97 99.61 55.12 97.22 59.34 C 94.10 56.21 90.06 54.32 86.02 52.70 C 86.07 44.54 84.19 36.24 79.45 29.48 C 75.01 22.57 67.96 17.77 60.38 14.86 Z" />
</g>
<g id="#bfcbf8ff">
<path fill="#bfcbf8" opacity="1.00" d=" M 26.91 19.82 C 36.27 13.12 48.68 11.34 59.66 14.62 C 56.31 17.93 52.63 21.05 50.22 25.16 C 45.28 33.46 44.94 44.24 49.20 52.88 C 51.14 56.74 54.36 59.70 57.14 62.94 C 53.11 70.46 50.18 79.80 54.72 87.81 C 45.47 88.78 35.69 87.38 27.94 81.93 C 19.90 76.59 13.96 68.18 11.88 58.72 C 8.58 44.27 14.65 28.22 26.91 19.82 Z" />
</g>
<g id="#e3e7fbff">
<path fill="#e3e7fb" opacity="1.00" d=" M 59.66 14.62 C 59.84 14.68 60.20 14.80 60.38 14.86 C 67.96 17.77 75.01 22.57 79.45 29.48 C 84.19 36.24 86.07 44.54 86.02 52.70 C 90.06 54.32 94.10 56.21 97.22 59.34 C 100.46 62.75 102.89 66.90 104.21 71.42 C 106.42 80.22 103.87 89.99 97.42 96.41 C 88.53 105.53 72.96 106.49 63.00 98.53 C 59.29 95.81 56.72 91.89 54.72 87.81 C 50.18 79.80 53.11 70.46 57.14 62.94 C 54.36 59.70 51.14 56.74 49.20 52.88 C 44.94 44.24 45.28 33.46 50.22 25.16 C 52.63 21.05 56.31 17.93 59.66 14.62 Z" />
</g>
<g id="#5146e5ff">
<path fill="#5146e5" opacity="1.00" d=" M 0.50 58.72 C 4.29 58.48 8.09 58.42 11.88 58.72 C 13.96 68.18 19.90 76.59 27.94 81.93 C 26.95 86.94 26.36 92.40 28.84 97.09 C 32.61 105.57 43.17 110.08 51.91 107.00 C 56.53 105.63 59.92 102.04 63.00 98.53 C 72.96 106.49 88.53 105.53 97.42 96.41 C 103.87 89.99 106.42 80.22 104.21 71.42 C 109.08 69.38 114.47 70.98 119.48 69.52 C 118.89 81.62 121.38 94.43 116.17 105.84 C 115.20 106.65 114.49 107.66 114.18 108.89 C 112.39 110.62 110.63 112.38 108.90 114.17 C 107.66 114.48 106.65 115.21 105.84 116.19 C 100.84 118.37 95.40 119.58 89.94 119.50 C 69.97 119.55 49.99 119.55 30.02 119.50 C 24.57 119.57 19.14 118.37 14.16 116.18 C 13.36 115.20 12.34 114.49 11.11 114.18 C 9.37 112.39 7.62 110.62 5.83 108.89 C 5.51 107.66 4.79 106.65 3.83 105.84 C 1.67 100.85 0.44 95.43 0.55 89.99 C 0.51 79.56 0.51 69.14 0.50 58.72 Z" />
</g>
<g id="#867dedff">
<path fill="#867ded" opacity="1.00" d=" M 27.94 81.93 C 35.69 87.38 45.47 88.78 54.72 87.81 C 56.72 91.89 59.29 95.81 63.00 98.53 C 59.92 102.04 56.53 105.63 51.91 107.00 C 43.17 110.08 32.61 105.57 28.84 97.09 C 26.36 92.40 26.95 86.94 27.94 81.93 Z" />
</g>
</svg>
