<?xml version="1.0" encoding="UTF-8" ?>
<!DOCTYPE svg PUBLIC "-//W3C//DTD SVG 1.1//EN" "http://www.w3.org/Graphics/SVG/1.1/DTD/svg11.dtd">
<svg width="120pt" height="120pt" viewBox="0 0 120 120" version="1.1" xmlns="http://www.w3.org/2000/svg">
<g id="#fb382dff">
<path fill="#fb382d" opacity="1.00" d=" M 13.14 4.23 C 19.39 0.44 26.92 0.31 34.00 0.32 C 52.66 0.34 71.32 0.24 89.98 0.37 C 96.26 0.36 102.80 1.40 108.10 4.98 C 114.03 8.68 117.68 15.20 118.98 21.95 C 111.46 20.91 103.91 22.29 96.37 21.63 C 91.14 21.20 85.89 21.65 80.67 22.09 C 80.44 23.42 80.20 24.75 80.03 26.09 C 78.36 23.51 76.56 20.66 73.46 19.68 C 68.20 17.89 62.56 14.62 56.92 16.86 C 50.97 18.49 46.04 22.29 41.38 26.17 C 41.74 24.78 42.11 23.38 42.49 21.99 C 28.74 21.75 14.87 23.12 1.21 21.10 C 2.67 14.17 6.83 7.67 13.14 4.23 Z" />
</g>
<g id="#ffffffff">
<path fill="#ffffff" opacity="1.00" d=" M 56.92 16.86 C 62.56 14.62 68.20 17.89 73.46 19.68 C 76.56 20.66 78.36 23.51 80.03 26.09 C 81.19 30.84 81.37 35.77 80.42 40.58 C 79.86 43.45 80.55 46.29 81.15 49.08 C 81.28 51.71 80.30 54.27 79.58 56.78 C 78.06 59.61 76.12 62.30 75.78 65.60 C 75.30 70.38 71.10 74.27 72.57 79.26 C 72.82 84.29 77.89 86.10 82.14 86.54 C 87.77 87.17 93.08 89.15 98.15 91.61 C 97.99 95.73 98.01 99.85 97.98 103.98 C 72.66 103.97 47.35 103.99 22.04 103.97 C 21.98 100.02 21.94 96.07 22.09 92.12 C 26.85 89.92 31.54 87.30 36.83 86.62 C 40.33 85.88 44.41 85.79 47.10 83.13 C 49.13 79.14 49.49 74.08 46.63 70.39 C 45.91 68.18 45.54 65.89 45.00 63.64 C 44.27 60.46 42.04 57.93 41.07 54.83 C 38.77 48.96 41.93 42.80 40.40 36.78 C 40.00 33.21 40.31 29.61 41.38 26.17 C 46.04 22.29 50.97 18.49 56.92 16.86 Z" />
</g>
<g id="#f03026ff">
<path fill="#f03026" opacity="1.00" d=" M 1.21 21.10 C 14.87 23.12 28.74 21.75 42.49 21.99 C 42.11 23.38 41.74 24.78 41.38 26.17 C 40.31 29.61 40.00 33.21 40.40 36.78 C 40.22 37.49 39.86 38.91 39.68 39.62 C 32.83 39.36 25.96 38.72 19.10 39.18 C 12.86 39.72 6.59 38.81 0.36 39.63 C 0.42 33.45 0.05 27.21 1.21 21.10 Z" />
</g>
<g id="#f13026ff">
<path fill="#f13026" opacity="1.00" d=" M 80.67 22.09 C 85.89 21.65 91.14 21.20 96.37 21.63 C 103.91 22.29 111.46 20.91 118.98 21.95 C 119.85 27.59 119.62 33.32 119.63 39.00 C 110.08 38.97 100.54 39.04 90.99 38.90 C 87.39 38.81 83.83 39.48 80.42 40.58 C 81.37 35.77 81.19 30.84 80.03 26.09 C 80.20 24.75 80.44 23.42 80.67 22.09 Z" />
</g>
<g id="#e52720ff">
<path fill="#e52720" opacity="1.00" d=" M 40.40 36.78 C 41.93 42.80 38.77 48.96 41.07 54.83 C 27.51 55.21 13.95 54.91 0.39 55.01 C 0.36 49.88 0.33 44.75 0.36 39.63 C 6.59 38.81 12.86 39.72 19.10 39.18 C 25.96 38.72 32.83 39.36 39.68 39.62 C 39.86 38.91 40.22 37.49 40.40 36.78 Z" />
<path fill="#e52720" opacity="1.00" d=" M 80.42 40.58 C 83.83 39.48 87.39 38.81 90.99 38.90 C 100.54 39.04 110.08 38.97 119.63 39.00 C 119.67 44.67 119.64 50.34 119.60 56.01 C 106.27 56.39 92.85 55.13 79.58 56.78 C 80.30 54.27 81.28 51.71 81.15 49.08 C 80.55 46.29 79.86 43.45 80.42 40.58 Z" />
</g>
<g id="#d91f19ff">
<path fill="#d91f19" opacity="1.00" d=" M 0.39 55.01 C 13.95 54.91 27.51 55.21 41.07 54.83 C 42.04 57.93 44.27 60.46 45.00 63.64 C 45.54 65.89 45.91 68.18 46.63 70.39 C 39.48 69.71 32.34 71.15 25.19 70.47 C 16.93 70.32 8.66 70.95 0.42 70.14 C 0.36 65.09 0.36 60.05 0.39 55.01 Z" />
</g>
<g id="#d81e18ff">
<path fill="#d81e18" opacity="1.00" d=" M 79.58 56.78 C 92.85 55.13 106.27 56.39 119.60 56.01 C 119.65 61.34 119.63 66.68 119.58 72.01 C 110.05 71.96 100.51 72.15 90.98 71.96 C 87.41 71.95 83.75 71.27 80.25 72.20 C 76.95 73.58 74.90 76.71 72.57 79.26 C 71.10 74.27 75.30 70.38 75.78 65.60 C 76.12 62.30 78.06 59.61 79.58 56.78 Z" />
</g>
<g id="#cd1512ff">
<path fill="#cd1512" opacity="1.00" d=" M 0.42 70.14 C 8.66 70.95 16.93 70.32 25.19 70.47 C 32.34 71.15 39.48 69.71 46.63 70.39 C 49.49 74.08 49.13 79.14 47.10 83.13 C 44.41 85.79 40.33 85.88 36.83 86.62 C 31.54 87.30 26.85 89.92 22.09 92.12 C 14.94 90.79 7.65 92.53 0.49 91.18 C 0.38 84.16 0.37 77.15 0.42 70.14 Z" />
</g>
<g id="#cc1511ff">
<path fill="#cc1511" opacity="1.00" d=" M 80.25 72.20 C 83.75 71.27 87.41 71.95 90.98 71.96 C 100.51 72.15 110.05 71.96 119.58 72.01 C 119.63 78.76 119.62 85.51 119.49 92.26 C 112.38 92.77 105.20 92.71 98.15 91.61 C 93.08 89.15 87.77 87.17 82.14 86.54 C 77.89 86.10 72.82 84.29 72.57 79.26 C 74.90 76.71 76.95 73.58 80.25 72.20 Z" />
</g>
<g id="#bb0808ff">
<path fill="#bb0808" opacity="1.00" d=" M 0.49 91.18 C 7.65 92.53 14.94 90.79 22.09 92.12 C 21.94 96.07 21.98 100.02 22.04 103.97 C 47.35 103.99 72.66 103.97 97.98 103.98 C 98.01 99.85 97.99 95.73 98.15 91.61 C 105.20 92.71 112.38 92.77 119.49 92.26 C 119.28 97.73 118.08 103.42 114.91 107.97 C 111.53 111.87 107.86 116.03 102.73 117.54 C 96.43 119.96 89.60 119.49 83.00 119.56 C 65.00 119.52 47.01 119.63 29.02 119.50 C 21.55 119.49 13.50 117.41 8.40 111.60 C 2.53 106.62 0.54 98.59 0.49 91.18 Z" />
</g>
</svg>
