<?xml version="1.0" encoding="UTF-8" ?>
<!DOCTYPE svg PUBLIC "-//W3C//DTD SVG 1.1//EN" "http://www.w3.org/Graphics/SVG/1.1/DTD/svg11.dtd">
<svg width="128pt" height="128pt" viewBox="0 0 128 128" version="1.1" xmlns="http://www.w3.org/2000/svg">
<g id="#ffe754ff">
<path fill="#ffe754" opacity="1.00" d=" M 14.90 16.06 C 19.83 10.28 27.68 8.19 35.03 8.25 C 54.34 8.10 73.66 8.10 92.98 8.25 C 100.35 8.18 108.20 10.32 113.15 16.11 C 113.80 17.31 114.39 18.54 114.99 19.76 C 81.00 19.90 47.01 19.85 13.02 19.76 C 13.63 18.52 14.24 17.28 14.90 16.06 Z" />
</g>
<g id="#fed439ff">
<path fill="#fed439" opacity="1.00" d=" M 8.90 27.42 C 9.97 23.23 11.79 19.14 14.90 16.06 C 14.24 17.28 13.63 18.52 13.02 19.76 C 47.01 19.85 81.00 19.90 114.99 19.76 C 114.39 18.54 113.80 17.31 113.15 16.11 C 115.27 18.37 117.07 21.00 118.04 23.97 C 117.94 25.25 117.84 26.52 117.72 27.80 C 86.47 28.10 55.21 27.82 23.96 28.00 C 18.93 28.10 13.90 27.96 8.90 27.42 Z" />
</g>
<g id="#fec728ff">
<path fill="#fec728" opacity="1.00" d=" M 118.04 23.97 C 118.71 26.22 119.42 28.52 119.47 30.89 C 119.22 32.54 118.92 34.19 118.62 35.83 C 82.23 36.11 45.84 35.54 9.46 36.07 C 9.04 38.44 8.62 40.81 8.19 43.17 C 8.13 37.91 8.18 32.64 8.90 27.42 C 13.90 27.96 18.93 28.10 23.96 28.00 C 55.21 27.82 86.47 28.10 117.72 27.80 C 117.84 26.52 117.94 25.25 118.04 23.97 Z" />
</g>
<g id="#febc1aff">
<path fill="#febc1a" opacity="1.00" d=" M 119.47 30.89 C 119.89 35.08 119.82 39.29 119.86 43.49 L 119.27 43.55 C 82.46 43.84 45.64 43.70 8.83 43.61 L 8.11 43.60 L 8.19 43.17 C 8.62 40.81 9.04 38.44 9.46 36.07 C 45.84 35.54 82.23 36.11 118.62 35.83 C 118.92 34.19 119.22 32.54 119.47 30.89 Z" />
</g>
<g id="#949494fb">
<path fill="#949494" opacity="1.00" d=" M 8.11 43.60 L 8.83 43.61 C 8.78 44.40 8.69 45.98 8.64 46.77 C 8.36 52.18 8.54 57.58 8.53 62.99 C 45.51 62.97 82.48 62.96 119.46 62.99 C 119.48 57.58 119.61 52.16 119.35 46.74 C 119.33 45.94 119.29 44.35 119.27 43.55 L 119.86 43.49 C 119.96 50.14 120.15 56.80 119.75 63.44 L 119.64 64.30 C 82.53 64.30 45.43 64.14 8.32 64.38 L 8.24 63.47 C 7.86 56.86 8.06 50.22 8.11 43.60 Z" />
</g>
<g id="#dbdbdbff">
<path fill="#dbdbdb" opacity="1.00" d=" M 8.83 43.61 C 45.64 43.70 82.46 43.84 119.27 43.55 C 119.29 44.35 119.33 45.94 119.35 46.74 C 82.45 46.60 45.54 46.56 8.64 46.77 C 8.69 45.98 8.78 44.40 8.83 43.61 Z" />
</g>
<g id="#efefefff">
<path fill="#efefef" opacity="1.00" d=" M 8.64 46.77 C 45.54 46.56 82.45 46.60 119.35 46.74 C 119.61 52.16 119.48 57.58 119.46 62.99 C 82.48 62.96 45.51 62.97 8.53 62.99 C 8.54 57.58 8.36 52.18 8.64 46.77 M 14.22 48.34 C 12.63 48.69 13.30 51.32 14.87 50.84 C 16.51 50.50 15.81 47.83 14.22 48.34 M 18.18 48.35 C 16.50 48.62 17.13 51.38 18.77 50.85 C 20.33 50.49 19.75 47.91 18.18 48.35 M 33.22 48.36 C 31.65 48.77 32.36 51.40 33.94 50.85 C 35.53 50.44 34.80 47.80 33.22 48.36 M 37.12 48.35 C 35.44 48.68 36.19 51.39 37.80 50.82 C 39.38 50.43 38.68 47.86 37.12 48.35 M 52.19 48.37 C 50.61 48.77 51.35 51.37 52.91 50.86 C 54.54 50.47 53.77 47.81 52.19 48.37 M 56.14 48.36 C 54.47 48.63 55.12 51.35 56.74 50.86 C 58.33 50.52 57.72 47.92 56.14 48.36 M 71.26 48.35 C 69.66 48.68 70.28 51.32 71.87 50.85 C 73.52 50.54 72.87 47.85 71.26 48.35 M 75.15 48.34 C 73.49 48.65 74.17 51.38 75.79 50.84 C 77.35 50.46 76.72 47.87 75.15 48.34 M 90.22 48.36 C 88.61 48.73 89.35 51.34 90.91 50.85 C 92.57 50.49 91.81 47.84 90.22 48.36 M 94.13 48.35 C 92.47 48.66 93.16 51.37 94.77 50.85 C 96.35 50.48 95.70 47.88 94.13 48.35 M 109.21 48.37 C 107.62 48.74 108.33 51.34 109.90 50.85 C 111.56 50.50 110.81 47.82 109.21 48.37 M 113.11 48.36 C 111.46 48.71 112.21 51.41 113.81 50.85 C 115.37 50.44 114.66 47.86 113.11 48.36 M 10.05 48.90 C 9.52 50.53 10.06 51.09 11.69 50.58 C 12.23 48.96 11.69 48.40 10.05 48.90 M 21.30 48.89 C 20.76 50.50 21.30 51.07 22.93 50.59 C 23.48 48.97 22.94 48.40 21.30 48.89 M 25.15 48.92 C 24.67 50.57 25.23 51.11 26.83 50.56 C 27.32 48.91 26.76 48.36 25.15 48.92 M 29.04 48.91 C 28.51 50.54 29.06 51.09 30.69 50.57 C 31.22 48.94 30.67 48.38 29.04 48.91 M 40.27 48.92 C 39.79 50.56 40.35 51.11 41.97 50.56 C 42.45 48.92 41.89 48.37 40.27 48.92 M 44.17 48.90 C 43.65 50.53 44.19 51.09 45.81 50.58 C 46.34 48.94 45.79 48.38 44.17 48.90 M 48.05 48.90 C 47.51 50.53 48.05 51.09 49.68 50.58 C 50.23 48.95 49.68 48.39 48.05 48.90 M 59.29 48.90 C 58.76 50.53 59.32 51.09 60.94 50.58 C 61.47 48.95 60.92 48.39 59.29 48.90 M 63.17 48.91 C 62.66 50.55 63.22 51.10 64.83 50.57 C 65.34 48.93 64.79 48.37 63.17 48.91 M 67.08 48.88 C 66.49 50.49 67.02 51.07 68.67 50.61 C 69.25 49.00 68.73 48.42 67.08 48.88 M 78.30 48.91 C 77.79 50.54 78.35 51.09 79.97 50.57 C 80.48 48.93 79.92 48.38 78.30 48.91 M 82.18 48.91 C 81.66 50.54 82.21 51.10 83.83 50.58 C 84.35 48.94 83.80 48.38 82.18 48.91 M 86.09 48.88 C 85.50 50.49 86.03 51.06 87.67 50.60 C 88.26 48.99 87.73 48.42 86.09 48.88 M 97.30 48.89 C 96.78 50.52 97.33 51.07 98.96 50.57 C 99.48 48.94 98.93 48.38 97.30 48.89 M 101.17 48.90 C 100.66 50.54 101.21 51.10 102.83 50.57 C 103.34 48.93 102.79 48.37 101.17 48.90 M 105.06 48.89 C 104.53 50.52 105.08 51.08 106.71 50.56 C 107.24 48.93 106.69 48.38 105.06 48.89 M 116.32 48.88 C 115.76 50.49 116.30 51.06 117.93 50.59 C 118.49 48.98 117.96 48.40 116.32 48.88 Z" />
</g>
<g id="#adadadff">
<path fill="#adadad" opacity="1.00" d=" M 14.22 48.34 C 15.81 47.83 16.51 50.50 14.87 50.84 C 13.30 51.32 12.63 48.69 14.22 48.34 Z" />
<path fill="#adadad" opacity="1.00" d=" M 18.18 48.35 C 19.75 47.91 20.33 50.49 18.77 50.85 C 17.13 51.38 16.50 48.62 18.18 48.35 Z" />
<path fill="#adadad" opacity="1.00" d=" M 33.22 48.36 C 34.80 47.80 35.53 50.44 33.94 50.85 C 32.36 51.40 31.65 48.77 33.22 48.36 Z" />
<path fill="#adadad" opacity="1.00" d=" M 37.12 48.35 C 38.68 47.86 39.38 50.43 37.80 50.82 C 36.19 51.39 35.44 48.68 37.12 48.35 Z" />
<path fill="#adadad" opacity="1.00" d=" M 52.19 48.37 C 53.77 47.81 54.54 50.47 52.91 50.86 C 51.35 51.37 50.61 48.77 52.19 48.37 Z" />
<path fill="#adadad" opacity="1.00" d=" M 56.14 48.36 C 57.72 47.92 58.33 50.52 56.74 50.86 C 55.12 51.35 54.47 48.63 56.14 48.36 Z" />
<path fill="#adadad" opacity="1.00" d=" M 71.26 48.35 C 72.87 47.85 73.52 50.54 71.87 50.85 C 70.28 51.32 69.66 48.68 71.26 48.35 Z" />
<path fill="#adadad" opacity="1.00" d=" M 75.15 48.34 C 76.72 47.87 77.35 50.46 75.79 50.84 C 74.17 51.38 73.49 48.65 75.15 48.34 Z" />
<path fill="#adadad" opacity="1.00" d=" M 90.22 48.36 C 91.81 47.84 92.57 50.49 90.91 50.85 C 89.35 51.34 88.61 48.73 90.22 48.36 Z" />
<path fill="#adadad" opacity="1.00" d=" M 94.13 48.35 C 95.70 47.88 96.35 50.48 94.77 50.85 C 93.16 51.37 92.47 48.66 94.13 48.35 Z" />
<path fill="#adadad" opacity="1.00" d=" M 109.21 48.37 C 110.81 47.82 111.56 50.50 109.90 50.85 C 108.33 51.34 107.62 48.74 109.21 48.37 Z" />
<path fill="#adadad" opacity="1.00" d=" M 113.11 48.36 C 114.66 47.86 115.37 50.44 113.81 50.85 C 112.21 51.41 111.46 48.71 113.11 48.36 Z" />
</g>
<g id="#a4a4a4ff">
<path fill="#a4a4a4" opacity="1.00" d=" M 10.05 48.90 C 11.69 48.40 12.23 48.96 11.69 50.58 C 10.06 51.09 9.52 50.53 10.05 48.90 Z" />
<path fill="#a4a4a4" opacity="1.00" d=" M 29.04 48.91 C 30.67 48.38 31.22 48.94 30.69 50.57 C 29.06 51.09 28.51 50.54 29.04 48.91 Z" />
<path fill="#a4a4a4" opacity="1.00" d=" M 48.05 48.90 C 49.68 48.39 50.23 48.95 49.68 50.58 C 48.05 51.09 47.51 50.53 48.05 48.90 Z" />
<path fill="#a4a4a4" opacity="1.00" d=" M 59.29 48.90 C 60.92 48.39 61.47 48.95 60.94 50.58 C 59.32 51.09 58.76 50.53 59.29 48.90 Z" />
<path fill="#a4a4a4" opacity="1.00" d=" M 67.08 48.88 C 68.73 48.42 69.25 49.00 68.67 50.61 C 67.02 51.07 66.49 50.49 67.08 48.88 Z" />
<path fill="#a4a4a4" opacity="1.00" d=" M 78.30 48.91 C 79.92 48.38 80.48 48.93 79.97 50.57 C 78.35 51.09 77.79 50.54 78.30 48.91 Z" />
<path fill="#a4a4a4" opacity="1.00" d=" M 97.30 48.89 C 98.93 48.38 99.48 48.94 98.96 50.57 C 97.33 51.07 96.78 50.52 97.30 48.89 Z" />
<path fill="#a4a4a4" opacity="1.00" d=" M 116.32 48.88 C 117.96 48.40 118.49 48.98 117.93 50.59 C 116.30 51.06 115.76 50.49 116.32 48.88 Z" />
</g>
<g id="#a3a3a3ff">
<path fill="#a3a3a3" opacity="1.00" d=" M 21.30 48.89 C 22.94 48.40 23.48 48.97 22.93 50.59 C 21.30 51.07 20.76 50.50 21.30 48.89 Z" />
<path fill="#a3a3a3" opacity="1.00" d=" M 40.27 48.92 C 41.89 48.37 42.45 48.92 41.97 50.56 C 40.35 51.11 39.79 50.56 40.27 48.92 Z" />
</g>
<g id="#9f9f9fff">
<path fill="#9f9f9f" opacity="1.00" d=" M 25.15 48.92 C 26.76 48.36 27.32 48.91 26.83 50.56 C 25.23 51.11 24.67 50.57 25.15 48.92 Z" />
<path fill="#9f9f9f" opacity="1.00" d=" M 44.17 48.90 C 45.79 48.38 46.34 48.94 45.81 50.58 C 44.19 51.09 43.65 50.53 44.17 48.90 Z" />
<path fill="#9f9f9f" opacity="1.00" d=" M 63.17 48.91 C 64.79 48.37 65.34 48.93 64.83 50.57 C 63.22 51.10 62.66 50.55 63.17 48.91 Z" />
<path fill="#9f9f9f" opacity="1.00" d=" M 101.17 48.90 C 102.79 48.37 103.34 48.93 102.83 50.57 C 101.21 51.10 100.66 50.54 101.17 48.90 Z" />
</g>
<g id="#9fa09fff">
<path fill="#9fa09f" opacity="1.00" d=" M 82.18 48.91 C 83.80 48.38 84.35 48.94 83.83 50.58 C 82.21 51.10 81.66 50.54 82.18 48.91 Z" />
</g>
<g id="#a4a3a4ff">
<path fill="#a4a3a4" opacity="1.00" d=" M 86.09 48.88 C 87.73 48.42 88.26 48.99 87.67 50.60 C 86.03 51.06 85.50 50.49 86.09 48.88 Z" />
<path fill="#a4a3a4" opacity="1.00" d=" M 105.06 48.89 C 106.69 48.38 107.24 48.93 106.71 50.56 C 105.08 51.08 104.53 50.52 105.06 48.89 Z" />
</g>
<g id="#aaaaaaf7">
<path fill="#aaaaaa" opacity="0.97" d=" M 8.24 63.47 L 8.32 64.38 C 9.04 70.89 8.54 77.45 8.70 83.98 C 45.57 84.01 82.44 84.01 119.31 83.98 C 119.54 77.42 118.91 70.83 119.64 64.30 L 119.75 63.44 C 120.17 69.28 119.88 75.14 119.94 81.00 C 119.81 87.42 120.35 93.93 119.03 100.27 C 119.34 95.45 119.28 90.61 119.29 85.79 C 82.43 85.70 45.56 85.70 8.70 85.79 C 8.73 90.58 8.65 95.38 8.93 100.16 C 7.63 93.53 8.20 86.73 8.05 80.02 C 8.09 74.50 7.88 68.98 8.24 63.47 Z" />
</g>
<g id="#ecececff">
<path fill="#ececec" opacity="1.00" d=" M 8.32 64.38 C 45.43 64.14 82.53 64.30 119.64 64.30 C 118.91 70.83 119.54 77.42 119.31 83.98 C 82.44 84.01 45.57 84.01 8.70 83.98 C 8.54 77.45 9.04 70.89 8.32 64.38 Z" />
</g>
<g id="#ebeaebff">
<path fill="#ebeaeb" opacity="1.00" d=" M 8.70 85.79 C 45.56 85.70 82.43 85.70 119.29 85.79 C 119.28 90.61 119.34 95.45 119.03 100.27 C 118.70 102.03 118.13 103.72 117.63 105.44 L 117.02 105.33 C 111.40 104.21 105.66 104.74 99.97 104.68 C 74.98 104.62 49.98 104.70 24.99 104.66 C 20.31 104.57 15.59 104.43 10.97 105.37 L 10.39 105.47 C 9.87 103.71 9.28 101.97 8.93 100.16 C 8.65 95.38 8.73 90.58 8.70 85.79 Z" />
</g>
<g id="#e9e9e9ff">
<path fill="#e9e9e9" opacity="1.00" d=" M 10.97 105.37 C 15.59 104.43 20.31 104.57 24.99 104.66 C 49.98 104.70 74.98 104.62 99.97 104.68 C 105.66 104.74 111.40 104.21 117.02 105.33 C 116.17 109.43 112.91 112.41 109.80 114.94 C 104.50 119.05 97.54 119.77 91.05 119.78 C 74.02 119.87 57.00 119.80 39.97 119.82 C 33.01 119.77 25.48 119.80 19.45 115.80 C 15.79 113.21 12.04 109.91 10.97 105.37 Z" />
</g>
</svg>
