<?xml version="1.0" encoding="UTF-8" ?>
<!DOCTYPE svg PUBLIC "-//W3C//DTD SVG 1.1//EN" "http://www.w3.org/Graphics/SVG/1.1/DTD/svg11.dtd">
<svg width="120pt" height="120pt" viewBox="0 0 120 120" version="1.1" xmlns="http://www.w3.org/2000/svg">
<g id="#1ad0fcff">
<path fill="#1ad0fc" opacity="1.00" d=" M 11.79 5.01 C 17.38 1.10 24.39 0.33 31.04 0.28 C 47.70 0.18 64.37 0.27 81.04 0.24 C 89.97 0.36 99.74 -0.47 107.59 4.61 C 114.91 8.95 119.02 17.35 119.47 25.68 C 113.09 25.26 106.35 24.32 100.27 26.79 C 90.53 14.96 75.36 7.74 60.00 7.99 C 46.05 7.78 32.31 13.84 22.59 23.76 C 15.72 20.67 8.10 23.60 0.92 22.15 C 2.16 15.33 5.87 8.79 11.79 5.01 Z" />
</g>
<g id="#ffffffff">
<path fill="#ffffff" opacity="1.00" d=" M 22.59 23.76 C 32.31 13.84 46.05 7.78 60.00 7.99 C 75.36 7.74 90.53 14.96 100.27 26.79 C 103.01 30.12 105.30 33.80 107.21 37.66 C 108.82 40.94 109.92 44.43 110.86 47.96 C 112.14 52.81 112.05 57.87 112.01 62.85 C 112.00 67.28 111.21 71.66 109.82 75.86 C 108.58 80.13 106.52 84.09 104.27 87.90 C 100.56 93.81 95.59 98.85 89.97 102.95 C 72.48 115.26 47.42 115.25 30.02 102.78 C 25.18 99.24 20.85 95.00 17.38 90.10 C 14.89 86.39 12.72 82.44 11.14 78.26 C 9.83 74.26 8.71 70.16 8.22 65.97 C 7.90 61.86 7.90 57.72 8.31 53.61 C 9.73 42.47 14.82 31.87 22.59 23.76 M 65.58 16.23 C 66.65 16.57 67.75 16.72 68.90 16.69 C 73.55 18.00 75.74 23.78 80.96 23.53 C 78.93 21.57 78.89 18.67 77.62 16.36 C 74.26 14.11 70.30 13.04 66.37 12.30 C 65.87 13.56 64.67 14.85 65.58 16.23 M 63.00 14.18 C 61.34 17.12 66.44 14.40 63.00 14.18 M 33.07 20.11 C 31.75 20.65 31.65 22.25 31.13 23.38 C 30.37 23.55 28.85 23.88 28.09 24.05 C 30.58 24.47 32.89 23.43 35.07 22.35 C 35.97 23.27 37.22 23.96 37.73 25.21 C 39.20 27.83 37.79 31.20 39.88 33.56 C 39.54 33.79 38.87 34.25 38.54 34.48 C 38.26 35.14 37.70 36.46 37.42 37.12 C 37.04 38.41 36.42 39.69 36.56 41.07 C 36.56 44.50 39.92 46.68 40.22 50.03 C 40.42 52.32 41.75 54.24 43.40 55.81 C 42.77 53.98 41.51 50.33 40.89 48.50 C 41.54 49.41 42.84 51.22 43.49 52.13 C 44.76 54.35 46.92 56.33 46.72 59.10 C 49.58 60.74 52.32 63.36 55.89 62.76 C 58.01 64.72 61.36 64.56 63.10 66.98 C 63.88 67.81 64.71 68.60 65.71 69.17 C 67.03 69.86 68.27 69.58 69.29 68.46 C 71.69 70.49 70.56 73.86 68.50 75.64 C 68.01 77.42 67.62 79.23 67.25 81.04 C 69.19 83.08 70.71 85.46 71.81 88.04 C 73.16 88.66 74.51 89.26 75.88 89.85 C 75.05 96.81 70.15 102.20 66.50 107.87 C 67.91 107.87 69.30 107.62 70.26 106.51 C 74.25 102.53 79.62 100.51 83.87 96.86 C 87.47 94.37 89.34 90.10 93.17 87.88 C 96.09 84.69 96.15 80.03 98.89 76.71 L 99.13 76.75 C 99.22 75.46 99.32 74.17 99.43 72.88 C 96.81 72.11 94.05 72.01 91.40 72.70 C 92.06 70.80 90.95 69.23 89.94 67.74 C 86.31 68.04 83.58 64.83 79.97 65.24 C 78.22 65.29 76.50 64.91 74.81 64.48 C 73.52 65.60 72.28 66.79 71.09 68.01 C 70.57 67.87 69.54 67.58 69.02 67.44 C 68.57 67.68 67.67 68.16 67.22 68.40 C 66.73 67.98 65.76 67.15 65.27 66.74 C 65.27 65.39 65.27 64.05 65.26 62.71 C 63.66 62.64 62.05 62.58 60.45 62.51 C 60.98 60.82 61.54 59.13 62.06 57.43 C 59.01 57.12 58.24 61.33 54.86 60.46 C 52.49 57.80 52.66 54.42 53.90 51.29 C 57.19 50.50 60.57 50.25 63.95 50.29 C 64.72 51.68 65.67 52.97 66.87 54.02 C 67.15 51.73 64.88 48.86 67.03 47.07 C 69.62 44.85 68.58 40.73 71.65 38.69 L 70.54 37.93 C 72.04 37.12 73.62 36.47 75.36 36.45 C 74.33 35.31 73.31 34.17 72.30 33.01 C 71.26 33.73 70.21 34.44 69.16 35.16 C 69.84 34.27 70.52 33.39 71.21 32.51 C 73.01 32.03 74.92 31.56 76.07 29.95 C 73.82 28.65 71.47 27.47 69.54 25.70 C 68.93 26.07 68.31 26.43 67.70 26.79 C 66.47 25.63 65.07 24.67 63.53 23.98 C 62.91 25.61 63.26 27.26 64.26 28.64 C 64.28 29.68 64.34 31.75 64.36 32.78 C 62.61 32.01 61.97 29.70 59.89 29.53 C 58.41 28.97 56.18 28.87 56.02 26.85 C 56.31 24.33 59.11 23.30 60.29 21.24 C 58.20 20.21 56.86 17.94 54.23 18.22 C 54.49 19.53 55.01 20.73 55.79 21.82 C 53.95 21.54 52.09 21.44 50.23 21.54 C 48.20 20.33 46.09 18.97 43.60 19.27 C 42.49 18.33 41.42 17.34 40.18 16.58 C 37.47 16.82 35.45 18.97 33.07 20.11 M 62.20 18.29 C 62.25 18.70 62.34 19.51 62.38 19.91 C 64.55 20.48 66.78 20.72 68.96 21.27 C 68.66 21.80 68.06 22.86 67.76 23.39 C 69.33 23.76 70.91 24.13 72.48 24.51 C 72.38 23.65 72.18 21.94 72.09 21.08 C 68.77 20.15 65.79 18.03 62.20 18.29 M 64.91 55.66 C 64.76 56.07 64.46 56.89 64.31 57.31 C 67.63 55.70 71.19 58.45 73.88 60.27 C 74.99 59.74 76.55 59.62 76.89 58.20 C 76.31 57.98 75.13 57.53 74.55 57.31 L 74.28 58.62 C 73.65 58.07 73.01 57.53 72.38 56.98 C 69.87 56.67 67.45 55.76 64.91 55.66 Z" />
</g>
<g id="#1accfcff">
<path fill="#1accfc" opacity="1.00" d=" M 65.58 16.23 C 64.67 14.85 65.87 13.56 66.37 12.30 C 70.30 13.04 74.26 14.11 77.62 16.36 C 78.89 18.67 78.93 21.57 80.96 23.53 C 75.74 23.78 73.55 18.00 68.90 16.69 C 67.75 16.72 66.65 16.57 65.58 16.23 Z" />
<path fill="#1accfc" opacity="1.00" d=" M 62.20 18.29 C 65.79 18.03 68.77 20.15 72.09 21.08 C 72.18 21.94 72.38 23.65 72.48 24.51 C 70.91 24.13 69.33 23.76 67.76 23.39 C 68.06 22.86 68.66 21.80 68.96 21.27 C 66.78 20.72 64.55 20.48 62.38 19.91 C 62.34 19.51 62.25 18.70 62.20 18.29 Z" />
</g>
<g id="#1acdfcff">
<path fill="#1acdfc" opacity="1.00" d=" M 63.00 14.18 C 66.44 14.40 61.34 17.12 63.00 14.18 Z" />
</g>
<g id="#1bbffaff">
<path fill="#1bbffa" opacity="1.00" d=" M 33.07 20.11 C 35.45 18.97 37.47 16.82 40.18 16.58 C 41.42 17.34 42.49 18.33 43.60 19.27 C 46.09 18.97 48.20 20.33 50.23 21.54 C 52.09 21.44 53.95 21.54 55.79 21.82 C 55.01 20.73 54.49 19.53 54.23 18.22 C 56.86 17.94 58.20 20.21 60.29 21.24 C 59.11 23.30 56.31 24.33 56.02 26.85 C 56.18 28.87 58.41 28.97 59.89 29.53 C 61.97 29.70 62.61 32.01 64.36 32.78 C 64.34 31.75 64.28 29.68 64.26 28.64 C 63.26 27.26 62.91 25.61 63.53 23.98 C 65.07 24.67 66.47 25.63 67.70 26.79 C 68.31 26.43 68.93 26.07 69.54 25.70 C 71.47 27.47 73.82 28.65 76.07 29.95 C 74.92 31.56 73.01 32.03 71.21 32.51 C 70.52 33.39 69.84 34.27 69.16 35.16 C 70.21 34.44 71.26 33.73 72.30 33.01 C 73.31 34.17 74.33 35.31 75.36 36.45 C 73.62 36.47 72.04 37.12 70.54 37.93 C 67.03 38.07 63.53 37.97 60.03 37.81 C 52.49 37.42 44.86 38.83 37.42 37.12 C 37.70 36.46 38.26 35.14 38.54 34.48 C 38.87 34.25 39.54 33.79 39.88 33.56 C 37.79 31.20 39.20 27.83 37.73 25.21 C 37.22 23.96 35.97 23.27 35.07 22.35 C 32.89 23.43 30.58 24.47 28.09 24.05 C 28.85 23.88 30.37 23.55 31.13 23.38 C 31.65 22.25 31.75 20.65 33.07 20.11 Z" />
<path fill="#1bbffa" opacity="1.00" d=" M 100.27 26.79 C 106.35 24.32 113.09 25.26 119.47 25.68 C 119.50 26.02 119.56 26.69 119.59 27.03 C 119.11 30.02 119.00 33.05 119.13 36.07 C 115.18 36.28 110.49 34.72 107.21 37.66 C 105.30 33.80 103.01 30.12 100.27 26.79 Z" />
</g>
<g id="#1bbbfaff">
<path fill="#1bbbfa" opacity="1.00" d=" M 0.92 22.15 C 8.10 23.60 15.72 20.67 22.59 23.76 C 14.82 31.87 9.73 42.47 8.31 53.61 C 5.90 53.22 3.46 53.23 1.03 53.45 C 0.79 45.22 1.07 36.97 0.63 28.75 C 0.49 26.55 0.57 24.33 0.92 22.15 Z" />
</g>
<g id="#1471b1b8">
<path fill="#1471b1" opacity="0.72" d=" M 0.00 27.07 L 0.63 28.75 C 1.07 36.97 0.79 45.22 1.03 53.45 C 0.97 57.61 0.98 61.78 1.01 65.95 C 1.01 70.31 1.01 74.66 1.00 79.02 C 0.92 83.26 1.52 87.60 0.26 91.73 L 0.00 90.35 L 0.00 27.07 Z" />
<path fill="#1471b1" opacity="0.72" d=" M 119.59 27.03 L 120.00 28.68 L 120.00 92.16 L 119.48 90.64 C 119.37 90.19 119.15 89.29 119.04 88.84 C 118.84 84.59 119.06 80.33 118.99 76.08 C 118.98 71.57 119.00 67.06 119.00 62.55 C 119.03 57.92 119.07 53.29 119.09 48.65 C 119.10 44.46 119.22 40.26 119.13 36.07 C 119.00 33.05 119.11 30.02 119.59 27.03 Z" />
</g>
<g id="#1bb2f9ff">
<path fill="#1bb2f9" opacity="1.00" d=" M 107.21 37.66 C 110.49 34.72 115.18 36.28 119.13 36.07 C 119.22 40.26 119.10 44.46 119.09 48.65 C 116.36 48.30 113.61 48.08 110.86 47.96 C 109.92 44.43 108.82 40.94 107.21 37.66 Z" />
</g>
<g id="#1bb0f9ff">
<path fill="#1bb0f9" opacity="1.00" d=" M 36.56 41.07 C 36.42 39.69 37.04 38.41 37.42 37.12 C 44.86 38.83 52.49 37.42 60.03 37.81 C 63.53 37.97 67.03 38.07 70.54 37.93 L 71.65 38.69 C 68.58 40.73 69.62 44.85 67.03 47.07 C 64.88 48.86 67.15 51.73 66.87 54.02 C 65.67 52.97 64.72 51.68 63.95 50.29 C 60.57 50.25 57.19 50.50 53.90 51.29 C 50.44 51.65 46.94 51.60 43.49 52.13 C 42.84 51.22 41.54 49.41 40.89 48.50 C 41.51 50.33 42.77 53.98 43.40 55.81 C 41.75 54.24 40.42 52.32 40.22 50.03 C 39.92 46.68 36.56 44.50 36.56 41.07 Z" />
</g>
<g id="#1ba3f7ff">
<path fill="#1ba3f7" opacity="1.00" d=" M 110.86 47.96 C 113.61 48.08 116.36 48.30 119.09 48.65 C 119.07 53.29 119.03 57.92 119.00 62.55 C 116.67 62.56 114.33 62.68 112.01 62.85 C 112.05 57.87 112.14 52.81 110.86 47.96 Z" />
</g>
<g id="#1ba0f7ff">
<path fill="#1ba0f7" opacity="1.00" d=" M 43.49 52.13 C 46.94 51.60 50.44 51.65 53.90 51.29 C 52.66 54.42 52.49 57.80 54.86 60.46 C 58.24 61.33 59.01 57.12 62.06 57.43 C 61.54 59.13 60.98 60.82 60.45 62.51 C 62.05 62.58 63.66 62.64 65.26 62.71 C 65.27 64.05 65.27 65.39 65.27 66.74 C 65.76 67.15 66.73 67.98 67.22 68.40 C 66.84 68.59 66.09 68.98 65.71 69.17 C 64.71 68.60 63.88 67.81 63.10 66.98 C 61.36 64.56 58.01 64.72 55.89 62.76 C 52.32 63.36 49.58 60.74 46.72 59.10 C 46.92 56.33 44.76 54.35 43.49 52.13 Z" />
<path fill="#1ba0f7" opacity="1.00" d=" M 64.91 55.66 C 67.45 55.76 69.87 56.67 72.38 56.98 C 73.01 57.53 73.65 58.07 74.28 58.62 L 74.55 57.31 C 75.13 57.53 76.31 57.98 76.89 58.20 C 76.55 59.62 74.99 59.74 73.88 60.27 C 71.19 58.45 67.63 55.70 64.31 57.31 C 64.46 56.89 64.76 56.07 64.91 55.66 Z" />
</g>
<g id="#1b9df7ff">
<path fill="#1b9df7" opacity="1.00" d=" M 1.03 53.45 C 3.46 53.23 5.90 53.22 8.31 53.61 C 7.90 57.72 7.90 61.86 8.22 65.97 C 5.82 65.96 3.41 65.96 1.01 65.95 C 0.98 61.78 0.97 57.61 1.03 53.45 Z" />
</g>
<g id="#1c91f5ff">
<path fill="#1c91f5" opacity="1.00" d=" M 112.01 62.85 C 114.33 62.68 116.67 62.56 119.00 62.55 C 119.00 67.06 118.98 71.57 118.99 76.08 C 115.93 76.03 112.87 75.96 109.82 75.86 C 111.21 71.66 112.00 67.28 112.01 62.85 Z" />
</g>
<g id="#1c8ff5ff">
<path fill="#1c8ff5" opacity="1.00" d=" M 71.09 68.01 C 72.28 66.79 73.52 65.60 74.81 64.48 C 76.50 64.91 78.22 65.29 79.97 65.24 C 83.58 64.83 86.31 68.04 89.94 67.74 C 90.95 69.23 92.06 70.80 91.40 72.70 C 94.05 72.01 96.81 72.11 99.43 72.88 C 99.32 74.17 99.22 75.46 99.13 76.75 L 98.89 76.71 C 88.85 74.94 78.60 76.84 68.50 75.64 C 70.56 73.86 71.69 70.49 69.29 68.46 C 68.27 69.58 67.03 69.86 65.71 69.17 C 66.09 68.98 66.84 68.59 67.22 68.40 C 67.67 68.16 68.57 67.68 69.02 67.44 C 69.54 67.58 70.57 67.87 71.09 68.01 Z" />
</g>
<g id="#1c8df5ff">
<path fill="#1c8df5" opacity="1.00" d=" M 1.01 65.95 C 3.41 65.96 5.82 65.96 8.22 65.97 C 8.71 70.16 9.83 74.26 11.14 78.26 C 7.76 78.50 4.38 78.75 1.00 79.02 C 1.01 74.66 1.01 70.31 1.01 65.95 Z" />
</g>
<g id="#1c84f4ff">
<path fill="#1c84f4" opacity="1.00" d=" M 67.25 81.04 C 67.62 79.23 68.01 77.42 68.50 75.64 C 78.60 76.84 88.85 74.94 98.89 76.71 C 96.15 80.03 96.09 84.69 93.17 87.88 C 89.22 85.51 84.55 86.89 80.23 86.51 C 77.33 86.26 74.49 86.97 71.81 88.04 C 70.71 85.46 69.19 83.08 67.25 81.04 Z" />
</g>
<g id="#1c82f4ff">
<path fill="#1c82f4" opacity="1.00" d=" M 104.27 87.90 C 106.52 84.09 108.58 80.13 109.82 75.86 C 112.87 75.96 115.93 76.03 118.99 76.08 C 119.06 80.33 118.84 84.59 119.04 88.84 C 114.11 88.52 109.12 89.11 104.27 87.90 Z" />
</g>
<g id="#1c7ff3ff">
<path fill="#1c7ff3" opacity="1.00" d=" M 1.00 79.02 C 4.38 78.75 7.76 78.50 11.14 78.26 C 12.72 82.44 14.89 86.39 17.38 90.10 C 11.72 91.14 5.87 90.20 0.26 91.73 C 1.52 87.60 0.92 83.26 1.00 79.02 Z" />
</g>
<g id="#1c77f2ff">
<path fill="#1c77f2" opacity="1.00" d=" M 71.81 88.04 C 74.49 86.97 77.33 86.26 80.23 86.51 C 84.55 86.89 89.22 85.51 93.17 87.88 C 89.34 90.10 87.47 94.37 83.87 96.86 C 79.62 100.51 74.25 102.53 70.26 106.51 C 69.30 107.62 67.91 107.87 66.50 107.87 C 70.15 102.20 75.05 96.81 75.88 89.85 C 74.51 89.26 73.16 88.66 71.81 88.04 Z" />
</g>
<g id="#1d73f2ff">
<path fill="#1d73f2" opacity="1.00" d=" M 104.27 87.90 C 109.12 89.11 114.11 88.52 119.04 88.84 C 119.15 89.29 119.37 90.19 119.48 90.64 C 119.68 95.27 118.95 99.96 117.11 104.23 C 114.85 103.64 112.52 103.22 110.17 103.42 C 105.78 103.69 101.40 102.95 97.02 103.45 C 94.66 103.76 92.28 103.51 89.97 102.95 C 95.59 98.85 100.56 93.81 104.27 87.90 Z" />
<path fill="#1d73f2" opacity="1.00" d=" M 0.26 91.73 C 5.87 90.20 11.72 91.14 17.38 90.10 C 20.85 95.00 25.18 99.24 30.02 102.78 C 21.08 104.63 11.75 101.74 2.94 104.34 C 1.12 100.38 0.75 96.00 0.26 91.73 Z" />
</g>
<g id="#1d67f1ff">
<path fill="#1d67f1" opacity="1.00" d=" M 2.94 104.34 C 11.75 101.74 21.08 104.63 30.02 102.78 C 47.42 115.25 72.48 115.26 89.97 102.95 C 92.28 103.51 94.66 103.76 97.02 103.45 C 101.40 102.95 105.78 103.69 110.17 103.42 C 112.52 103.22 114.85 103.64 117.11 104.23 C 114.99 109.01 111.48 113.20 106.87 115.75 C 101.50 118.95 95.11 119.66 88.97 119.66 C 70.64 119.73 52.30 119.67 33.97 119.69 C 27.66 119.69 21.08 119.60 15.25 116.84 C 9.75 114.41 5.33 109.84 2.94 104.34 Z" />
</g>
</svg>
