<?xml version="1.0" encoding="UTF-8" ?>
<!DOCTYPE svg PUBLIC "-//W3C//DTD SVG 1.1//EN" "http://www.w3.org/Graphics/SVG/1.1/DTD/svg11.dtd">
<svg width="120pt" height="120pt" viewBox="0 0 120 120" version="1.1" xmlns="http://www.w3.org/2000/svg">
<g id="#ffac00ff">
<path fill="#ffac00" opacity="1.00" d=" M 7.01 8.99 C 12.22 2.97 20.28 0.38 28.05 0.28 C 43.70 -0.09 59.35 0.21 75.00 0.11 C 82.64 0.22 90.35 -0.25 97.93 0.89 C 104.85 1.95 111.33 5.92 115.15 11.82 C 119.21 17.70 119.78 25.08 119.84 32.01 C 119.90 45.98 119.87 59.95 119.83 73.92 C 112.61 73.73 105.37 73.62 98.16 73.98 C 87.72 74.02 77.28 74.02 66.84 73.97 C 61.40 73.69 55.96 73.79 50.52 73.72 C 50.16 71.80 49.13 70.09 47.29 69.28 C 43.84 72.13 41.12 75.75 37.69 78.62 C 33.87 76.08 31.27 72.14 27.71 69.28 C 25.86 70.09 24.85 71.80 24.47 73.72 C 16.37 73.85 8.27 73.65 0.17 73.92 C 0.16 59.29 0.04 44.66 0.21 30.03 C 0.24 22.56 1.78 14.64 7.01 8.99 M 35.10 21.04 C 34.75 25.66 35.23 30.29 34.91 34.91 C 30.29 35.23 25.66 34.76 21.04 35.10 C 20.92 36.70 20.92 38.30 21.04 39.90 C 25.66 40.24 30.29 39.77 34.91 40.09 C 35.23 44.70 34.77 49.34 35.10 53.95 C 36.70 54.07 38.30 54.07 39.90 53.95 C 40.23 49.34 39.77 44.70 40.09 40.09 C 44.71 39.77 49.34 40.23 53.95 39.90 C 54.08 38.30 54.08 36.70 53.96 35.10 C 49.34 34.76 44.71 35.23 40.09 34.91 C 39.77 30.29 40.25 25.66 39.90 21.04 C 38.30 20.92 36.70 20.92 35.10 21.04 M 67.05 35.11 C 66.92 36.70 66.92 38.30 67.04 39.89 C 77.34 40.08 87.66 40.08 97.95 39.90 C 98.08 38.30 98.08 36.70 97.96 35.11 C 87.66 34.91 77.34 34.92 67.05 35.11 Z" />
</g>
<g id="#ffffffff">
<path fill="#ffffff" opacity="1.00" d=" M 35.10 21.04 C 36.70 20.92 38.30 20.92 39.90 21.04 C 40.25 25.66 39.77 30.29 40.09 34.91 C 44.71 35.23 49.34 34.76 53.96 35.10 C 54.08 36.70 54.08 38.30 53.95 39.90 C 49.34 40.23 44.71 39.77 40.09 40.09 C 39.77 44.70 40.23 49.34 39.90 53.95 C 38.30 54.07 36.70 54.07 35.10 53.95 C 34.77 49.34 35.23 44.70 34.91 40.09 C 30.29 39.77 25.66 40.24 21.04 39.90 C 20.92 38.30 20.92 36.70 21.04 35.10 C 25.66 34.76 30.29 35.23 34.91 34.91 C 35.23 30.29 34.75 25.66 35.10 21.04 Z" />
<path fill="#ffffff" opacity="1.00" d=" M 67.05 35.11 C 77.34 34.92 87.66 34.91 97.96 35.11 C 98.08 36.70 98.08 38.30 97.95 39.90 C 87.66 40.08 77.34 40.08 67.04 39.89 C 66.92 38.30 66.92 36.70 67.05 35.11 Z" />
<path fill="#ffffff" opacity="1.00" d=" M 24.47 73.72 C 24.85 71.80 25.86 70.09 27.71 69.28 C 31.27 72.14 33.87 76.08 37.69 78.62 C 41.12 75.75 43.84 72.13 47.29 69.28 C 49.13 70.09 50.16 71.80 50.52 73.72 C 47.17 76.36 43.77 79.11 41.41 82.71 C 44.29 86.11 47.87 88.85 50.73 92.27 C 49.96 93.74 48.74 94.95 47.28 95.73 C 43.83 92.87 41.10 89.27 37.68 86.38 C 33.90 88.99 31.25 92.86 27.72 95.75 C 26.27 94.94 25.05 93.74 24.27 92.28 C 27.11 88.84 30.71 86.12 33.57 82.71 C 31.22 79.14 27.83 76.33 24.47 73.72 Z" />
<path fill="#ffffff" opacity="1.00" d=" M 66.84 73.97 C 77.28 74.02 87.72 74.02 98.16 73.98 C 98.07 75.61 98.01 77.24 97.81 78.86 C 87.62 79.13 77.38 79.13 67.19 78.86 C 66.98 77.24 66.93 75.60 66.84 73.97 Z" />
<path fill="#ffffff" opacity="1.00" d=" M 67.05 86.10 C 77.34 85.91 87.66 85.91 97.96 86.10 C 98.08 87.70 98.08 89.30 97.96 90.90 C 87.66 91.08 77.34 91.08 67.04 90.90 C 66.92 89.30 66.92 87.70 67.05 86.10 Z" />
</g>
<g id="#ff8e00ff">
<path fill="#ff8e00" opacity="1.00" d=" M 0.17 73.92 C 8.27 73.65 16.37 73.85 24.47 73.72 C 27.83 76.33 31.22 79.14 33.57 82.71 C 30.71 86.12 27.11 88.84 24.27 92.28 C 25.05 93.74 26.27 94.94 27.72 95.75 C 31.25 92.86 33.90 88.99 37.68 86.38 C 41.10 89.27 43.83 92.87 47.28 95.73 C 48.74 94.95 49.96 93.74 50.73 92.27 C 47.87 88.85 44.29 86.11 41.41 82.71 C 43.77 79.11 47.17 76.36 50.52 73.72 C 55.96 73.79 61.40 73.69 66.84 73.97 C 66.93 75.60 66.98 77.24 67.19 78.86 C 77.38 79.13 87.62 79.13 97.81 78.86 C 98.01 77.24 98.07 75.61 98.16 73.98 C 105.37 73.62 112.61 73.73 119.83 73.92 C 119.45 85.96 121.93 99.74 113.90 109.93 C 108.64 116.96 99.71 119.44 91.33 120.00 L 28.69 120.00 C 20.31 119.45 11.37 116.97 6.10 109.93 C -1.93 99.74 0.55 85.96 0.17 73.92 M 67.05 86.10 C 66.92 87.70 66.92 89.30 67.04 90.90 C 77.34 91.08 87.66 91.08 97.96 90.90 C 98.08 89.30 98.08 87.70 97.96 86.10 C 87.66 85.91 77.34 85.91 67.05 86.10 Z" />
</g>
</svg>
