<?xml version="1.0" encoding="UTF-8" ?>
<!DOCTYPE svg PUBLIC "-//W3C//DTD SVG 1.1//EN" "http://www.w3.org/Graphics/SVG/1.1/DTD/svg11.dtd">
<svg width="1024pt" height="1024pt" viewBox="0 0 1024 1024" version="1.1" xmlns="http://www.w3.org/2000/svg">
<g id="#8a8a8aff">
<path fill="#8a8a8a" opacity="1.00" d=" M 182.07 82.14 C 216.74 67.72 254.83 65.21 291.94 64.41 C 325.62 63.67 359.32 64.13 393.01 64.00 C 486.68 64.00 580.35 64.00 674.02 64.00 C 701.02 63.96 728.03 63.94 755.01 65.19 C 775.01 66.35 795.09 68.28 814.54 73.28 C 836.34 78.37 857.04 87.88 875.34 100.74 C 903.09 120.97 926.85 147.60 940.67 179.27 C 954.31 210.25 957.90 244.44 959.26 277.92 C 959.48 284.09 959.83 290.27 959.66 296.45 C 957.86 289.96 959.43 283.19 958.30 276.61 C 957.60 277.44 956.91 278.27 956.24 279.10 C 954.87 243.58 951.07 207.08 935.27 174.71 C 932.66 169.27 929.70 164.00 926.47 158.91 C 917.73 144.94 906.96 132.33 895.05 120.98 C 881.41 108.17 866.17 96.88 849.22 88.85 C 816.67 72.78 779.79 69.06 743.99 67.80 C 712.34 66.74 680.67 67.03 649.00 67.00 C 564.99 67.00 480.98 67.00 396.97 67.00 C 354.77 67.14 312.56 66.44 270.39 68.15 C 240.47 69.77 210.05 73.40 182.28 85.31 C 160.24 94.56 140.61 108.95 123.91 125.96 C 107.77 142.21 94.22 161.26 85.35 182.44 C 70.27 217.56 68.36 256.40 67.33 294.08 C 66.61 293.81 65.89 293.54 65.18 293.28 C 64.90 287.32 66.11 281.29 64.80 275.41 C 65.79 256.84 67.19 238.23 70.86 219.97 C 74.87 199.75 81.56 179.88 92.18 162.14 C 100.83 146.78 112.22 133.10 124.77 120.79 C 141.30 104.57 160.61 90.99 182.07 82.14 Z" />
</g>
<g id="#eaeaeaff">
<path fill="#eaeaea" opacity="1.00" d=" M 270.39 68.15 C 312.56 66.44 354.77 67.14 396.97 67.00 C 480.98 67.00 564.99 67.00 649.00 67.00 C 680.67 67.03 712.34 66.74 743.99 67.80 C 779.79 69.06 816.67 72.78 849.22 88.85 C 866.17 96.88 881.41 108.17 895.05 120.98 C 906.96 132.33 917.73 144.94 926.47 158.91 C 923.33 159.44 920.16 159.18 917.02 159.04 C 906.43 158.87 895.83 159.16 885.25 158.95 C 884.16 157.62 883.02 156.30 881.37 155.70 C 881.74 156.71 882.14 157.72 882.56 158.72 C 878.33 158.26 874.18 159.90 869.95 158.98 C 858.17 158.46 846.30 159.84 834.55 158.47 C 831.45 158.14 828.47 159.93 825.37 159.09 C 825.79 157.37 826.22 155.66 826.66 153.95 C 824.99 155.19 823.32 156.42 821.64 157.62 C 821.92 158.01 822.48 158.79 822.76 159.18 C 820.80 159.06 818.91 158.58 817.16 157.71 C 816.48 158.86 815.81 160.02 815.15 161.17 C 814.82 160.49 814.50 159.82 814.19 159.15 C 810.11 159.05 805.66 158.10 802.00 160.41 C 799.77 159.44 797.38 158.95 794.95 159.18 C 794.62 159.94 794.27 160.69 793.91 161.44 C 791.96 160.72 790.66 158.46 788.36 158.68 C 781.54 158.41 773.87 160.99 767.88 156.55 C 763.43 160.39 757.30 158.55 751.98 159.11 C 746.46 159.73 740.84 158.24 735.41 159.41 C 731.25 162.54 728.30 166.98 724.26 170.28 C 716.95 177.63 709.84 185.24 701.77 191.78 C 692.62 200.92 683.34 209.93 674.41 219.28 C 667.55 212.19 660.26 205.51 652.50 199.42 C 623.16 175.97 587.83 160.08 550.81 153.72 C 514.58 147.43 476.83 150.07 441.87 161.49 C 441.49 160.98 440.74 159.97 440.36 159.46 C 436.66 158.51 432.72 158.93 428.94 159.13 C 427.12 159.05 426.14 160.74 424.93 161.79 C 424.52 159.88 424.07 157.97 423.63 156.07 C 423.35 156.75 422.80 158.12 422.52 158.80 C 418.32 158.99 414.12 159.34 409.91 159.21 C 398.27 158.63 386.61 159.26 374.96 158.98 C 372.49 159.17 371.55 156.30 369.36 155.65 C 369.76 156.72 370.18 157.79 370.62 158.85 C 367.69 158.14 364.82 159.15 361.90 159.23 C 349.09 158.03 336.19 159.95 323.38 158.61 C 320.01 158.13 316.74 159.69 313.37 159.13 C 313.79 157.41 314.22 155.69 314.66 153.98 C 313.02 155.19 311.35 156.37 309.66 157.50 C 309.91 157.85 310.41 158.55 310.66 158.90 C 308.79 158.97 306.98 158.56 305.29 157.78 C 304.56 158.88 303.83 159.99 303.11 161.09 C 302.77 160.44 302.44 159.80 302.13 159.15 C 298.06 158.91 293.69 158.29 289.99 160.43 C 287.81 159.28 285.36 159.02 282.94 159.28 C 282.49 160.13 282.05 160.97 281.62 161.82 C 280.09 160.48 278.65 158.54 276.38 158.70 C 269.56 158.52 261.89 160.90 255.89 156.54 C 252.39 159.93 247.39 158.97 242.98 159.04 C 229.54 159.72 216.07 157.78 202.65 159.27 C 202.03 160.63 201.40 161.99 200.75 163.34 C 200.74 162.28 200.73 161.22 200.71 160.16 C 199.65 158.97 198.62 157.76 197.67 156.49 C 196.54 159.85 192.65 158.87 189.91 159.25 C 189.63 159.73 189.36 160.21 189.09 160.69 C 185.55 158.10 180.82 158.91 176.69 158.77 C 173.04 160.49 170.71 164.09 167.73 166.71 C 164.37 169.70 161.83 173.56 158.21 176.25 C 154.84 177.85 150.95 176.56 147.37 176.95 C 144.85 177.27 142.44 176.38 139.99 175.99 C 138.42 175.90 138.06 177.64 137.34 178.65 C 137.18 178.20 136.88 177.31 136.72 176.87 C 134.24 176.47 131.82 177.08 130.28 179.21 C 131.17 179.84 132.07 180.47 132.96 181.11 C 130.42 180.82 127.86 179.28 125.29 180.00 C 124.45 181.55 123.51 183.05 122.20 184.26 C 122.00 186.87 121.85 189.49 121.61 192.11 C 121.06 189.51 120.87 186.86 120.64 184.22 C 120.41 181.49 118.49 179.34 117.19 177.05 C 116.61 179.06 116.04 181.08 115.47 183.10 C 115.17 181.05 114.90 179.00 114.65 176.95 C 112.62 177.22 110.73 178.00 108.96 178.98 C 107.74 178.39 106.54 177.76 105.32 177.16 C 103.71 178.02 102.18 179.25 100.31 179.43 C 98.39 179.16 96.68 178.13 94.90 177.43 C 92.15 179.79 89.02 181.90 85.35 182.44 C 94.22 161.26 107.77 142.21 123.91 125.96 C 140.61 108.95 160.24 94.56 182.28 85.31 C 210.05 73.40 240.47 69.77 270.39 68.15 Z" />
</g>
<g id="#fc6b65ff">
<path fill="#fc6b65" opacity="1.00" d=" M 441.87 161.49 C 476.83 150.07 514.58 147.43 550.81 153.72 C 587.83 160.08 623.16 175.97 652.50 199.42 C 647.36 200.36 642.13 199.92 636.95 199.98 C 611.30 199.97 585.66 199.96 560.01 199.98 C 554.22 200.09 548.40 199.62 542.66 200.50 C 522.13 197.02 501.06 197.08 480.55 200.64 C 477.06 199.93 473.52 199.75 469.98 199.93 C 439.33 200.05 408.67 199.88 378.02 200.00 C 375.85 199.98 373.70 199.72 371.56 199.40 C 392.47 182.68 416.44 169.83 441.87 161.49 Z" />
</g>
<g id="#e7e7e7ff">
<path fill="#e7e7e7" opacity="1.00" d=" M 309.66 157.50 C 311.35 156.37 313.02 155.19 314.66 153.98 C 314.22 155.69 313.79 157.41 313.37 159.13 C 316.74 159.69 320.01 158.13 323.38 158.61 C 336.19 159.95 349.09 158.03 361.90 159.23 C 364.82 159.15 367.69 158.14 370.62 158.85 C 370.18 157.79 369.76 156.72 369.36 155.65 C 371.55 156.30 372.49 159.17 374.96 158.98 C 386.61 159.26 398.27 158.63 409.91 159.21 C 414.12 159.34 418.32 158.99 422.52 158.80 C 422.80 158.12 423.35 156.75 423.63 156.07 C 424.07 157.97 424.52 159.88 424.93 161.79 C 426.14 160.74 427.12 159.05 428.94 159.13 C 432.72 158.93 436.66 158.51 440.36 159.46 C 440.74 159.97 441.49 160.98 441.87 161.49 C 416.44 169.83 392.47 182.68 371.56 199.40 C 357.63 210.36 345.09 223.07 334.16 237.01 C 316.86 258.92 303.83 284.13 295.66 310.81 C 294.12 315.85 292.81 320.96 291.63 326.09 C 288.54 326.04 285.41 325.69 282.36 326.32 C 281.11 327.45 280.50 329.08 279.65 330.50 C 278.60 330.12 277.55 329.75 276.50 329.38 C 276.46 328.58 276.42 327.78 276.38 326.99 C 274.70 326.13 272.94 326.29 271.26 327.07 C 265.20 324.90 258.70 326.60 252.45 325.76 C 252.22 325.13 251.77 323.88 251.55 323.26 C 251.18 324.04 250.81 324.84 250.45 325.64 C 245.52 327.33 240.38 325.48 235.36 326.38 C 232.40 326.96 229.53 325.89 227.00 324.42 C 225.48 325.91 223.58 327.30 221.39 327.45 C 217.98 326.85 214.40 325.15 211.14 327.23 C 207.52 326.01 203.69 326.70 199.98 326.17 C 196.82 325.79 193.63 325.88 190.47 326.17 C 190.08 327.46 189.68 328.75 189.27 330.04 C 188.86 328.77 188.57 327.45 188.31 326.15 C 184.42 326.14 180.52 326.29 176.63 326.09 C 176.59 327.01 176.56 327.94 176.54 328.87 C 175.45 329.18 174.34 329.40 173.20 329.32 C 173.71 328.08 174.24 326.85 174.77 325.63 C 168.12 327.05 161.32 325.68 154.59 325.76 C 154.32 325.13 153.79 323.89 153.52 323.26 C 152.94 324.69 152.37 326.11 151.79 327.54 C 149.87 326.87 147.97 326.09 145.94 325.86 C 144.10 326.07 142.63 327.34 140.94 327.97 C 139.15 327.50 137.55 326.57 135.91 325.77 C 134.22 327.10 132.84 329.15 134.47 331.13 C 133.94 331.02 132.88 330.79 132.35 330.67 C 132.11 329.21 131.88 327.76 131.65 326.31 C 126.04 327.23 120.28 324.70 114.84 326.82 C 112.61 327.90 110.15 325.55 108.07 327.04 C 107.15 327.52 106.27 328.06 105.38 328.60 C 105.37 327.86 105.36 327.13 105.36 326.40 C 104.44 326.10 103.53 325.79 102.62 325.49 C 102.09 324.14 101.57 322.76 100.50 321.74 C 100.50 323.06 100.53 324.40 100.58 325.73 C 94.22 327.32 87.41 324.44 81.33 327.17 C 76.75 325.37 71.73 326.27 66.98 326.67 C 67.12 315.81 67.08 304.94 67.33 294.08 C 68.36 256.40 70.27 217.56 85.35 182.44 C 89.02 181.90 92.15 179.79 94.90 177.43 C 96.68 178.13 98.39 179.16 100.31 179.43 C 102.18 179.25 103.71 178.02 105.32 177.16 C 106.54 177.76 107.74 178.39 108.96 178.98 C 110.73 178.00 112.62 177.22 114.65 176.95 C 114.90 179.00 115.17 181.05 115.47 183.10 C 116.04 181.08 116.61 179.06 117.19 177.05 C 118.49 179.34 120.41 181.49 120.64 184.22 C 120.87 186.86 121.06 189.51 121.61 192.11 C 121.85 189.49 122.00 186.87 122.20 184.26 C 123.51 183.05 124.45 181.55 125.29 180.00 C 127.86 179.28 130.42 180.82 132.96 181.11 C 132.07 180.47 131.17 179.84 130.28 179.21 C 131.82 177.08 134.24 176.47 136.72 176.87 C 136.88 177.31 137.18 178.20 137.34 178.65 C 138.06 177.64 138.42 175.90 139.99 175.99 C 142.44 176.38 144.85 177.27 147.37 176.95 C 150.95 176.56 154.84 177.85 158.21 176.25 C 161.83 173.56 164.37 169.70 167.73 166.71 C 170.71 164.09 173.04 160.49 176.69 158.77 C 180.82 158.91 185.55 158.10 189.09 160.69 C 189.36 160.21 189.63 159.73 189.91 159.25 C 192.65 158.87 196.54 159.85 197.67 156.49 C 198.62 157.76 199.65 158.97 200.71 160.16 C 200.73 161.22 200.74 162.28 200.75 163.34 C 201.40 161.99 202.03 160.63 202.65 159.27 C 216.07 157.78 229.54 159.72 242.98 159.04 C 247.39 158.97 252.39 159.93 255.89 156.54 C 261.89 160.90 269.56 158.52 276.38 158.70 C 278.65 158.54 280.09 160.48 281.62 161.82 C 282.05 160.97 282.49 160.13 282.94 159.28 C 285.36 159.02 287.81 159.28 289.99 160.43 C 293.69 158.29 298.06 158.91 302.13 159.15 C 302.44 159.80 302.77 160.44 303.11 161.09 C 303.83 159.99 304.56 158.88 305.29 157.78 C 306.98 158.56 308.79 158.97 310.66 158.90 C 310.41 158.55 309.91 157.85 309.66 157.50 Z" />
<path fill="#e7e7e7" opacity="1.00" d=" M 821.64 157.62 C 823.32 156.42 824.99 155.19 826.66 153.95 C 826.22 155.66 825.79 157.37 825.37 159.09 C 828.47 159.93 831.45 158.14 834.55 158.47 C 846.30 159.84 858.17 158.46 869.95 158.98 C 874.18 159.90 878.33 158.26 882.56 158.72 C 882.14 157.72 881.74 156.71 881.37 155.70 C 883.02 156.30 884.16 157.62 885.25 158.95 C 895.83 159.16 906.43 158.87 917.02 159.04 C 920.16 159.18 923.33 159.44 926.47 158.91 C 929.70 164.00 932.66 169.27 935.27 174.71 C 951.07 207.08 954.87 243.58 956.24 279.10 C 956.91 294.66 956.84 310.24 957.02 325.80 C 946.67 328.29 935.47 323.30 925.58 328.16 C 924.51 327.50 923.58 326.33 922.24 326.38 C 916.81 326.22 911.39 325.82 905.96 325.99 C 901.78 325.97 897.44 326.54 893.46 324.97 C 889.11 327.49 883.87 326.13 879.34 324.89 C 876.98 325.95 874.62 327.00 872.22 327.93 C 871.34 327.23 870.48 326.53 869.62 325.84 C 868.82 326.70 868.02 327.56 867.24 328.42 C 865.71 327.56 864.17 326.75 862.60 326.00 C 861.96 328.43 861.15 330.90 858.98 332.39 C 858.72 331.87 858.20 330.85 857.94 330.34 C 859.14 329.04 860.27 327.67 861.27 326.21 C 858.32 325.86 855.36 325.89 852.42 326.18 C 852.07 327.79 851.74 329.41 851.40 331.03 C 851.14 329.40 850.90 327.77 850.67 326.14 C 842.08 325.72 833.49 326.16 824.91 326.18 C 820.28 325.69 815.74 327.72 811.14 326.68 C 805.57 325.57 799.88 325.95 794.25 326.18 C 793.29 327.63 792.34 329.09 791.39 330.54 C 790.40 330.13 789.43 329.73 788.46 329.32 C 788.40 328.52 788.35 327.73 788.32 326.94 C 786.67 326.10 784.95 326.10 783.39 327.13 C 777.32 324.87 770.78 326.66 764.52 325.70 C 764.13 324.88 763.75 324.07 763.39 323.26 C 763.18 323.86 762.76 325.05 762.55 325.65 C 757.56 327.26 752.38 325.42 747.31 326.33 C 744.39 326.85 741.46 326.13 739.07 324.40 C 737.19 325.98 734.99 327.12 732.85 328.28 C 731.59 322.46 730.11 316.68 728.39 310.97 C 720.23 284.24 707.18 258.99 689.86 237.04 C 685.03 230.86 679.86 224.93 674.41 219.28 C 683.34 209.93 692.62 200.92 701.77 191.78 C 709.84 185.24 716.95 177.63 724.26 170.28 C 728.30 166.98 731.25 162.54 735.41 159.41 C 740.84 158.24 746.46 159.73 751.98 159.11 C 757.30 158.55 763.43 160.39 767.88 156.55 C 773.87 160.99 781.54 158.41 788.36 158.68 C 790.66 158.46 791.96 160.72 793.91 161.44 C 794.27 160.69 794.62 159.94 794.95 159.18 C 797.38 158.95 799.77 159.44 802.00 160.41 C 805.66 158.10 810.11 159.05 814.19 159.15 C 814.50 159.82 814.82 160.49 815.15 161.17 C 815.81 160.02 816.48 158.86 817.16 157.71 C 818.91 158.58 820.80 159.06 822.76 159.18 C 822.48 158.79 821.92 158.01 821.64 157.62 Z" />
</g>
<g id="#ffffffff">
<path fill="#ffffff" opacity="1.00" d=" M 480.55 200.64 C 501.06 197.08 522.13 197.02 542.66 200.50 C 572.64 205.83 601.21 218.85 624.78 238.16 C 648.32 257.42 666.89 282.72 678.03 311.03 C 685.15 328.88 689.22 347.90 690.19 367.08 C 692.45 407.98 679.98 449.47 655.50 482.31 C 648.90 491.19 641.51 499.48 633.40 507.01 C 620.59 505.70 607.72 507.39 594.87 506.62 C 587.87 506.87 580.87 505.57 573.88 506.53 C 567.94 507.21 561.96 507.04 556.01 506.65 C 550.33 507.16 544.64 506.56 538.95 506.91 C 527.36 505.99 515.73 507.58 504.14 506.53 C 500.05 506.34 495.96 506.54 491.88 506.86 C 488.11 507.16 484.37 506.35 480.61 506.53 C 471.03 507.09 461.40 507.43 451.84 506.57 C 443.20 507.43 434.54 506.00 425.88 506.78 C 421.34 507.40 416.84 505.91 412.31 506.59 C 405.17 507.70 397.98 505.81 390.85 507.27 C 382.67 499.63 375.17 491.28 368.50 482.31 C 344.00 449.45 331.55 407.95 333.79 367.04 C 334.80 347.86 338.87 328.84 345.98 311.00 C 357.11 282.70 375.70 257.45 399.20 238.17 C 422.56 219.03 450.85 206.07 480.55 200.64 Z" />
</g>
<g id="#fb7465ff">
<path fill="#fb7465" opacity="1.00" d=" M 334.16 237.01 C 345.09 223.07 357.63 210.36 371.56 199.40 C 373.70 199.72 375.85 199.98 378.02 200.00 C 408.67 199.88 439.33 200.05 469.98 199.93 C 473.52 199.75 477.06 199.93 480.55 200.64 C 450.85 206.07 422.56 219.03 399.20 238.17 C 382.13 237.63 365.04 238.05 347.96 237.98 C 343.35 237.85 338.61 238.54 334.16 237.01 Z" />
<path fill="#fb7465" opacity="1.00" d=" M 652.50 199.42 C 660.26 205.51 667.55 212.19 674.41 219.28 C 679.86 224.93 685.03 230.86 689.86 237.04 C 685.39 238.56 680.63 237.76 676.02 237.92 C 658.94 238.09 641.85 237.70 624.78 238.16 C 601.21 218.85 572.64 205.83 542.66 200.50 C 548.40 199.62 554.22 200.09 560.01 199.98 C 585.66 199.96 611.30 199.97 636.95 199.98 C 642.13 199.92 647.36 200.36 652.50 199.42 Z" />
</g>
<g id="#fa8266ff">
<path fill="#fa8266" opacity="1.00" d=" M 295.66 310.81 C 303.83 284.13 316.86 258.92 334.16 237.01 C 338.61 238.54 343.35 237.85 347.96 237.98 C 365.04 238.05 382.13 237.63 399.20 238.17 C 375.70 257.45 357.11 282.70 345.98 311.00 C 329.21 310.97 312.43 311.29 295.66 310.81 Z" />
<path fill="#fa8266" opacity="1.00" d=" M 689.86 237.04 C 707.18 258.99 720.23 284.24 728.39 310.97 C 711.60 311.15 694.82 311.00 678.03 311.03 C 666.89 282.72 648.32 257.42 624.78 238.16 C 641.85 237.70 658.94 238.09 676.02 237.92 C 680.63 237.76 685.39 238.56 689.86 237.04 Z" />
</g>
<g id="#858585ff">
<path fill="#858585" opacity="1.00" d=" M 64.47 275.23 L 64.80 275.41 C 66.11 281.29 64.90 287.32 65.18 293.28 C 65.89 293.54 66.61 293.81 67.33 294.08 C 67.08 304.94 67.12 315.81 66.98 326.67 C 66.99 367.74 67.06 408.81 66.99 449.88 C 67.00 478.56 67.02 507.24 66.99 535.92 C 65.99 535.56 65.00 535.21 64.00 534.86 C 64.10 456.56 63.80 378.26 64.16 299.96 C 64.00 291.71 65.00 283.45 64.47 275.23 Z" />
</g>
<g id="#848484ff">
<path fill="#848484" opacity="1.00" d=" M 956.24 279.10 C 956.91 278.27 957.60 277.44 958.30 276.61 C 959.43 283.19 957.86 289.96 959.66 296.45 C 960.38 333.28 959.83 370.16 960.00 407.01 C 960.01 493.35 959.99 579.70 960.00 666.04 C 959.25 666.04 957.75 666.02 957.00 666.02 C 957.02 638.08 956.96 610.14 957.03 582.21 C 956.90 537.64 957.09 493.07 956.96 448.51 C 957.00 407.61 957.03 366.70 957.02 325.80 C 956.84 310.24 956.91 294.66 956.24 279.10 Z" />
</g>
<g id="#f88a65ff">
<path fill="#f88a65" opacity="1.00" d=" M 291.63 326.09 C 292.81 320.96 294.12 315.85 295.66 310.81 C 312.43 311.29 329.21 310.97 345.98 311.00 C 338.87 328.84 334.80 347.86 333.79 367.04 C 317.93 366.83 302.07 366.93 286.22 366.96 C 286.77 353.21 288.61 339.52 291.63 326.09 Z" />
<path fill="#f88a65" opacity="1.00" d=" M 678.03 311.03 C 694.82 311.00 711.60 311.15 728.39 310.97 C 730.11 316.68 731.59 322.46 732.85 328.28 C 735.59 340.99 737.26 353.94 737.78 366.93 C 721.92 366.99 706.05 366.81 690.19 367.08 C 689.22 347.90 685.15 328.88 678.03 311.03 Z" />
</g>
<g id="#e4e4e4ff">
<path fill="#e4e4e4" opacity="1.00" d=" M 100.50 321.74 C 101.57 322.76 102.09 324.14 102.62 325.49 C 103.53 325.79 104.44 326.10 105.36 326.40 C 105.36 327.13 105.37 327.86 105.38 328.60 C 106.27 328.06 107.15 327.52 108.07 327.04 C 110.15 325.55 112.61 327.90 114.84 326.82 C 120.28 324.70 126.04 327.23 131.65 326.31 C 131.88 327.76 132.11 329.21 132.35 330.67 C 132.88 330.79 133.94 331.02 134.47 331.13 C 132.84 329.15 134.22 327.10 135.91 325.77 C 137.55 326.57 139.15 327.50 140.94 327.97 C 142.63 327.34 144.10 326.07 145.94 325.86 C 147.97 326.09 149.87 326.87 151.79 327.54 C 152.37 326.11 152.94 324.69 153.52 323.26 C 153.79 323.89 154.32 325.13 154.59 325.76 C 161.32 325.68 168.12 327.05 174.77 325.63 C 174.24 326.85 173.71 328.08 173.20 329.32 C 174.34 329.40 175.45 329.18 176.54 328.87 C 176.56 327.94 176.59 327.01 176.63 326.09 C 180.52 326.29 184.42 326.14 188.31 326.15 C 188.57 327.45 188.86 328.77 189.27 330.04 C 189.68 328.75 190.08 327.46 190.47 326.17 C 193.63 325.88 196.82 325.79 199.98 326.17 C 203.69 326.70 207.52 326.01 211.14 327.23 C 214.40 325.15 217.98 326.85 221.39 327.45 C 223.58 327.30 225.48 325.91 227.00 324.42 C 229.53 325.89 232.40 326.96 235.36 326.38 C 240.38 325.48 245.52 327.33 250.45 325.64 C 250.81 324.84 251.18 324.04 251.55 323.26 C 251.77 323.88 252.22 325.13 252.45 325.76 C 258.70 326.60 265.20 324.90 271.26 327.07 C 272.94 326.29 274.70 326.13 276.38 326.99 C 276.42 327.78 276.46 328.58 276.50 329.38 C 277.55 329.75 278.60 330.12 279.65 330.50 C 280.50 329.08 281.11 327.45 282.36 326.32 C 285.41 325.69 288.54 326.04 291.63 326.09 C 288.61 339.52 286.77 353.21 286.22 366.96 C 285.13 394.19 288.80 421.64 297.46 447.50 C 292.64 447.83 287.77 448.37 282.95 447.82 C 279.58 446.12 275.34 444.90 273.73 441.15 C 273.07 439.30 271.00 440.37 269.69 440.62 C 271.03 442.40 273.92 444.04 272.80 446.67 C 272.06 448.05 270.44 447.91 269.12 447.99 C 264.48 448.08 259.84 448.06 255.21 447.95 C 254.32 446.93 253.51 445.82 252.44 444.98 C 251.26 444.28 250.45 445.75 249.57 446.28 C 249.83 446.72 250.35 447.60 250.61 448.04 C 247.72 448.05 244.83 447.97 241.94 447.78 C 242.22 445.84 242.71 443.94 243.43 442.12 C 242.71 441.85 241.99 441.58 241.27 441.32 C 240.46 443.34 239.79 445.45 238.67 447.34 C 235.77 447.92 232.38 448.32 229.85 446.46 C 230.28 445.91 231.13 444.82 231.56 444.27 C 230.59 443.84 229.62 443.42 228.65 443.00 C 228.71 444.60 228.78 446.20 228.85 447.82 C 223.07 448.29 217.13 447.49 211.48 449.04 C 207.67 446.07 203.18 449.17 198.93 448.28 C 198.49 448.99 198.05 449.71 197.61 450.44 C 197.02 449.68 196.46 448.88 195.81 448.19 C 190.30 447.16 184.67 448.93 179.20 447.73 C 175.14 446.87 171.04 448.12 166.96 448.05 C 161.70 448.35 156.47 447.18 151.23 447.71 C 148.39 448.10 145.58 446.41 142.84 447.78 C 142.34 446.27 141.71 444.80 140.93 443.41 C 140.25 444.85 140.28 446.44 140.31 447.99 C 139.10 447.94 137.91 447.90 136.71 447.87 C 136.62 447.45 136.44 446.61 136.35 446.19 C 133.52 449.24 130.32 445.64 127.02 446.19 C 127.75 446.56 129.22 447.30 129.96 447.66 C 116.46 448.61 102.87 447.40 89.36 448.32 C 87.28 448.40 85.22 447.52 83.15 448.16 C 77.80 449.55 71.71 445.85 66.99 449.88 C 67.06 408.81 66.99 367.74 66.98 326.67 C 71.73 326.27 76.75 325.37 81.33 327.17 C 87.41 324.44 94.22 327.32 100.58 325.73 C 100.53 324.40 100.50 323.06 100.50 321.74 Z" />
<path fill="#e4e4e4" opacity="1.00" d=" M 763.39 323.26 C 763.75 324.07 764.13 324.88 764.52 325.70 C 770.78 326.66 777.32 324.87 783.39 327.13 C 784.95 326.10 786.67 326.10 788.32 326.94 C 788.35 327.73 788.40 328.52 788.46 329.32 C 789.43 329.73 790.40 330.13 791.39 330.54 C 792.34 329.09 793.29 327.63 794.25 326.18 C 799.88 325.95 805.57 325.57 811.14 326.68 C 815.74 327.72 820.28 325.69 824.91 326.18 C 833.49 326.16 842.08 325.72 850.67 326.14 C 850.90 327.77 851.14 329.40 851.40 331.03 C 851.74 329.41 852.07 327.79 852.42 326.18 C 855.36 325.89 858.32 325.86 861.27 326.21 C 860.27 327.67 859.14 329.04 857.94 330.34 C 858.20 330.85 858.72 331.87 858.98 332.39 C 861.15 330.90 861.96 328.43 862.60 326.00 C 864.17 326.75 865.71 327.56 867.24 328.42 C 868.02 327.56 868.82 326.70 869.62 325.84 C 870.48 326.53 871.34 327.23 872.22 327.93 C 874.62 327.00 876.98 325.95 879.34 324.89 C 883.87 326.13 889.11 327.49 893.46 324.97 C 897.44 326.54 901.78 325.97 905.96 325.99 C 911.39 325.82 916.81 326.22 922.24 326.38 C 923.58 326.33 924.51 327.50 925.58 328.16 C 935.47 323.30 946.67 328.29 957.02 325.80 C 957.03 366.70 957.00 407.61 956.96 448.51 C 956.29 447.71 955.64 446.94 954.99 446.15 C 954.26 446.12 953.55 446.11 952.85 446.13 C 952.69 446.57 952.35 447.45 952.18 447.89 C 948.94 448.18 945.26 448.45 943.15 445.47 C 942.40 446.29 941.66 447.11 940.93 447.94 C 932.69 447.92 924.45 448.14 916.22 447.91 C 916.62 445.48 917.59 443.23 919.79 441.94 C 917.51 441.52 915.20 441.58 912.95 442.13 C 912.97 443.94 913.58 445.62 914.54 447.13 C 911.01 447.31 907.55 448.26 904.01 448.10 C 898.68 447.78 893.27 448.92 888.03 447.44 C 888.48 446.40 888.98 445.38 889.46 444.35 C 888.77 442.92 888.07 441.49 887.39 440.07 C 886.99 441.88 886.64 443.71 886.36 445.54 C 883.83 447.13 880.98 448.30 877.94 448.03 C 867.98 447.77 858.01 448.26 848.06 447.80 C 845.47 447.70 847.68 443.27 845.07 443.23 C 844.59 443.38 843.64 443.68 843.16 443.83 C 843.65 444.77 844.16 445.72 844.68 446.68 C 840.23 448.62 835.20 447.54 830.51 448.04 C 831.39 446.09 832.75 444.17 832.70 441.95 C 832.00 439.89 830.27 438.43 828.84 436.89 C 827.77 440.01 831.27 442.52 830.39 445.62 C 829.27 447.16 827.54 448.87 825.46 448.43 C 822.18 447.99 818.87 448.01 815.62 448.60 C 815.14 447.81 814.66 447.02 814.20 446.24 C 812.89 446.96 811.62 447.95 810.04 447.76 C 805.02 447.67 799.98 448.40 794.99 447.82 C 791.02 446.14 786.85 444.19 784.88 440.11 C 784.10 440.11 782.52 440.09 781.74 440.08 C 782.80 442.21 785.85 444.01 784.69 446.69 C 784.13 448.23 782.24 447.81 780.99 447.99 C 776.42 447.90 771.80 448.36 767.27 447.73 C 765.96 446.66 764.81 445.43 763.58 444.28 C 762.93 444.99 762.29 445.70 761.66 446.42 C 761.85 446.81 762.22 447.60 762.41 448.00 C 759.58 448.04 756.76 447.99 753.94 447.82 C 754.15 445.80 754.74 443.86 755.57 442.03 C 754.78 441.79 754.00 441.56 753.23 441.33 C 752.44 443.39 751.79 445.52 750.68 447.43 C 747.77 447.93 744.34 448.40 741.86 446.43 C 742.44 445.64 743.03 444.86 743.63 444.08 C 742.59 443.71 741.56 443.35 740.54 442.99 C 740.64 444.61 740.74 446.23 740.85 447.86 C 736.02 447.93 731.18 448.48 726.36 448.06 C 735.14 422.03 738.89 394.37 737.78 366.93 C 737.26 353.94 735.59 340.99 732.85 328.28 C 734.99 327.12 737.19 325.98 739.07 324.40 C 741.46 326.13 744.39 326.85 747.31 326.33 C 752.38 325.42 757.56 327.26 762.55 325.65 C 762.76 325.05 763.18 323.86 763.39 323.26 Z" />
</g>
<g id="#f4925bff">
<path fill="#f4925b" opacity="1.00" d=" M 286.22 366.96 C 302.07 366.93 317.93 366.83 333.79 367.04 C 331.55 407.95 344.00 449.45 368.50 482.31 C 366.99 482.55 365.48 482.80 363.96 482.90 C 346.91 483.03 329.85 482.67 312.80 483.10 C 306.67 471.70 301.56 459.76 297.46 447.50 C 288.80 421.64 285.13 394.19 286.22 366.96 Z" />
<path fill="#f4925b" opacity="1.00" d=" M 690.19 367.08 C 706.05 366.81 721.92 366.99 737.78 366.93 C 738.89 394.37 735.14 422.03 726.36 448.06 C 722.27 460.11 717.25 471.86 711.22 483.07 C 699.15 482.73 687.09 483.02 675.02 482.89 C 668.51 482.73 661.96 483.40 655.50 482.31 C 679.98 449.47 692.45 407.98 690.19 367.08 Z" />
</g>
<g id="#e0e0e0ff">
<path fill="#e0e0e0" opacity="1.00" d=" M 828.84 436.89 C 830.27 438.43 832.00 439.89 832.70 441.95 C 832.75 444.17 831.39 446.09 830.51 448.04 C 835.20 447.54 840.23 448.62 844.68 446.68 C 844.16 445.72 843.65 444.77 843.16 443.83 C 843.64 443.68 844.59 443.38 845.07 443.23 C 847.68 443.27 845.47 447.70 848.06 447.80 C 858.01 448.26 867.98 447.77 877.94 448.03 C 880.98 448.30 883.83 447.13 886.36 445.54 C 886.64 443.71 886.99 441.88 887.39 440.07 C 888.07 441.49 888.77 442.92 889.46 444.35 C 888.98 445.38 888.48 446.40 888.03 447.44 C 893.27 448.92 898.68 447.78 904.01 448.10 C 907.55 448.26 911.01 447.31 914.54 447.13 C 913.58 445.62 912.97 443.94 912.95 442.13 C 915.20 441.58 917.51 441.52 919.79 441.94 C 917.59 443.23 916.62 445.48 916.22 447.91 C 924.45 448.14 932.69 447.92 940.93 447.94 C 941.66 447.11 942.40 446.29 943.15 445.47 C 945.26 448.45 948.94 448.18 952.18 447.89 C 952.35 447.45 952.69 446.57 952.85 446.13 C 953.55 446.11 954.26 446.12 954.99 446.15 C 955.64 446.94 956.29 447.71 956.96 448.51 C 957.09 493.07 956.90 537.64 957.03 582.21 C 956.24 582.76 955.58 583.72 954.49 583.50 C 954.32 581.79 954.60 580.09 954.87 578.42 C 953.62 579.01 952.38 579.66 951.06 580.02 C 949.49 579.30 948.58 577.75 947.44 576.55 C 946.80 577.23 946.19 577.92 945.58 578.62 C 944.98 577.94 944.39 577.26 943.82 576.60 C 940.76 577.02 937.75 577.72 935.04 579.25 C 932.62 579.20 930.40 576.56 927.91 577.73 C 925.74 578.30 923.56 580.04 921.31 578.78 C 921.76 578.19 922.67 577.01 923.12 576.42 C 918.99 576.59 914.85 577.13 910.73 576.61 C 910.62 577.68 910.50 578.75 910.41 579.83 C 907.73 580.06 905.51 578.56 903.50 577.00 C 902.83 578.21 902.13 579.40 901.48 580.62 C 900.96 579.00 900.44 577.40 899.88 575.81 C 896.63 577.83 898.43 581.54 899.91 584.08 C 896.55 583.83 897.11 579.92 896.36 577.53 C 895.24 577.28 894.12 577.03 893.02 576.79 C 892.50 577.64 892.00 578.51 891.51 579.37 C 891.12 579.12 890.36 578.60 889.98 578.35 C 889.08 578.70 888.20 579.06 887.33 579.44 C 884.78 577.51 883.81 574.63 883.51 571.57 C 883.21 571.39 882.61 571.03 882.31 570.85 C 882.33 572.72 883.34 574.78 882.61 576.56 C 880.34 578.11 877.27 578.54 875.72 581.02 C 874.79 579.20 873.85 577.41 872.90 575.62 C 870.26 576.50 869.48 579.33 867.48 580.99 C 867.43 580.04 867.39 579.10 867.36 578.16 C 865.83 578.20 864.30 578.42 862.79 578.21 C 861.14 577.29 859.98 575.74 858.67 574.43 C 856.07 577.10 851.96 576.70 849.24 579.17 C 847.31 579.20 845.40 579.42 843.65 580.23 C 846.46 581.57 849.58 581.72 852.64 581.62 C 852.84 580.46 853.05 579.30 853.27 578.16 C 854.07 579.88 854.89 581.60 855.74 583.31 C 854.73 583.45 853.72 583.60 852.73 583.75 C 852.27 584.72 851.84 585.70 851.41 586.69 C 851.18 586.19 850.73 585.21 850.50 584.72 C 848.18 584.57 845.91 584.07 843.68 583.45 C 843.23 581.89 842.78 580.33 842.34 578.78 C 838.21 577.12 833.80 578.00 829.54 578.49 C 828.99 579.78 828.46 581.07 827.91 582.36 C 826.02 581.14 826.78 578.78 826.67 576.95 C 823.49 577.01 820.54 578.43 817.36 578.41 C 817.52 579.97 817.67 581.53 817.84 583.11 C 816.25 582.46 814.69 581.73 813.04 581.29 C 810.56 581.33 807.97 581.91 805.81 580.34 C 809.00 580.00 812.40 580.36 815.34 578.80 C 813.09 577.34 810.36 577.45 807.80 577.29 C 803.33 576.65 799.66 579.88 795.33 580.38 C 794.69 579.38 794.07 578.39 793.46 577.41 C 790.89 579.05 788.11 580.34 785.14 581.03 C 785.99 579.91 787.14 578.93 787.61 577.57 C 785.14 577.30 782.66 577.31 780.22 576.94 C 780.13 576.20 779.96 574.72 779.87 573.99 C 780.87 573.39 781.87 572.80 782.89 572.22 C 781.64 572.17 780.40 572.12 779.18 572.09 C 779.05 574.26 778.93 576.44 778.82 578.62 C 777.71 578.28 776.61 577.94 775.53 577.61 C 774.92 578.22 774.31 578.83 773.72 579.45 C 772.07 578.72 770.49 577.74 768.70 577.48 C 766.66 577.52 764.65 578.03 762.62 577.73 C 762.88 578.78 763.15 579.83 763.42 580.90 C 762.51 580.92 761.62 580.96 760.74 581.00 C 760.71 579.31 760.57 576.96 758.37 576.82 C 753.64 576.63 748.89 577.11 744.16 577.14 C 743.48 579.06 743.95 580.98 744.57 582.84 C 743.47 583.66 741.86 583.25 740.58 583.49 C 740.32 584.03 739.80 585.09 739.55 585.63 C 737.12 583.68 735.95 580.86 735.77 577.81 C 732.41 577.32 729.04 575.93 725.62 576.59 C 723.51 577.34 724.52 580.03 724.17 581.77 C 721.87 580.42 719.84 578.68 718.26 576.54 C 717.24 577.13 716.24 577.73 715.23 578.32 C 713.78 577.89 712.33 577.53 710.86 577.27 C 710.96 581.34 707.75 584.29 704.86 586.67 C 702.46 587.29 699.98 587.32 697.53 587.49 C 697.41 587.06 697.16 586.21 697.03 585.78 C 698.16 585.30 700.46 586.00 700.60 584.35 C 699.95 583.70 699.30 583.07 698.63 582.47 C 700.02 581.06 701.39 579.64 702.77 578.22 C 702.39 577.67 702.02 577.13 701.66 576.61 C 701.20 576.87 700.27 577.40 699.81 577.66 C 697.15 576.39 694.41 577.92 691.82 578.55 C 692.24 580.20 693.35 581.51 694.51 582.73 C 691.54 583.99 690.48 587.02 689.46 589.80 C 688.61 588.50 687.77 587.21 686.92 585.92 C 688.01 584.02 689.42 582.25 691.84 582.34 C 690.80 579.78 688.59 575.44 685.45 578.17 C 679.21 577.15 671.94 575.35 666.33 579.30 C 663.98 578.40 661.71 577.31 659.51 576.12 C 658.79 577.59 658.39 579.18 658.15 580.79 C 657.26 580.90 656.38 581.02 655.51 581.15 C 657.25 578.24 656.35 574.66 655.03 571.78 C 654.45 576.60 649.49 578.47 647.43 582.49 C 646.76 581.84 646.10 581.20 645.45 580.56 C 645.89 580.04 646.78 578.98 647.23 578.45 C 643.25 576.49 638.51 578.60 634.38 576.71 C 634.46 575.52 634.55 574.34 634.65 573.17 C 633.42 573.30 632.19 573.43 630.97 573.57 C 631.68 574.51 632.39 575.47 633.11 576.43 C 632.25 576.98 631.37 577.56 630.31 577.51 C 627.34 577.64 624.44 578.33 621.55 578.95 C 621.64 577.22 621.73 575.49 621.84 573.77 C 626.03 571.30 630.35 569.03 634.36 566.27 C 647.34 557.91 659.53 548.32 670.48 537.43 C 676.88 531.11 682.94 524.44 688.54 517.39 C 697.13 506.68 704.74 495.18 711.22 483.07 C 717.25 471.86 722.27 460.11 726.36 448.06 C 731.18 448.48 736.02 447.93 740.85 447.86 C 740.74 446.23 740.64 444.61 740.54 442.99 C 741.56 443.35 742.59 443.71 743.63 444.08 C 743.03 444.86 742.44 445.64 741.86 446.43 C 744.34 448.40 747.77 447.93 750.68 447.43 C 751.79 445.52 752.44 443.39 753.23 441.33 C 754.00 441.56 754.78 441.79 755.57 442.03 C 754.74 443.86 754.15 445.80 753.94 447.82 C 756.76 447.99 759.58 448.04 762.41 448.00 C 762.22 447.60 761.85 446.81 761.66 446.42 C 762.29 445.70 762.93 444.99 763.58 444.28 C 764.81 445.43 765.96 446.66 767.27 447.73 C 771.80 448.36 776.42 447.90 780.99 447.99 C 782.24 447.81 784.13 448.23 784.69 446.69 C 785.85 444.01 782.80 442.21 781.74 440.08 C 782.52 440.09 784.10 440.11 784.88 440.11 C 786.85 444.19 791.02 446.14 794.99 447.82 C 799.98 448.40 805.02 447.67 810.04 447.76 C 811.62 447.95 812.89 446.96 814.20 446.24 C 814.66 447.02 815.14 447.81 815.62 448.60 C 818.87 448.01 822.18 447.99 825.46 448.43 C 827.54 448.87 829.27 447.16 830.39 445.62 C 831.27 442.52 827.77 440.01 828.84 436.89 Z" />
<path fill="#e0e0e0" opacity="1.00" d=" M 269.69 440.62 C 271.00 440.37 273.07 439.30 273.73 441.15 C 275.34 444.90 279.58 446.12 282.95 447.82 C 287.77 448.37 292.64 447.83 297.46 447.50 C 301.56 459.76 306.67 471.70 312.80 483.10 C 319.31 495.18 326.88 506.71 335.47 517.41 C 341.07 524.45 347.13 531.12 353.54 537.44 C 364.46 548.33 376.65 557.89 389.60 566.23 C 395.05 569.89 400.87 572.95 406.52 576.28 C 404.02 576.92 401.43 576.87 398.88 576.64 C 398.59 577.90 398.33 579.16 398.02 580.42 C 396.23 579.15 396.53 576.91 396.41 575.01 C 396.00 575.17 395.18 575.50 394.77 575.66 C 394.41 576.56 394.05 577.46 393.69 578.37 C 392.88 577.90 392.07 577.43 391.27 576.97 C 390.80 577.35 389.87 578.11 389.41 578.49 C 388.73 577.41 388.06 576.34 387.40 575.27 C 386.81 576.28 386.23 577.30 385.66 578.32 C 382.54 575.90 378.40 576.85 375.68 579.38 C 374.56 578.25 373.37 577.18 372.39 575.94 C 372.26 574.23 373.07 572.64 373.54 571.05 C 372.44 571.05 371.34 571.05 370.25 571.06 C 370.50 572.89 370.97 574.74 370.75 576.60 C 368.19 577.77 365.20 578.25 363.31 580.53 C 362.95 578.40 362.32 576.25 360.15 575.38 C 357.20 578.13 351.69 579.88 348.70 576.30 C 347.58 575.58 346.42 573.71 344.92 574.62 C 342.37 576.27 339.57 577.52 337.22 579.47 C 335.24 578.63 333.41 577.27 331.30 576.83 C 326.46 577.38 321.58 577.62 316.70 577.44 C 316.31 578.61 315.93 579.79 315.54 580.96 C 315.21 579.70 314.89 578.43 314.56 577.18 C 311.57 577.20 308.57 577.30 305.59 577.57 C 305.10 578.29 304.61 579.02 304.13 579.75 C 301.12 576.87 296.78 577.11 292.93 577.06 C 290.05 576.90 288.09 580.00 285.14 579.46 C 283.48 579.64 282.73 577.96 281.70 577.02 C 280.42 577.62 279.15 578.25 277.86 578.85 C 274.91 577.06 271.45 576.88 268.09 576.80 C 268.08 575.72 268.07 574.65 268.07 573.59 C 269.40 573.59 270.72 573.58 272.05 573.57 C 270.77 572.67 268.91 571.09 267.43 572.46 C 266.26 574.32 266.75 576.60 266.80 578.67 C 265.82 578.11 264.85 577.56 263.87 577.01 C 262.93 577.55 261.98 578.09 261.04 578.63 C 258.27 575.57 254.15 576.84 250.64 577.39 C 250.03 578.68 249.42 580.00 248.82 581.31 C 248.46 579.71 249.42 577.23 247.37 576.59 C 245.32 575.79 243.06 576.80 240.94 576.88 C 237.40 577.50 233.89 576.39 230.36 576.37 C 228.58 576.85 227.68 578.66 226.56 579.97 C 227.09 581.44 227.92 583.10 226.27 584.22 C 225.00 582.05 224.10 579.70 223.44 577.28 C 220.25 576.44 216.88 576.00 213.62 576.69 C 212.19 577.54 211.02 578.76 209.79 579.87 C 209.01 579.47 208.25 579.08 207.49 578.70 C 207.77 578.27 208.32 577.39 208.60 576.95 C 204.59 575.75 200.53 577.91 196.51 576.84 C 190.34 576.23 184.00 576.85 178.17 579.03 C 177.38 578.37 176.59 577.71 175.81 577.06 C 175.04 577.38 174.29 577.73 173.52 578.06 C 171.27 576.84 168.74 577.27 166.33 577.60 C 166.13 576.46 165.94 575.33 165.75 574.21 C 165.18 575.08 164.62 575.95 164.06 576.84 C 160.52 576.04 156.73 576.60 154.20 579.39 C 152.09 578.46 150.02 577.49 147.96 576.47 C 146.77 576.83 145.60 577.23 144.42 577.60 C 144.36 575.75 144.33 573.90 144.32 572.06 C 143.85 572.10 142.91 572.20 142.44 572.24 C 142.07 573.56 141.70 574.88 141.33 576.21 C 139.58 576.97 137.83 577.74 136.06 578.46 C 131.83 576.23 126.93 578.17 122.45 576.85 C 122.83 575.92 123.21 575.01 123.59 574.10 C 122.98 573.43 122.37 572.78 121.76 572.13 C 120.84 572.65 119.92 573.18 119.00 573.72 C 119.64 574.55 120.28 575.39 120.92 576.23 C 120.63 576.58 120.04 577.28 119.75 577.63 C 117.11 577.12 114.40 577.19 112.00 578.53 C 108.47 575.74 108.14 571.23 107.79 567.10 C 107.47 567.37 106.81 567.92 106.48 568.19 C 106.49 570.36 107.09 572.79 105.81 574.72 C 104.25 577.35 100.77 577.16 98.20 578.18 C 95.99 577.17 93.64 575.57 91.09 576.17 C 88.98 576.69 86.81 576.71 84.65 576.80 C 82.41 576.85 80.75 578.55 78.96 579.67 C 76.56 575.19 70.92 577.20 66.97 577.96 C 66.99 563.94 66.95 549.93 66.99 535.92 C 67.02 507.24 67.00 478.56 66.99 449.88 C 71.71 445.85 77.80 449.55 83.15 448.16 C 85.22 447.52 87.28 448.40 89.36 448.32 C 102.87 447.40 116.46 448.61 129.96 447.66 C 129.22 447.30 127.75 446.56 127.02 446.19 C 130.32 445.64 133.52 449.24 136.35 446.19 C 136.44 446.61 136.62 447.45 136.71 447.87 C 137.91 447.90 139.10 447.94 140.31 447.99 C 140.28 446.44 140.25 444.85 140.93 443.41 C 141.71 444.80 142.34 446.27 142.84 447.78 C 145.58 446.41 148.39 448.10 151.23 447.71 C 156.47 447.18 161.70 448.35 166.96 448.05 C 171.04 448.12 175.14 446.87 179.20 447.73 C 184.67 448.93 190.30 447.16 195.81 448.19 C 196.46 448.88 197.02 449.68 197.61 450.44 C 198.05 449.71 198.49 448.99 198.93 448.28 C 203.18 449.17 207.67 446.07 211.48 449.04 C 217.13 447.49 223.07 448.29 228.85 447.82 C 228.78 446.20 228.71 444.60 228.65 443.00 C 229.62 443.42 230.59 443.84 231.56 444.27 C 231.13 444.82 230.28 445.91 229.85 446.46 C 232.38 448.32 235.77 447.92 238.67 447.34 C 239.79 445.45 240.46 443.34 241.27 441.32 C 241.99 441.58 242.71 441.85 243.43 442.12 C 242.71 443.94 242.22 445.84 241.94 447.78 C 244.83 447.97 247.72 448.05 250.61 448.04 C 250.35 447.60 249.83 446.72 249.57 446.28 C 250.45 445.75 251.26 444.28 252.44 444.98 C 253.51 445.82 254.32 446.93 255.21 447.95 C 259.84 448.06 264.48 448.08 269.12 447.99 C 270.44 447.91 272.06 448.05 272.80 446.67 C 273.92 444.04 271.03 442.40 269.69 440.62 Z" />
<path fill="#e0e0e0" opacity="1.00" d=" M 467.04 621.11 C 479.25 621.71 491.46 620.30 503.65 621.42 C 509.51 620.22 515.45 621.16 521.37 621.12 C 525.54 622.30 529.74 620.19 533.96 621.04 C 537.27 621.61 540.62 621.80 543.91 620.94 C 548.21 622.03 552.60 621.41 556.94 620.86 C 557.10 627.28 557.13 633.71 557.05 640.14 C 555.78 639.58 554.54 639.02 553.28 638.47 C 552.53 639.18 551.78 639.91 551.05 640.65 C 550.31 640.58 549.58 640.51 548.86 640.46 C 548.60 640.92 548.34 641.40 548.10 641.88 C 547.41 641.36 546.74 640.85 546.06 640.35 C 542.38 641.75 538.42 642.11 534.52 641.82 C 534.29 641.20 533.84 639.98 533.61 639.36 C 533.21 640.04 532.81 640.72 532.42 641.41 C 531.16 641.80 529.90 642.21 528.65 642.62 C 528.11 643.44 527.57 644.28 527.05 645.12 C 526.47 644.23 525.90 643.35 525.33 642.48 C 524.01 642.15 522.70 641.83 521.40 641.51 C 519.95 639.06 517.66 637.08 514.65 637.34 C 514.65 638.81 514.67 640.29 514.67 641.78 C 514.22 641.81 513.32 641.86 512.86 641.88 C 512.68 640.82 512.53 639.77 512.26 638.74 C 511.22 637.88 510.14 638.97 509.13 639.29 C 506.96 637.70 504.76 635.80 501.88 636.03 C 502.77 638.17 504.26 639.97 505.80 641.69 C 497.72 641.63 489.51 642.48 481.53 641.01 C 479.88 641.85 478.14 641.69 476.46 641.01 C 476.95 640.18 477.44 639.35 477.93 638.54 C 476.79 638.34 475.65 638.14 474.53 637.96 C 474.62 639.25 474.71 640.54 474.81 641.84 C 472.20 641.98 469.59 642.06 466.98 642.06 C 466.94 635.08 466.84 628.09 467.04 621.11 Z" />
</g>
<g id="#ef9e58ff">
<path fill="#ef9e58" opacity="1.00" d=" M 368.50 482.31 C 375.17 491.28 382.67 499.63 390.85 507.27 C 394.27 510.43 397.82 513.45 401.45 516.37 C 399.33 516.79 397.19 517.12 395.02 517.11 C 382.32 517.03 369.62 517.05 356.92 517.11 C 349.77 517.13 342.61 516.75 335.47 517.41 C 326.88 506.71 319.31 495.18 312.80 483.10 C 329.85 482.67 346.91 483.03 363.96 482.90 C 365.48 482.80 366.99 482.55 368.50 482.31 Z" />
<path fill="#ef9e58" opacity="1.00" d=" M 633.40 507.01 C 641.51 499.48 648.90 491.19 655.50 482.31 C 661.96 483.40 668.51 482.73 675.02 482.89 C 687.09 483.02 699.15 482.73 711.22 483.07 C 704.74 495.18 697.13 506.68 688.54 517.39 C 682.40 516.76 676.23 517.14 670.07 517.07 C 656.71 517.12 643.35 517.01 629.98 517.13 C 627.46 517.17 624.96 516.86 622.49 516.41 C 626.23 513.40 629.90 510.30 633.40 507.01 Z" />
</g>
<g id="#fafafaff">
<path fill="#fafafa" opacity="1.00" d=" M 390.85 507.27 C 397.98 505.81 405.17 507.70 412.31 506.59 C 416.84 505.91 421.34 507.40 425.88 506.78 C 434.54 506.00 443.20 507.43 451.84 506.57 C 461.40 507.43 471.03 507.09 480.61 506.53 C 484.37 506.35 488.11 507.16 491.88 506.86 C 495.96 506.54 500.05 506.34 504.14 506.53 C 515.73 507.58 527.36 505.99 538.95 506.91 C 544.64 506.56 550.33 507.16 556.01 506.65 C 561.96 507.04 567.94 507.21 573.88 506.53 C 580.87 505.57 587.87 506.87 594.87 506.62 C 607.72 507.39 620.59 505.70 633.40 507.01 C 629.90 510.30 626.23 513.40 622.49 516.41 C 612.60 524.14 601.91 530.86 590.65 536.39 C 583.49 540.03 576.05 543.11 568.42 545.61 C 563.92 544.21 558.68 544.03 554.63 546.75 C 554.37 545.62 554.11 544.50 553.85 543.38 C 552.19 544.52 550.58 545.79 548.77 546.69 C 545.07 544.66 540.88 544.54 536.79 545.14 C 536.65 545.58 536.36 546.46 536.21 546.90 C 535.89 546.87 535.23 546.81 534.91 546.78 C 534.71 546.33 534.30 545.44 534.10 545.00 C 530.90 547.22 526.99 546.57 523.35 546.69 C 523.71 546.28 524.43 545.46 524.79 545.05 C 520.62 545.04 516.46 544.93 512.32 544.61 C 512.17 545.03 511.86 545.87 511.71 546.29 C 507.98 544.02 503.23 546.36 499.43 543.88 C 498.85 544.38 498.27 544.89 497.71 545.40 C 495.09 545.08 492.46 544.96 489.83 545.03 C 489.64 545.51 489.26 546.48 489.07 546.96 C 486.67 547.02 484.83 545.41 482.99 544.12 C 480.50 544.79 478.02 545.45 475.53 546.10 C 475.28 546.04 474.77 545.91 474.51 545.84 C 474.04 546.09 473.58 546.35 473.13 546.62 C 472.35 545.98 471.59 545.34 470.83 544.69 C 470.70 545.24 470.42 546.34 470.28 546.89 C 468.81 546.86 467.34 546.84 465.88 546.83 C 465.70 546.40 465.35 545.53 465.17 545.10 C 462.45 544.73 459.64 544.70 457.21 546.14 C 449.04 543.55 441.07 540.31 433.43 536.43 C 422.12 530.88 411.38 524.13 401.45 516.37 C 397.82 513.45 394.27 510.43 390.85 507.27 Z" />
</g>
<g id="#e3a458ff">
<path fill="#e3a458" opacity="1.00" d=" M 401.45 516.37 C 411.38 524.13 422.12 530.88 433.43 536.43 C 431.62 536.74 429.80 537.03 427.97 537.10 C 408.97 537.16 389.96 537.06 370.96 537.08 C 365.15 537.14 359.33 536.85 353.54 537.44 C 347.13 531.12 341.07 524.45 335.47 517.41 C 342.61 516.75 349.77 517.13 356.92 517.11 C 369.62 517.05 382.32 517.03 395.02 517.11 C 397.19 517.12 399.33 516.79 401.45 516.37 Z" />
<path fill="#e3a458" opacity="1.00" d=" M 590.65 536.39 C 601.91 530.86 612.60 524.14 622.49 516.41 C 624.96 516.86 627.46 517.17 629.98 517.13 C 643.35 517.01 656.71 517.12 670.07 517.07 C 676.23 517.14 682.40 516.76 688.54 517.39 C 682.94 524.44 676.88 531.11 670.48 537.43 C 663.00 536.80 655.50 537.20 648.01 537.13 C 633.66 537.05 619.32 537.13 604.98 537.12 C 600.19 537.06 595.33 537.61 590.65 536.39 Z" />
</g>
<g id="#808081ff">
<path fill="#808081" opacity="1.00" d=" M 64.00 534.86 C 65.00 535.21 65.99 535.56 66.99 535.92 C 66.95 549.93 66.99 563.94 66.97 577.96 C 66.99 608.96 66.97 639.97 66.99 670.98 C 67.33 713.71 65.82 756.80 72.95 799.12 C 76.58 819.61 83.02 839.73 93.22 857.93 C 101.58 872.60 111.99 886.09 123.91 898.04 C 137.22 911.66 152.46 923.41 169.25 932.44 C 168.46 932.86 166.89 933.69 166.10 934.11 L 166.06 934.13 C 150.72 925.75 136.72 915.03 124.30 902.75 C 109.24 888.05 96.18 871.14 86.83 852.24 C 78.03 834.65 72.58 815.55 69.40 796.18 C 65.23 770.69 64.40 744.80 64.10 719.01 C 63.88 657.63 64.05 596.25 64.00 534.86 Z" />
</g>
<g id="#d6ac5bff">
<path fill="#d6ac5b" opacity="1.00" d=" M 433.43 536.43 C 441.07 540.31 449.04 543.55 457.21 546.14 C 460.23 547.15 463.30 548.06 466.37 548.94 C 466.49 554.61 466.41 560.28 466.44 565.95 C 449.30 565.93 432.15 565.94 415.01 565.92 C 406.54 566.00 398.06 565.65 389.60 566.23 C 376.65 557.89 364.46 548.33 353.54 537.44 C 359.33 536.85 365.15 537.14 370.96 537.08 C 389.96 537.06 408.97 537.16 427.97 537.10 C 429.80 537.03 431.62 536.74 433.43 536.43 Z" />
<path fill="#d6ac5b" opacity="1.00" d=" M 568.42 545.61 C 576.05 543.11 583.49 540.03 590.65 536.39 C 595.33 537.61 600.19 537.06 604.98 537.12 C 619.32 537.13 633.66 537.05 648.01 537.13 C 655.50 537.20 663.00 536.80 670.48 537.43 C 659.53 548.32 647.34 557.91 634.36 566.27 C 608.78 565.59 583.16 566.11 557.56 565.94 C 557.59 560.26 557.51 554.58 557.63 548.91 C 561.25 547.90 564.87 546.86 568.42 545.61 Z" />
</g>
<g id="#f2f2f2ff">
<path fill="#f2f2f2" opacity="1.00" d=" M 497.71 545.40 C 498.27 544.89 498.85 544.38 499.43 543.88 C 503.23 546.36 507.98 544.02 511.71 546.29 C 511.86 545.87 512.17 545.03 512.32 544.61 C 516.46 544.93 520.62 545.04 524.79 545.05 C 524.43 545.46 523.71 546.28 523.35 546.69 C 526.99 546.57 530.90 547.22 534.10 545.00 C 534.30 545.44 534.71 546.33 534.91 546.78 C 535.23 546.81 535.89 546.87 536.21 546.90 C 536.36 546.46 536.65 545.58 536.79 545.14 C 540.88 544.54 545.07 544.66 548.77 546.69 C 550.58 545.79 552.19 544.52 553.85 543.38 C 554.11 544.50 554.37 545.62 554.63 546.75 C 558.68 544.03 563.92 544.21 568.42 545.61 C 564.87 546.86 561.25 547.90 557.63 548.91 C 557.51 554.58 557.59 560.26 557.56 565.94 C 557.53 574.28 557.55 582.62 557.53 590.97 C 557.49 603.96 557.47 616.96 557.49 629.96 C 557.48 633.98 557.44 638.00 557.46 642.02 C 557.46 646.74 557.49 651.46 557.46 656.18 C 556.92 650.85 557.16 645.49 557.05 640.14 C 557.13 633.71 557.10 627.28 556.94 620.86 C 557.06 607.55 556.68 594.25 556.77 580.95 C 556.77 579.08 556.50 577.23 556.19 575.40 C 552.12 576.31 548.00 576.34 543.90 575.88 C 537.38 577.31 530.85 575.16 524.30 576.00 C 524.64 575.56 525.33 574.67 525.67 574.23 C 525.31 574.24 524.58 574.27 524.22 574.28 C 521.90 577.42 517.99 576.56 515.17 574.64 C 512.37 575.35 509.47 573.92 506.72 574.92 C 503.38 576.16 499.72 576.68 496.23 575.85 C 495.72 575.26 495.25 574.67 494.81 574.05 C 493.33 574.19 491.90 574.56 490.52 575.08 C 490.15 575.03 489.80 575.00 489.45 574.97 C 486.44 576.72 482.95 575.99 479.69 575.76 C 475.55 575.40 471.48 576.42 467.36 576.37 C 467.12 591.28 467.05 606.20 467.04 621.11 C 466.84 628.09 466.94 635.08 466.98 642.06 C 466.88 646.77 466.89 651.49 466.54 656.20 C 466.47 648.44 466.60 640.68 466.52 632.92 C 466.52 618.92 466.51 604.93 466.48 590.93 C 466.43 582.61 466.47 574.28 466.44 565.95 C 466.41 560.28 466.49 554.61 466.37 548.94 C 463.30 548.06 460.23 547.15 457.21 546.14 C 459.64 544.70 462.45 544.73 465.17 545.10 C 465.35 545.53 465.70 546.40 465.88 546.83 C 467.34 546.84 468.81 546.86 470.28 546.89 C 470.42 546.34 470.70 545.24 470.83 544.69 C 471.59 545.34 472.35 545.98 473.13 546.62 C 473.58 546.35 474.04 546.09 474.51 545.84 C 474.77 545.91 475.28 546.04 475.53 546.10 C 478.02 545.45 480.50 544.79 482.99 544.12 C 484.83 545.41 486.67 547.02 489.07 546.96 C 489.26 546.48 489.64 545.51 489.83 545.03 C 492.46 544.96 495.09 545.08 497.71 545.40 Z" />
</g>
<g id="#ccb363ff">
<path fill="#ccb363" opacity="1.00" d=" M 389.60 566.23 C 398.06 565.65 406.54 566.00 415.01 565.92 C 432.15 565.94 449.30 565.93 466.44 565.95 C 466.47 574.28 466.43 582.61 466.48 590.93 C 451.28 590.94 436.09 590.86 420.90 590.97 C 420.91 588.37 420.89 585.77 420.87 583.18 C 416.04 580.96 411.25 578.69 406.52 576.28 C 400.87 572.95 395.05 569.89 389.60 566.23 Z" />
<path fill="#ccb363" opacity="1.00" d=" M 557.56 565.94 C 583.16 566.11 608.78 565.59 634.36 566.27 C 630.35 569.03 626.03 571.30 621.84 573.77 C 615.81 577.29 609.49 580.27 603.15 583.17 C 603.11 585.76 603.08 588.35 603.09 590.94 C 587.91 590.91 572.72 590.87 557.53 590.97 C 557.55 582.62 557.53 574.28 557.56 565.94 Z" />
</g>
<g id="#dbdbdbff">
<path fill="#dbdbdb" opacity="1.00" d=" M 106.48 568.19 C 106.81 567.92 107.47 567.37 107.79 567.10 C 108.14 571.23 108.47 575.74 112.00 578.53 C 114.40 577.19 117.11 577.12 119.75 577.63 C 120.04 577.28 120.63 576.58 120.92 576.23 C 120.28 575.39 119.64 574.55 119.00 573.72 C 119.92 573.18 120.84 572.65 121.76 572.13 C 122.37 572.78 122.98 573.43 123.59 574.10 C 123.21 575.01 122.83 575.92 122.45 576.85 C 126.93 578.17 131.83 576.23 136.06 578.46 C 137.83 577.74 139.58 576.97 141.33 576.21 C 141.70 574.88 142.07 573.56 142.44 572.24 C 142.91 572.20 143.85 572.10 144.32 572.06 C 144.33 573.90 144.36 575.75 144.42 577.60 C 145.60 577.23 146.77 576.83 147.96 576.47 C 150.02 577.49 152.09 578.46 154.20 579.39 C 156.73 576.60 160.52 576.04 164.06 576.84 C 164.62 575.95 165.18 575.08 165.75 574.21 C 165.94 575.33 166.13 576.46 166.33 577.60 C 168.74 577.27 171.27 576.84 173.52 578.06 C 174.29 577.73 175.04 577.38 175.81 577.06 C 176.59 577.71 177.38 578.37 178.17 579.03 C 184.00 576.85 190.34 576.23 196.51 576.84 C 200.53 577.91 204.59 575.75 208.60 576.95 C 208.32 577.39 207.77 578.27 207.49 578.70 C 208.25 579.08 209.01 579.47 209.79 579.87 C 211.02 578.76 212.19 577.54 213.62 576.69 C 216.88 576.00 220.25 576.44 223.44 577.28 C 224.10 579.70 225.00 582.05 226.27 584.22 C 227.92 583.10 227.09 581.44 226.56 579.97 C 227.68 578.66 228.58 576.85 230.36 576.37 C 233.89 576.39 237.40 577.50 240.94 576.88 C 243.06 576.80 245.32 575.79 247.37 576.59 C 249.42 577.23 248.46 579.71 248.82 581.31 C 249.42 580.00 250.03 578.68 250.64 577.39 C 254.15 576.84 258.27 575.57 261.04 578.63 C 261.98 578.09 262.93 577.55 263.87 577.01 C 264.85 577.56 265.82 578.11 266.80 578.67 C 266.75 576.60 266.26 574.32 267.43 572.46 C 268.91 571.09 270.77 572.67 272.05 573.57 C 270.72 573.58 269.40 573.59 268.07 573.59 C 268.07 574.65 268.08 575.72 268.09 576.80 C 271.45 576.88 274.91 577.06 277.86 578.85 C 279.15 578.25 280.42 577.62 281.70 577.02 C 282.73 577.96 283.48 579.64 285.14 579.46 C 288.09 580.00 290.05 576.90 292.93 577.06 C 296.78 577.11 301.12 576.87 304.13 579.75 C 304.61 579.02 305.10 578.29 305.59 577.57 C 308.57 577.30 311.57 577.20 314.56 577.18 C 314.89 578.43 315.21 579.70 315.54 580.96 C 315.93 579.79 316.31 578.61 316.70 577.44 C 321.58 577.62 326.46 577.38 331.30 576.83 C 333.41 577.27 335.24 578.63 337.22 579.47 C 339.57 577.52 342.37 576.27 344.92 574.62 C 346.42 573.71 347.58 575.58 348.70 576.30 C 351.69 579.88 357.20 578.13 360.15 575.38 C 362.32 576.25 362.95 578.40 363.31 580.53 C 365.20 578.25 368.19 577.77 370.75 576.60 C 370.97 574.74 370.50 572.89 370.25 571.06 C 371.34 571.05 372.44 571.05 373.54 571.05 C 373.07 572.64 372.26 574.23 372.39 575.94 C 373.37 577.18 374.56 578.25 375.68 579.38 C 378.40 576.85 382.54 575.90 385.66 578.32 C 386.23 577.30 386.81 576.28 387.40 575.27 C 388.06 576.34 388.73 577.41 389.41 578.49 C 389.87 578.11 390.80 577.35 391.27 576.97 C 392.07 577.43 392.88 577.90 393.69 578.37 C 394.05 577.46 394.41 576.56 394.77 575.66 C 395.18 575.50 396.00 575.17 396.41 575.01 C 396.53 576.91 396.23 579.15 398.02 580.42 C 398.33 579.16 398.59 577.90 398.88 576.64 C 401.43 576.87 404.02 576.92 406.52 576.28 C 411.25 578.69 416.04 580.96 420.87 583.18 C 420.89 585.77 420.91 588.37 420.90 590.97 C 420.89 604.98 420.89 619.00 420.89 633.01 C 420.91 640.73 420.84 648.44 420.92 656.16 C 436.13 656.24 451.33 656.19 466.54 656.20 C 466.89 651.49 466.88 646.77 466.98 642.06 C 469.59 642.06 472.20 641.98 474.81 641.84 C 474.71 640.54 474.62 639.25 474.53 637.96 C 475.65 638.14 476.79 638.34 477.93 638.54 C 477.44 639.35 476.95 640.18 476.46 641.01 C 478.14 641.69 479.88 641.85 481.53 641.01 C 489.51 642.48 497.72 641.63 505.80 641.69 C 504.26 639.97 502.77 638.17 501.88 636.03 C 504.76 635.80 506.96 637.70 509.13 639.29 C 510.14 638.97 511.22 637.88 512.26 638.74 C 512.53 639.77 512.68 640.82 512.86 641.88 C 513.32 641.86 514.22 641.81 514.67 641.78 C 514.67 640.29 514.65 638.81 514.65 637.34 C 517.66 637.08 519.95 639.06 521.40 641.51 C 522.70 641.83 524.01 642.15 525.33 642.48 C 525.90 643.35 526.47 644.23 527.05 645.12 C 527.57 644.28 528.11 643.44 528.65 642.62 C 529.90 642.21 531.16 641.80 532.42 641.41 C 532.81 640.72 533.21 640.04 533.61 639.36 C 533.84 639.98 534.29 641.20 534.52 641.82 C 538.42 642.11 542.38 641.75 546.06 640.35 C 546.74 640.85 547.41 641.36 548.10 641.88 C 548.34 641.40 548.60 640.92 548.86 640.46 C 549.58 640.51 550.31 640.58 551.05 640.65 C 551.78 639.91 552.53 639.18 553.28 638.47 C 554.54 639.02 555.78 639.58 557.05 640.14 C 557.16 645.49 556.92 650.85 557.46 656.18 C 572.66 656.19 587.86 656.21 603.06 656.18 C 603.14 651.44 603.11 646.70 603.13 641.97 C 603.14 637.96 603.11 633.96 603.11 629.96 C 603.09 616.95 603.11 603.95 603.09 590.94 C 603.08 588.35 603.11 585.76 603.15 583.17 C 609.49 580.27 615.81 577.29 621.84 573.77 C 621.73 575.49 621.64 577.22 621.55 578.95 C 624.44 578.33 627.34 577.64 630.31 577.51 C 631.37 577.56 632.25 576.98 633.11 576.43 C 632.39 575.47 631.68 574.51 630.97 573.57 C 632.19 573.43 633.42 573.30 634.65 573.17 C 634.55 574.34 634.46 575.52 634.38 576.71 C 638.51 578.60 643.25 576.49 647.23 578.45 C 646.78 578.98 645.89 580.04 645.45 580.56 C 646.10 581.20 646.76 581.84 647.43 582.49 C 649.49 578.47 654.45 576.60 655.03 571.78 C 656.35 574.66 657.25 578.24 655.51 581.15 C 656.38 581.02 657.26 580.90 658.15 580.79 C 658.39 579.18 658.79 577.59 659.51 576.12 C 661.71 577.31 663.98 578.40 666.33 579.30 C 671.94 575.35 679.21 577.15 685.45 578.17 C 688.59 575.44 690.80 579.78 691.84 582.34 C 689.42 582.25 688.01 584.02 686.92 585.92 C 687.77 587.21 688.61 588.50 689.46 589.80 C 690.48 587.02 691.54 583.99 694.51 582.73 C 693.35 581.51 692.24 580.20 691.82 578.55 C 694.41 577.92 697.15 576.39 699.81 577.66 C 700.27 577.40 701.20 576.87 701.66 576.61 C 702.02 577.13 702.39 577.67 702.77 578.22 C 701.39 579.64 700.02 581.06 698.63 582.47 C 699.30 583.07 699.95 583.70 700.60 584.35 C 700.46 586.00 698.16 585.30 697.03 585.78 C 697.16 586.21 697.41 587.06 697.53 587.49 C 699.98 587.32 702.46 587.29 704.86 586.67 C 707.75 584.29 710.96 581.34 710.86 577.27 C 712.33 577.53 713.78 577.89 715.23 578.32 C 716.24 577.73 717.24 577.13 718.26 576.54 C 719.84 578.68 721.87 580.42 724.17 581.77 C 724.52 580.03 723.51 577.34 725.62 576.59 C 729.04 575.93 732.41 577.32 735.77 577.81 C 735.95 580.86 737.12 583.68 739.55 585.63 C 739.80 585.09 740.32 584.03 740.58 583.49 C 741.86 583.25 743.47 583.66 744.57 582.84 C 743.95 580.98 743.48 579.06 744.16 577.14 C 748.89 577.11 753.64 576.63 758.37 576.82 C 760.57 576.96 760.71 579.31 760.74 581.00 C 761.62 580.96 762.51 580.92 763.42 580.90 C 763.15 579.83 762.88 578.78 762.62 577.73 C 764.65 578.03 766.66 577.52 768.70 577.48 C 770.49 577.74 772.07 578.72 773.72 579.45 C 774.31 578.83 774.92 578.22 775.53 577.61 C 776.61 577.94 777.71 578.28 778.82 578.62 C 778.93 576.44 779.05 574.26 779.18 572.09 C 780.40 572.12 781.64 572.17 782.89 572.22 C 781.87 572.80 780.87 573.39 779.87 573.99 C 779.96 574.72 780.13 576.20 780.22 576.94 C 782.66 577.31 785.14 577.30 787.61 577.57 C 787.14 578.93 785.99 579.91 785.14 581.03 C 788.11 580.34 790.89 579.05 793.46 577.41 C 794.07 578.39 794.69 579.38 795.33 580.38 C 799.66 579.88 803.33 576.65 807.80 577.29 C 810.36 577.45 813.09 577.34 815.34 578.80 C 812.40 580.36 809.00 580.00 805.81 580.34 C 807.97 581.91 810.56 581.33 813.04 581.29 C 814.69 581.73 816.25 582.46 817.84 583.11 C 817.67 581.53 817.52 579.97 817.36 578.41 C 820.54 578.43 823.49 577.01 826.67 576.95 C 826.78 578.78 826.02 581.14 827.91 582.36 C 828.46 581.07 828.99 579.78 829.54 578.49 C 833.80 578.00 838.21 577.12 842.34 578.78 C 842.78 580.33 843.23 581.89 843.68 583.45 C 845.91 584.07 848.18 584.57 850.50 584.72 C 850.73 585.21 851.18 586.19 851.41 586.69 C 851.84 585.70 852.27 584.72 852.73 583.75 C 853.72 583.60 854.73 583.45 855.74 583.31 C 854.89 581.60 854.07 579.88 853.27 578.16 C 853.05 579.30 852.84 580.46 852.64 581.62 C 849.58 581.72 846.46 581.57 843.65 580.23 C 845.40 579.42 847.31 579.20 849.24 579.17 C 851.96 576.70 856.07 577.10 858.67 574.43 C 859.98 575.74 861.14 577.29 862.79 578.21 C 864.30 578.42 865.83 578.20 867.36 578.16 C 867.39 579.10 867.43 580.04 867.48 580.99 C 869.48 579.33 870.26 576.50 872.90 575.62 C 873.85 577.41 874.79 579.20 875.72 581.02 C 877.27 578.54 880.34 578.11 882.61 576.56 C 883.34 574.78 882.33 572.72 882.31 570.85 C 882.61 571.03 883.21 571.39 883.51 571.57 C 883.81 574.63 884.78 577.51 887.33 579.44 C 888.20 579.06 889.08 578.70 889.98 578.35 C 890.36 578.60 891.12 579.12 891.51 579.37 C 892.00 578.51 892.50 577.64 893.02 576.79 C 894.12 577.03 895.24 577.28 896.36 577.53 C 897.11 579.92 896.55 583.83 899.91 584.08 C 898.43 581.54 896.63 577.83 899.88 575.81 C 900.44 577.40 900.96 579.00 901.48 580.62 C 902.13 579.40 902.83 578.21 903.50 577.00 C 905.51 578.56 907.73 580.06 910.41 579.83 C 910.50 578.75 910.62 577.68 910.73 576.61 C 914.85 577.13 918.99 576.59 923.12 576.42 C 922.67 577.01 921.76 578.19 921.31 578.78 C 923.56 580.04 925.74 578.30 927.91 577.73 C 930.40 576.56 932.62 579.20 935.04 579.25 C 937.75 577.72 940.76 577.02 943.82 576.60 C 944.39 577.26 944.98 577.94 945.58 578.62 C 946.19 577.92 946.80 577.23 947.44 576.55 C 948.58 577.75 949.49 579.30 951.06 580.02 C 952.38 579.66 953.62 579.01 954.87 578.42 C 954.60 580.09 954.32 581.79 954.49 583.50 C 955.58 583.72 956.24 582.76 957.03 582.21 C 956.96 610.14 957.02 638.08 957.00 666.02 C 956.98 692.67 957.19 719.34 956.17 745.97 C 955.46 762.87 954.25 779.78 951.45 796.47 C 948.89 796.14 946.59 797.25 945.96 799.86 C 944.72 799.87 943.51 799.88 942.30 799.91 C 941.94 798.25 941.60 796.60 941.26 794.96 C 937.85 794.40 937.64 798.13 936.28 800.30 C 934.44 801.02 933.04 798.78 931.51 798.05 C 931.56 798.97 931.61 799.91 931.68 800.86 C 930.25 800.16 928.46 799.87 927.54 798.48 C 926.69 796.74 926.26 794.86 925.67 793.04 C 923.99 795.27 922.40 798.00 924.41 800.57 C 923.51 801.15 922.63 801.74 921.76 802.34 C 920.80 801.52 919.82 800.74 918.85 799.95 C 919.81 798.22 918.60 796.65 917.81 795.17 C 916.98 795.58 916.18 796.01 915.38 796.44 C 915.80 797.31 916.24 798.20 916.69 799.09 C 916.15 798.95 915.09 798.69 914.55 798.56 C 914.31 798.09 913.81 797.16 913.57 796.70 C 912.98 796.98 912.41 797.28 911.86 797.58 C 910.89 797.16 909.93 796.74 908.98 796.33 C 909.54 797.55 910.11 798.77 910.69 800.01 C 907.16 799.94 903.52 798.90 900.07 800.06 C 898.95 800.20 897.76 800.98 896.67 800.39 C 895.83 799.10 896.67 797.73 897.00 796.45 C 896.80 795.92 896.62 795.40 896.46 794.90 C 896.85 794.23 897.26 793.58 897.68 792.94 C 896.91 792.61 896.16 792.29 895.42 791.99 C 895.01 794.89 894.52 797.78 893.91 800.65 C 891.91 797.67 888.83 795.86 885.33 795.27 C 885.10 796.83 884.88 798.40 884.68 799.99 C 877.46 798.73 870.20 801.25 863.04 799.70 C 865.26 797.21 866.11 793.98 866.77 790.80 C 865.48 791.70 864.21 792.64 862.96 793.59 C 862.45 792.48 861.94 791.37 861.46 790.29 C 861.06 790.93 860.68 791.58 860.32 792.25 C 861.13 793.47 861.97 794.68 862.82 795.92 C 861.78 797.44 860.90 799.15 859.47 800.35 C 855.24 798.96 850.97 800.75 846.68 800.47 C 844.09 800.37 841.48 800.57 838.91 800.22 C 836.40 800.10 835.65 796.76 833.03 796.98 C 833.62 798.23 834.24 799.47 834.87 800.72 C 833.15 800.27 831.35 800.00 829.77 799.20 C 827.78 797.71 826.72 795.37 825.44 793.32 C 824.62 796.87 822.01 800.76 817.91 800.41 C 810.99 799.72 802.71 798.17 797.30 803.73 C 796.63 803.37 795.98 803.02 795.34 802.68 C 797.22 801.73 798.37 800.04 798.97 798.07 C 798.54 797.89 797.67 797.54 797.24 797.36 C 796.32 801.99 790.85 801.19 787.35 800.63 C 782.66 799.66 777.85 801.24 773.24 799.78 C 769.76 798.75 766.17 799.85 763.50 802.19 C 760.68 800.92 757.86 799.69 755.04 798.46 C 754.12 799.70 752.91 800.93 751.22 800.41 C 746.26 799.21 741.18 799.83 736.15 799.57 C 736.65 797.96 737.16 796.35 737.63 794.74 C 735.27 795.29 734.82 797.76 733.42 799.35 C 730.57 800.78 727.12 800.13 725.30 797.47 C 723.79 798.90 722.42 801.30 719.99 800.91 C 716.50 800.61 713.05 799.96 709.56 799.67 C 708.82 798.09 708.10 796.53 707.37 794.96 C 707.01 796.57 706.67 798.20 706.33 799.82 C 705.97 799.82 705.24 799.82 704.88 799.82 C 704.34 798.43 703.78 797.05 703.22 795.69 C 701.77 797.44 700.73 800.13 698.08 800.22 C 693.53 800.77 688.87 800.57 684.37 799.64 C 684.71 796.80 684.51 793.94 683.76 791.19 C 682.95 791.51 682.15 791.84 681.36 792.18 C 681.85 794.01 682.17 795.90 682.08 797.80 C 681.08 796.91 680.10 796.01 679.14 795.12 C 677.61 797.52 676.00 799.98 673.48 801.47 C 672.89 800.88 672.32 800.31 671.75 799.75 C 669.17 799.66 666.71 798.84 664.36 797.85 C 664.75 798.52 665.15 799.19 665.56 799.88 C 659.92 800.39 654.28 800.12 648.64 800.01 C 648.61 800.97 648.59 801.93 648.59 802.91 C 646.89 803.79 645.08 803.23 643.37 802.79 C 644.35 801.94 645.35 801.12 646.32 800.25 C 644.11 800.18 641.92 800.23 639.73 800.34 C 639.02 799.80 638.32 799.28 637.63 798.76 C 633.74 801.71 628.84 800.81 624.47 799.68 C 624.75 799.27 625.31 798.46 625.58 798.05 C 624.25 797.81 622.91 797.60 621.59 797.38 C 621.01 796.56 620.43 795.75 619.87 794.95 C 618.88 795.53 617.89 796.12 616.92 796.72 C 617.48 797.66 618.05 798.60 618.62 799.56 C 617.00 799.50 615.30 799.75 613.76 799.18 C 612.63 798.22 612.43 796.60 611.83 795.32 C 610.73 796.30 609.64 797.28 608.55 798.28 C 609.05 799.04 609.57 799.81 610.09 800.59 C 606.10 802.25 605.31 796.83 603.63 794.42 C 603.10 794.30 602.05 794.05 601.52 793.93 C 602.28 796.05 602.61 798.29 602.46 800.54 C 600.32 800.23 597.94 800.29 596.20 798.85 C 594.38 797.52 594.17 795.11 593.50 793.16 C 592.52 793.77 591.55 794.38 590.59 795.01 C 591.26 797.47 593.20 799.03 595.26 800.36 C 589.61 801.55 583.85 799.27 578.10 799.88 C 578.96 799.37 579.83 798.86 580.71 798.37 C 579.69 797.85 578.67 797.32 577.67 796.83 C 576.44 799.74 577.51 802.85 577.89 805.83 C 575.05 803.67 573.24 799.16 569.03 799.84 C 565.86 800.38 562.70 801.99 559.65 800.01 C 559.60 800.94 559.55 801.88 559.51 802.82 C 559.04 802.86 558.09 802.92 557.61 802.96 C 557.62 802.17 557.63 801.39 557.65 800.62 C 553.57 799.70 549.94 801.48 546.41 803.26 C 546.93 802.17 547.44 801.10 547.97 800.03 C 543.76 800.87 537.86 802.20 535.38 797.48 C 547.75 795.56 560.16 793.87 572.51 791.85 C 582.66 790.56 592.74 788.79 602.88 787.48 C 603.42 781.01 603.04 774.53 603.16 768.06 C 603.14 759.35 603.21 750.65 603.08 741.94 C 561.30 747.81 519.59 754.31 477.84 760.43 C 463.07 762.70 448.26 764.68 433.52 767.15 C 429.28 767.57 425.08 768.30 420.87 768.94 C 420.84 776.28 420.85 783.62 420.85 790.96 C 420.76 798.82 421.02 806.69 420.66 814.55 C 419.51 811.14 419.97 807.53 419.91 804.01 C 419.78 802.73 420.14 801.05 418.76 800.35 C 417.36 800.04 415.94 799.91 414.53 799.76 C 414.70 799.45 415.04 798.84 415.21 798.54 C 414.87 796.98 414.52 795.43 414.17 793.89 C 413.27 794.84 411.98 795.56 411.48 796.81 C 411.44 798.14 412.00 799.39 412.35 800.66 C 411.39 801.26 410.44 801.88 409.49 802.50 C 408.48 801.64 407.48 800.78 406.48 799.95 C 406.81 799.30 407.15 798.67 407.49 798.05 C 406.75 797.08 406.02 796.12 405.29 795.17 C 404.84 795.43 403.95 795.95 403.51 796.22 C 403.88 797.11 404.26 798.01 404.64 798.92 C 404.34 799.12 403.72 799.51 403.42 799.71 C 402.72 798.98 402.03 798.27 401.35 797.56 C 398.95 799.44 395.96 800.91 392.86 800.03 C 389.54 799.06 386.14 801.77 382.98 799.96 C 383.86 798.61 384.76 797.27 385.66 795.94 C 385.08 796.03 383.92 796.22 383.33 796.31 C 382.69 797.75 382.06 799.19 381.43 800.64 C 381.18 799.98 380.69 798.67 380.45 798.02 C 378.37 797.97 376.91 799.33 375.80 800.93 C 376.40 802.36 376.99 803.81 377.52 805.29 C 375.69 804.14 374.88 802.08 373.68 800.39 C 370.76 799.70 367.73 799.76 364.75 799.63 C 363.64 801.14 362.52 802.63 361.36 804.11 C 360.84 802.82 360.56 801.46 360.37 800.10 C 354.24 800.11 348.13 800.97 342.02 800.23 C 337.72 801.24 333.17 799.27 329.14 801.45 C 326.96 800.00 324.42 800.49 321.98 800.62 C 319.53 800.31 317.14 799.59 314.65 799.65 C 314.89 797.66 315.05 795.60 313.60 794.04 C 312.21 796.10 311.40 798.93 308.95 800.01 C 302.67 802.13 295.98 798.31 289.76 800.69 C 287.53 801.54 285.87 804.30 283.20 803.15 C 285.01 801.94 286.43 800.32 286.80 798.11 C 286.42 797.88 285.67 797.41 285.30 797.18 C 284.56 798.40 284.26 800.24 282.61 800.58 C 278.93 802.08 275.06 800.47 271.27 800.94 C 269.79 801.07 268.26 800.06 266.86 800.74 C 266.32 801.64 265.90 802.61 265.46 803.57 C 264.50 800.30 260.91 799.88 258.03 799.55 C 256.76 799.17 256.11 800.44 255.32 801.16 C 250.95 803.19 246.89 799.97 242.95 798.45 C 242.10 799.39 241.36 800.78 239.91 800.80 C 237.25 800.40 234.64 799.02 231.92 799.84 C 229.34 800.43 226.72 799.83 224.14 799.58 C 224.34 798.02 224.53 796.46 224.68 794.91 C 223.48 796.34 222.58 797.98 221.56 799.53 C 218.82 801.30 214.65 800.56 213.21 797.46 C 211.56 800.33 208.45 801.45 205.50 802.48 C 205.25 801.97 204.74 800.95 204.48 800.44 C 201.90 800.33 199.32 800.39 196.75 800.60 C 196.62 799.29 196.51 797.99 196.42 796.70 C 195.30 798.63 193.80 800.20 191.41 800.18 C 191.82 799.43 192.23 798.69 192.65 797.96 C 192.05 797.23 191.68 796.05 190.54 796.27 C 190.13 797.39 189.75 798.53 189.41 799.70 C 183.54 801.16 177.36 801.04 171.55 799.40 C 171.66 796.75 172.68 793.77 170.91 791.46 C 170.56 794.26 170.30 797.15 168.74 799.60 C 166.93 799.84 165.13 800.10 163.33 800.39 C 162.69 801.11 162.06 801.85 161.43 802.59 C 161.19 802.01 160.71 800.86 160.48 800.28 C 156.72 799.13 152.83 799.61 149.02 800.08 C 145.42 800.60 141.79 799.69 138.20 800.16 C 137.19 801.16 136.34 802.32 135.31 803.32 C 133.98 804.31 132.52 803.12 131.20 802.76 C 132.29 802.08 133.38 801.40 134.46 800.71 C 129.18 799.69 123.64 800.29 118.36 801.14 C 112.50 799.74 106.39 801.66 100.63 799.40 C 100.33 798.02 100.02 796.65 99.72 795.29 C 98.71 796.29 97.69 797.28 96.68 798.30 C 97.09 799.13 97.51 799.97 97.93 800.82 C 97.23 800.84 95.84 800.88 95.14 800.90 C 93.91 798.74 92.73 796.56 91.57 794.37 C 91.06 794.26 90.04 794.04 89.53 793.94 C 90.27 796.08 90.56 798.34 90.47 800.61 C 88.13 800.24 85.52 800.11 83.71 798.39 C 82.21 797.09 82.09 794.94 81.44 793.20 C 80.49 793.80 79.55 794.38 78.61 795.00 C 79.34 797.43 81.26 799.04 83.26 800.45 C 79.76 801.67 76.22 800.39 72.95 799.12 C 65.82 756.80 67.33 713.71 66.99 670.98 C 66.97 639.97 66.99 608.96 66.97 577.96 C 70.92 577.20 76.56 575.19 78.96 579.67 C 80.75 578.55 82.41 576.85 84.65 576.80 C 86.81 576.71 88.98 576.69 91.09 576.17 C 93.64 575.57 95.99 577.17 98.20 578.18 C 100.77 577.16 104.25 577.35 105.81 574.72 C 107.09 572.79 106.49 570.36 106.48 568.19 M 432.51 695.43 L 433.14 695.52 C 429.03 695.34 424.99 696.54 420.92 696.99 C 420.82 705.32 420.84 713.64 420.90 721.97 C 420.83 728.82 420.87 735.68 420.86 742.54 C 451.61 738.13 482.30 733.40 513.03 728.87 C 526.54 726.71 540.15 725.14 553.59 722.60 C 555.03 722.75 556.49 722.41 557.93 722.23 C 572.99 719.83 588.14 717.89 603.17 715.32 C 603.09 708.86 603.17 702.40 603.10 695.94 C 603.12 687.28 603.18 678.62 603.08 669.96 C 546.21 678.38 489.31 686.62 432.51 695.43 Z" />
</g>
<g id="#e8e7e7ff">
<path fill="#e8e7e7" opacity="1.00" d=" M 489.45 574.97 C 489.80 575.00 490.15 575.03 490.52 575.08 C 491.90 574.56 493.33 574.19 494.81 574.05 C 495.25 574.67 495.72 575.26 496.23 575.85 C 499.72 576.68 503.38 576.16 506.72 574.92 C 509.47 573.92 512.37 575.35 515.17 574.64 C 517.99 576.56 521.90 577.42 524.22 574.28 C 524.58 574.27 525.31 574.24 525.67 574.23 C 525.33 574.67 524.64 575.56 524.30 576.00 C 530.85 575.16 537.38 577.31 543.90 575.88 C 548.00 576.34 552.12 576.31 556.19 575.40 C 556.50 577.23 556.77 579.08 556.77 580.95 C 556.68 594.25 557.06 607.55 556.94 620.86 C 552.60 621.41 548.21 622.03 543.91 620.94 C 540.62 621.80 537.27 621.61 533.96 621.04 C 529.74 620.19 525.54 622.30 521.37 621.12 C 515.45 621.16 509.51 620.22 503.65 621.42 C 491.46 620.30 479.25 621.71 467.04 621.11 C 467.05 606.20 467.12 591.28 467.36 576.37 C 471.48 576.42 475.55 575.40 479.69 575.76 C 482.95 575.99 486.44 576.72 489.45 574.97 Z" />
</g>
<g id="#c5be6eff">
<path fill="#c5be6e" opacity="1.00" d=" M 420.90 590.97 C 436.09 590.86 451.28 590.94 466.48 590.93 C 466.51 604.93 466.52 618.92 466.52 632.92 C 451.31 632.97 436.10 633.02 420.89 633.01 C 420.89 619.00 420.89 604.98 420.90 590.97 Z" />
</g>
<g id="#c6be6dff">
<path fill="#c6be6d" opacity="1.00" d=" M 557.53 590.97 C 572.72 590.87 587.91 590.91 603.09 590.94 C 603.11 603.95 603.09 616.95 603.11 629.96 C 587.90 630.01 572.69 629.94 557.49 629.96 C 557.47 616.96 557.49 603.96 557.53 590.97 Z" />
</g>
<g id="#bcb972ff">
<path fill="#bcb972" opacity="1.00" d=" M 557.49 629.96 C 572.69 629.94 587.90 630.01 603.11 629.96 C 603.11 633.96 603.14 637.96 603.13 641.97 C 587.90 642.09 572.68 641.94 557.46 642.02 C 557.44 638.00 557.48 633.98 557.49 629.96 Z" />
</g>
<g id="#b7b674ff">
<path fill="#b7b674" opacity="1.00" d=" M 420.89 633.01 C 436.10 633.02 451.31 632.97 466.52 632.92 C 466.60 640.68 466.47 648.44 466.54 656.20 C 451.33 656.19 436.13 656.24 420.92 656.16 C 420.84 648.44 420.91 640.73 420.89 633.01 Z" />
</g>
<g id="#b5b476ff">
<path fill="#b5b476" opacity="1.00" d=" M 557.46 642.02 C 572.68 641.94 587.90 642.09 603.13 641.97 C 603.11 646.70 603.14 651.44 603.06 656.18 C 587.86 656.21 572.66 656.19 557.46 656.18 C 557.49 651.46 557.46 646.74 557.46 642.02 Z" />
</g>
<g id="#808080ff">
<path fill="#808080" opacity="1.00" d=" M 957.00 666.02 C 957.75 666.02 959.25 666.04 960.00 666.04 C 959.93 690.73 960.22 715.43 959.46 740.11 C 958.52 767.02 956.57 794.16 949.31 820.21 C 944.92 836.16 938.38 851.55 929.69 865.64 C 919.50 882.25 906.47 896.98 892.01 909.98 C 885.43 915.76 878.63 921.36 871.22 926.04 C 871.70 925.42 872.19 924.81 872.69 924.19 C 871.95 924.02 870.48 923.68 869.75 923.51 C 896.10 905.27 918.73 881.10 933.60 852.59 C 942.53 835.01 948.29 815.91 951.45 796.47 C 954.25 779.78 955.46 762.87 956.17 745.97 C 957.19 719.34 956.98 692.67 957.00 666.02 Z" />
</g>
<g id="#a0ab7dff">
<path fill="#a0ab7d" opacity="1.00" d=" M 432.51 695.43 C 489.31 686.62 546.21 678.38 603.08 669.96 C 603.18 678.62 603.12 687.28 603.10 695.94 C 554.05 696.05 505.00 695.95 455.95 695.98 C 448.35 695.69 440.70 696.53 433.14 695.52 L 432.51 695.43 Z" />
</g>
<g id="#93a983ff">
<path fill="#93a983" opacity="1.00" d=" M 420.92 696.99 C 424.99 696.54 429.03 695.34 433.14 695.52 C 440.70 696.53 448.35 695.69 455.95 695.98 C 505.00 695.95 554.05 696.05 603.10 695.94 C 603.17 702.40 603.09 708.86 603.17 715.32 C 588.14 717.89 572.99 719.83 557.93 722.23 C 556.49 722.41 555.03 722.75 553.59 722.60 C 551.38 722.25 549.17 721.85 546.93 721.86 C 504.92 721.92 462.91 721.79 420.90 721.97 C 420.84 713.64 420.82 705.32 420.92 696.99 Z" />
</g>
<g id="#85a98bff">
<path fill="#85a98b" opacity="1.00" d=" M 420.90 721.97 C 462.91 721.79 504.92 721.92 546.93 721.86 C 549.17 721.85 551.38 722.25 553.59 722.60 C 540.15 725.14 526.54 726.71 513.03 728.87 C 482.30 733.40 451.61 738.13 420.86 742.54 C 420.87 735.68 420.83 728.82 420.90 721.97 Z" />
</g>
<g id="#739e94ff">
<path fill="#739e94" opacity="1.00" d=" M 477.84 760.43 C 519.59 754.31 561.30 747.81 603.08 741.94 C 603.21 750.65 603.14 759.35 603.16 768.06 C 552.44 768.06 501.72 768.10 451.00 768.03 C 445.18 767.78 439.17 769.01 433.52 767.15 C 448.26 764.68 463.07 762.70 477.84 760.43 Z" />
</g>
<g id="#6e9a9dff">
<path fill="#6e9a9d" opacity="1.00" d=" M 420.87 768.94 C 425.08 768.30 429.28 767.57 433.52 767.15 C 439.17 769.01 445.18 767.78 451.00 768.03 C 501.72 768.10 552.44 768.06 603.16 768.06 C 603.04 774.53 603.42 781.01 602.88 787.48 C 592.74 788.79 582.66 790.56 572.51 791.85 C 571.01 791.52 569.52 791.11 568.00 790.97 C 518.96 790.93 469.90 790.95 420.85 790.96 C 420.85 783.62 420.84 776.28 420.87 768.94 Z" />
</g>
<g id="#d6d6d6ff">
<path fill="#d6d6d6" opacity="1.00" d=" M 860.32 792.25 C 860.68 791.58 861.06 790.93 861.46 790.29 C 861.94 791.37 862.45 792.48 862.96 793.59 C 864.21 792.64 865.48 791.70 866.77 790.80 C 866.11 793.98 865.26 797.21 863.04 799.70 C 870.20 801.25 877.46 798.73 884.68 799.99 C 884.88 798.40 885.10 796.83 885.33 795.27 C 888.83 795.86 891.91 797.67 893.91 800.65 C 894.52 797.78 895.01 794.89 895.42 791.99 C 896.16 792.29 896.91 792.61 897.68 792.94 C 897.26 793.58 896.85 794.23 896.46 794.90 C 896.62 795.40 896.80 795.92 897.00 796.45 C 896.67 797.73 895.83 799.10 896.67 800.39 C 897.76 800.98 898.95 800.20 900.07 800.06 C 903.52 798.90 907.16 799.94 910.69 800.01 C 910.11 798.77 909.54 797.55 908.98 796.33 C 909.93 796.74 910.89 797.16 911.86 797.58 C 912.41 797.28 912.98 796.98 913.57 796.70 C 913.81 797.16 914.31 798.09 914.55 798.56 C 915.09 798.69 916.15 798.95 916.69 799.09 C 916.24 798.20 915.80 797.31 915.38 796.44 C 916.18 796.01 916.98 795.58 917.81 795.17 C 918.60 796.65 919.81 798.22 918.85 799.95 C 919.82 800.74 920.80 801.52 921.76 802.34 C 922.63 801.74 923.51 801.15 924.41 800.57 C 922.40 798.00 923.99 795.27 925.67 793.04 C 926.26 794.86 926.69 796.74 927.54 798.48 C 928.46 799.87 930.25 800.16 931.68 800.86 C 931.61 799.91 931.56 798.97 931.51 798.05 C 933.04 798.78 934.44 801.02 936.28 800.30 C 937.64 798.13 937.85 794.40 941.26 794.96 C 941.60 796.60 941.94 798.25 942.30 799.91 C 943.51 799.88 944.72 799.87 945.96 799.86 C 946.59 797.25 948.89 796.14 951.45 796.47 C 948.29 815.91 942.53 835.01 933.60 852.59 C 918.73 881.10 896.10 905.27 869.75 923.51 C 856.32 932.55 841.58 939.70 826.08 944.40 C 802.22 952.19 777.02 954.56 752.09 955.92 C 729.41 956.71 706.72 957.16 684.02 956.98 C 584.67 957.01 485.32 956.97 385.97 956.99 C 346.26 956.84 306.51 957.60 266.83 955.62 C 233.34 953.77 199.14 948.50 169.25 932.44 C 152.46 923.41 137.22 911.66 123.91 898.04 C 111.99 886.09 101.58 872.60 93.22 857.93 C 83.02 839.73 76.58 819.61 72.95 799.12 C 76.22 800.39 79.76 801.67 83.26 800.45 C 81.26 799.04 79.34 797.43 78.61 795.00 C 79.55 794.38 80.49 793.80 81.44 793.20 C 82.09 794.94 82.21 797.09 83.71 798.39 C 85.52 800.11 88.13 800.24 90.47 800.61 C 90.56 798.34 90.27 796.08 89.53 793.94 C 90.04 794.04 91.06 794.26 91.57 794.37 C 92.73 796.56 93.91 798.74 95.14 800.90 C 95.84 800.88 97.23 800.84 97.93 800.82 C 97.51 799.97 97.09 799.13 96.68 798.30 C 97.69 797.28 98.71 796.29 99.72 795.29 C 100.02 796.65 100.33 798.02 100.63 799.40 C 106.39 801.66 112.50 799.74 118.36 801.14 C 123.64 800.29 129.18 799.69 134.46 800.71 C 133.38 801.40 132.29 802.08 131.20 802.76 C 132.52 803.12 133.98 804.31 135.31 803.32 C 136.34 802.32 137.19 801.16 138.20 800.16 C 141.79 799.69 145.42 800.60 149.02 800.08 C 152.83 799.61 156.72 799.13 160.48 800.28 C 160.71 800.86 161.19 802.01 161.43 802.59 C 162.06 801.85 162.69 801.11 163.33 800.39 C 165.13 800.10 166.93 799.84 168.74 799.60 C 170.30 797.15 170.56 794.26 170.91 791.46 C 172.68 793.77 171.66 796.75 171.55 799.40 C 177.36 801.04 183.54 801.16 189.41 799.70 C 189.75 798.53 190.13 797.39 190.54 796.27 C 191.68 796.05 192.05 797.23 192.65 797.96 C 192.23 798.69 191.82 799.43 191.41 800.18 C 193.80 800.20 195.30 798.63 196.42 796.70 C 196.51 797.99 196.62 799.29 196.75 800.60 C 199.32 800.39 201.90 800.33 204.48 800.44 C 204.74 800.95 205.25 801.97 205.50 802.48 C 208.45 801.45 211.56 800.33 213.21 797.46 C 214.65 800.56 218.82 801.30 221.56 799.53 C 222.58 797.98 223.48 796.34 224.68 794.91 C 224.53 796.46 224.34 798.02 224.14 799.58 C 226.72 799.83 229.34 800.43 231.92 799.84 C 234.64 799.02 237.25 800.40 239.91 800.80 C 241.36 800.78 242.10 799.39 242.95 798.45 C 246.89 799.97 250.95 803.19 255.32 801.16 C 256.11 800.44 256.76 799.17 258.03 799.55 C 260.91 799.88 264.50 800.30 265.46 803.57 C 265.90 802.61 266.32 801.64 266.86 800.74 C 268.26 800.06 269.79 801.07 271.27 800.94 C 275.06 800.47 278.93 802.08 282.61 800.58 C 284.26 800.24 284.56 798.40 285.30 797.18 C 285.67 797.41 286.42 797.88 286.80 798.11 C 286.43 800.32 285.01 801.94 283.20 803.15 C 285.87 804.30 287.53 801.54 289.76 800.69 C 295.98 798.31 302.67 802.13 308.95 800.01 C 311.40 798.93 312.21 796.10 313.60 794.04 C 315.05 795.60 314.89 797.66 314.65 799.65 C 317.14 799.59 319.53 800.31 321.98 800.62 C 324.42 800.49 326.96 800.00 329.14 801.45 C 333.17 799.27 337.72 801.24 342.02 800.23 C 348.13 800.97 354.24 800.11 360.37 800.10 C 360.56 801.46 360.84 802.82 361.36 804.11 C 362.52 802.63 363.64 801.14 364.75 799.63 C 367.73 799.76 370.76 799.70 373.68 800.39 C 374.88 802.08 375.69 804.14 377.52 805.29 C 376.99 803.81 376.40 802.36 375.80 800.93 C 376.91 799.33 378.37 797.97 380.45 798.02 C 380.69 798.67 381.18 799.98 381.43 800.64 C 382.06 799.19 382.69 797.75 383.33 796.31 C 383.92 796.22 385.08 796.03 385.66 795.94 C 384.76 797.27 383.86 798.61 382.98 799.96 C 386.14 801.77 389.54 799.06 392.86 800.03 C 395.96 800.91 398.95 799.44 401.35 797.56 C 402.03 798.27 402.72 798.98 403.42 799.71 C 403.72 799.51 404.34 799.12 404.64 798.92 C 404.26 798.01 403.88 797.11 403.51 796.22 C 403.95 795.95 404.84 795.43 405.29 795.17 C 406.02 796.12 406.75 797.08 407.49 798.05 C 407.15 798.67 406.81 799.30 406.48 799.95 C 407.48 800.78 408.48 801.64 409.49 802.50 C 410.44 801.88 411.39 801.26 412.35 800.66 C 412.00 799.39 411.44 798.14 411.48 796.81 C 411.98 795.56 413.27 794.84 414.17 793.89 C 414.52 795.43 414.87 796.98 415.21 798.54 C 415.04 798.84 414.70 799.45 414.53 799.76 C 415.94 799.91 417.36 800.04 418.76 800.35 C 420.14 801.05 419.78 802.73 419.91 804.01 C 419.97 807.53 419.51 811.14 420.66 814.55 C 458.91 808.90 497.13 803.09 535.38 797.48 C 537.86 802.20 543.76 800.87 547.97 800.03 C 547.44 801.10 546.93 802.17 546.41 803.26 C 549.94 801.48 553.57 799.70 557.65 800.62 C 557.63 801.39 557.62 802.17 557.61 802.96 C 558.09 802.92 559.04 802.86 559.51 802.82 C 559.55 801.88 559.60 800.94 559.65 800.01 C 562.70 801.99 565.86 800.38 569.03 799.84 C 573.24 799.16 575.05 803.67 577.89 805.83 C 577.51 802.85 576.44 799.74 577.67 796.83 C 578.67 797.32 579.69 797.85 580.71 798.37 C 579.83 798.86 578.96 799.37 578.10 799.88 C 583.85 799.27 589.61 801.55 595.26 800.36 C 593.20 799.03 591.26 797.47 590.59 795.01 C 591.55 794.38 592.52 793.77 593.50 793.16 C 594.17 795.11 594.38 797.52 596.20 798.85 C 597.94 800.29 600.32 800.23 602.46 800.54 C 602.61 798.29 602.28 796.05 601.52 793.93 C 602.05 794.05 603.10 794.30 603.63 794.42 C 605.31 796.83 606.10 802.25 610.09 800.59 C 609.57 799.81 609.05 799.04 608.55 798.28 C 609.64 797.28 610.73 796.30 611.83 795.32 C 612.43 796.60 612.63 798.22 613.76 799.18 C 615.30 799.75 617.00 799.50 618.62 799.56 C 618.05 798.60 617.48 797.66 616.92 796.72 C 617.89 796.12 618.88 795.53 619.87 794.95 C 620.43 795.75 621.01 796.56 621.59 797.38 C 622.91 797.60 624.25 797.81 625.58 798.05 C 625.31 798.46 624.75 799.27 624.47 799.68 C 628.84 800.81 633.74 801.71 637.63 798.76 C 638.32 799.28 639.02 799.80 639.73 800.34 C 641.92 800.23 644.11 800.18 646.32 800.25 C 645.35 801.12 644.35 801.94 643.37 802.79 C 645.08 803.23 646.89 803.79 648.59 802.91 C 648.59 801.93 648.61 800.97 648.64 800.01 C 654.28 800.12 659.92 800.39 665.56 799.88 C 665.15 799.19 664.75 798.52 664.36 797.85 C 666.71 798.84 669.17 799.66 671.75 799.75 C 672.32 800.31 672.89 800.88 673.48 801.47 C 676.00 799.98 677.61 797.52 679.14 795.12 C 680.10 796.01 681.08 796.91 682.08 797.80 C 682.17 795.90 681.85 794.01 681.36 792.18 C 682.15 791.84 682.95 791.51 683.76 791.19 C 684.51 793.94 684.71 796.80 684.37 799.64 C 688.87 800.57 693.53 800.77 698.08 800.22 C 700.73 800.13 701.77 797.44 703.22 795.69 C 703.78 797.05 704.34 798.43 704.88 799.82 C 705.24 799.82 705.97 799.82 706.33 799.82 C 706.67 798.20 707.01 796.57 707.37 794.96 C 708.10 796.53 708.82 798.09 709.56 799.67 C 713.05 799.96 716.50 800.61 719.99 800.91 C 722.42 801.30 723.79 798.90 725.30 797.47 C 727.12 800.13 730.57 800.78 733.42 799.35 C 734.82 797.76 735.27 795.29 737.63 794.74 C 737.16 796.35 736.65 797.96 736.15 799.57 C 741.18 799.83 746.26 799.21 751.22 800.41 C 752.91 800.93 754.12 799.70 755.04 798.46 C 757.86 799.69 760.68 800.92 763.50 802.19 C 766.17 799.85 769.76 798.75 773.24 799.78 C 777.85 801.24 782.66 799.66 787.35 800.63 C 790.85 801.19 796.32 801.99 797.24 797.36 C 797.67 797.54 798.54 797.89 798.97 798.07 C 798.37 800.04 797.22 801.73 795.34 802.68 C 795.98 803.02 796.63 803.37 797.30 803.73 C 802.71 798.17 810.99 799.72 817.91 800.41 C 822.01 800.76 824.62 796.87 825.44 793.32 C 826.72 795.37 827.78 797.71 829.77 799.20 C 831.35 800.00 833.15 800.27 834.87 800.72 C 834.24 799.47 833.62 798.23 833.03 796.98 C 835.65 796.76 836.40 800.10 838.91 800.22 C 841.48 800.57 844.09 800.37 846.68 800.47 C 850.97 800.75 855.24 798.96 859.47 800.35 C 860.90 799.15 861.78 797.44 862.82 795.92 C 861.97 794.68 861.13 793.47 860.32 792.25 M 420.90 828.15 C 432.81 837.83 444.58 847.68 456.41 857.47 L 456.63 857.44 C 463.16 862.87 469.50 868.64 476.39 873.56 C 500.16 873.68 523.95 873.68 547.71 873.56 C 554.49 868.53 560.87 862.91 567.33 857.47 L 567.55 857.50 C 579.40 847.71 591.17 837.83 603.12 828.15 C 587.43 827.89 571.74 828.11 556.05 828.04 C 511.00 828.11 465.94 827.89 420.90 828.15 Z" />
</g>
<g id="#6992adff">
<path fill="#6992ad" opacity="1.00" d=" M 420.85 790.96 C 469.90 790.95 518.96 790.93 568.00 790.97 C 569.52 791.11 571.01 791.52 572.51 791.85 C 560.16 793.87 547.75 795.56 535.38 797.48 C 497.13 803.09 458.91 808.90 420.66 814.55 C 421.02 806.69 420.76 798.82 420.85 790.96 Z" />
</g>
<g id="#597dc3ff">
<path fill="#597dc3" opacity="1.00" d=" M 420.90 828.15 C 465.94 827.89 511.00 828.11 556.05 828.04 C 571.74 828.11 587.43 827.89 603.12 828.15 C 591.17 837.83 579.40 847.71 567.55 857.50 L 567.33 857.47 C 561.93 856.58 556.45 856.98 551.01 856.95 C 526.66 856.90 502.32 856.92 477.98 856.94 C 470.86 857.09 463.70 856.44 456.63 857.44 L 456.41 857.47 C 444.58 847.68 432.81 837.83 420.90 828.15 Z" />
</g>
<g id="#5375c7ff">
<path fill="#5375c7" opacity="1.00" d=" M 456.63 857.44 C 463.70 856.44 470.86 857.09 477.98 856.94 C 502.32 856.92 526.66 856.90 551.01 856.95 C 556.45 856.98 561.93 856.58 567.33 857.47 C 560.87 862.91 554.49 868.53 547.71 873.56 C 523.95 873.68 500.16 873.68 476.39 873.56 C 469.50 868.64 463.16 862.87 456.63 857.44 Z" />
</g>
<g id="#7d7d7dff">
<path fill="#7d7d7d" opacity="1.00" d=" M 826.08 944.40 C 841.58 939.70 856.32 932.55 869.75 923.51 C 870.48 923.68 871.95 924.02 872.69 924.19 C 872.19 924.81 871.70 925.42 871.22 926.04 C 854.58 937.63 835.52 945.41 815.96 950.51 C 794.06 956.03 771.46 958.15 748.94 959.09 C 718.31 960.33 687.65 959.94 657.01 960.00 C 563.34 960.00 469.67 960.00 375.99 960.00 C 338.32 959.86 300.62 960.61 262.98 958.48 C 229.64 956.30 195.62 950.58 166.10 934.11 C 166.89 933.69 168.46 932.86 169.25 932.44 C 199.14 948.50 233.34 953.77 266.83 955.62 C 306.51 957.60 346.26 956.84 385.97 956.99 C 485.32 956.97 584.67 957.01 684.02 956.98 C 706.72 957.16 729.41 956.71 752.09 955.92 C 777.02 954.56 802.22 952.19 826.08 944.40 Z" />
</g>
</svg>
