<?xml version="1.0" encoding="UTF-8" ?>
<!DOCTYPE svg PUBLIC "-//W3C//DTD SVG 1.1//EN" "http://www.w3.org/Graphics/SVG/1.1/DTD/svg11.dtd">
<svg width="128pt" height="128pt" viewBox="0 0 128 128" version="1.1" xmlns="http://www.w3.org/2000/svg">
<g id="#42e836ff">
<path fill="#42e836" opacity="1.00" d=" M 26.47 8.68 C 28.92 8.08 31.45 8.01 33.96 8.00 C 54.98 8.08 76.00 7.93 97.02 8.07 C 109.42 8.29 120.22 19.55 119.96 31.94 C 119.97 51.64 119.92 71.34 119.93 91.04 C 119.94 95.35 120.14 99.79 118.59 103.89 C 115.42 113.26 105.96 120.09 96.03 119.90 C 74.67 119.92 53.31 119.92 31.95 119.90 C 22.51 120.05 13.46 113.90 9.91 105.20 C 8.35 101.68 8.00 97.79 8.06 93.99 C 8.09 73.32 8.02 52.65 8.04 31.99 C 7.85 21.18 15.95 11.03 26.47 8.68 M 44.26 30.26 C 34.54 34.49 26.06 42.55 23.09 52.92 C 18.98 66.73 26.26 82.61 38.98 89.09 C 40.80 89.90 42.71 91.73 41.79 93.91 C 40.40 96.84 37.85 99.03 36.06 101.72 C 41.28 101.59 45.56 98.36 49.91 95.89 C 52.56 94.27 55.73 95.30 58.60 95.54 C 73.73 97.31 90.23 91.80 99.67 79.48 C 104.75 72.88 107.15 64.16 105.60 55.91 C 104.09 47.25 98.56 39.63 91.44 34.63 C 77.93 25.04 59.34 23.66 44.26 30.26 Z" />
</g>
<g id="#ffffffff">
<path fill="#ffffff" opacity="1.00" d=" M 44.26 30.26 C 59.34 23.66 77.93 25.04 91.44 34.63 C 98.56 39.63 104.09 47.25 105.60 55.91 C 107.15 64.16 104.75 72.88 99.67 79.48 C 90.23 91.80 73.73 97.31 58.60 95.54 C 55.73 95.30 52.56 94.27 49.91 95.89 C 45.56 98.36 41.28 101.59 36.06 101.72 C 37.85 99.03 40.40 96.84 41.79 93.91 C 42.71 91.73 40.80 89.90 38.98 89.09 C 26.26 82.61 18.98 66.73 23.09 52.92 C 26.06 42.55 34.54 34.49 44.26 30.26 Z" />
</g>
</svg>
