<?xml version="1.0" encoding="UTF-8" ?>
<!DOCTYPE svg PUBLIC "-//W3C//DTD SVG 1.1//EN" "http://www.w3.org/Graphics/SVG/1.1/DTD/svg11.dtd">
<svg width="120pt" height="120pt" viewBox="0 0 120 120" version="1.1" xmlns="http://www.w3.org/2000/svg">
<g id="#8752c6ff">
<path fill="#8752c6" opacity="1.00" d=" M 13.78 4.00 C 19.39 1.10 25.82 0.36 32.06 0.41 C 49.39 0.38 66.72 0.41 84.05 0.40 C 91.71 0.30 99.83 0.43 106.70 4.28 C 112.85 8.31 117.79 14.55 118.75 22.03 C 104.73 21.26 90.66 21.54 76.62 21.70 C 76.29 19.86 75.87 18.03 75.47 16.20 C 56.45 19.70 37.37 22.86 18.34 26.37 C 18.42 26.97 18.58 28.17 18.66 28.78 C 12.77 28.71 6.87 28.74 0.97 28.81 C 0.90 28.44 0.77 27.70 0.70 27.33 C 0.53 17.90 5.70 8.80 13.78 4.00 Z" />
</g>
<g id="#c1aae1ff">
<path fill="#c1aae1" opacity="1.00" d=" M 18.34 26.37 C 37.37 22.86 56.45 19.70 75.47 16.20 C 75.87 18.03 76.29 19.86 76.62 21.70 C 77.00 23.82 77.32 25.95 77.62 28.08 L 75.88 28.16 C 75.19 25.35 74.71 22.49 74.15 19.64 C 56.32 22.70 38.52 25.95 20.68 28.97 C 20.86 29.99 21.03 31.02 21.20 32.04 C 21.94 36.32 22.58 40.61 23.43 44.87 C 22.97 46.03 22.53 47.20 22.11 48.38 C 21.15 41.81 19.69 35.33 18.66 28.78 C 18.58 28.17 18.42 26.97 18.34 26.37 Z" />
</g>
<g id="#7b4dbfff">
<path fill="#7b4dbf" opacity="1.00" d=" M 20.68 28.97 C 38.52 25.95 56.32 22.70 74.15 19.64 C 74.71 22.49 75.19 25.35 75.88 28.16 C 66.26 28.57 56.63 28.71 47.02 29.22 C 41.54 29.54 36.01 29.15 30.57 30.05 C 27.47 30.79 24.36 31.56 21.20 32.04 C 21.03 31.02 20.86 29.99 20.68 28.97 Z" />
</g>
<g id="#774bbdff">
<path fill="#774bbd" opacity="1.00" d=" M 76.62 21.70 C 90.66 21.54 104.73 21.26 118.75 22.03 C 119.92 27.62 119.46 33.37 119.58 39.04 C 113.63 39.52 107.54 38.04 101.74 39.88 C 97.45 39.96 93.22 39.17 88.97 38.76 C 88.93 35.08 88.86 31.41 88.79 27.73 C 85.06 27.75 81.34 27.85 77.62 28.08 C 77.32 25.95 77.00 23.82 76.62 21.70 Z" />
</g>
<g id="#38256490">
<path fill="#382564" opacity="0.56" d=" M 0.00 25.90 L 0.70 27.33 C 0.77 27.70 0.90 28.44 0.97 28.81 C 0.95 35.10 0.93 41.40 1.02 47.69 C 1.01 50.47 0.98 53.25 1.03 56.03 C 1.13 58.98 0.98 61.94 0.44 64.86 L 0.00 63.53 L 0.00 25.90 Z" />
</g>
<g id="#e1d8f0ff">
<path fill="#e1d8f0" opacity="1.00" d=" M 47.02 29.22 C 56.63 28.71 66.26 28.57 75.88 28.16 L 77.62 28.08 C 81.34 27.85 85.06 27.75 88.79 27.73 C 88.86 31.41 88.93 35.08 88.97 38.76 C 86.91 38.56 84.85 38.41 82.80 38.19 C 84.31 38.33 85.82 38.47 87.34 38.60 C 87.20 35.98 87.03 33.37 86.83 30.76 C 68.77 31.65 50.68 32.00 32.62 32.75 C 32.68 38.31 32.97 43.87 33.22 49.42 C 33.23 51.34 33.32 53.26 33.39 55.18 C 33.59 59.47 33.59 63.77 33.79 68.07 C 33.31 67.78 32.34 67.21 31.86 66.93 C 31.70 60.16 31.35 53.40 31.22 46.63 C 31.07 41.10 30.60 35.58 30.57 30.05 C 36.01 29.15 41.54 29.54 47.02 29.22 Z" />
</g>
<g id="#6d46b8ff">
<path fill="#6d46b8" opacity="1.00" d=" M 0.97 28.81 C 6.87 28.74 12.77 28.71 18.66 28.78 C 19.69 35.33 21.15 41.81 22.11 48.38 L 22.18 48.91 C 20.78 48.14 19.32 47.29 17.66 47.45 C 12.11 47.50 6.56 47.41 1.02 47.69 C 0.93 41.40 0.95 35.10 0.97 28.81 Z" />
</g>
<g id="#6e46b8ff">
<path fill="#6e46b8" opacity="1.00" d=" M 21.20 32.04 C 24.36 31.56 27.47 30.79 30.57 30.05 C 30.60 35.58 31.07 41.10 31.22 46.63 C 29.61 46.45 27.98 46.05 26.35 46.28 C 25.28 47.25 25.06 48.78 24.52 50.06 C 24.19 48.32 23.78 46.60 23.43 44.87 C 22.58 40.61 21.94 36.32 21.20 32.04 Z" />
</g>
<g id="#7248baff">
<path fill="#7248ba" opacity="1.00" d=" M 32.62 32.75 C 50.68 32.00 68.77 31.65 86.83 30.76 C 87.03 33.37 87.20 35.98 87.34 38.60 C 85.82 38.47 84.31 38.33 82.80 38.19 C 69.83 36.73 56.84 35.59 43.89 34.04 C 43.51 36.94 43.26 39.86 42.94 42.77 C 40.74 40.25 37.33 40.88 34.38 41.14 C 33.99 43.90 33.55 46.66 33.22 49.42 C 32.97 43.87 32.68 38.31 32.62 32.75 Z" />
</g>
<g id="#ffffffff">
<path fill="#ffffff" opacity="1.00" d=" M 42.94 42.77 C 43.26 39.86 43.51 36.94 43.89 34.04 C 56.84 35.59 69.83 36.73 82.80 38.19 C 84.85 38.41 86.91 38.56 88.97 38.76 C 93.22 39.17 97.45 39.96 101.74 39.88 C 101.44 45.19 100.67 50.47 100.22 55.77 C 99.43 63.58 98.52 71.38 97.75 79.19 C 97.16 85.24 96.53 91.29 95.78 97.32 C 95.71 97.94 95.56 99.17 95.48 99.79 C 76.17 97.73 56.84 95.79 37.52 93.79 C 37.65 92.33 37.78 90.87 37.93 89.42 C 38.51 84.58 38.96 79.72 39.48 74.87 C 40.26 68.28 40.81 61.66 41.56 55.06 C 42.00 50.96 42.51 46.87 42.94 42.77 M 45.50 37.44 C 45.19 40.55 44.82 43.66 44.52 46.78 C 43.95 52.86 43.18 58.92 42.61 65.01 C 42.12 69.84 41.32 74.64 41.14 79.50 C 58.51 81.12 75.83 83.24 93.20 84.87 C 93.67 84.98 94.60 85.20 95.07 85.31 C 96.43 73.58 97.57 61.82 98.77 50.07 C 99.06 47.72 99.30 45.36 99.47 42.99 C 81.45 41.38 63.50 39.18 45.50 37.44 Z" />
<path fill="#ffffff" opacity="1.00" d=" M 48.41 46.80 C 49.99 45.08 51.49 42.86 54.02 42.57 C 58.50 41.61 62.67 46.36 61.29 50.70 C 59.64 52.58 57.74 54.78 54.96 54.58 C 50.86 54.79 47.92 50.67 48.41 46.80 Z" />
<path fill="#ffffff" opacity="1.00" d=" M 86.73 53.17 C 87.24 52.43 87.75 51.69 88.29 50.97 C 90.05 56.71 92.43 62.23 94.26 67.94 C 94.54 73.11 93.11 78.26 92.60 83.41 C 79.61 81.61 66.50 80.50 53.43 79.20 C 53.36 78.91 53.22 78.33 53.15 78.04 C 56.71 74.03 60.49 70.19 64.02 66.13 C 66.75 63.45 69.01 60.31 71.97 57.86 C 73.07 61.26 74.31 64.60 75.68 67.89 C 76.04 67.83 76.76 67.69 77.12 67.62 C 80.21 62.73 83.53 57.99 86.73 53.17 Z" />
</g>
<g id="#6643b4ff">
<path fill="#6643b4" opacity="1.00" d=" M 45.50 37.44 C 63.50 39.18 81.45 41.38 99.47 42.99 C 99.30 45.36 99.06 47.72 98.77 50.07 C 95.26 49.56 91.54 49.21 88.29 50.97 C 87.75 51.69 87.24 52.43 86.73 53.17 C 86.42 52.44 85.79 50.99 85.48 50.26 C 78.69 49.80 71.88 50.48 65.10 49.77 C 63.73 49.53 62.42 49.97 61.29 50.70 C 62.67 46.36 58.50 41.61 54.02 42.57 C 51.49 42.86 49.99 45.08 48.41 46.80 C 47.12 46.79 45.82 46.78 44.52 46.78 C 44.82 43.66 45.19 40.55 45.50 37.44 Z" />
</g>
<g id="#6241b2ff">
<path fill="#6241b2" opacity="1.00" d=" M 101.74 39.88 C 107.54 38.04 113.63 39.52 119.58 39.04 C 119.59 44.45 119.54 49.86 119.57 55.26 C 113.26 57.05 106.67 55.35 100.22 55.77 C 100.67 50.47 101.44 45.19 101.74 39.88 Z" />
</g>
<g id="#6341b2ff">
<path fill="#6341b2" opacity="1.00" d=" M 34.38 41.14 C 37.33 40.88 40.74 40.25 42.94 42.77 C 42.51 46.87 42.00 50.96 41.56 55.06 C 38.85 55.33 36.11 55.36 33.39 55.18 C 33.32 53.26 33.23 51.34 33.22 49.42 C 33.55 46.66 33.99 43.90 34.38 41.14 Z" />
</g>
<g id="#9f98cfff">
<path fill="#9f98cf" opacity="1.00" d=" M 23.43 44.87 C 23.78 46.60 24.19 48.32 24.52 50.06 C 25.81 56.90 26.72 63.82 28.08 70.65 C 29.37 70.45 30.66 70.26 31.95 70.06 C 32.10 74.92 32.42 79.77 32.51 84.63 C 31.25 84.89 29.98 85.15 28.72 85.42 C 28.60 84.77 28.37 83.48 28.25 82.83 C 27.17 77.16 26.13 71.48 25.16 65.79 C 24.60 62.50 23.93 59.22 23.31 55.94 C 22.88 53.61 22.47 51.27 22.18 48.91 L 22.11 48.38 C 22.53 47.20 22.97 46.03 23.43 44.87 Z" />
</g>
<g id="#593cacff">
<path fill="#593cac" opacity="1.00" d=" M 26.35 46.28 C 27.98 46.05 29.61 46.45 31.22 46.63 C 31.35 53.40 31.70 60.16 31.86 66.93 C 31.88 67.71 31.93 69.28 31.95 70.06 C 30.66 70.26 29.37 70.45 28.08 70.65 C 26.72 63.82 25.81 56.90 24.52 50.06 C 25.06 48.78 25.28 47.25 26.35 46.28 Z" />
</g>
<g id="#563cabff">
<path fill="#563cab" opacity="1.00" d=" M 44.52 46.78 C 45.82 46.78 47.12 46.79 48.41 46.80 C 47.92 50.67 50.86 54.79 54.96 54.58 C 57.74 54.78 59.64 52.58 61.29 50.70 C 62.42 49.97 63.73 49.53 65.10 49.77 C 71.88 50.48 78.69 49.80 85.48 50.26 C 85.79 50.99 86.42 52.44 86.73 53.17 C 83.53 57.99 80.21 62.73 77.12 67.62 C 76.76 67.69 76.04 67.83 75.68 67.89 C 74.31 64.60 73.07 61.26 71.97 57.86 C 69.01 60.31 66.75 63.45 64.02 66.13 C 57.15 63.69 49.73 65.30 42.61 65.01 C 43.18 58.92 43.95 52.86 44.52 46.78 Z" />
</g>
<g id="#5d3fafff">
<path fill="#5d3faf" opacity="1.00" d=" M 1.02 47.69 C 6.56 47.41 12.11 47.50 17.66 47.45 C 19.32 47.29 20.78 48.14 22.18 48.91 C 22.47 51.27 22.88 53.61 23.31 55.94 C 15.88 56.13 8.45 55.86 1.03 56.03 C 0.98 53.25 1.01 50.47 1.02 47.69 Z" />
</g>
<g id="#573cabff">
<path fill="#573cab" opacity="1.00" d=" M 88.29 50.97 C 91.54 49.21 95.26 49.56 98.77 50.07 C 97.57 61.82 96.43 73.58 95.07 85.31 C 94.60 85.20 93.67 84.98 93.20 84.87 C 93.05 84.51 92.75 83.77 92.60 83.41 C 93.11 78.26 94.54 73.11 94.26 67.94 C 92.43 62.23 90.05 56.71 88.29 50.97 Z" />
</g>
<g id="#4d37a6ff">
<path fill="#4d37a6" opacity="1.00" d=" M 33.39 55.18 C 36.11 55.36 38.85 55.33 41.56 55.06 C 40.81 61.66 40.26 68.28 39.48 74.87 C 37.71 74.90 35.93 74.92 34.16 74.95 C 34.03 72.66 33.90 70.36 33.79 68.07 C 33.59 63.77 33.59 59.47 33.39 55.18 Z" />
</g>
<g id="#4935a4ff">
<path fill="#4935a4" opacity="1.00" d=" M 100.22 55.77 C 106.67 55.35 113.26 57.05 119.57 55.26 C 119.59 63.27 119.53 71.28 119.55 79.29 C 112.28 79.27 104.99 80.11 97.75 79.19 C 98.52 71.38 99.43 63.58 100.22 55.77 Z" />
</g>
<g id="#5239a9ff">
<path fill="#5239a9" opacity="1.00" d=" M 1.03 56.03 C 8.45 55.86 15.88 56.13 23.31 55.94 C 23.93 59.22 24.60 62.50 25.16 65.79 C 16.99 64.49 8.68 65.43 0.44 65.16 L 0.44 64.86 C 0.98 61.94 1.13 58.98 1.03 56.03 Z" />
</g>
<g id="#4232a0ff">
<path fill="#4232a0" opacity="1.00" d=" M 0.44 65.16 C 8.68 65.43 16.99 64.49 25.16 65.79 C 26.13 71.48 27.17 77.16 28.25 82.83 C 25.50 80.13 21.45 80.84 17.95 80.77 C 12.12 81.06 6.26 80.97 0.45 81.67 C 0.47 76.17 0.43 70.67 0.44 65.16 Z" />
</g>
<g id="#4433a2ff">
<path fill="#4433a2" opacity="1.00" d=" M 42.61 65.01 C 49.73 65.30 57.15 63.69 64.02 66.13 C 60.49 70.19 56.71 74.03 53.15 78.04 C 53.22 78.33 53.36 78.91 53.43 79.20 C 66.50 80.50 79.61 81.61 92.60 83.41 C 92.75 83.77 93.05 84.51 93.20 84.87 C 75.83 83.24 58.51 81.12 41.14 79.50 C 41.32 74.64 42.12 69.84 42.61 65.01 Z" />
</g>
<g id="#cdcbe6ff">
<path fill="#cdcbe6" opacity="1.00" d=" M 31.86 66.93 C 32.34 67.21 33.31 67.78 33.79 68.07 C 33.90 70.36 34.03 72.66 34.16 74.95 C 35.93 74.92 37.71 74.90 39.48 74.87 C 38.96 79.72 38.51 84.58 37.93 89.42 C 36.18 89.53 34.42 89.64 32.67 89.85 C 32.61 88.11 32.55 86.37 32.51 84.63 C 32.42 79.77 32.10 74.92 31.95 70.06 C 31.93 69.28 31.88 67.71 31.86 66.93 Z" />
</g>
<g id="#2f2996ff">
<path fill="#2f2996" opacity="1.00" d=" M 97.75 79.19 C 104.99 80.11 112.28 79.27 119.55 79.29 C 119.42 85.49 119.97 91.77 118.72 97.89 C 111.08 97.36 103.37 98.46 95.78 97.32 C 96.53 91.29 97.16 85.24 97.75 79.19 Z" />
</g>
<g id="#332b98ff">
<path fill="#332b98" opacity="1.00" d=" M 0.45 81.67 C 6.26 80.97 12.12 81.06 17.95 80.77 C 21.45 80.84 25.50 80.13 28.25 82.83 C 28.37 83.48 28.60 84.77 28.72 85.42 C 29.98 85.15 31.25 84.89 32.51 84.63 C 32.55 86.37 32.61 88.11 32.67 89.85 C 25.83 91.24 18.87 89.82 11.98 90.24 C 8.15 90.49 4.30 90.81 0.49 90.25 C 0.45 87.39 0.45 84.53 0.45 81.67 Z" />
</g>
<g id="#232490ff">
<path fill="#232490" opacity="1.00" d=" M 32.67 89.85 C 34.42 89.64 36.18 89.53 37.93 89.42 C 37.78 90.87 37.65 92.33 37.52 93.79 C 56.84 95.79 76.17 97.73 95.48 99.79 C 95.56 99.17 95.71 97.94 95.78 97.32 C 103.37 98.46 111.08 97.36 118.72 97.89 C 118.10 101.31 117.00 104.65 114.99 107.52 L 114.37 108.35 C 107.79 106.80 101.15 108.77 94.55 107.81 C 83.48 107.99 72.39 107.73 61.32 108.17 C 51.72 107.01 42.05 108.50 32.41 108.41 C 26.84 108.31 21.25 106.97 15.69 107.86 C 12.38 108.37 9.04 108.39 5.71 108.52 C 1.76 103.33 0.64 96.62 0.49 90.25 C 4.30 90.81 8.15 90.49 11.98 90.24 C 18.87 89.82 25.83 91.24 32.67 89.85 Z" />
</g>
<g id="#191f8aff">
<path fill="#191f8a" opacity="1.00" d=" M 15.69 107.86 C 21.25 106.97 26.84 108.31 32.41 108.41 C 42.05 108.50 51.72 107.01 61.32 108.17 C 72.39 107.73 83.48 107.99 94.55 107.81 C 101.15 108.77 107.79 106.80 114.37 108.35 C 112.24 111.16 109.73 113.75 106.76 115.68 C 101.05 118.81 94.38 119.62 87.96 119.57 C 69.34 119.58 50.71 119.58 32.09 119.57 C 25.40 119.62 18.40 118.80 12.58 115.27 C 9.97 113.39 7.74 111.01 5.71 108.52 C 9.04 108.39 12.38 108.37 15.69 107.86 Z" />
</g>
</svg>
