<?xml version="1.0" encoding="UTF-8" ?>
<!DOCTYPE svg PUBLIC "-//W3C//DTD SVG 1.1//EN" "http://www.w3.org/Graphics/SVG/1.1/DTD/svg11.dtd">
<svg width="120pt" height="120pt" viewBox="0 0 120 120" version="1.1" xmlns="http://www.w3.org/2000/svg">
<g id="#2f2f2fff">
<path fill="#2f2f2f" opacity="1.00" d=" M 24.44 1.77 C 25.75 0.74 27.43 0.95 28.97 0.90 C 49.65 0.91 70.34 0.91 91.02 0.90 C 92.57 0.95 94.25 0.75 95.57 1.77 C 97.24 1.92 99.00 1.78 100.54 2.59 C 104.33 3.66 107.67 5.85 110.79 8.19 C 113.49 10.80 115.09 14.29 116.95 17.50 C 117.03 17.99 117.18 18.97 117.26 19.45 C 118.36 20.89 118.06 22.72 118.24 24.40 C 119.24 25.76 119.09 27.45 119.13 29.04 C 119.13 33.69 119.11 38.35 119.16 43.01 C 116.19 41.89 113.00 41.14 109.98 42.55 C 107.22 40.89 104.10 40.63 101.31 42.36 C 100.09 41.86 98.87 41.35 97.64 40.85 C 97.50 39.80 97.35 38.76 97.18 37.73 C 94.47 37.49 91.75 37.36 89.03 37.39 C 71.51 37.47 53.98 37.32 36.46 37.47 C 35.28 33.35 34.58 29.10 33.24 25.02 C 32.73 24.66 31.73 23.95 31.23 23.60 C 28.77 23.60 26.31 23.60 23.86 23.62 C 23.27 23.93 22.10 24.55 21.51 24.86 C 21.39 26.36 21.29 27.86 21.22 29.36 C 21.78 29.86 22.89 30.86 23.45 31.36 C 23.09 31.75 22.38 32.54 22.02 32.93 C 21.34 32.56 20.67 32.20 19.99 31.83 C 18.67 32.13 17.32 32.40 15.95 32.26 C 10.93 31.81 5.86 31.97 0.86 32.63 C 1.07 29.90 0.29 26.90 1.74 24.42 C 1.89 22.75 1.77 21.01 2.56 19.48 C 4.54 13.27 8.48 7.44 14.56 4.67 C 15.55 4.13 16.53 3.60 17.52 3.05 C 18.00 2.98 18.96 2.84 19.44 2.77 C 20.88 1.62 22.74 1.96 24.44 1.77 Z" />
</g>
<g id="#ffffffff">
<path fill="#ffffff" opacity="1.00" d=" M 21.51 24.86 C 22.10 24.55 23.27 23.93 23.86 23.62 C 26.31 23.60 28.77 23.60 31.23 23.60 C 31.73 23.95 32.73 24.66 33.24 25.02 C 34.58 29.10 35.28 33.35 36.46 37.47 C 53.98 37.32 71.51 37.47 89.03 37.39 C 91.75 37.36 94.47 37.49 97.18 37.73 C 97.35 38.76 97.50 39.80 97.64 40.85 C 96.27 49.32 93.68 57.57 91.92 65.98 C 91.02 69.53 90.28 73.13 89.34 76.67 C 89.04 78.27 87.63 79.67 85.93 79.53 C 72.62 79.71 59.30 79.50 45.99 79.62 C 43.20 79.58 40.07 80.08 37.83 78.01 C 36.74 72.16 35.20 66.41 33.94 60.59 C 31.79 50.85 29.32 41.18 27.29 31.41 C 26.01 31.39 24.73 31.38 23.45 31.36 C 22.89 30.86 21.78 29.86 21.22 29.36 C 21.29 27.86 21.39 26.36 21.51 24.86 M 50.04 53.10 C 48.63 54.20 49.42 56.18 49.20 57.70 C 52.76 60.74 55.86 64.28 59.54 67.17 C 60.73 65.79 61.91 64.40 63.07 63.00 C 61.15 60.86 59.00 58.96 56.98 56.92 C 56.06 56.29 56.27 54.85 57.11 54.25 C 59.69 51.57 62.31 48.92 65.07 46.42 C 63.86 44.96 62.53 43.62 61.15 42.33 C 57.60 46.07 53.68 49.45 50.04 53.10 M 65.46 50.97 C 64.35 52.31 63.07 53.65 63.09 55.52 C 65.08 57.62 68.11 59.23 69.04 62.03 C 67.26 65.68 63.17 67.65 61.09 71.08 C 61.04 73.16 63.23 74.13 64.69 75.15 C 68.17 71.47 72.06 68.20 75.53 64.51 C 76.06 62.87 75.72 61.08 75.80 59.39 C 72.20 56.79 69.77 52.41 65.46 50.97 Z" />
<path fill="#ffffff" opacity="1.00" d=" M 44.72 83.61 C 46.64 83.23 48.60 83.45 50.54 83.50 C 52.64 85.48 54.52 87.91 54.57 90.93 C 53.63 93.03 52.50 95.25 50.39 96.39 C 48.21 97.27 45.84 96.64 43.60 96.43 C 42.62 95.29 41.64 94.15 40.64 93.01 C 40.63 92.60 40.61 91.76 40.60 91.34 C 40.58 90.05 40.56 88.77 40.55 87.48 C 41.87 86.13 43.05 84.55 44.72 83.61 Z" />
<path fill="#ffffff" opacity="1.00" d=" M 76.66 83.48 C 78.66 83.58 80.78 83.20 82.70 83.89 C 84.07 84.94 85.21 86.24 86.39 87.49 C 86.44 88.63 86.49 89.77 86.53 90.91 C 86.07 94.50 82.64 97.52 78.93 96.82 C 76.01 96.85 74.05 94.32 73.00 91.88 C 72.58 88.51 74.04 85.53 76.66 83.48 Z" />
</g>
<g id="#262626ff">
<path fill="#262626" opacity="1.00" d=" M 0.86 32.63 C 5.86 31.97 10.93 31.81 15.95 32.26 C 17.32 32.40 18.67 32.13 19.99 31.83 C 20.67 32.20 21.34 32.56 22.02 32.93 C 22.38 32.54 23.09 31.75 23.45 31.36 C 24.73 31.38 26.01 31.39 27.29 31.41 C 29.32 41.18 31.79 50.85 33.94 60.59 C 32.24 61.44 30.55 62.28 28.86 63.13 C 28.69 62.64 28.36 61.68 28.19 61.19 C 27.82 61.17 27.08 61.14 26.71 61.12 C 26.64 61.53 26.49 62.36 26.42 62.77 C 24.80 61.94 23.08 61.04 21.19 61.50 C 15.91 62.35 10.52 60.93 5.31 62.38 C 3.81 62.14 2.32 61.89 0.83 61.65 C 0.86 51.98 0.87 42.30 0.86 32.63 Z" />
</g>
<g id="#242424ff">
<path fill="#242424" opacity="1.00" d=" M 97.64 40.85 C 98.87 41.35 100.09 41.86 101.31 42.36 C 104.10 40.63 107.22 40.89 109.98 42.55 C 113.00 41.14 116.19 41.89 119.16 43.01 C 119.15 51.36 119.13 59.72 119.21 68.07 C 117.58 67.48 115.91 66.65 114.14 67.02 C 106.92 68.00 99.64 67.30 92.39 67.42 C 92.28 67.06 92.04 66.34 91.92 65.98 C 93.68 57.57 96.27 49.32 97.64 40.85 Z" />
<path fill="#242424" opacity="1.00" d=" M 50.04 53.10 C 53.68 49.45 57.60 46.07 61.15 42.33 C 62.53 43.62 63.86 44.96 65.07 46.42 C 62.31 48.92 59.69 51.57 57.11 54.25 C 56.27 54.85 56.06 56.29 56.98 56.92 C 59.00 58.96 61.15 60.86 63.07 63.00 C 61.91 64.40 60.73 65.79 59.54 67.17 C 55.86 64.28 52.76 60.74 49.20 57.70 C 49.42 56.18 48.63 54.20 50.04 53.10 Z" />
</g>
<g id="#212121ff">
<path fill="#212121" opacity="1.00" d=" M 65.46 50.97 C 69.77 52.41 72.20 56.79 75.80 59.39 C 75.72 61.08 76.06 62.87 75.53 64.51 C 72.06 68.20 68.17 71.47 64.69 75.15 C 63.23 74.13 61.04 73.16 61.09 71.08 C 63.17 67.65 67.26 65.68 69.04 62.03 C 68.11 59.23 65.08 57.62 63.09 55.52 C 63.07 53.65 64.35 52.31 65.46 50.97 Z" />
</g>
<g id="#1b1b1bff">
<path fill="#1b1b1b" opacity="1.00" d=" M 0.83 61.65 C 2.32 61.89 3.81 62.14 5.31 62.38 C 10.52 60.93 15.91 62.35 21.19 61.50 C 23.08 61.04 24.80 61.94 26.42 62.77 C 26.49 62.36 26.64 61.53 26.71 61.12 C 27.08 61.14 27.82 61.17 28.19 61.19 C 28.36 61.68 28.69 62.64 28.86 63.13 C 30.55 62.28 32.24 61.44 33.94 60.59 C 35.20 66.41 36.74 72.16 37.83 78.01 C 40.07 80.08 43.20 79.58 45.99 79.62 C 59.30 79.50 72.62 79.71 85.93 79.53 C 87.63 79.67 89.04 78.27 89.34 76.67 C 90.28 73.13 91.02 69.53 91.92 65.98 C 92.04 66.34 92.28 67.06 92.39 67.42 C 99.64 67.30 106.92 68.00 114.14 67.02 C 115.91 66.65 117.58 67.48 119.21 68.07 C 119.16 75.70 119.17 83.32 119.22 90.95 C 116.17 91.27 113.07 91.63 110.03 91.00 C 106.32 90.09 102.64 91.90 98.91 91.29 C 94.81 90.78 90.66 90.22 86.53 90.91 C 86.49 89.77 86.44 88.63 86.39 87.49 C 85.21 86.24 84.07 84.94 82.70 83.89 C 80.78 83.20 78.66 83.58 76.66 83.48 C 74.04 85.53 72.58 88.51 73.00 91.88 C 71.83 91.37 70.66 90.86 69.50 90.35 C 69.13 91.06 68.76 91.78 68.40 92.50 C 67.63 92.12 66.86 91.75 66.09 91.38 C 65.27 91.49 64.46 91.61 63.64 91.72 C 63.55 91.41 63.37 90.77 63.28 90.45 C 60.38 90.61 57.48 90.76 54.57 90.93 C 54.52 87.91 52.64 85.48 50.54 83.50 C 48.60 83.45 46.64 83.23 44.72 83.61 C 43.05 84.55 41.87 86.13 40.55 87.48 C 40.56 88.77 40.58 90.05 40.60 91.34 C 34.69 90.42 28.66 90.32 22.70 90.66 C 18.39 92.11 13.90 91.03 9.57 90.21 C 9.51 90.58 9.39 91.30 9.33 91.66 C 6.50 91.16 3.65 90.78 0.78 90.55 C 0.83 80.92 0.82 71.28 0.83 61.65 Z" />
</g>
<g id="#141414ff">
<path fill="#141414" opacity="1.00" d=" M 0.78 90.55 C 3.65 90.78 6.50 91.16 9.33 91.66 C 9.39 91.30 9.51 90.58 9.57 90.21 C 13.90 91.03 18.39 92.11 22.70 90.66 C 28.66 90.32 34.69 90.42 40.60 91.34 C 40.61 91.76 40.63 92.60 40.64 93.01 C 41.64 94.15 42.62 95.29 43.60 96.43 C 45.84 96.64 48.21 97.27 50.39 96.39 C 52.50 95.25 53.63 93.03 54.57 90.93 C 57.48 90.76 60.38 90.61 63.28 90.45 C 63.37 90.77 63.55 91.41 63.64 91.72 C 64.46 91.61 65.27 91.49 66.09 91.38 C 66.86 91.75 67.63 92.12 68.40 92.50 C 68.76 91.78 69.13 91.06 69.50 90.35 C 70.66 90.86 71.83 91.37 73.00 91.88 C 74.05 94.32 76.01 96.85 78.93 96.82 C 82.64 97.52 86.07 94.50 86.53 90.91 C 90.66 90.22 94.81 90.78 98.91 91.29 C 102.64 91.90 106.32 90.09 110.03 91.00 C 113.07 91.63 116.17 91.27 119.22 90.95 C 119.14 92.84 119.29 94.84 118.38 96.58 C 118.17 98.21 118.33 99.97 117.43 101.44 C 115.56 104.82 114.40 108.74 111.41 111.37 C 108.78 114.42 104.80 115.54 101.40 117.46 C 99.94 118.34 98.20 118.19 96.59 118.40 C 94.83 119.28 92.83 119.20 90.92 119.22 C 70.29 119.23 49.66 119.23 29.03 119.22 C 27.13 119.21 25.15 119.26 23.40 118.40 C 21.78 118.19 20.05 118.34 18.61 117.46 C 15.20 115.55 11.22 114.43 8.60 111.38 C 5.59 108.75 4.45 104.80 2.56 101.42 C 1.68 99.95 1.83 98.20 1.62 96.57 C 0.63 94.73 0.88 92.56 0.78 90.55 Z" />
</g>
</svg>
