<?xml version="1.0" encoding="UTF-8" ?>
<!DOCTYPE svg PUBLIC "-//W3C//DTD SVG 1.1//EN" "http://www.w3.org/Graphics/SVG/1.1/DTD/svg11.dtd">
<svg width="120pt" height="120pt" viewBox="0 0 120 120" version="1.1" xmlns="http://www.w3.org/2000/svg">
<g id="#ffa000ff">
<path fill="#ffa000" opacity="1.00" d=" M 31.36 0.00 L 87.66 0.00 C 96.29 0.11 105.80 1.38 112.05 7.99 C 118.39 13.99 119.77 23.04 120.00 31.35 L 120.00 85.68 C 119.65 91.39 119.84 97.29 117.85 102.75 C 115.43 109.74 109.69 115.47 102.69 117.87 C 97.67 119.70 92.27 119.61 87.02 120.00 L 33.15 120.00 C 27.36 119.62 21.31 119.68 15.88 117.32 C 9.49 114.66 4.35 109.20 2.12 102.65 C 0.23 97.43 0.37 91.80 0.00 86.34 L 0.00 32.53 C 0.36 26.91 0.39 21.06 2.68 15.82 C 5.14 9.95 9.96 5.16 15.81 2.68 C 20.70 0.53 26.13 0.41 31.36 0.00 M 24.34 19.47 C 20.29 20.78 17.88 25.68 19.46 29.66 C 20.71 33.44 25.09 35.85 28.95 34.74 C 33.39 33.80 36.20 28.56 34.53 24.33 C 33.22 20.28 28.31 17.88 24.34 19.47 M 43.29 30.33 C 40.87 31.48 42.23 35.51 44.91 34.97 C 61.94 34.99 79.00 35.17 96.03 34.88 C 99.19 34.43 98.17 29.42 95.08 30.02 C 79.41 29.90 63.73 30.05 48.06 29.96 C 46.48 30.02 44.82 29.81 43.29 30.33 M 24.37 52.46 C 20.57 53.70 18.15 58.09 19.26 61.95 C 20.20 66.06 24.78 68.90 28.88 67.75 C 33.37 66.83 36.22 61.54 34.50 57.28 C 33.17 53.27 28.32 50.93 24.37 52.46 M 43.26 63.36 C 41.61 64.21 41.62 66.79 43.26 67.65 C 44.76 68.20 46.42 67.94 47.99 68.02 C 63.71 67.94 79.43 68.07 95.15 67.97 C 97.03 68.26 98.76 66.05 97.71 64.38 C 97.09 62.94 95.34 63.02 94.04 62.99 C 78.69 62.99 63.35 63.03 48.00 62.98 C 46.42 63.06 44.76 62.79 43.26 63.36 M 24.31 84.50 C 20.29 85.83 17.89 90.72 19.50 94.69 C 20.83 98.68 25.65 101.07 29.61 99.53 C 33.67 98.25 36.08 93.33 34.52 89.35 C 33.21 85.30 28.29 82.90 24.31 84.50 M 43.22 95.41 C 40.87 96.64 42.33 100.43 44.89 99.96 C 60.94 100.07 77.00 99.95 93.05 100.02 C 94.63 99.91 96.80 100.36 97.70 98.64 C 98.78 96.97 97.01 94.75 95.14 95.04 C 79.45 94.93 63.74 95.05 48.05 94.98 C 46.45 95.11 44.71 94.71 43.22 95.41 Z" />
</g>
<g id="#ffffffff">
<path fill="#ffffff" opacity="1.00" d=" M 24.34 19.47 C 28.31 17.88 33.22 20.28 34.53 24.33 C 36.20 28.56 33.39 33.80 28.95 34.74 C 25.09 35.85 20.71 33.44 19.46 29.66 C 17.88 25.68 20.29 20.78 24.34 19.47 Z" />
<path fill="#ffffff" opacity="1.00" d=" M 43.29 30.33 C 44.82 29.81 46.48 30.02 48.06 29.96 C 63.73 30.05 79.41 29.90 95.08 30.02 C 98.17 29.42 99.19 34.43 96.03 34.88 C 79.00 35.17 61.94 34.99 44.91 34.97 C 42.23 35.51 40.87 31.48 43.29 30.33 Z" />
<path fill="#ffffff" opacity="1.00" d=" M 24.37 52.46 C 28.32 50.93 33.17 53.27 34.50 57.28 C 36.22 61.54 33.37 66.83 28.88 67.75 C 24.78 68.90 20.20 66.06 19.26 61.95 C 18.15 58.09 20.57 53.70 24.37 52.46 Z" />
<path fill="#ffffff" opacity="1.00" d=" M 43.26 63.36 C 44.76 62.79 46.42 63.06 48.00 62.98 C 63.35 63.03 78.69 62.99 94.04 62.99 C 95.34 63.02 97.09 62.94 97.71 64.38 C 98.76 66.05 97.03 68.26 95.15 67.97 C 79.43 68.07 63.71 67.94 47.99 68.02 C 46.42 67.94 44.76 68.20 43.26 67.65 C 41.62 66.79 41.61 64.21 43.26 63.36 Z" />
<path fill="#ffffff" opacity="1.00" d=" M 24.31 84.50 C 28.29 82.90 33.21 85.30 34.52 89.35 C 36.08 93.33 33.67 98.25 29.61 99.53 C 25.65 101.07 20.83 98.68 19.50 94.69 C 17.89 90.72 20.29 85.83 24.31 84.50 Z" />
<path fill="#ffffff" opacity="1.00" d=" M 43.22 95.41 C 44.71 94.71 46.45 95.11 48.05 94.98 C 63.74 95.05 79.45 94.93 95.14 95.04 C 97.01 94.75 98.78 96.97 97.70 98.64 C 96.80 100.36 94.63 99.91 93.05 100.02 C 77.00 99.95 60.94 100.07 44.89 99.96 C 42.33 100.43 40.87 96.64 43.22 95.41 Z" />
</g>
</svg>
