<?xml version="1.0" encoding="UTF-8" ?>
<!DOCTYPE svg PUBLIC "-//W3C//DTD SVG 1.1//EN" "http://www.w3.org/Graphics/SVG/1.1/DTD/svg11.dtd">
<svg width="120pt" height="120pt" viewBox="0 0 120 120" version="1.1" xmlns="http://www.w3.org/2000/svg">
<g id="#36e8ceff">
<path fill="#36e8ce" opacity="1.00" d=" M 13.87 4.01 C 19.73 0.80 26.52 0.31 33.07 0.43 C 52.04 0.45 71.01 0.38 89.98 0.47 C 95.74 0.39 101.61 1.47 106.67 4.32 C 114.55 9.08 119.20 17.88 119.52 27.01 C 119.44 27.65 119.26 28.95 119.18 29.59 C 111.74 30.42 104.27 30.28 96.81 30.07 C 96.83 27.79 96.85 25.52 96.87 23.25 C 94.82 23.24 92.77 23.24 90.72 23.23 C 90.73 25.55 90.74 27.87 90.75 30.19 C 88.71 30.26 86.67 30.33 84.64 30.38 C 84.63 28.00 84.63 25.62 84.64 23.25 C 68.25 23.24 51.87 23.23 35.49 23.25 C 35.49 25.54 35.49 27.82 35.49 30.10 C 30.76 31.12 25.89 31.22 21.13 30.33 C 14.32 29.64 7.47 30.76 0.66 29.92 L 0.47 28.29 C 0.37 18.54 5.28 8.86 13.87 4.01 M 23.22 23.24 C 23.23 25.46 23.23 27.68 23.24 29.90 C 25.33 29.91 27.41 29.91 29.50 29.90 C 29.51 27.69 29.51 25.47 29.52 23.25 C 27.42 23.25 25.32 23.24 23.22 23.24 Z" />
</g>
<g id="#ffffffff">
<path fill="#ffffff" opacity="1.00" d=" M 23.22 23.24 C 25.32 23.24 27.42 23.25 29.52 23.25 C 29.51 25.47 29.51 27.69 29.50 29.90 C 27.41 29.91 25.33 29.91 23.24 29.90 C 23.23 27.68 23.23 25.46 23.22 23.24 Z" />
<path fill="#ffffff" opacity="1.00" d=" M 35.49 23.25 C 51.87 23.23 68.25 23.24 84.64 23.25 C 84.63 25.62 84.63 28.00 84.64 30.38 C 84.65 37.45 84.62 44.52 84.64 51.58 C 84.64 53.51 84.64 55.44 84.63 57.37 C 68.25 57.35 51.87 57.35 35.49 57.37 C 35.48 55.20 35.48 53.03 35.48 50.86 C 35.51 43.94 35.46 37.02 35.49 30.10 C 35.49 27.82 35.49 25.54 35.49 23.25 Z" />
<path fill="#ffffff" opacity="1.00" d=" M 90.72 23.23 C 92.77 23.24 94.82 23.24 96.87 23.25 C 96.85 25.52 96.83 27.79 96.81 30.07 C 94.79 30.07 92.77 30.12 90.75 30.19 C 90.74 27.87 90.73 25.55 90.72 23.23 Z" />
<path fill="#ffffff" opacity="1.00" d=" M 23.22 36.67 C 25.32 36.66 27.42 36.66 29.52 36.66 C 29.52 38.92 29.52 41.18 29.52 43.44 C 27.42 43.43 25.31 43.42 23.21 43.41 C 23.22 41.16 23.22 38.91 23.22 36.67 Z" />
<path fill="#ffffff" opacity="1.00" d=" M 90.70 36.65 C 92.75 36.66 94.81 36.67 96.87 36.68 C 96.86 38.92 96.86 41.17 96.87 43.42 C 94.82 43.43 92.76 43.43 90.71 43.44 C 90.70 41.17 90.70 38.91 90.70 36.65 Z" />
<path fill="#ffffff" opacity="1.00" d=" M 23.24 50.12 C 25.33 50.12 27.42 50.13 29.51 50.14 C 29.51 50.59 29.52 51.51 29.52 51.97 C 29.53 53.54 29.54 55.11 29.55 56.69 C 27.43 56.69 25.32 56.69 23.21 56.69 C 23.22 55.10 23.23 53.51 23.23 51.93 C 23.24 51.47 23.24 50.57 23.24 50.12 Z" />
<path fill="#ffffff" opacity="1.00" d=" M 90.66 50.38 C 92.71 50.18 94.76 50.11 96.82 50.02 C 96.82 50.44 96.83 51.27 96.84 51.69 C 96.85 53.35 96.86 55.01 96.87 56.67 C 94.84 56.69 92.81 56.72 90.77 56.75 C 90.73 54.63 90.69 52.50 90.66 50.38 Z" />
<path fill="#ffffff" opacity="1.00" d=" M 23.24 63.43 C 25.32 63.43 27.40 63.44 29.49 63.44 C 29.52 65.57 29.56 67.71 29.61 69.84 C 27.48 70.21 25.29 70.20 23.18 69.73 C 23.21 67.63 23.22 65.53 23.24 63.43 Z" />
<path fill="#ffffff" opacity="1.00" d=" M 35.48 68.73 C 35.49 66.75 35.50 64.78 35.51 62.81 C 51.89 62.86 68.28 62.72 84.66 62.88 C 84.62 67.76 84.61 72.65 84.64 77.53 C 84.67 83.97 84.63 90.40 84.65 96.84 C 68.26 96.86 51.86 96.86 35.46 96.84 C 35.47 94.56 35.48 92.28 35.49 90.00 C 35.51 82.91 35.46 75.82 35.48 68.73 Z" />
<path fill="#ffffff" opacity="1.00" d=" M 90.68 63.48 C 92.74 63.46 94.81 63.44 96.88 63.42 C 96.86 65.66 96.84 67.90 96.83 70.14 C 94.80 70.14 92.77 70.14 90.75 70.14 C 90.72 67.92 90.70 65.70 90.68 63.48 Z" />
<path fill="#ffffff" opacity="1.00" d=" M 23.23 76.82 C 25.30 76.79 27.37 76.77 29.45 76.74 C 29.49 79.01 29.52 81.29 29.55 83.56 C 27.44 83.56 25.33 83.56 23.22 83.57 C 23.22 81.32 23.23 79.07 23.23 76.82 Z" />
<path fill="#ffffff" opacity="1.00" d=" M 90.73 76.72 C 92.80 76.84 94.88 76.94 96.93 77.33 C 96.89 79.42 96.87 81.51 96.85 83.60 C 94.78 83.59 92.71 83.58 90.64 83.57 C 90.66 81.29 90.69 79.00 90.73 76.72 Z" />
<path fill="#ffffff" opacity="1.00" d=" M 23.24 90.11 C 25.34 90.28 27.44 90.31 29.55 90.28 C 29.54 92.46 29.53 94.65 29.53 96.84 C 27.42 96.84 25.32 96.84 23.21 96.85 C 23.22 94.60 23.23 92.35 23.24 90.11 Z" />
<path fill="#ffffff" opacity="1.00" d=" M 90.69 90.24 C 92.75 90.26 94.81 90.27 96.87 90.28 C 96.86 92.46 96.86 94.65 96.86 96.84 C 94.80 96.84 92.75 96.85 90.70 96.85 C 90.69 94.65 90.69 92.45 90.69 90.24 Z" />
</g>
<g id="#12767290">
<path fill="#127672" opacity="0.56" d=" M 119.52 27.01 L 120.00 28.77 L 120.00 90.63 L 119.57 92.13 C 118.85 87.52 118.95 82.86 118.99 78.21 C 118.95 69.25 119.02 60.30 119.02 51.34 C 119.15 44.09 118.82 36.83 119.18 29.59 C 119.26 28.95 119.44 27.65 119.52 27.01 Z" />
</g>
<g id="#12767291">
<path fill="#127672" opacity="0.57" d=" M 0.00 30.13 L 0.47 28.29 L 0.66 29.92 C 1.35 37.28 0.79 44.69 0.98 52.07 C 0.99 57.61 1.01 63.15 1.00 68.69 C 0.79 75.91 1.46 83.16 0.65 90.36 L 0.44 91.98 L 0.00 90.30 L 0.00 30.13 Z" />
</g>
<g id="#2adcccff">
<path fill="#2adccc" opacity="1.00" d=" M 0.66 29.92 C 7.47 30.76 14.32 29.64 21.13 30.33 C 25.89 31.22 30.76 31.12 35.49 30.10 C 35.46 37.02 35.51 43.94 35.48 50.86 C 33.49 51.23 31.51 51.60 29.52 51.97 C 29.52 51.51 29.51 50.59 29.51 50.14 C 27.42 50.13 25.33 50.12 23.24 50.12 C 23.24 50.57 23.24 51.47 23.23 51.93 C 15.82 51.76 8.36 50.91 0.98 52.07 C 0.79 44.69 1.35 37.28 0.66 29.92 M 23.22 36.67 C 23.22 38.91 23.22 41.16 23.21 43.41 C 25.31 43.42 27.42 43.43 29.52 43.44 C 29.52 41.18 29.52 38.92 29.52 36.66 C 27.42 36.66 25.32 36.66 23.22 36.67 Z" />
<path fill="#2adccc" opacity="1.00" d=" M 96.81 30.07 C 104.27 30.28 111.74 30.42 119.18 29.59 C 118.82 36.83 119.15 44.09 119.02 51.34 C 111.68 50.50 104.05 49.71 96.84 51.69 C 96.83 51.27 96.82 50.44 96.82 50.02 C 94.76 50.11 92.71 50.18 90.66 50.38 C 88.64 50.70 86.64 51.16 84.64 51.58 C 84.62 44.52 84.65 37.45 84.64 30.38 C 86.67 30.33 88.71 30.26 90.75 30.19 C 92.77 30.12 94.79 30.07 96.81 30.07 M 90.70 36.65 C 90.70 38.91 90.70 41.17 90.71 43.44 C 92.76 43.43 94.82 43.43 96.87 43.42 C 96.86 41.17 96.86 38.92 96.87 36.68 C 94.81 36.67 92.75 36.66 90.70 36.65 Z" />
</g>
<g id="#1fd1caff">
<path fill="#1fd1ca" opacity="1.00" d=" M 84.64 51.58 C 86.64 51.16 88.64 50.70 90.66 50.38 C 90.69 52.50 90.73 54.63 90.77 56.75 C 92.81 56.72 94.84 56.69 96.87 56.67 C 96.86 55.01 96.85 53.35 96.84 51.69 C 104.05 49.71 111.68 50.50 119.02 51.34 C 119.02 60.30 118.95 69.25 118.99 78.21 C 111.64 78.01 104.09 79.47 96.93 77.33 C 94.88 76.94 92.80 76.84 90.73 76.72 C 90.12 77.39 89.51 78.07 88.91 78.74 C 87.48 78.34 86.06 77.93 84.64 77.53 C 84.61 72.65 84.62 67.76 84.66 62.88 C 68.28 62.72 51.89 62.86 35.51 62.81 C 35.50 64.78 35.49 66.75 35.48 68.73 C 33.52 69.10 31.57 69.49 29.61 69.84 C 29.56 67.71 29.52 65.57 29.49 63.44 C 27.40 63.44 25.32 63.43 23.24 63.43 C 23.22 65.53 23.21 67.63 23.18 69.73 C 15.90 68.33 8.39 68.46 1.00 68.69 C 1.01 63.15 0.99 57.61 0.98 52.07 C 8.36 50.91 15.82 51.76 23.23 51.93 C 23.23 53.51 23.22 55.10 23.21 56.69 C 25.32 56.69 27.43 56.69 29.55 56.69 C 29.54 55.11 29.53 53.54 29.52 51.97 C 31.51 51.60 33.49 51.23 35.48 50.86 C 35.48 53.03 35.48 55.20 35.49 57.37 C 51.87 57.35 68.25 57.35 84.63 57.37 C 84.64 55.44 84.64 53.51 84.64 51.58 M 90.68 63.48 C 90.70 65.70 90.72 67.92 90.75 70.14 C 92.77 70.14 94.80 70.14 96.83 70.14 C 96.84 67.90 96.86 65.66 96.88 63.42 C 94.81 63.44 92.74 63.46 90.68 63.48 Z" />
</g>
<g id="#16c7c9ff">
<path fill="#16c7c9" opacity="1.00" d=" M 1.00 68.69 C 8.39 68.46 15.90 68.33 23.18 69.73 C 25.29 70.20 27.48 70.21 29.61 69.84 C 31.57 69.49 33.52 69.10 35.48 68.73 C 35.46 75.82 35.51 82.91 35.49 90.00 C 33.51 90.10 31.53 90.21 29.55 90.28 C 27.44 90.31 25.34 90.28 23.24 90.11 C 15.73 88.98 8.17 89.95 0.65 90.36 C 1.46 83.16 0.79 75.91 1.00 68.69 M 23.23 76.82 C 23.23 79.07 23.22 81.32 23.22 83.57 C 25.33 83.56 27.44 83.56 29.55 83.56 C 29.52 81.29 29.49 79.01 29.45 76.74 C 27.37 76.77 25.30 76.79 23.23 76.82 Z" />
</g>
<g id="#0abbc7ff">
<path fill="#0abbc7" opacity="1.00" d=" M 84.64 77.53 C 86.06 77.93 87.48 78.34 88.91 78.74 C 89.51 78.07 90.12 77.39 90.73 76.72 C 90.69 79.00 90.66 81.29 90.64 83.57 C 92.71 83.58 94.78 83.59 96.85 83.60 C 96.87 81.51 96.89 79.42 96.93 77.33 C 104.09 79.47 111.64 78.01 118.99 78.21 C 118.95 82.86 118.85 87.52 119.57 92.13 C 119.21 99.24 117.15 106.77 111.68 111.68 C 106.26 117.69 97.80 119.65 89.99 119.58 C 70.33 119.66 50.67 119.62 31.01 119.60 C 24.42 119.68 17.52 118.64 11.96 114.87 C 4.47 109.77 0.50 100.91 0.44 91.98 L 0.65 90.36 C 8.17 89.95 15.73 88.98 23.24 90.11 C 23.23 92.35 23.22 94.60 23.21 96.85 C 25.32 96.84 27.42 96.84 29.53 96.84 C 29.53 94.65 29.54 92.46 29.55 90.28 C 31.53 90.21 33.51 90.10 35.49 90.00 C 35.48 92.28 35.47 94.56 35.46 96.84 C 51.86 96.86 68.26 96.86 84.65 96.84 C 84.63 90.40 84.67 83.97 84.64 77.53 M 90.69 90.24 C 90.69 92.45 90.69 94.65 90.70 96.85 C 92.75 96.85 94.80 96.84 96.86 96.84 C 96.86 94.65 96.86 92.46 96.87 90.28 C 94.81 90.27 92.75 90.26 90.69 90.24 Z" />
</g>
</svg>
