<?xml version="1.0" encoding="UTF-8" ?>
<!DOCTYPE svg PUBLIC "-//W3C//DTD SVG 1.1//EN" "http://www.w3.org/Graphics/SVG/1.1/DTD/svg11.dtd">
<svg width="120pt" height="120pt" viewBox="0 0 120 120" version="1.1" xmlns="http://www.w3.org/2000/svg">
<g id="#de54e4ff">
<path fill="#de54e4" opacity="1.00" d=" M 14.49 3.65 C 18.72 1.70 23.33 0.47 28.02 0.56 C 49.34 0.57 70.65 0.57 91.97 0.56 C 96.72 0.47 101.40 1.72 105.67 3.74 C 109.89 6.47 113.65 10.10 116.27 14.41 C 116.60 15.12 116.94 15.83 117.30 16.53 C 118.37 19.57 119.20 22.71 119.34 25.94 L 119.33 26.00 C 114.65 25.26 109.90 25.43 105.18 25.38 C 103.31 25.31 101.56 26.02 99.86 26.68 C 90.50 15.66 76.54 8.67 62.05 8.22 C 44.12 7.39 26.26 16.78 16.58 31.87 C 16.14 31.38 15.25 30.38 14.80 29.88 C 10.22 30.23 5.64 30.58 1.05 30.35 C 1.01 28.67 0.90 26.98 0.71 25.31 C 0.99 21.54 2.04 17.89 3.66 14.49 C 6.37 10.13 10.13 6.37 14.49 3.65 Z" />
</g>
<g id="#ffffffff">
<path fill="#ffffff" opacity="1.00" d=" M 16.58 31.87 C 26.26 16.78 44.12 7.39 62.05 8.22 C 76.54 8.67 90.50 15.66 99.86 26.68 C 103.29 30.87 106.17 35.53 108.23 40.55 C 110.72 46.63 112.00 53.19 111.96 59.77 C 112.10 66.19 110.97 72.62 108.67 78.62 C 106.11 85.45 101.98 91.63 96.91 96.85 C 87.25 106.47 73.72 112.37 60.00 111.96 C 46.55 112.33 33.35 106.54 23.75 97.27 C 19.05 92.49 15.08 86.93 12.44 80.76 C 10.18 75.51 8.84 69.89 8.32 64.21 C 7.86 58.34 8.50 52.44 9.91 46.74 C 11.44 41.51 13.57 36.43 16.58 31.87 M 51.02 14.01 C 34.03 17.03 19.76 30.41 14.85 46.85 C 13.58 52.56 12.31 58.43 13.21 64.30 C 13.42 66.54 13.61 68.83 14.32 70.98 L 15.03 71.31 L 14.65 71.81 C 15.65 77.54 18.78 82.69 21.64 87.70 L 22.16 87.55 C 30.64 100.59 46.63 107.86 62.00 107.24 C 76.53 106.77 90.44 99.05 98.77 87.17 C 101.85 82.52 104.37 77.45 105.64 72.00 L 105.93 71.93 C 109.01 59.13 106.63 45.38 99.59 34.29 L 99.41 34.29 C 89.41 18.49 69.30 10.11 51.02 14.01 Z" />
<path fill="#ffffff" opacity="1.00" d=" M 53.12 34.64 C 60.45 33.45 67.66 31.56 75.00 30.42 C 76.33 29.95 77.44 30.67 78.13 31.79 C 78.12 45.70 78.30 59.63 77.93 73.54 C 76.54 79.74 68.60 80.78 63.76 78.20 C 61.11 76.62 60.96 73.26 61.43 70.55 C 64.14 66.24 69.51 67.51 73.76 66.67 C 73.99 66.44 74.43 65.96 74.65 65.72 C 75.19 58.26 74.64 50.76 74.83 43.28 C 66.37 44.19 58.07 46.22 49.74 47.89 C 49.46 55.35 49.59 62.81 49.60 70.26 C 49.42 74.87 50.77 81.14 45.89 83.85 C 41.78 85.73 35.09 85.68 33.03 80.86 C 31.69 77.51 33.83 74.14 36.84 72.66 C 39.85 72.08 43.95 73.60 46.11 71.05 C 46.52 67.25 46.20 63.43 46.27 59.62 C 46.26 55.13 46.30 50.64 46.26 46.15 C 46.37 43.02 45.88 39.76 46.85 36.74 C 48.52 35.17 51.02 35.20 53.12 34.64 Z" />
</g>
<g id="#d450e5ff">
<path fill="#d450e5" opacity="1.00" d=" M 51.02 14.01 C 69.30 10.11 89.41 18.49 99.41 34.29 C 93.04 34.41 86.67 34.72 80.30 34.63 C 79.58 33.68 78.87 32.72 78.13 31.79 C 77.44 30.67 76.33 29.95 75.00 30.42 C 67.66 31.56 60.45 33.45 53.12 34.64 C 51.02 35.20 48.52 35.17 46.85 36.74 C 45.88 39.76 46.37 43.02 46.26 46.15 C 35.79 46.77 25.29 45.52 14.85 46.85 C 19.76 30.41 34.03 17.03 51.02 14.01 Z" />
</g>
<g id="#5c23737f">
<path fill="#5c2373" opacity="0.50" d=" M 0.00 23.62 L 0.71 25.31 C 0.90 26.98 1.01 28.67 1.05 30.35 C 0.99 35.87 1.00 41.38 1.00 46.90 C 1.00 52.89 0.98 58.88 0.99 64.86 C 0.98 70.29 0.96 75.71 0.94 81.14 C 0.92 86.44 1.05 91.75 0.77 97.05 L 0.00 95.14 L 0.00 23.62 Z" />
<path fill="#5c2373" opacity="0.50" d=" M 119.34 25.94 L 120.00 24.56 L 120.00 97.08 L 119.24 95.34 C 118.81 89.63 119.17 83.90 119.04 78.18 C 119.02 71.81 119.03 65.43 119.00 59.06 C 118.97 52.72 119.01 46.38 119.00 40.05 C 119.07 35.37 118.71 30.66 119.33 26.00 L 119.34 25.94 Z" />
</g>
<g id="#d14fe5ff">
<path fill="#d14fe5" opacity="1.00" d=" M 99.86 26.68 C 101.56 26.02 103.31 25.31 105.18 25.38 C 109.90 25.43 114.65 25.26 119.33 26.00 C 118.71 30.66 119.07 35.37 119.00 40.05 C 115.41 39.72 111.72 39.47 108.23 40.55 C 106.17 35.53 103.29 30.87 99.86 26.68 Z" />
</g>
<g id="#cd4ee6ff">
<path fill="#cd4ee6" opacity="1.00" d=" M 1.05 30.35 C 5.64 30.58 10.22 30.23 14.80 29.88 C 15.25 30.38 16.14 31.38 16.58 31.87 C 13.57 36.43 11.44 41.51 9.91 46.74 C 6.94 46.56 3.97 46.67 1.00 46.90 C 1.00 41.38 0.99 35.87 1.05 30.35 Z" />
</g>
<g id="#c04ae7ff">
<path fill="#c04ae7" opacity="1.00" d=" M 78.13 31.79 C 78.87 32.72 79.58 33.68 80.30 34.63 C 86.67 34.72 93.04 34.41 99.41 34.29 L 99.59 34.29 C 106.63 45.38 109.01 59.13 105.93 71.93 L 105.64 72.00 C 103.14 72.62 100.57 73.24 97.97 72.94 C 91.30 72.35 84.54 72.28 77.93 73.54 C 78.30 59.63 78.12 45.70 78.13 31.79 Z" />
</g>
<g id="#c54be7ff">
<path fill="#c54be7" opacity="1.00" d=" M 108.23 40.55 C 111.72 39.47 115.41 39.72 119.00 40.05 C 119.01 46.38 118.97 52.72 119.00 59.06 C 116.65 59.29 114.30 59.53 111.96 59.77 C 112.00 53.19 110.72 46.63 108.23 40.55 Z" />
</g>
<g id="#be49e8ff">
<path fill="#be49e8" opacity="1.00" d=" M 49.74 47.89 C 58.07 46.22 66.37 44.19 74.83 43.28 C 74.64 50.76 75.19 58.26 74.65 65.72 C 74.43 65.96 73.99 66.44 73.76 66.67 C 69.51 67.51 64.14 66.24 61.43 70.55 C 57.49 70.51 53.54 70.43 49.60 70.26 C 49.59 62.81 49.46 55.35 49.74 47.89 Z" />
</g>
<g id="#c049e7ff">
<path fill="#c049e7" opacity="1.00" d=" M 1.00 46.90 C 3.97 46.67 6.94 46.56 9.91 46.74 C 8.50 52.44 7.86 58.34 8.32 64.21 C 5.87 64.43 3.43 64.65 0.99 64.86 C 0.98 58.88 1.00 52.89 1.00 46.90 Z" />
</g>
<g id="#c24ae7ff">
<path fill="#c24ae7" opacity="1.00" d=" M 14.85 46.85 C 25.29 45.52 35.79 46.77 46.26 46.15 C 46.30 50.64 46.26 55.13 46.27 59.62 C 42.53 59.25 38.77 59.05 35.02 59.29 C 28.22 59.76 21.37 58.47 14.60 59.70 C 14.12 61.23 13.63 62.75 13.21 64.30 C 12.31 58.43 13.58 52.56 14.85 46.85 Z" />
</g>
<g id="#b747e9ff">
<path fill="#b747e9" opacity="1.00" d=" M 14.60 59.70 C 21.37 58.47 28.22 59.76 35.02 59.29 C 38.77 59.05 42.53 59.25 46.27 59.62 C 46.20 63.43 46.52 67.25 46.11 71.05 C 43.95 73.60 39.85 72.08 36.84 72.66 C 33.40 71.25 29.63 71.77 26.02 71.75 C 22.35 71.81 18.69 71.40 15.03 71.31 L 14.32 70.98 C 13.61 68.83 13.42 66.54 13.21 64.30 C 13.63 62.75 14.12 61.23 14.60 59.70 Z" />
</g>
<g id="#b445e9ff">
<path fill="#b445e9" opacity="1.00" d=" M 111.96 59.77 C 114.30 59.53 116.65 59.29 119.00 59.06 C 119.03 65.43 119.02 71.81 119.04 78.18 C 115.58 78.26 112.12 78.39 108.67 78.62 C 110.97 72.62 112.10 66.19 111.96 59.77 Z" />
</g>
<g id="#b144e9ff">
<path fill="#b144e9" opacity="1.00" d=" M 0.99 64.86 C 3.43 64.65 5.87 64.43 8.32 64.21 C 8.84 69.89 10.18 75.51 12.44 80.76 C 8.61 80.97 4.78 81.10 0.94 81.14 C 0.96 75.71 0.98 70.29 0.99 64.86 Z" />
</g>
<g id="#ac43eaff">
<path fill="#ac43ea" opacity="1.00" d=" M 49.60 70.26 C 53.54 70.43 57.49 70.51 61.43 70.55 C 60.96 73.26 61.11 76.62 63.76 78.20 C 68.60 80.78 76.54 79.74 77.93 73.54 C 84.54 72.28 91.30 72.35 97.97 72.94 C 100.57 73.24 103.14 72.62 105.64 72.00 C 104.37 77.45 101.85 82.52 98.77 87.17 C 91.52 85.95 84.16 86.56 76.86 86.44 C 63.35 86.18 49.85 86.79 36.34 86.39 C 31.59 86.28 26.75 86.05 22.16 87.55 L 21.64 87.70 C 18.78 82.69 15.65 77.54 14.65 71.81 L 15.03 71.31 C 18.69 71.40 22.35 71.81 26.02 71.75 C 29.63 71.77 33.40 71.25 36.84 72.66 C 33.83 74.14 31.69 77.51 33.03 80.86 C 35.09 85.68 41.78 85.73 45.89 83.85 C 50.77 81.14 49.42 74.87 49.60 70.26 Z" />
</g>
<g id="#a641ebff">
<path fill="#a641eb" opacity="1.00" d=" M 108.67 78.62 C 112.12 78.39 115.58 78.26 119.04 78.18 C 119.17 83.90 118.81 89.63 119.24 95.34 L 119.09 97.23 C 111.68 97.52 104.31 96.13 96.91 96.85 C 101.98 91.63 106.11 85.45 108.67 78.62 Z" />
</g>
<g id="#a540ebff">
<path fill="#a540eb" opacity="1.00" d=" M 0.94 81.14 C 4.78 81.10 8.61 80.97 12.44 80.76 C 15.08 86.93 19.05 92.49 23.75 97.27 C 18.98 98.67 14.02 97.53 9.15 97.81 C 6.49 97.90 3.86 98.29 1.23 98.67 C 1.08 98.13 0.93 97.59 0.77 97.05 C 1.05 91.75 0.92 86.44 0.94 81.14 Z" />
</g>
<g id="#a23febff">
<path fill="#a23feb" opacity="1.00" d=" M 22.16 87.55 C 26.75 86.05 31.59 86.28 36.34 86.39 C 49.85 86.79 63.35 86.18 76.86 86.44 C 84.16 86.56 91.52 85.95 98.77 87.17 C 90.44 99.05 76.53 106.77 62.00 107.24 C 46.63 107.86 30.64 100.59 22.16 87.55 Z" />
</g>
<g id="#993cecff">
<path fill="#993cec" opacity="1.00" d=" M 96.91 96.85 C 104.31 96.13 111.68 97.52 119.09 97.23 C 118.61 99.62 117.97 101.98 117.35 104.35 L 116.19 104.48 C 116.34 104.93 116.65 105.84 116.81 106.30 L 115.91 106.34 C 114.69 108.14 113.43 109.91 112.26 111.74 L 111.08 111.04 L 111.72 112.25 C 109.91 113.43 108.15 114.70 106.36 115.92 L 106.27 116.80 C 105.83 116.65 104.93 116.35 104.49 116.20 L 104.34 117.34 C 100.30 118.44 96.22 119.69 91.99 119.57 C 70.65 119.56 49.31 119.56 27.97 119.57 C 23.75 119.68 19.69 118.44 15.66 117.34 L 15.51 116.21 C 15.06 116.36 14.17 116.64 13.72 116.79 L 13.65 115.91 C 11.85 114.70 10.10 113.43 8.28 112.25 L 8.92 111.07 L 7.74 111.72 C 6.56 109.90 5.30 108.14 4.09 106.34 L 3.19 106.31 C 3.34 105.86 3.65 104.95 3.81 104.50 L 2.66 104.33 C 2.18 102.45 1.69 100.56 1.23 98.67 C 3.86 98.29 6.49 97.90 9.15 97.81 C 14.02 97.53 18.98 98.67 23.75 97.27 C 33.35 106.54 46.55 112.33 60.00 111.96 C 73.72 112.37 87.25 106.47 96.91 96.85 Z" />
</g>
</svg>
