<?xml version="1.0" encoding="UTF-8" ?>
<!DOCTYPE svg PUBLIC "-//W3C//DTD SVG 1.1//EN" "http://www.w3.org/Graphics/SVG/1.1/DTD/svg11.dtd">
<svg width="128pt" height="128pt" viewBox="0 0 128 128" version="1.1" xmlns="http://www.w3.org/2000/svg">
<g id="#e0e9eeff">
<path fill="#e0e9ee" opacity="1.00" d=" M 28.54 8.79 C 32.67 8.17 36.86 8.20 41.02 8.16 C 56.67 8.16 72.31 8.15 87.96 8.16 C 93.16 8.27 98.49 8.12 103.49 9.77 C 111.10 12.32 117.26 19.04 118.88 26.93 C 119.78 30.88 119.75 34.95 119.83 38.98 C 119.83 55.66 119.82 72.35 119.81 89.03 C 119.72 93.87 119.75 98.82 118.21 103.47 C 115.67 111.10 108.93 117.26 101.01 118.87 C 96.40 119.90 91.64 119.71 86.95 119.80 C 69.64 119.75 52.34 119.92 35.04 119.71 C 27.93 119.79 20.43 117.85 15.43 112.51 C 10.16 107.55 8.23 100.13 8.28 93.09 C 8.07 75.72 8.23 58.35 8.17 40.97 C 8.25 35.47 8.04 29.81 9.78 24.51 C 12.49 16.34 20.00 9.98 28.54 8.79 M 50.62 38.68 C 44.92 42.66 41.66 49.54 41.71 56.44 C 33.44 56.19 25.48 62.03 23.51 70.09 C 20.07 81.44 30.18 93.84 41.96 92.92 C 56.32 92.90 70.69 92.93 85.06 92.91 C 92.96 93.01 100.60 88.10 103.87 80.91 C 107.38 73.62 106.05 64.35 100.62 58.35 C 96.44 53.50 89.99 50.99 83.64 51.26 C 82.30 46.31 79.50 41.68 75.24 38.72 C 68.15 33.45 57.72 33.43 50.62 38.68 Z" />
</g>
<g id="#242626ff">
<path fill="#242626" opacity="1.00" d=" M 50.62 38.68 C 57.72 33.43 68.15 33.45 75.24 38.72 C 79.50 41.68 82.30 46.31 83.64 51.26 C 89.99 50.99 96.44 53.50 100.62 58.35 C 106.05 64.35 107.38 73.62 103.87 80.91 C 100.60 88.10 92.96 93.01 85.06 92.91 C 70.69 92.93 56.32 92.90 41.96 92.92 C 30.18 93.84 20.07 81.44 23.51 70.09 C 25.48 62.03 33.44 56.19 41.71 56.44 C 41.66 49.54 44.92 42.66 50.62 38.68 Z" />
</g>
</svg>
