<?xml version="1.0" encoding="UTF-8" ?>
<!DOCTYPE svg PUBLIC "-//W3C//DTD SVG 1.1//EN" "http://www.w3.org/Graphics/SVG/1.1/DTD/svg11.dtd">
<svg width="120pt" height="120pt" viewBox="0 0 120 120" version="1.1" xmlns="http://www.w3.org/2000/svg">
<g id="#efd72eff">
<path fill="#efd72e" opacity="1.00" d=" M 14.37 3.61 C 18.72 1.85 23.28 0.44 28.02 0.52 C 46.68 0.29 65.34 0.48 84.00 0.41 C 89.94 0.50 96.06 0.12 101.76 2.16 C 103.05 2.61 104.33 3.12 105.62 3.61 C 107.52 4.88 109.45 6.13 111.14 7.69 C 111.44 7.98 112.04 8.55 112.34 8.83 C 113.31 10.09 114.36 11.32 114.88 12.85 L 115.27 12.11 C 116.18 14.14 117.08 16.16 117.92 18.22 C 118.99 21.73 119.56 25.37 119.55 29.04 C 119.74 41.68 119.62 54.32 119.71 66.96 C 114.18 67.00 108.65 67.38 103.14 66.75 C 98.33 66.16 93.52 66.99 88.74 67.46 C 88.70 59.78 88.75 52.11 88.73 44.43 C 87.74 45.46 86.76 46.50 85.77 47.53 C 85.78 50.52 85.77 53.50 85.73 56.49 C 81.22 56.67 76.71 56.17 72.39 54.87 C 80.06 47.02 87.86 39.31 95.61 31.54 C 94.90 30.82 94.19 30.11 93.49 29.39 C 82.65 40.26 71.84 51.15 60.99 62.01 C 60.52 61.54 59.57 60.59 59.10 60.12 C 69.97 49.30 80.71 38.37 91.63 27.62 C 91.12 27.05 90.11 25.91 89.60 25.34 C 78.13 36.74 66.75 48.23 55.35 59.70 C 48.94 57.34 42.14 58.60 35.50 58.48 C 34.90 66.94 34.51 75.43 34.80 83.91 L 34.05 83.91 C 34.13 67.70 34.09 51.48 34.14 35.26 C 47.37 35.22 60.60 35.30 73.83 35.22 C 74.78 34.23 75.74 33.25 76.69 32.26 C 61.48 32.25 46.26 32.25 31.05 32.26 C 31.05 40.97 31.15 49.68 30.99 58.39 C 20.76 58.76 10.47 58.85 0.31 57.35 C 0.40 47.58 0.23 37.80 0.49 28.03 C 0.50 24.69 1.16 21.42 2.06 18.22 C 2.76 16.56 3.48 14.92 4.22 13.28 C 5.08 12.02 5.98 10.78 6.84 9.53 L 7.85 9.61 L 7.19 8.45 L 8.47 8.64 L 8.72 7.75 C 10.48 6.21 12.44 4.93 14.37 3.61 M 91.61 23.00 C 93.72 25.17 95.85 27.30 98.01 29.42 C 99.08 27.80 101.36 26.45 100.81 24.23 C 99.85 22.58 98.46 21.18 96.83 20.20 C 94.58 19.55 93.23 21.92 91.61 23.00 Z" />
</g>
<g id="#fffffeff">
<path fill="#fffffe" opacity="1.00" d=" M 91.61 23.00 C 93.23 21.92 94.58 19.55 96.83 20.20 C 98.46 21.18 99.85 22.58 100.81 24.23 C 101.36 26.45 99.08 27.80 98.01 29.42 C 95.85 27.30 93.72 25.17 91.61 23.00 Z" />
<path fill="#fffffe" opacity="1.00" d=" M 55.35 59.70 C 66.75 48.23 78.13 36.74 89.60 25.34 C 90.11 25.91 91.12 27.05 91.63 27.62 C 80.71 38.37 69.97 49.30 59.10 60.12 C 59.57 60.59 60.52 61.54 60.99 62.01 C 71.84 51.15 82.65 40.26 93.49 29.39 C 94.19 30.11 94.90 30.82 95.61 31.54 C 87.86 39.31 80.06 47.02 72.39 54.87 C 68.81 58.52 65.18 62.11 61.58 65.73 C 59.50 65.74 57.41 65.75 55.33 65.77 C 55.34 63.74 55.35 61.72 55.35 59.70 Z" />
<path fill="#fffffe" opacity="1.00" d=" M 31.05 32.26 C 46.26 32.25 61.48 32.25 76.69 32.26 C 75.74 33.25 74.78 34.23 73.83 35.22 C 60.60 35.30 47.37 35.22 34.14 35.26 C 34.09 51.48 34.13 67.70 34.05 83.91 L 34.80 83.91 C 51.77 83.93 68.75 83.89 85.72 83.94 C 85.76 74.79 85.63 65.64 85.73 56.49 C 85.77 53.50 85.78 50.52 85.77 47.53 C 86.76 46.50 87.74 45.46 88.73 44.43 C 88.75 52.11 88.70 59.78 88.74 67.46 C 88.77 73.95 88.74 80.44 88.75 86.92 C 69.52 86.94 50.29 86.94 31.06 86.93 C 31.16 77.41 30.95 67.90 30.99 58.39 C 31.15 49.68 31.05 40.97 31.05 32.26 Z" />
</g>
<g id="#f1c10dff">
<path fill="#f1c10d" opacity="1.00" d=" M 61.58 65.73 C 65.18 62.11 68.81 58.52 72.39 54.87 C 76.71 56.17 81.22 56.67 85.73 56.49 C 85.63 65.64 85.76 74.79 85.72 83.94 C 68.75 83.89 51.77 83.93 34.80 83.91 C 34.51 75.43 34.90 66.94 35.50 58.48 C 42.14 58.60 48.94 57.34 55.35 59.70 C 55.35 61.72 55.34 63.74 55.33 65.77 C 57.41 65.75 59.50 65.74 61.58 65.73 Z" />
<path fill="#f1c10d" opacity="1.00" d=" M 0.31 57.35 C 10.47 58.85 20.76 58.76 30.99 58.39 C 30.95 67.90 31.16 77.41 31.06 86.93 C 50.29 86.94 69.52 86.94 88.75 86.92 C 88.74 80.44 88.77 73.95 88.74 67.46 C 93.52 66.99 98.33 66.16 103.14 66.75 C 108.65 67.38 114.18 67.00 119.71 66.96 C 119.64 76.29 120.05 85.64 119.44 94.95 C 118.89 103.11 114.72 111.20 107.59 115.46 C 100.60 119.98 91.94 119.77 83.94 119.81 C 65.31 119.71 46.66 120.00 28.03 119.66 C 19.53 119.61 10.60 116.31 5.60 109.14 C 1.23 103.40 0.27 95.95 0.28 88.95 C 0.21 78.42 0.29 67.88 0.31 57.35 Z" />
</g>
</svg>
