<?xml version="1.0" encoding="UTF-8" ?>
<!DOCTYPE svg PUBLIC "-//W3C//DTD SVG 1.1//EN" "http://www.w3.org/Graphics/SVG/1.1/DTD/svg11.dtd">
<svg width="512pt" height="512pt" viewBox="0 0 512 512" version="1.1" xmlns="http://www.w3.org/2000/svg">
<g id="#000000ff">
<path fill="#000000" opacity="1.00" d=" M 17.08 17.29 C 176.28 17.29 335.48 17.28 494.69 17.30 C 494.70 176.50 494.70 335.71 494.69 494.92 C 335.48 494.93 176.28 494.93 17.07 494.92 C 17.08 335.71 17.07 176.50 17.08 17.29 M 34.12 34.35 C 34.13 123.73 34.13 213.11 34.12 302.49 C 34.12 304.18 34.13 305.87 34.16 307.56 C 34.07 312.54 34.11 317.52 34.12 322.50 C 34.12 324.15 34.14 325.80 34.16 327.47 C 34.07 332.48 34.11 337.50 34.12 342.52 C 34.12 344.20 34.14 345.87 34.16 347.56 C 34.07 352.55 34.11 357.55 34.12 362.55 C 34.12 364.19 34.13 365.83 34.16 367.48 C 34.07 372.50 34.11 377.53 34.12 382.55 C 34.12 384.21 34.14 385.86 34.16 387.53 C 34.07 392.52 34.11 397.52 34.12 402.53 C 34.13 404.18 34.14 405.84 34.16 407.51 C 34.07 412.50 34.11 417.50 34.12 422.49 C 34.12 424.16 34.14 425.83 34.16 427.51 C 34.07 432.53 34.11 437.56 34.12 442.58 C 34.13 444.23 34.14 445.88 34.16 447.55 C 34.07 452.55 34.11 457.56 34.12 462.56 C 34.13 464.22 34.14 465.87 34.16 467.54 C 34.10 470.99 34.10 474.44 34.11 477.89 C 36.23 477.88 38.34 477.87 40.46 477.85 C 42.12 477.86 43.79 477.87 45.46 477.88 C 50.46 477.89 55.46 477.93 60.46 477.84 C 62.13 477.85 63.80 477.87 65.46 477.88 C 70.42 477.76 75.45 478.15 80.36 477.73 C 82.08 477.80 83.80 477.87 85.52 477.90 C 90.52 477.87 95.52 477.93 100.52 477.84 C 102.17 477.86 103.82 477.87 105.47 477.88 C 110.45 477.89 115.45 477.93 120.44 477.84 C 122.11 477.85 123.80 477.87 125.48 477.88 C 130.47 477.89 135.46 477.93 140.45 477.84 C 142.14 477.85 143.83 477.87 145.52 477.88 C 150.51 477.89 155.49 477.93 160.47 477.84 C 162.12 477.85 163.76 477.87 165.41 477.88 C 170.43 477.89 175.46 477.92 180.48 477.85 C 182.16 477.86 183.84 477.87 185.52 477.88 C 190.51 477.89 195.50 477.92 200.49 477.84 C 202.15 477.86 203.81 477.87 205.48 477.88 C 296.20 477.87 386.92 477.88 477.64 477.87 C 477.65 387.10 477.65 296.33 477.64 205.56 C 477.63 203.89 477.62 202.22 477.61 200.56 C 477.69 195.54 477.65 190.51 477.64 185.49 C 477.64 183.82 477.63 182.16 477.62 180.51 C 477.66 175.50 477.73 170.50 477.56 165.50 C 477.73 163.84 477.66 162.18 477.64 160.53 C 477.66 155.52 477.66 150.52 477.65 145.52 C 477.64 143.86 477.63 142.20 477.62 140.54 C 477.68 135.54 477.66 130.53 477.64 125.53 C 477.64 123.86 477.63 122.19 477.62 120.52 C 477.68 115.53 477.65 110.55 477.65 105.56 C 477.63 103.90 477.62 102.23 477.60 100.57 C 477.70 95.57 477.65 90.57 477.64 85.56 C 477.64 83.89 477.63 82.22 477.62 80.55 C 477.68 75.55 477.66 70.56 477.64 65.56 C 477.63 63.89 477.63 62.23 477.62 60.57 C 477.68 55.58 477.67 50.58 477.63 45.59 C 477.63 43.90 477.63 42.22 477.63 40.53 C 477.63 38.48 477.63 36.43 477.63 34.38 C 474.23 34.32 470.83 34.30 467.44 34.36 C 465.76 34.35 464.08 34.35 462.41 34.35 C 457.44 34.32 452.46 34.30 447.49 34.37 C 445.82 34.35 444.15 34.34 442.48 34.34 C 437.48 34.32 432.47 34.30 427.47 34.37 C 425.81 34.35 424.15 34.34 422.50 34.35 C 417.48 34.31 412.47 34.33 407.47 34.35 C 405.81 34.32 404.16 34.24 402.52 34.43 C 397.51 34.26 392.49 34.32 387.48 34.37 C 385.81 34.35 384.16 34.34 382.50 34.34 C 377.51 34.33 372.52 34.30 367.53 34.37 C 365.84 34.35 364.16 34.34 362.48 34.34 C 357.47 34.33 352.47 34.30 347.46 34.36 C 345.80 34.35 344.14 34.34 342.49 34.35 C 337.49 34.32 332.48 34.30 327.48 34.37 C 325.80 34.35 324.13 34.34 322.46 34.34 C 317.46 34.33 312.46 34.30 307.46 34.37 C 305.79 34.35 304.12 34.34 302.46 34.34 C 213.01 34.34 123.56 34.33 34.12 34.35 Z" />
</g>
<g id="#0404030f">
<path fill="#040403" opacity="0.06" d=" M 302.46 34.34 C 304.12 34.34 305.79 34.35 307.46 34.37 C 303.43 39.66 298.33 43.96 293.75 48.75 C 210.43 132.08 127.12 215.40 43.78 298.71 C 40.79 301.89 37.68 304.97 34.16 307.56 C 34.13 305.87 34.12 304.18 34.12 302.49 C 37.84 299.80 41.09 296.56 44.25 293.25 C 127.09 210.41 209.94 127.57 292.76 44.71 C 296.17 41.43 299.62 38.15 302.46 34.34 Z" />
<path fill="#040403" opacity="0.06" d=" M 322.46 34.34 C 324.13 34.34 325.80 34.35 327.48 34.37 C 326.11 36.02 324.74 37.68 323.26 39.25 C 230.11 132.41 136.93 225.55 43.79 318.73 C 40.82 321.89 37.69 324.92 34.16 327.47 C 34.14 325.80 34.12 324.15 34.12 322.50 C 35.88 321.14 37.65 319.79 39.26 318.27 C 130.23 227.20 221.31 136.25 312.28 45.20 C 315.87 41.76 319.41 38.27 322.46 34.34 Z" />
<path fill="#040403" opacity="0.06" d=" M 342.49 34.35 C 344.14 34.34 345.80 34.35 347.46 34.36 C 343.84 39.09 339.37 43.05 335.23 47.29 C 238.39 144.10 141.58 240.92 44.77 337.74 C 41.43 341.22 38.08 344.72 34.16 347.56 C 34.14 345.87 34.12 344.20 34.12 342.52 C 38.08 339.75 41.39 336.23 44.73 332.78 C 142.71 234.77 240.69 136.76 338.72 38.79 C 340.03 37.36 341.26 35.85 342.49 34.35 Z" />
<path fill="#040403" opacity="0.06" d=" M 362.48 34.34 C 364.16 34.34 365.84 34.35 367.53 34.37 C 366.30 35.85 365.09 37.35 363.78 38.76 C 259.24 143.22 154.79 247.76 50.27 352.23 C 44.91 357.33 40.21 363.15 34.16 367.48 C 34.13 365.83 34.12 364.19 34.12 362.55 C 39.28 358.94 43.29 354.05 47.77 349.70 C 148.77 248.75 249.73 147.75 350.72 46.78 C 354.73 42.72 358.99 38.88 362.48 34.34 Z" />
<path fill="#040403" opacity="0.06" d=" M 382.50 34.34 C 384.16 34.34 385.81 34.35 387.48 34.37 C 383.92 39.12 379.39 42.98 375.27 47.21 C 269.79 152.76 164.25 258.24 58.75 363.76 C 52.98 369.68 46.93 375.32 41.26 381.34 C 39.11 383.63 36.66 385.63 34.16 387.53 C 34.14 385.86 34.12 384.21 34.12 382.55 C 36.46 380.76 38.75 378.92 40.80 376.80 C 47.01 370.35 53.43 364.11 59.74 357.76 C 162.57 254.91 265.44 152.09 368.25 49.22 C 373.01 44.27 378.29 39.80 382.50 34.34 Z" />
<path fill="#040403" opacity="0.06" d=" M 402.52 34.43 C 404.16 34.24 405.81 34.32 407.47 34.35 C 404.56 38.10 401.16 41.42 397.77 44.73 C 278.10 164.41 158.41 284.08 38.75 403.76 C 37.29 405.10 35.72 406.29 34.16 407.51 C 34.14 405.84 34.13 404.18 34.12 402.53 C 39.25 398.91 43.28 394.06 47.77 389.73 C 164.58 272.90 281.43 156.09 398.23 39.25 C 399.69 37.67 401.06 36.01 402.52 34.43 Z" />
<path fill="#040403" opacity="0.06" d=" M 422.50 34.35 C 424.15 34.34 425.81 34.35 427.47 34.37 C 422.96 40.19 417.29 44.92 412.26 50.26 C 289.58 172.89 166.98 295.58 44.29 418.19 C 41.15 421.54 37.89 424.80 34.16 427.51 C 34.14 425.83 34.12 424.16 34.12 422.49 C 37.84 419.80 41.08 416.55 44.24 413.25 C 167.41 290.10 290.55 166.92 413.73 43.78 C 416.85 40.83 419.88 37.77 422.50 34.35 Z" />
<path fill="#040403" opacity="0.06" d=" M 442.48 34.34 C 444.15 34.34 445.82 34.35 447.49 34.37 C 443.42 39.64 438.32 43.96 433.74 48.76 C 306.08 176.42 178.42 304.09 50.76 431.75 C 45.22 437.01 40.30 442.95 34.16 447.55 C 34.14 445.88 34.13 444.23 34.12 442.58 C 39.22 438.89 43.26 434.03 47.77 429.70 C 176.28 301.22 304.77 172.71 433.28 44.23 C 436.53 41.12 439.71 37.91 442.48 34.34 Z" />
<path fill="#040403" opacity="0.06" d=" M 462.41 34.35 C 464.08 34.35 465.76 34.35 467.44 34.36 C 464.14 38.70 460.15 42.43 456.28 46.24 C 319.10 183.39 181.96 320.58 44.78 457.73 C 41.42 461.19 38.05 464.66 34.16 467.54 C 34.14 465.87 34.13 464.22 34.12 462.56 C 39.57 458.62 43.85 453.39 48.72 448.79 C 182.20 315.28 315.70 181.79 449.20 48.29 C 453.67 43.71 458.53 39.47 462.41 34.35 Z" />
<path fill="#040403" opacity="0.06" d=" M 461.77 55.73 C 467.11 50.72 471.75 44.96 477.63 40.53 C 477.63 42.22 477.63 43.90 477.63 45.59 C 472.29 49.56 468.04 54.72 463.24 59.28 C 327.06 195.43 190.91 331.60 54.74 467.75 C 51.39 470.88 48.12 474.12 45.46 477.88 C 43.79 477.87 42.12 477.86 40.46 477.85 C 44.45 472.44 49.59 468.06 54.24 463.24 C 190.09 327.42 325.92 191.57 461.77 55.73 Z" />
<path fill="#040403" opacity="0.06" d=" M 462.73 74.75 C 467.64 69.96 472.16 64.75 477.62 60.57 C 477.63 62.23 477.63 63.89 477.64 65.56 C 472.35 69.61 467.99 74.68 463.23 79.30 C 334.71 207.74 206.28 336.27 77.77 464.72 C 73.58 469.03 68.97 472.96 65.46 477.88 C 63.80 477.87 62.13 477.85 60.46 477.84 C 63.00 474.30 66.08 471.23 69.24 468.27 C 200.39 337.08 331.58 205.93 462.73 74.75 Z" />
<path fill="#040403" opacity="0.06" d=" M 464.75 92.74 C 468.96 88.59 472.91 84.15 477.62 80.55 C 477.63 82.22 477.64 83.89 477.64 85.56 C 473.47 88.73 469.88 92.54 466.23 96.27 C 342.10 220.46 217.90 344.57 93.76 468.75 C 90.75 471.55 87.92 474.55 85.52 477.90 C 83.80 477.87 82.08 477.80 80.36 477.73 C 83.56 473.84 87.06 470.22 90.72 466.77 C 215.41 342.11 340.08 217.42 464.75 92.74 Z" />
<path fill="#040403" opacity="0.06" d=" M 466.72 110.79 C 470.20 107.23 473.59 103.55 477.60 100.57 C 477.62 102.23 477.63 103.90 477.65 105.56 C 472.34 109.59 468.01 114.67 463.23 119.27 C 346.74 235.78 230.22 352.26 113.74 468.77 C 110.74 471.57 107.88 474.54 105.47 477.88 C 103.82 477.87 102.17 477.86 100.52 477.84 C 103.05 474.31 106.09 471.20 109.25 468.24 C 228.41 349.09 347.55 229.92 466.72 110.79 Z" />
<path fill="#040403" opacity="0.06" d=" M 467.25 130.23 C 470.55 126.83 473.89 123.46 477.62 120.52 C 477.63 122.19 477.64 123.86 477.64 125.53 C 472.53 129.40 468.38 134.31 463.78 138.74 C 355.45 247.06 247.12 355.38 138.79 463.71 C 134.34 468.42 129.17 472.48 125.48 477.88 C 123.80 477.87 122.11 477.85 120.44 477.84 C 123.83 473.14 128.21 469.34 132.25 465.23 C 243.94 353.59 355.58 241.89 467.25 130.23 Z" />
<path fill="#040403" opacity="0.06" d=" M 466.76 150.72 C 470.21 147.15 473.68 143.58 477.62 140.54 C 477.63 142.20 477.64 143.86 477.65 145.52 C 472.57 149.47 468.28 154.29 463.70 158.79 C 360.75 261.77 257.75 364.73 154.79 467.71 C 151.47 470.88 148.17 474.10 145.52 477.88 C 143.83 477.87 142.14 477.85 140.45 477.84 C 144.22 472.53 149.33 468.44 153.77 463.74 C 258.08 359.38 362.45 255.08 466.76 150.72 Z" />
<path fill="#040403" opacity="0.06" d=" M 468.76 168.72 C 471.55 165.82 474.47 163.03 477.64 160.53 C 477.66 162.18 477.73 163.84 477.56 165.50 C 471.89 170.17 467.00 175.66 461.74 180.76 C 364.23 278.24 266.78 375.78 169.24 473.23 C 167.88 474.70 166.65 476.29 165.41 477.88 C 163.76 477.87 162.12 477.85 160.47 477.84 C 161.68 476.29 162.87 474.74 164.19 473.29 C 265.72 371.78 367.24 270.25 468.76 168.72 Z" />
<path fill="#040403" opacity="0.06" d=" M 452.24 205.26 C 460.75 197.06 468.59 188.14 477.62 180.51 C 477.63 182.16 477.64 183.82 477.64 185.49 C 468.77 192.96 461.10 201.72 452.75 209.75 C 368.76 293.75 284.77 377.76 200.76 461.74 C 195.69 467.13 189.85 471.83 185.52 477.88 C 183.84 477.87 182.16 477.86 180.48 477.85 C 183.30 473.93 186.75 470.55 190.24 467.24 C 277.60 379.94 364.89 292.57 452.24 205.26 Z" />
<path fill="#040403" opacity="0.06" d=" M 468.75 208.74 C 471.51 205.82 474.44 203.04 477.61 200.56 C 477.62 202.22 477.63 203.89 477.64 205.56 C 474.24 208.15 471.19 211.14 468.26 214.23 C 382.09 300.41 295.93 386.60 209.73 472.74 C 208.20 474.36 206.84 476.12 205.48 477.88 C 203.81 477.87 202.15 477.86 200.49 477.84 C 203.44 473.71 207.15 470.24 210.78 466.73 C 296.75 380.72 382.76 294.74 468.75 208.74 Z" />
</g>
</svg>
