<?xml version="1.0" encoding="UTF-8" ?>
<!DOCTYPE svg PUBLIC "-//W3C//DTD SVG 1.1//EN" "http://www.w3.org/Graphics/SVG/1.1/DTD/svg11.dtd">
<svg width="200pt" height="200pt" viewBox="0 0 200 200" version="1.1" xmlns="http://www.w3.org/2000/svg">
<g id="#000000ff">
<path fill="#000000" opacity="1.00" d=" M 23.87 26.14 C 23.73 24.22 26.21 23.07 27.46 24.63 C 51.31 48.37 75.07 72.22 98.88 96.01 C 99.64 97.01 100.41 96.99 101.18 95.95 C 124.78 72.32 148.43 48.73 172.02 25.09 C 172.82 24.18 174.61 23.17 175.48 24.56 C 176.70 25.61 175.81 27.05 174.90 27.92 C 151.26 51.54 127.67 75.21 104.03 98.83 C 103.01 99.60 103.01 100.39 104.05 101.19 C 127.82 124.96 151.64 148.70 175.35 172.53 C 177.43 174.23 174.32 177.36 172.59 175.35 C 148.36 151.24 124.24 127.02 100.06 102.87 C 75.71 126.90 51.70 151.28 27.39 175.35 C 25.60 177.46 22.49 174.13 24.70 172.47 C 48.42 148.65 72.23 124.90 96.01 101.13 C 97.01 100.33 96.98 99.55 95.92 98.78 C 73.28 76.16 50.67 53.49 28.04 30.86 C 26.60 29.34 24.80 28.06 23.87 26.14 Z" />
</g>
</svg>
