<?xml version="1.0" encoding="UTF-8" ?>
<!DOCTYPE svg PUBLIC "-//W3C//DTD SVG 1.1//EN" "http://www.w3.org/Graphics/SVG/1.1/DTD/svg11.dtd">
<svg width="512pt" height="512pt" viewBox="0 0 512 512" version="1.1" xmlns="http://www.w3.org/2000/svg">
<g id="#000000ff">
<path fill="#000000" opacity="1.00" d=" M 118.00 0.00 L 512.00 0.00 L 512.00 394.00 C 472.67 394.00 433.34 393.99 394.00 394.00 C 393.99 433.34 394.00 472.67 394.00 512.00 L 0.00 512.00 L 0.00 118.00 C 39.33 118.00 78.66 118.01 118.00 117.99 C 118.01 78.66 118.00 39.33 118.00 0.00 M 140.00 21.00 C 140.00 53.33 140.00 85.67 140.00 118.00 C 224.67 118.01 309.33 117.99 394.00 118.00 C 394.01 202.67 393.99 287.33 394.00 372.00 C 426.33 372.00 458.66 372.00 491.00 372.00 C 491.00 255.00 491.00 138.00 491.00 21.00 C 374.00 21.00 257.00 21.00 140.00 21.00 M 21.00 140.00 C 21.00 257.00 21.00 374.00 21.00 491.00 C 138.00 491.00 255.00 491.00 372.00 491.00 C 372.00 374.00 372.00 257.00 372.00 140.00 C 255.00 140.00 138.00 140.00 21.00 140.00 Z" />
</g>
</svg>
