<?xml version="1.0" encoding="UTF-8"?>
<svg xmlns="http://www.w3.org/2000/svg" width="512pt" height="512pt" viewBox="0 0 512 512" version="1.1"><path d=" M 241.13 11.88 C 256.24 5.37 272.69 2.70 288.98 1.30 C 317.45 0.79 345.93 1.15 374.40 1.12 C 374.67 31.03 374.90 60.95 375.00 90.86 C 355.65 91.02 336.30 90.51 316.97 91.18 C 310.66 91.59 302.76 92.03 299.25 98.20 C 295.09 106.44 296.68 116.02 295.92 124.91 C 295.83 139.17 295.70 153.43 295.47 167.69 C 322.01 167.75 348.55 167.69 375.09 167.72 C 372.05 193.40 370.59 219.24 367.84 244.96 C 367.46 247.76 367.62 250.70 366.56 253.38 C 359.41 254.29 352.20 254.26 345.01 254.33 C 328.54 254.44 312.08 254.35 295.62 254.39 C 295.46 339.90 295.23 425.42 295.10 510.94 C 260.69 511.02 226.27 511.09 191.87 510.90 C 191.92 506.93 191.80 502.96 191.96 499.00 C 191.64 417.87 191.55 336.74 191.40 255.60 C 173.60 255.60 155.81 255.60 138.01 255.60 C 137.99 226.31 138.00 197.01 138.00 167.71 C 155.78 167.71 173.56 167.72 191.35 167.70 C 191.43 140.80 191.00 113.86 192.39 86.98 C 193.39 74.72 196.01 62.49 200.96 51.19 C 208.73 33.61 223.53 19.46 241.13 11.88 Z" fill="#fff"/></svg>
