<?xml version="1.0" encoding="UTF-8" ?>
<!DOCTYPE svg PUBLIC "-//W3C//DTD SVG 1.1//EN" "http://www.w3.org/Graphics/SVG/1.1/DTD/svg11.dtd">
<svg width="800pt" height="800pt" viewBox="0 0 800 800" version="1.1" xmlns="http://www.w3.org/2000/svg">
<g id="#000000fe">
<path fill="#000000" opacity="1.00" d=" M 95.24 95.23 C 158.82 95.24 222.40 95.19 285.97 95.26 C 294.77 95.05 302.55 103.27 301.75 112.05 C 301.45 120.13 294.16 127.06 286.08 126.96 C 233.05 127.05 180.01 126.97 126.98 127.01 C 126.97 179.66 126.97 232.32 126.98 284.97 C 127.22 290.46 124.62 296.03 119.99 299.06 C 114.92 302.56 107.78 302.70 102.61 299.32 C 97.82 296.34 95.02 290.71 95.24 285.11 C 95.24 221.82 95.23 158.53 95.24 95.23 Z" />
<path fill="#000000" opacity="1.00" d=" M 492.00 111.05 C 491.82 102.55 499.48 94.98 507.98 95.24 C 571.43 95.18 634.87 95.29 698.32 95.19 C 698.53 158.78 698.37 222.38 698.40 285.97 C 698.58 294.27 691.28 301.68 683.03 301.82 C 674.44 302.24 666.48 294.61 666.69 285.98 C 666.67 233.00 666.67 180.01 666.69 127.02 C 613.77 126.97 560.85 127.02 507.94 126.99 C 499.42 127.22 491.76 119.58 492.00 111.05 Z" />
<path fill="#000000" opacity="1.00" d=" M 95.24 523.93 C 94.92 516.12 101.19 508.81 108.93 507.86 C 115.81 506.76 123.02 510.87 125.68 517.29 C 127.38 520.97 126.93 525.09 126.98 529.02 C 126.97 580.19 126.97 631.35 126.98 682.51 C 179.97 682.57 232.96 682.48 285.95 682.55 C 291.95 682.52 297.71 686.25 300.22 691.69 C 303.12 697.65 301.69 705.35 296.81 709.86 C 293.71 712.93 289.30 714.42 284.97 714.31 C 221.73 714.31 158.49 714.31 95.24 714.30 C 95.23 650.84 95.23 587.39 95.24 523.93 Z" />
<path fill="#000000" opacity="1.00" d=" M 666.71 523.04 C 666.73 513.86 676.00 506.16 685.04 507.90 C 692.72 509.00 698.75 516.30 698.41 524.05 C 698.41 587.46 698.42 650.88 698.40 714.30 C 635.93 714.33 573.46 714.28 510.98 714.32 C 506.23 714.54 501.14 713.80 497.47 710.51 C 491.37 705.57 490.08 695.94 494.58 689.53 C 497.52 685.16 502.69 682.47 507.96 682.54 C 560.86 682.50 613.76 682.54 666.66 682.53 C 666.72 629.37 666.63 576.20 666.71 523.04 Z" />
</g>
</svg>
