<svg width="225pt" height="225pt" viewBox="0 0 225 225" version="1.1" xmlns="http://www.w3.org/2000/svg">
<path fill="#fff" d=" M 112.41 0.00 L 117.71 0.00 C 138.52 0.65 159.15 6.89 176.46 18.52 C 180.97 21.37 185.08 24.77 189.25 28.08 C 178.44 39.07 167.44 49.88 156.57 60.81 C 144.91 51.39 130.05 45.92 115.02 46.02 C 98.20 45.95 81.45 52.57 69.31 64.22 C 61.31 71.70 55.37 81.23 51.83 91.56 C 39.17 82.01 26.64 72.29 14.01 62.70 C 20.76 49.04 30.26 36.71 41.92 26.87 C 61.40 10.08 86.78 0.76 112.41 0.00 Z" />
<path fill="#fff" d=" M 14.01 62.70 C 26.64 72.29 39.17 82.01 51.83 91.56 C 47.35 105.03 47.40 119.80 51.74 133.30 C 51.30 133.67 50.42 134.40 49.99 134.77 C 38.00 143.94 26.03 153.15 13.97 162.23 C -1.33 131.39 -1.32 93.53 14.01 62.70 Z" />
<path fill="#fff" d=" M 115.10 92.10 C 150.06 92.05 185.01 92.10 219.97 92.08 C 223.36 105.42 223.00 119.40 221.08 132.94 C 217.59 157.08 206.45 180.41 188.37 197.00 C 176.43 187.69 164.35 178.55 152.47 169.17 C 164.42 161.74 172.80 149.26 175.56 135.50 C 155.38 135.44 135.20 135.51 115.02 135.47 C 115.16 121.01 115.01 106.56 115.10 92.10 Z" />
<path fill="#fff" d=" M 49.99 134.77 C 50.44 134.44 51.36 133.77 51.82 133.44 C 55.25 143.29 60.76 152.46 68.25 159.76 C 80.23 171.76 96.99 178.77 113.94 178.98 C 127.32 179.18 141.01 176.29 152.47 169.17 C 164.35 178.55 176.43 187.69 188.37 197.00 C 169.84 214.36 144.79 223.78 119.58 225.00 L 112.41 225.00 C 98.72 224.40 85.05 221.90 72.36 216.62 C 47.10 206.47 25.91 186.70 13.97 162.23 C 26.03 153.15 38.00 143.94 49.99 134.77 Z" />
</svg>
