<?xml version="1.0" encoding="UTF-8" ?>
<!DOCTYPE svg PUBLIC "-//W3C//DTD SVG 1.1//EN" "http://www.w3.org/Graphics/SVG/1.1/DTD/svg11.dtd">
<svg width="100pt" height="103pt" viewBox="0 0 100 103" version="1.1" xmlns="http://www.w3.org/2000/svg">
<g id="#5b5b5bff">
<path fill="#5b5b5b" opacity="1.00" d=" M 20.19 31.19 C 30.20 21.42 39.97 11.42 49.96 1.63 C 59.19 10.53 68.13 19.74 77.28 28.72 C 84.77 36.28 93.25 43.29 97.90 53.12 C 96.75 54.14 95.60 55.16 94.46 56.19 C 91.94 55.67 89.47 55.15 86.98 54.54 C 86.80 67.18 87.72 79.89 86.62 92.50 C 87.50 97.61 83.13 101.18 78.59 101.45 C 62.09 102.64 45.51 102.01 28.97 102.07 C 24.18 101.95 17.46 102.28 14.48 97.59 C 11.76 83.38 13.32 68.78 13.00 54.41 C 10.48 55.01 7.95 55.54 5.41 56.09 C 4.31 55.10 3.20 54.11 2.08 53.12 C 6.31 44.48 13.45 37.86 20.19 31.19 M 24.65 41.68 C 21.99 44.42 21.48 48.28 21.93 51.96 C 21.74 65.30 22.03 78.65 22.02 92.00 C 40.68 92.00 59.33 92.00 77.98 92.00 C 77.86 76.42 78.67 60.81 77.54 45.25 C 70.58 33.57 59.12 25.48 49.95 15.64 C 41.47 24.27 32.24 32.23 24.65 41.68 Z" />
</g>
</svg>
