<?xml version="1.0" encoding="UTF-8" ?>
<!DOCTYPE svg PUBLIC "-//W3C//DTD SVG 1.1//EN" "http://www.w3.org/Graphics/SVG/1.1/DTD/svg11.dtd">
<svg width="200pt" height="200pt" viewBox="0 0 200 200" version="1.1" xmlns="http://www.w3.org/2000/svg">
<g id="#000000ff">
<path fill="#000000" opacity="1.00" d=" M 88.19 31.16 C 92.79 26.52 101.05 26.72 105.58 31.37 C 108.05 33.64 109.06 36.92 109.69 40.11 C 125.43 45.51 136.77 61.37 136.58 78.03 C 136.10 96.87 137.05 116.42 145.17 133.76 C 148.87 141.92 154.18 149.24 160.36 155.69 C 162.71 157.48 161.01 161.59 158.07 161.19 C 142.89 161.27 127.70 161.20 112.51 161.21 C 111.30 169.67 103.95 178.00 94.96 177.68 C 86.70 176.81 80.27 169.19 79.13 161.23 C 64.09 161.19 49.06 161.26 34.02 161.20 C 32.33 161.50 29.83 160.16 30.48 158.18 C 33.24 154.71 36.62 151.76 39.23 148.14 C 51.44 132.49 56.90 112.59 57.97 93.01 C 58.77 83.76 57.28 74.22 60.27 65.26 C 63.66 53.70 72.71 44.09 84.06 40.06 C 84.65 36.81 85.66 33.46 88.19 31.16 M 90.55 36.65 C 88.55 38.98 89.27 42.22 89.20 45.02 C 82.33 46.94 75.91 50.81 71.64 56.61 C 66.27 63.51 64.22 72.45 64.56 81.08 C 64.71 107.36 57.64 134.55 40.45 154.95 C 77.36 154.96 114.27 154.95 151.18 154.95 C 137.09 138.44 130.93 116.58 130.34 95.18 C 129.61 86.17 131.35 76.88 128.60 68.11 C 125.44 57.87 117.20 49.30 106.97 45.99 C 105.66 45.41 103.93 45.22 103.17 43.83 C 102.67 41.40 103.24 38.56 101.41 36.59 C 98.83 33.14 93.08 33.17 90.55 36.65 M 85.50 161.23 C 87.91 165.41 90.61 170.99 96.03 171.46 C 101.21 170.62 103.79 165.34 106.15 161.23 C 99.27 161.19 92.38 161.19 85.50 161.23 Z" />
</g>
</svg>
