<?xml version="1.0" encoding="UTF-8" ?>
<!DOCTYPE svg PUBLIC "-//W3C//DTD SVG 1.1//EN" "http://www.w3.org/Graphics/SVG/1.1/DTD/svg11.dtd">
<svg width="980pt" height="980pt" viewBox="0 0 980 980" version="1.1" xmlns="http://www.w3.org/2000/svg">
<g id="#ffffffff">
</g>
<g id="#000000ff">
<path fill="#000000" opacity="1.00" d=" M 467.67 0.00 L 513.06 0.00 C 516.28 2.05 520.34 0.01 523.64 1.79 C 525.63 1.97 527.68 1.96 529.60 2.65 C 530.90 2.97 532.23 3.26 533.54 3.61 C 534.48 3.96 535.41 4.32 536.35 4.70 C 538.40 5.61 540.51 6.39 542.61 7.21 C 545.33 8.56 547.83 10.29 550.50 11.72 C 552.25 12.86 553.85 14.23 555.64 15.32 C 560.15 19.50 564.46 23.92 568.73 28.35 C 569.54 29.80 570.45 31.20 571.29 32.64 C 571.64 33.07 572.34 33.93 572.69 34.36 C 573.51 35.77 574.43 37.12 575.29 38.51 C 575.94 39.87 576.60 41.21 577.29 42.55 C 578.14 44.12 578.83 45.78 579.30 47.50 C 580.57 49.60 581.17 51.94 581.26 54.38 C 582.61 56.98 581.30 60.13 582.87 62.65 C 583.66 68.27 581.85 74.29 583.87 79.65 C 584.27 90.40 583.73 101.17 584.12 111.92 C 584.31 112.35 584.69 113.22 584.88 113.65 C 585.18 116.96 584.50 120.40 585.64 123.59 C 585.98 125.31 586.49 126.98 587.17 128.60 C 588.73 132.24 591.29 135.23 594.34 137.71 C 596.38 138.95 598.39 140.27 600.56 141.30 C 602.18 142.09 603.80 142.90 605.43 143.72 C 606.77 144.37 608.11 145.05 609.42 145.78 C 611.06 146.46 612.73 147.07 614.38 147.75 C 615.73 148.33 617.10 148.89 618.54 149.24 C 619.53 149.77 620.52 150.33 621.50 150.89 C 621.99 150.95 622.97 151.07 623.46 151.13 C 625.94 152.73 628.89 153.31 631.47 154.70 C 631.98 154.96 632.98 155.48 633.48 155.74 C 634.43 156.03 635.38 156.34 636.34 156.67 C 638.00 157.46 639.74 158.11 641.50 158.70 C 642.44 159.01 643.39 159.34 644.34 159.70 C 645.69 160.30 647.07 160.86 648.50 161.30 C 650.45 162.25 652.49 163.04 654.54 163.80 C 655.01 163.90 655.97 164.11 656.44 164.21 C 657.44 164.61 658.44 164.99 659.46 165.35 C 660.46 165.68 661.46 165.99 662.48 166.30 C 663.46 166.67 664.45 167.04 665.45 167.40 C 667.72 168.28 670.25 168.26 672.54 167.42 C 673.89 166.90 675.23 166.34 676.59 165.79 C 677.54 165.28 678.51 164.77 679.48 164.28 C 680.85 163.44 682.18 162.52 683.55 161.65 C 684.55 160.97 685.57 160.31 686.63 159.69 C 687.87 158.57 689.10 157.43 690.38 156.34 C 694.67 153.78 697.49 149.44 701.36 146.33 C 702.38 145.75 703.38 145.11 704.24 144.28 C 710.30 138.32 716.14 132.12 722.36 126.33 C 724.70 125.12 726.41 123.06 728.35 121.33 C 729.82 120.51 731.12 119.43 732.40 118.33 C 733.78 117.46 735.13 116.55 736.53 115.70 C 738.57 114.72 740.58 113.70 742.59 112.65 C 743.54 112.32 744.51 112.00 745.48 111.69 C 746.46 111.32 747.46 110.96 748.46 110.62 C 749.76 110.27 751.08 109.97 752.41 109.66 C 754.00 109.09 755.70 108.96 757.38 108.72 C 761.39 107.23 765.80 108.30 769.99 108.01 C 774.17 108.31 778.60 107.21 782.62 108.73 C 784.28 108.96 785.97 109.13 787.59 109.64 C 788.90 109.97 790.22 110.27 791.53 110.63 C 792.52 110.97 793.52 111.33 794.52 111.69 C 795.51 112.00 796.50 112.32 797.51 112.65 C 799.93 113.38 802.19 114.53 804.43 115.71 C 806.59 116.72 808.60 118.01 810.59 119.33 C 811.86 120.42 813.17 121.50 814.65 122.32 C 816.99 124.30 818.86 126.90 821.65 128.33 C 830.70 136.93 839.32 145.99 848.25 154.72 C 849.78 156.20 851.35 157.72 852.32 159.65 C 854.06 161.59 855.93 163.40 857.67 165.35 C 858.49 166.83 859.57 168.13 860.67 169.41 C 861.53 170.80 862.44 172.15 863.31 173.54 C 864.42 175.90 865.57 178.24 866.86 180.51 C 866.93 181.00 867.07 181.97 867.14 182.45 C 868.59 184.58 869.05 187.13 869.72 189.57 C 869.87 190.03 870.16 190.94 870.31 191.40 C 870.88 193.00 871.03 194.70 871.28 196.37 C 872.77 200.39 871.70 204.80 871.99 208.98 C 871.69 213.17 872.77 217.60 871.28 221.62 C 871.03 223.29 870.86 224.98 870.35 226.59 C 870.02 227.91 869.72 229.23 869.38 230.54 C 869.03 231.53 868.67 232.52 868.30 233.50 C 867.98 234.50 867.66 235.50 867.35 236.51 C 866.85 238.23 866.11 239.88 865.27 241.46 C 865.04 241.97 864.57 243.00 864.34 243.51 C 863.69 244.50 863.00 245.46 862.32 246.42 C 861.45 247.83 860.53 249.21 859.72 250.66 C 857.93 252.57 856.06 254.40 854.33 256.35 C 849.12 263.94 840.88 269.06 835.67 276.65 C 832.72 280.04 829.27 282.96 826.33 286.36 C 824.94 289.17 822.07 290.84 820.65 293.62 C 819.87 294.54 819.08 295.45 818.30 296.37 C 817.46 297.77 816.56 299.13 815.73 300.53 C 815.22 301.49 814.71 302.45 814.20 303.42 C 813.64 304.76 813.09 306.10 812.57 307.46 C 811.75 309.74 811.70 312.27 812.60 314.54 C 812.95 315.53 813.32 316.52 813.70 317.52 C 813.99 318.52 814.31 319.53 814.65 320.53 C 815.00 321.54 815.37 322.55 815.78 323.55 C 815.89 324.02 816.12 324.96 816.24 325.43 C 816.59 326.45 816.95 327.48 817.29 328.51 C 818.24 330.40 818.99 332.39 819.74 334.38 C 820.73 336.75 821.54 339.20 822.71 341.50 C 823.01 342.45 823.33 343.40 823.68 344.35 C 824.42 346.00 825.08 347.69 825.74 349.38 C 826.43 351.03 827.07 352.71 827.74 354.38 C 828.61 356.44 829.38 358.55 830.27 360.62 C 830.93 362.27 831.53 363.94 832.18 365.61 C 832.74 366.57 833.32 367.53 833.91 368.49 C 833.96 368.98 834.07 369.97 834.12 370.47 C 834.88 371.81 835.59 373.18 836.29 374.56 C 836.95 375.89 837.60 377.22 838.27 378.57 C 838.74 379.53 839.23 380.50 839.72 381.47 C 840.56 382.86 841.47 384.22 842.28 385.64 C 844.37 387.97 846.50 390.39 849.36 391.80 C 851.61 392.89 853.90 393.97 856.41 394.36 C 859.35 395.69 862.83 394.17 865.65 395.87 C 875.07 396.27 884.51 395.73 893.93 396.12 C 894.36 396.31 895.22 396.68 895.65 396.87 C 901.09 397.15 906.55 396.95 912.00 396.97 C 913.57 397.00 915.28 396.86 916.64 397.86 C 918.86 397.98 921.10 398.01 923.35 398.16 C 925.30 399.00 927.47 399.08 929.53 399.60 C 930.52 399.94 931.52 400.30 932.52 400.67 C 933.54 401.03 934.55 401.40 935.58 401.81 C 936.05 401.88 936.99 402.03 937.47 402.11 C 938.44 402.88 939.44 403.65 940.48 404.39 C 941.01 404.59 942.07 404.99 942.60 405.19 C 944.28 406.21 945.93 407.30 947.63 408.31 C 948.53 409.09 949.44 409.88 950.38 410.65 C 953.12 412.12 954.91 414.82 957.57 416.43 C 959.49 419.46 962.35 421.67 964.71 424.34 C 965.30 425.40 965.95 426.44 966.63 427.48 C 967.28 428.47 967.96 429.45 968.66 430.43 C 969.51 431.81 970.44 433.14 971.30 434.52 C 972.09 436.18 972.90 437.83 973.74 439.47 C 974.02 440.43 974.33 441.39 974.67 442.35 C 975.28 443.70 975.88 445.07 976.41 446.47 C 976.74 447.77 977.01 449.09 977.35 450.41 C 978.05 452.31 978.01 454.36 978.20 456.37 C 980.24 459.84 977.62 464.34 980.00 467.67 L 980.00 516.06 C 978.51 518.58 979.13 521.57 978.84 524.34 C 978.00 526.31 977.89 528.47 977.40 530.54 C 977.04 531.53 976.67 532.52 976.30 533.52 C 975.98 534.51 975.66 535.50 975.35 536.50 C 974.83 538.22 974.12 539.87 973.29 541.46 C 972.26 543.44 971.28 545.45 970.30 547.46 C 969.43 548.85 968.52 550.21 967.70 551.63 C 966.90 552.54 966.11 553.45 965.35 554.38 C 962.19 559.10 957.63 562.68 953.65 566.67 C 952.16 567.49 950.86 568.57 949.59 569.67 C 947.93 570.72 946.29 571.80 944.58 572.73 C 942.89 573.71 941.28 574.80 939.61 575.79 C 938.53 576.25 937.47 576.76 936.43 577.27 C 934.16 578.51 931.69 579.27 929.34 580.28 C 928.40 580.67 927.47 581.05 926.55 581.43 C 924.63 582.00 922.61 582.02 920.64 582.21 C 916.16 584.36 910.76 581.57 906.36 583.88 C 897.56 584.27 888.74 583.71 879.95 584.13 C 879.55 584.32 878.76 584.69 878.36 584.88 C 872.60 585.25 866.81 584.72 861.06 585.12 C 860.64 585.30 859.78 585.66 859.35 585.84 C 857.03 586.07 854.54 585.65 852.40 586.75 C 851.94 586.85 851.02 587.05 850.56 587.15 C 849.50 587.90 848.45 588.64 847.35 589.32 C 844.29 592.22 841.04 594.99 838.61 598.45 C 837.88 600.10 837.16 601.77 836.74 603.54 C 835.90 605.22 835.04 606.89 834.12 608.52 C 834.07 609.02 833.97 610.02 833.93 610.52 C 833.30 611.50 832.68 612.48 832.08 613.48 C 832.03 613.97 831.93 614.96 831.88 615.46 C 830.86 617.00 830.11 618.71 829.75 620.53 C 829.24 621.50 828.75 622.48 828.26 623.47 C 827.86 624.86 827.35 626.22 826.81 627.58 C 825.81 629.08 825.11 630.76 824.75 632.54 C 824.48 633.04 823.94 634.05 823.67 634.56 C 823.19 635.85 822.78 637.18 822.34 638.49 C 821.87 639.89 821.31 641.25 820.75 642.62 C 820.00 644.61 819.24 646.60 818.26 648.49 C 817.98 649.47 817.69 650.46 817.41 651.46 C 817.08 651.96 816.43 652.97 816.10 653.48 C 816.03 653.97 815.88 654.96 815.81 655.46 C 815.27 656.78 814.80 658.14 814.30 659.49 C 813.95 660.51 813.60 661.54 813.25 662.56 C 813.12 663.02 812.85 663.95 812.72 664.41 C 811.53 666.93 811.75 669.91 812.57 672.52 C 813.18 674.20 813.88 675.84 814.67 677.46 C 815.74 679.58 817.01 681.60 818.33 683.59 C 819.42 684.86 820.50 686.16 821.33 687.64 C 823.05 689.59 824.93 691.40 826.67 693.35 C 830.46 699.07 836.29 703.09 840.68 708.35 C 843.94 713.89 850.05 717.10 853.33 722.64 C 854.75 724.23 856.24 725.76 857.67 727.36 C 858.50 728.82 859.56 730.12 860.65 731.42 C 861.29 732.43 861.96 733.43 862.66 734.44 C 863.51 735.80 864.43 737.13 865.28 738.51 C 865.76 739.47 866.26 740.43 866.79 741.40 C 867.48 743.07 868.09 744.78 868.69 746.51 C 869.01 747.52 869.37 748.54 869.76 749.56 C 869.89 750.02 870.16 750.94 870.29 751.40 C 871.14 753.27 870.98 755.36 871.20 757.36 C 872.88 760.22 871.07 763.82 872.87 766.64 C 872.89 769.29 873.62 772.24 872.14 774.65 C 872.01 776.88 871.98 779.11 871.84 781.35 C 870.94 783.30 870.91 785.48 870.42 787.54 C 870.04 788.54 869.66 789.54 869.28 790.54 C 868.99 791.79 868.75 793.08 868.40 794.33 C 867.58 795.96 866.91 797.67 866.23 799.37 C 865.65 800.73 865.10 802.12 864.78 803.58 C 863.62 805.56 862.27 807.43 861.30 809.53 C 859.97 811.73 857.87 813.35 856.68 815.65 C 854.43 818.40 851.34 820.44 849.68 823.65 C 842.56 831.19 835.02 838.33 827.77 845.75 C 826.11 847.43 824.50 849.25 822.35 850.32 C 820.04 852.35 817.96 854.63 815.65 856.67 C 813.37 857.90 811.69 859.94 809.53 861.35 C 807.37 862.19 805.31 863.27 803.51 864.73 C 802.54 865.02 801.60 865.33 800.66 865.67 C 798.95 866.43 797.20 867.11 795.47 867.81 C 794.99 867.91 794.03 868.11 793.55 868.20 C 792.55 868.61 791.55 869.01 790.55 869.40 C 789.22 869.73 787.89 870.02 786.58 870.34 C 784.52 870.93 782.32 870.97 780.35 871.85 C 777.44 872.03 774.54 871.97 771.64 872.12 C 770.10 873.34 767.89 873.31 766.35 872.12 C 763.78 871.99 761.20 872.00 758.64 871.85 C 756.67 870.94 754.47 870.91 752.41 870.37 C 751.06 870.02 749.72 869.69 748.42 869.28 C 747.95 869.15 747.03 868.88 746.56 868.75 C 745.53 868.38 744.49 868.04 743.46 867.72 C 741.82 866.88 740.16 866.08 738.50 865.32 C 737.50 864.67 736.52 863.99 735.57 863.33 C 734.16 862.46 732.81 861.53 731.42 860.67 C 730.13 859.57 728.83 858.49 727.36 857.68 C 724.60 855.43 722.55 852.34 719.35 850.67 C 713.08 845.31 708.09 838.44 701.35 833.67 C 697.85 830.86 695.31 826.92 691.38 824.66 C 690.11 823.56 688.87 822.43 687.62 821.34 C 686.16 820.47 684.85 819.41 683.58 818.33 C 682.20 817.46 680.86 816.55 679.47 815.73 C 678.50 815.22 677.54 814.71 676.59 814.20 C 675.23 813.64 673.88 813.10 672.53 812.58 C 670.64 811.86 668.60 811.95 666.63 812.10 C 664.98 812.85 663.20 813.16 661.48 813.63 C 660.06 814.10 658.69 814.69 657.34 815.31 C 656.39 815.66 655.45 815.99 654.51 816.32 C 653.17 816.78 651.83 817.20 650.50 817.66 C 649.09 818.11 647.72 818.66 646.38 819.25 C 644.70 819.92 643.01 820.56 641.36 821.28 C 640.08 821.77 638.78 822.21 637.50 822.71 C 636.54 823.00 635.59 823.33 634.65 823.68 C 632.99 824.42 631.31 825.07 629.63 825.75 C 627.26 826.73 624.79 827.47 622.57 828.77 C 620.51 829.63 618.41 830.37 616.38 831.27 C 615.12 831.76 613.85 832.20 612.60 832.69 C 611.23 833.35 609.87 834.03 608.52 834.72 C 608.02 835.01 607.00 835.60 606.50 835.89 C 606.00 835.95 605.02 836.06 604.52 836.12 C 603.51 836.66 602.50 837.19 601.49 837.72 C 600.48 838.33 599.51 838.98 598.55 839.65 C 597.53 840.28 596.52 840.94 595.53 841.61 C 592.79 843.37 590.40 845.70 588.67 848.47 C 588.03 849.87 587.33 851.24 586.60 852.61 C 586.24 853.86 585.95 855.13 585.65 856.41 C 584.06 859.99 586.07 864.19 584.13 867.65 C 583.73 880.41 584.27 893.19 583.88 905.95 C 583.69 906.37 583.31 907.22 583.13 907.65 C 582.86 911.87 583.15 916.11 582.86 920.35 C 581.97 922.29 581.89 924.46 581.44 926.54 C 580.89 927.92 580.29 929.29 579.67 930.66 C 579.33 931.60 579.02 932.55 578.73 933.52 C 578.05 934.86 577.38 936.20 576.73 937.57 C 575.89 939.19 575.08 940.83 574.30 942.49 C 573.44 943.85 572.52 945.18 571.66 946.56 C 570.96 947.54 570.29 948.55 569.65 949.58 C 568.56 950.86 567.50 952.17 566.67 953.65 C 563.14 957.47 559.46 961.14 555.65 964.68 C 553.82 965.77 552.20 967.15 550.46 968.37 C 549.47 969.01 548.49 969.68 547.49 970.31 C 545.82 971.07 544.18 971.87 542.59 972.78 C 540.95 973.46 539.27 974.08 537.62 974.73 C 535.90 975.45 534.16 976.11 532.44 976.82 C 531.49 976.93 530.55 977.07 529.62 977.22 C 528.06 978.02 526.28 977.98 524.61 978.25 C 521.74 979.93 518.01 977.89 515.34 980.00 L 468.94 980.00 C 465.40 977.80 460.95 980.13 457.37 978.19 C 455.36 977.96 453.23 978.19 451.38 977.24 C 450.45 977.06 449.52 976.90 448.60 976.76 C 446.16 976.02 443.58 975.60 441.44 974.14 C 440.96 974.07 440.00 973.94 439.52 973.87 C 437.89 972.93 436.22 972.08 434.52 971.30 C 433.14 970.44 431.81 969.51 430.45 968.65 C 429.43 967.96 428.42 967.30 427.38 966.68 C 426.45 965.89 425.54 965.10 424.62 964.35 C 419.90 961.20 416.32 956.63 412.33 952.64 C 411.50 951.16 410.42 949.85 409.33 948.58 C 408.47 947.19 407.55 945.86 406.69 944.49 C 406.23 943.48 405.78 942.47 405.34 941.46 C 404.62 940.43 403.86 939.42 403.10 938.45 C 403.04 937.98 402.92 937.02 402.86 936.54 C 401.71 934.63 400.95 932.54 400.20 930.47 C 400.10 929.99 399.90 929.03 399.81 928.55 C 399.38 927.54 398.96 926.54 398.56 925.55 C 397.82 923.19 398.38 920.54 397.12 918.35 C 396.67 915.04 397.79 911.40 396.13 908.35 C 395.74 893.45 396.25 878.54 395.87 863.65 C 394.08 860.85 395.82 857.28 394.27 854.39 C 394.16 853.92 393.94 852.98 393.83 852.51 C 393.31 851.49 392.81 850.47 392.32 849.46 C 390.91 847.30 388.99 845.55 387.57 843.42 C 385.85 842.19 384.23 840.85 382.51 839.65 C 381.14 839.02 379.77 838.38 378.40 837.78 C 377.42 837.21 376.46 836.65 375.50 836.09 C 375.00 836.05 373.99 835.96 373.49 835.92 C 372.53 835.33 371.57 834.74 370.62 834.17 C 368.93 833.52 367.24 832.93 365.55 832.33 C 365.05 832.06 364.05 831.53 363.55 831.26 C 361.78 830.89 360.12 830.16 358.58 829.24 C 356.51 828.36 354.39 827.61 352.35 826.67 C 351.40 826.34 350.44 826.03 349.48 825.76 C 348.49 825.24 347.51 824.74 346.53 824.24 C 345.56 823.95 344.60 823.65 343.65 823.34 C 341.59 822.37 339.45 821.59 337.35 820.74 C 336.06 820.19 334.75 819.70 333.46 819.17 C 332.97 819.10 331.97 818.97 331.47 818.91 C 330.49 818.29 329.51 817.69 328.53 817.10 C 328.04 817.02 327.06 816.87 326.57 816.80 C 325.55 816.40 324.53 816.03 323.50 815.69 C 322.15 815.18 320.79 814.73 319.46 814.21 C 318.98 814.11 318.02 813.91 317.54 813.80 C 316.54 813.37 315.55 812.96 314.55 812.56 C 312.26 811.75 309.75 811.74 307.46 812.57 C 305.08 813.44 302.78 814.53 300.52 815.68 C 299.51 816.30 298.51 816.95 297.53 817.63 C 295.80 818.84 294.17 820.22 292.35 821.32 C 290.42 823.06 288.70 825.11 286.35 826.33 C 282.62 829.60 279.38 833.39 275.65 836.67 C 268.39 841.54 263.61 849.45 256.35 854.33 C 254.40 856.06 252.58 857.93 250.66 859.70 C 249.60 860.30 248.57 860.96 247.55 861.65 C 246.19 862.51 244.86 863.43 243.48 864.28 C 242.51 864.76 241.55 865.27 240.59 865.79 C 238.91 866.49 237.20 867.10 235.48 867.69 C 234.46 868.01 233.44 868.37 232.44 868.76 C 231.98 868.89 231.05 869.15 230.59 869.28 C 229.27 869.70 227.93 870.02 226.60 870.37 C 224.97 870.85 223.29 871.03 221.62 871.28 C 217.60 872.76 213.19 871.70 209.01 871.99 C 205.15 871.72 201.06 872.74 197.38 871.26 C 195.71 871.02 194.02 870.86 192.40 870.38 C 191.06 870.01 189.73 869.70 188.42 869.27 C 187.95 869.15 187.01 868.91 186.53 868.79 C 185.24 868.25 183.93 867.78 182.64 867.26 C 180.97 866.53 179.26 865.91 177.53 865.34 C 176.17 864.47 174.84 863.55 173.46 862.74 C 171.71 861.79 170.05 860.71 168.35 859.70 C 167.44 858.89 166.54 858.11 165.63 857.35 C 162.88 855.86 160.98 853.32 158.66 851.32 C 157.40 850.64 156.23 849.80 155.24 848.79 C 148.61 842.07 141.92 835.43 135.25 828.75 C 133.27 826.73 130.98 824.91 129.67 822.36 C 127.94 820.40 126.06 818.59 124.33 816.64 C 123.50 815.17 122.43 813.86 121.35 812.58 C 120.70 811.55 120.03 810.53 119.36 809.53 C 118.70 808.52 118.02 807.53 117.34 806.57 C 116.47 805.19 115.56 803.86 114.73 802.48 C 114.23 801.50 113.72 800.54 113.20 799.59 C 112.65 798.23 112.12 796.87 111.65 795.50 C 111.32 794.50 111.00 793.50 110.69 792.51 C 110.32 791.52 109.96 790.52 109.62 789.54 C 109.27 788.22 108.97 786.90 108.65 785.60 C 107.27 782.66 108.88 779.13 107.12 776.36 C 106.96 773.78 106.96 771.20 107.12 768.64 C 108.73 765.94 107.71 762.62 108.14 759.66 C 109.02 757.67 109.07 755.47 109.64 753.41 C 109.97 752.07 110.29 750.73 110.68 749.42 C 110.97 748.09 111.26 746.77 111.59 745.47 C 112.10 744.07 112.69 742.71 113.30 741.37 C 113.78 740.08 114.19 738.76 114.62 737.47 C 115.56 736.12 116.60 734.85 117.62 733.58 C 118.75 731.75 120.23 730.19 121.65 728.61 C 123.28 725.38 126.76 723.61 128.32 720.35 C 134.24 713.92 140.76 708.08 146.67 701.65 C 149.03 697.19 153.94 694.81 156.34 690.38 C 157.43 689.10 158.57 687.86 159.69 686.62 C 160.30 685.58 160.97 684.56 161.64 683.57 C 162.71 681.92 163.81 680.29 164.80 678.60 C 165.02 678.08 165.46 677.05 165.68 676.53 C 165.97 676.02 166.57 675.01 166.87 674.50 C 166.96 674.03 167.15 673.08 167.24 672.60 C 168.45 670.07 168.38 666.95 167.27 664.41 C 167.15 663.94 166.90 663.02 166.78 662.55 C 166.38 661.55 165.99 660.54 165.63 659.54 C 165.33 658.50 165.05 657.47 164.79 656.45 C 164.23 655.46 163.67 654.48 163.11 653.51 C 163.04 653.01 162.89 652.03 162.82 651.54 C 162.05 649.49 161.25 647.46 160.30 645.50 C 159.85 644.09 159.31 642.72 158.76 641.37 C 158.23 640.13 157.77 638.87 157.26 637.63 C 156.39 635.54 155.61 633.41 154.68 631.35 C 154.34 630.40 154.02 629.45 153.71 628.50 C 152.54 626.20 151.74 623.74 150.73 621.37 C 150.22 620.12 149.79 618.84 149.31 617.59 C 148.64 616.22 147.95 614.88 147.27 613.53 C 146.84 611.77 146.13 610.10 145.32 608.50 C 145.02 608.00 144.41 607.00 144.10 606.51 C 144.05 606.01 143.94 605.01 143.89 604.52 C 143.34 603.52 142.79 602.53 142.26 601.53 C 141.44 600.16 140.55 598.83 139.76 597.45 C 138.27 594.07 135.26 591.78 132.65 589.33 C 131.54 588.65 130.48 587.90 129.44 587.15 C 128.98 587.05 128.06 586.84 127.60 586.74 C 126.28 586.29 124.93 585.97 123.59 585.65 C 120.33 584.15 116.47 585.98 113.35 584.13 C 103.23 583.72 93.08 584.28 82.97 583.87 C 82.57 583.68 81.76 583.31 81.36 583.12 C 76.58 582.87 71.78 583.04 67.00 583.03 C 65.41 582.99 63.71 583.13 62.36 582.13 C 59.71 581.92 56.94 582.33 54.40 581.36 C 53.06 581.01 51.72 580.70 50.41 580.25 C 49.93 580.15 48.98 579.96 48.50 579.87 C 47.52 579.31 46.53 578.77 45.54 578.24 C 44.13 577.85 42.74 577.36 41.37 576.87 C 39.46 575.60 37.56 574.31 35.54 573.25 C 34.14 572.43 32.79 571.53 31.42 570.68 C 30.14 569.57 28.83 568.50 27.35 567.67 C 23.18 563.82 19.20 559.76 15.29 555.66 C 14.69 554.59 14.03 553.55 13.37 552.53 C 12.71 551.52 12.03 550.54 11.33 549.57 C 10.48 548.19 9.56 546.85 8.72 545.47 C 8.23 544.50 7.72 543.54 7.21 542.58 C 6.51 540.88 5.87 539.16 5.20 537.46 C 5.10 536.98 4.90 536.03 4.80 535.55 C 4.38 534.55 3.98 533.55 3.60 532.54 C 3.25 531.23 2.96 529.90 2.65 528.59 C 2.13 526.98 1.96 525.29 1.72 523.62 C -0.03 520.41 2.22 516.32 0.00 513.34 L 0.00 466.94 C 1.90 464.03 0.12 460.32 1.80 457.37 C 1.98 455.36 1.94 453.31 2.65 451.41 C 2.96 450.08 3.25 448.76 3.60 447.45 C 3.98 446.44 4.39 445.44 4.81 444.45 C 4.89 443.96 5.06 442.99 5.15 442.51 C 5.90 441.17 6.60 439.81 7.28 438.45 C 7.95 437.11 8.62 435.77 9.27 434.43 C 9.75 433.45 10.24 432.49 10.72 431.52 C 11.57 430.13 12.47 428.77 13.30 427.37 C 14.09 426.45 14.88 425.54 15.65 424.62 C 18.80 419.90 23.37 416.32 27.35 412.33 C 28.83 411.50 30.14 410.42 31.41 409.32 C 32.79 408.46 34.14 407.56 35.54 406.76 C 37.26 405.82 38.89 404.74 40.53 403.70 C 41.51 403.22 42.49 402.74 43.48 402.27 C 44.92 401.87 46.31 401.31 47.68 400.71 C 48.59 400.32 49.52 399.96 50.45 399.61 C 51.76 399.26 53.09 398.96 54.41 398.65 C 56.94 397.68 59.70 398.06 62.34 397.86 C 68.76 395.36 76.24 398.64 82.65 396.13 C 92.88 395.74 103.12 396.25 113.35 395.87 C 116.48 394.02 120.33 395.83 123.60 394.36 C 124.93 394.01 126.29 393.72 127.59 393.25 C 128.05 393.15 128.98 392.95 129.44 392.85 C 130.48 392.08 131.53 391.35 132.63 390.68 C 135.04 388.48 137.62 386.36 139.30 383.51 C 140.28 381.44 141.60 379.55 142.84 377.63 C 143.72 375.24 144.45 372.77 145.77 370.58 C 146.78 368.24 147.44 365.74 148.80 363.58 C 149.36 362.23 149.87 360.87 150.26 359.47 C 150.75 358.49 151.25 357.51 151.74 356.53 C 152.10 355.06 152.69 353.68 153.32 352.32 C 153.65 351.38 153.96 350.43 154.25 349.47 C 154.75 348.48 155.25 347.50 155.76 346.51 C 156.04 345.55 156.34 344.60 156.67 343.65 C 157.45 341.99 158.10 340.28 158.69 338.55 C 158.96 338.04 159.48 337.03 159.74 336.52 C 160.03 335.56 160.34 334.60 160.67 333.66 C 161.44 331.95 162.12 330.20 162.82 328.46 C 162.91 327.98 163.07 327.02 163.15 326.53 C 164.31 324.66 165.05 322.58 165.68 320.48 C 166.02 319.46 166.38 318.44 166.76 317.44 C 166.89 316.98 167.15 316.06 167.28 315.59 C 168.48 313.06 168.21 310.08 167.44 307.46 C 166.82 305.78 166.10 304.14 165.31 302.53 C 164.45 300.79 163.52 299.07 162.32 297.54 C 161.44 296.15 160.53 294.78 159.72 293.36 C 158.58 292.12 157.43 290.89 156.33 289.62 C 154.08 285.68 150.14 283.15 147.32 279.65 C 146.55 278.16 145.48 276.87 144.27 275.72 C 139.71 271.28 135.28 266.70 130.71 262.27 C 129.51 261.12 128.44 259.82 127.68 258.34 C 125.67 256.03 123.14 254.12 121.66 251.38 C 120.56 250.11 119.43 248.88 118.33 247.62 C 117.01 245.53 115.41 243.64 114.04 241.59 C 114.00 241.08 113.92 240.06 113.88 239.55 C 112.70 237.66 111.96 235.55 111.22 233.46 C 111.10 232.99 110.85 232.06 110.72 231.59 C 110.29 230.27 109.97 228.92 109.63 227.59 C 109.11 225.98 108.96 224.29 108.73 222.62 C 107.72 220.57 108.01 218.24 107.97 216.04 C 108.09 210.57 107.83 205.11 108.14 199.66 C 109.37 197.41 108.76 194.75 109.65 192.41 C 109.97 191.09 110.26 189.77 110.60 188.46 C 110.99 187.45 111.39 186.44 111.82 185.45 C 111.89 184.96 112.04 183.98 112.12 183.49 C 112.68 182.51 113.24 181.53 113.80 180.55 C 114.05 179.55 114.31 178.56 114.60 177.57 C 115.51 175.83 116.48 174.11 117.68 172.55 C 118.56 171.16 119.47 169.79 120.30 168.38 C 121.09 167.46 121.87 166.54 122.65 165.62 C 123.94 163.33 126.09 161.67 127.33 159.35 C 129.65 156.67 132.34 154.33 134.68 151.65 C 135.86 149.29 137.91 147.58 139.74 145.74 C 142.97 142.63 146.00 139.31 149.34 136.33 C 152.94 134.41 155.21 130.84 158.35 128.32 C 160.26 127.32 161.80 125.78 163.38 124.33 C 165.17 123.19 166.82 121.84 168.57 120.64 C 169.83 119.60 171.09 118.57 172.48 117.71 C 174.30 116.87 175.94 115.71 177.57 114.57 C 178.55 114.29 179.54 114.03 180.53 113.79 C 181.50 113.27 182.48 112.75 183.46 112.23 C 184.48 111.96 185.50 111.67 186.52 111.36 C 187.53 111.00 188.55 110.62 189.55 110.23 C 190.02 110.10 190.95 109.83 191.41 109.70 C 193.45 109.02 195.67 109.05 197.65 108.14 C 201.55 107.88 205.47 108.09 209.37 107.90 C 210.45 106.88 211.53 106.88 212.61 107.89 C 215.19 107.99 217.77 107.98 220.35 108.15 C 222.33 109.02 224.52 109.06 226.59 109.64 C 227.92 109.97 229.26 110.28 230.58 110.67 C 231.89 110.97 233.21 111.26 234.52 111.60 C 236.22 112.17 237.86 112.89 239.46 113.69 C 241.20 114.55 242.92 115.47 244.48 116.65 C 245.47 117.31 246.45 117.99 247.43 118.68 C 248.84 119.54 250.21 120.46 251.66 121.29 C 253.22 122.75 254.75 124.25 256.36 125.67 C 257.83 126.45 259.12 127.51 260.27 128.72 C 264.71 133.29 269.29 137.72 273.73 142.29 C 274.88 143.49 276.17 144.55 277.65 145.33 C 281.51 148.45 284.33 152.78 288.63 155.34 C 289.89 156.44 291.12 157.57 292.38 158.66 C 293.83 159.52 295.13 160.58 296.41 161.67 C 298.06 162.71 299.70 163.78 301.38 164.78 C 303.38 165.73 305.39 166.65 307.47 167.44 C 310.09 168.22 313.04 168.46 315.59 167.28 C 316.05 167.15 316.98 166.88 317.44 166.75 C 318.45 166.38 319.48 166.03 320.51 165.70 C 322.46 164.73 324.51 163.96 326.55 163.19 C 327.03 163.10 327.99 162.93 328.47 162.84 C 330.34 161.70 332.42 160.97 334.51 160.32 C 335.46 160.00 336.40 159.66 337.35 159.32 C 339.00 158.57 340.69 157.92 342.37 157.25 C 344.75 156.28 347.18 155.44 349.50 154.31 C 350.90 153.85 352.27 153.31 353.64 152.76 C 354.87 152.23 356.12 151.77 357.37 151.26 C 359.41 150.38 361.51 149.64 363.56 148.78 C 365.09 147.83 366.77 147.13 368.53 146.72 C 369.04 146.48 370.05 145.99 370.56 145.74 C 372.22 144.90 373.89 144.05 375.51 143.12 C 376.00 143.07 376.98 142.96 377.46 142.90 C 378.44 142.13 379.43 141.37 380.45 140.64 C 381.48 140.21 382.51 139.79 383.55 139.37 C 386.95 136.92 389.92 133.87 392.44 130.53 C 392.74 129.53 393.04 128.53 393.35 127.53 C 393.71 126.23 394.01 124.90 394.34 123.59 C 395.73 120.66 394.13 117.15 395.87 114.36 C 396.26 103.94 395.73 93.49 396.12 83.08 C 396.31 82.65 396.68 81.78 396.87 81.35 C 397.21 75.46 396.78 69.55 397.13 63.65 C 398.84 60.84 397.29 57.35 398.66 54.41 C 398.96 53.10 399.25 51.78 399.59 50.47 C 400.10 49.08 400.68 47.72 401.29 46.36 C 401.77 45.10 402.19 43.81 402.65 42.54 C 403.52 41.18 404.44 39.85 405.31 38.48 C 405.77 37.49 406.23 36.50 406.70 35.51 C 407.55 34.13 408.47 32.79 409.33 31.42 C 410.42 30.14 411.50 28.83 412.33 27.36 C 416.32 23.37 419.90 18.80 424.62 15.66 C 425.53 14.88 426.44 14.09 427.36 13.30 C 429.05 12.29 430.71 11.20 432.46 10.27 C 433.86 9.43 435.20 8.49 436.56 7.58 C 437.55 7.30 438.55 7.05 439.55 6.80 C 440.53 6.24 441.51 5.68 442.49 5.11 C 442.98 5.04 443.95 4.89 444.44 4.82 C 445.43 4.40 446.44 3.99 447.46 3.61 C 448.76 3.26 450.08 2.97 451.41 2.65 C 453.74 1.74 456.43 2.41 458.65 1.13 C 461.62 0.66 465.05 1.87 467.67 0.00 M 473.44 62.05 C 471.46 64.33 467.76 61.78 465.57 63.77 C 463.15 63.69 461.56 65.56 460.60 67.56 C 459.90 68.78 460.00 70.22 459.86 71.57 L 459.17 72.42 C 458.61 77.78 459.37 83.22 458.85 88.58 L 458.05 89.44 C 457.94 98.28 458.01 107.12 458.02 115.96 C 457.80 117.44 458.60 119.45 457.05 120.44 C 456.91 125.48 457.09 130.52 456.95 135.56 C 455.03 136.96 456.86 139.83 455.23 141.43 C 455.11 142.51 454.78 143.51 454.25 144.44 C 454.12 145.50 453.79 146.48 453.25 147.39 C 452.29 149.93 451.30 152.40 449.68 154.61 C 449.22 155.53 448.75 156.46 448.28 157.37 C 448.05 157.88 447.59 158.91 447.36 159.42 C 446.51 160.85 445.44 162.13 444.70 163.62 C 443.56 166.37 441.12 168.24 439.76 170.87 C 437.68 174.95 433.21 177.10 431.25 181.25 C 428.35 182.58 426.52 185.23 424.16 187.24 C 421.58 188.94 419.04 190.71 416.41 192.35 C 415.90 192.58 414.88 193.05 414.37 193.28 C 412.80 194.11 411.20 194.89 409.62 195.71 C 409.12 195.96 408.11 196.45 407.61 196.70 C 407.11 196.95 406.11 197.45 405.62 197.70 C 404.27 198.35 402.94 199.01 401.62 199.70 C 400.27 200.34 398.94 201.01 397.64 201.75 C 395.58 202.67 393.42 203.33 391.34 204.22 C 390.44 204.74 389.55 205.26 388.66 205.78 C 386.58 206.66 384.41 207.31 382.36 208.26 C 380.21 209.66 377.65 210.14 375.38 211.28 C 374.14 211.80 372.85 212.19 371.62 212.72 C 369.34 213.86 366.78 214.33 364.64 215.75 C 362.98 216.49 361.25 217.06 359.57 217.72 C 358.09 218.01 356.71 218.59 355.39 219.28 C 354.46 219.77 353.48 220.10 352.44 220.27 C 350.76 220.96 349.03 221.49 347.38 222.25 C 346.47 222.78 345.49 223.12 344.44 223.27 C 343.18 223.90 341.70 224.02 340.55 224.87 C 340.02 224.93 338.97 225.06 338.45 225.12 C 337.58 225.80 336.57 226.17 335.44 226.23 C 334.36 227.27 332.77 226.90 331.44 227.14 C 330.45 228.37 328.77 227.87 327.44 228.14 C 325.04 230.44 320.84 227.50 318.56 229.95 C 316.03 230.02 313.49 230.00 310.97 230.02 C 309.50 229.80 307.52 230.58 306.56 229.05 C 303.31 228.47 299.32 230.10 296.56 228.09 C 294.91 227.81 292.82 228.56 291.56 227.14 C 290.22 226.90 288.64 227.27 287.56 226.24 C 286.48 226.12 285.48 225.79 284.56 225.25 C 283.47 225.13 282.48 224.79 281.56 224.24 C 280.49 224.12 279.49 223.79 278.57 223.26 C 277.09 222.96 275.70 222.39 274.35 221.75 C 272.80 220.88 271.20 220.10 269.63 219.28 C 269.12 219.05 268.10 218.58 267.59 218.35 C 263.32 215.74 259.31 212.75 255.29 209.79 C 253.26 207.79 251.39 205.59 248.84 204.23 C 242.33 198.40 236.89 191.32 229.73 186.26 C 226.45 183.23 223.76 179.49 219.84 177.23 C 216.69 174.08 213.13 171.34 209.34 169.00 C 207.10 170.49 205.13 172.35 202.85 173.77 C 198.67 177.25 195.55 181.95 190.84 184.77 C 188.71 186.67 186.67 188.71 184.77 190.84 C 181.95 195.55 177.25 198.68 173.77 202.85 C 172.35 205.13 170.49 207.10 169.00 209.34 C 171.34 213.13 174.08 216.69 177.23 219.84 C 180.05 224.55 184.75 227.68 188.23 231.84 C 191.10 236.47 195.61 239.76 199.26 243.74 C 202.26 246.15 203.72 249.86 206.76 252.23 C 211.61 257.85 215.91 263.95 219.76 270.34 C 220.24 271.45 220.76 272.54 221.25 273.65 C 221.75 274.55 222.26 275.45 222.77 276.35 C 223.40 277.70 223.96 279.09 224.27 280.56 C 224.78 281.49 225.11 282.49 225.24 283.56 C 225.80 284.47 226.13 285.47 226.24 286.56 C 227.27 287.64 226.90 289.22 227.14 290.57 C 228.98 292.05 226.96 295.06 228.95 296.44 C 229.36 298.71 228.09 301.69 229.95 303.44 C 230.03 309.14 230.03 314.85 229.95 320.56 C 227.76 322.21 230.19 325.67 228.14 327.43 C 227.87 328.77 228.37 330.46 227.14 331.43 C 226.90 332.77 227.27 334.36 226.23 335.44 C 226.12 336.51 225.79 337.52 225.25 338.44 C 225.12 339.52 224.79 340.52 224.25 341.44 C 224.13 342.52 223.79 343.52 223.24 344.44 C 223.11 345.50 222.78 346.50 222.27 347.44 C 221.99 348.91 221.41 350.28 220.72 351.61 C 220.22 352.53 219.90 353.51 219.74 354.56 C 219.18 355.80 218.81 357.12 218.28 358.38 C 217.27 360.39 216.73 362.60 215.71 364.62 C 215.19 365.85 214.80 367.14 214.28 368.38 C 213.27 370.40 212.72 372.60 211.71 374.62 C 211.05 376.29 210.48 378.00 209.75 379.64 C 208.34 381.79 207.84 384.34 206.74 386.64 C 205.35 388.79 204.82 391.34 203.76 393.65 C 202.89 395.20 202.11 396.80 201.25 398.35 C 200.32 400.41 199.68 402.58 198.75 404.64 C 198.49 405.13 197.97 406.12 197.70 406.62 C 197.23 407.53 196.77 408.46 196.33 409.39 C 195.13 411.48 193.52 413.33 192.75 415.65 C 190.26 419.77 187.54 423.77 184.78 427.71 C 179.33 433.00 174.38 439.04 167.63 442.70 C 165.51 443.85 163.66 445.45 161.38 446.30 C 160.05 446.98 158.72 447.65 157.39 448.30 C 156.88 448.55 155.88 449.03 155.37 449.28 C 154.46 449.76 153.54 450.23 152.63 450.72 C 151.27 451.34 149.94 452.00 148.64 452.74 C 147.30 453.40 145.92 453.98 144.44 454.27 C 143.51 454.79 142.50 455.11 141.43 455.23 C 139.77 456.63 137.41 455.77 135.44 456.06 L 134.58 456.85 C 129.55 457.36 124.45 456.64 119.42 457.15 L 118.56 457.95 C 108.52 458.10 98.48 457.90 88.44 458.05 L 87.59 458.85 C 83.74 459.24 79.85 458.89 75.99 458.98 C 74.52 459.15 72.64 458.49 71.57 459.85 C 70.22 460.01 68.78 459.91 67.56 460.60 C 65.56 461.56 63.69 463.15 63.77 465.57 C 61.68 468.08 64.43 472.14 62.05 474.44 C 61.92 484.95 62.06 495.46 61.98 505.97 C 62.16 507.44 61.48 509.34 62.86 510.43 C 63.09 511.76 62.72 513.35 63.77 514.43 C 63.63 517.23 66.16 518.69 68.34 519.78 C 70.42 521.55 73.55 520.19 75.44 521.95 C 90.64 522.06 105.83 521.99 121.02 521.98 C 122.48 522.18 124.47 521.41 125.44 522.95 C 128.70 523.50 132.67 521.92 135.44 523.91 C 137.09 524.14 139.07 523.52 140.44 524.76 C 141.52 524.87 142.52 525.20 143.44 525.76 C 144.51 525.88 145.51 526.21 146.44 526.73 C 147.91 527.01 149.29 527.59 150.64 528.27 C 153.05 529.78 155.92 530.26 158.41 531.63 C 160.07 532.64 161.61 533.85 163.37 534.71 C 175.69 541.93 186.13 552.21 193.35 564.59 C 193.58 565.10 194.05 566.12 194.28 566.63 C 195.11 568.19 195.89 569.79 196.70 571.37 C 197.34 572.72 198.01 574.05 198.75 575.36 C 199.68 577.41 200.32 579.58 201.24 581.64 C 201.51 582.13 202.06 583.12 202.33 583.61 C 203.58 585.83 204.20 588.32 205.25 590.64 C 206.65 592.79 207.16 595.33 208.25 597.64 C 209.66 599.78 210.14 602.34 211.28 604.63 C 211.95 606.28 212.51 607.99 213.28 609.62 C 213.80 610.85 214.19 612.14 214.72 613.38 C 215.72 615.39 216.28 617.58 217.27 619.61 C 217.78 620.52 218.12 621.50 218.27 622.56 C 218.80 623.80 219.17 625.12 219.72 626.38 C 220.50 628.01 221.06 629.74 221.71 631.43 C 222.01 632.89 222.59 634.27 223.28 635.61 C 223.78 636.52 224.11 637.50 224.27 638.56 C 224.83 639.82 225.16 641.17 225.74 642.44 C 225.82 643.57 226.20 644.57 226.89 645.45 C 226.94 645.97 227.05 647.03 227.11 647.56 C 228.40 648.49 227.85 650.22 228.14 651.57 C 229.91 653.74 228.61 656.95 229.05 659.56 C 230.88 661.13 229.66 663.92 230.01 666.03 C 229.61 668.43 230.96 671.57 229.05 673.44 C 228.52 676.36 230.06 680.03 228.07 682.44 C 228.01 683.80 227.98 685.18 227.93 686.56 C 226.05 687.97 227.86 690.83 226.23 692.43 C 226.17 693.57 225.80 694.57 225.12 695.45 C 225.06 695.97 224.93 697.02 224.87 697.55 C 224.03 698.70 223.90 700.17 223.27 701.44 C 223.11 702.48 222.78 703.47 222.26 704.39 C 221.19 706.68 220.55 709.15 219.37 711.41 C 218.51 712.83 217.45 714.13 216.70 715.62 C 215.76 718.50 212.98 720.02 211.37 722.43 C 209.29 726.19 205.19 728.29 203.23 732.16 C 198.91 736.87 194.09 741.13 189.77 745.84 C 186.52 751.38 180.48 754.62 177.23 760.16 C 174.08 763.31 171.34 766.86 169.00 770.66 C 170.11 772.32 171.42 773.83 172.61 775.44 C 175.61 780.28 180.94 783.17 183.77 788.16 C 187.22 791.70 190.48 795.56 194.71 798.22 C 199.31 802.91 203.91 807.70 209.66 811.00 C 214.51 807.78 218.62 803.69 223.27 800.26 C 227.74 796.09 231.52 791.10 236.71 787.78 C 241.41 783.49 245.31 778.24 250.71 774.79 C 255.74 769.71 261.47 765.36 267.63 761.71 C 269.39 760.86 270.93 759.65 272.57 758.61 C 274.28 758.08 275.99 757.52 277.61 756.74 C 278.52 756.21 279.50 755.88 280.56 755.75 C 281.48 755.20 282.48 754.87 283.56 754.76 C 284.47 754.19 285.47 753.85 286.57 753.77 C 288.17 752.16 290.98 753.91 292.44 752.09 C 294.09 751.76 296.30 752.65 297.44 751.05 C 300.04 750.57 303.38 752.00 305.44 750.05 C 309.64 749.94 313.84 750.03 318.04 749.98 C 319.49 750.17 321.46 749.42 322.44 750.94 C 324.40 751.25 326.88 750.29 328.44 751.86 C 329.77 752.09 331.36 751.71 332.44 752.77 C 333.51 752.87 334.52 753.20 335.44 753.75 C 336.52 753.86 337.52 754.20 338.44 754.76 C 339.52 754.87 340.52 755.20 341.44 755.76 C 342.51 755.87 343.50 756.20 344.43 756.73 C 345.91 756.99 347.29 757.57 348.61 758.28 C 349.52 758.78 350.51 759.10 351.56 759.27 C 352.81 759.80 354.12 760.17 355.38 760.72 C 357.01 761.50 358.74 762.06 360.43 762.71 C 361.91 763.00 363.29 763.59 364.62 764.29 C 365.85 764.80 367.14 765.19 368.38 765.72 C 370.00 766.49 371.71 767.04 373.38 767.71 C 375.39 768.72 377.60 769.27 379.62 770.29 C 381.29 770.95 383.00 771.50 384.63 772.28 C 386.29 772.95 388.00 773.51 389.64 774.25 C 391.80 775.64 394.33 776.19 396.66 777.21 C 397.55 777.73 398.44 778.25 399.34 778.78 C 401.42 779.65 403.58 780.31 405.64 781.25 C 406.13 781.51 407.13 782.03 407.62 782.29 C 408.53 782.76 409.45 783.23 410.37 783.72 C 424.94 791.40 436.51 803.87 445.29 817.63 C 446.27 819.63 447.69 821.37 448.76 823.34 C 449.64 825.39 450.66 827.39 451.72 829.36 C 452.22 830.45 452.76 831.53 453.27 832.64 C 453.75 833.54 454.23 834.45 454.72 835.37 C 454.97 835.87 455.47 836.87 455.73 837.37 C 456.20 838.52 457.12 839.60 457.00 840.95 C 457.06 846.15 456.91 851.35 457.05 856.56 L 457.85 857.41 C 458.21 867.23 457.91 877.10 457.98 886.94 C 458.19 888.42 457.39 890.44 458.95 891.44 C 459.05 895.63 458.99 899.82 458.98 904.02 C 459.15 905.47 458.49 907.35 459.86 908.43 C 460.01 909.77 459.90 911.21 460.61 912.44 C 461.41 914.20 462.78 915.58 464.56 916.39 C 466.93 917.98 470.42 915.79 472.44 917.95 C 484.81 918.03 497.19 918.03 509.56 917.95 C 510.98 916.13 513.66 917.65 515.44 916.40 C 517.19 915.56 518.65 914.23 519.33 912.38 C 521.46 910.15 520.24 906.73 521.95 904.56 C 522.06 889.36 521.99 874.17 521.98 858.98 C 522.18 857.50 521.41 855.52 522.95 854.56 C 523.04 851.52 522.95 848.48 523.05 845.44 C 524.42 844.54 523.84 842.77 524.15 841.44 C 525.52 840.14 524.51 837.94 525.75 836.56 C 525.88 835.49 526.21 834.51 526.73 833.61 C 527.71 831.57 528.31 829.39 529.24 827.35 C 530.11 825.79 530.89 824.20 531.73 822.64 C 532.22 821.53 532.75 820.44 533.24 819.34 C 537.08 812.94 541.40 806.86 546.24 801.22 C 551.96 795.16 558.49 790.01 565.59 785.65 C 566.10 785.41 567.11 784.95 567.62 784.72 C 569.85 783.53 572.16 782.49 574.35 781.24 C 576.41 780.31 578.57 779.65 580.66 778.78 C 581.55 778.25 582.44 777.73 583.34 777.22 C 585.42 776.33 587.58 775.68 589.64 774.74 C 591.78 773.33 594.34 772.86 596.62 771.72 C 597.84 771.18 599.13 770.79 600.38 770.28 C 601.99 769.50 603.70 768.94 605.37 768.28 C 606.99 767.50 608.70 766.95 610.37 766.28 C 612.39 765.27 614.60 764.72 616.62 763.71 C 617.86 763.17 619.16 762.78 620.43 762.29 C 621.90 761.98 623.28 761.40 624.61 760.72 C 625.52 760.21 626.51 759.88 627.56 759.73 C 628.82 759.17 630.16 758.81 631.43 758.28 C 632.90 757.97 634.28 757.40 635.61 756.72 C 636.52 756.22 637.51 755.89 638.56 755.74 C 639.81 755.08 641.28 754.95 642.45 754.14 C 642.98 754.07 644.03 753.95 644.56 753.89 C 645.50 752.60 647.21 753.13 648.56 752.85 C 649.83 751.37 652.21 752.65 653.44 751.10 C 655.08 750.76 657.28 751.64 658.44 750.05 C 664.14 749.96 669.85 749.96 675.56 750.05 C 677.30 751.91 680.27 750.63 682.56 751.05 C 683.70 752.64 685.90 751.76 687.56 752.09 C 689.01 753.92 691.82 752.15 693.44 753.76 C 694.51 753.86 695.51 754.19 696.44 754.76 C 697.50 754.89 698.50 755.21 699.44 755.73 C 700.91 756.00 702.29 756.59 703.64 757.26 C 704.93 757.99 706.27 758.65 707.63 759.28 C 708.54 759.75 709.45 760.23 710.37 760.73 C 710.88 760.96 711.90 761.42 712.41 761.65 C 718.30 765.64 724.33 769.65 729.29 774.79 C 736.64 779.54 741.36 787.45 748.71 792.22 C 751.62 795.01 754.37 797.98 757.29 800.78 C 761.62 803.67 765.08 807.67 769.58 810.37 C 771.44 811.68 773.33 808.66 774.88 807.79 C 779.25 805.34 781.74 800.62 786.16 798.23 C 791.16 793.21 796.67 788.55 800.74 782.73 C 804.76 779.23 807.91 774.97 811.00 770.66 C 808.27 765.68 803.93 761.94 800.78 757.29 C 798.32 754.70 795.67 752.30 793.21 749.71 C 788.91 743.17 782.26 738.62 777.37 732.57 C 776.25 730.45 774.41 728.92 772.74 727.27 C 768.00 721.30 763.16 715.24 759.72 708.37 C 759.23 707.45 758.76 706.53 758.29 705.62 C 758.03 705.13 757.52 704.13 757.26 703.64 C 756.60 702.28 756.01 700.90 755.71 699.44 C 755.11 698.16 754.93 696.71 754.13 695.55 C 754.07 695.02 753.95 693.97 753.89 693.44 C 752.00 691.97 753.99 688.99 752.09 687.56 C 751.76 685.90 752.64 683.70 751.05 682.56 C 750.98 680.18 751.01 677.81 750.95 675.44 L 750.15 674.59 C 749.78 669.89 750.06 665.15 750.05 660.44 C 751.79 658.99 750.69 656.39 751.07 654.44 C 753.03 653.04 750.98 650.00 752.90 648.56 C 752.95 648.03 753.06 646.97 753.11 646.44 C 754.66 645.20 753.33 642.79 754.89 641.56 C 754.94 641.03 755.06 639.97 755.12 639.45 C 755.79 638.57 756.17 637.57 756.26 636.44 C 756.82 635.17 757.17 633.83 757.72 632.57 C 758.00 631.08 758.59 629.70 759.29 628.38 C 759.80 627.12 760.19 625.81 760.72 624.57 C 760.99 623.08 761.59 621.70 762.30 620.38 C 762.79 619.13 763.18 617.85 763.72 616.62 C 764.49 614.99 765.04 613.28 765.72 611.63 C 766.48 610.00 767.04 608.29 767.72 606.63 C 768.86 604.35 769.33 601.78 770.75 599.64 C 771.48 597.99 772.05 596.29 772.72 594.63 C 773.71 592.60 774.30 590.40 775.26 588.36 C 776.65 586.20 777.17 583.66 778.25 581.36 C 779.65 579.20 780.17 576.66 781.24 574.36 C 781.51 573.87 782.05 572.89 782.32 572.40 C 782.56 571.89 783.04 570.88 783.28 570.37 C 783.75 569.45 784.24 568.54 784.73 567.63 C 784.96 567.12 785.42 566.10 785.64 565.59 C 793.22 553.52 803.14 542.74 815.37 535.30 C 816.85 534.54 818.15 533.49 819.58 532.64 C 820.10 532.42 821.13 531.97 821.64 531.74 C 822.53 531.23 823.44 530.73 824.35 530.22 C 826.00 529.53 827.70 528.96 829.38 528.30 C 830.69 527.59 832.07 526.99 833.56 526.73 C 834.48 526.21 835.48 525.88 836.56 525.76 C 837.93 524.47 840.22 525.61 841.44 524.09 C 842.47 524.02 843.51 523.97 844.56 523.92 C 847.31 521.89 851.31 523.52 854.56 522.95 C 854.92 522.72 855.66 522.27 856.02 522.04 C 872.20 521.90 888.38 522.10 904.56 521.95 C 906.72 520.22 910.15 521.47 912.39 519.33 C 914.23 518.65 915.56 517.19 916.39 515.44 C 917.28 513.91 916.93 512.11 917.09 510.44 C 917.31 510.06 917.74 509.31 917.96 508.94 C 918.02 495.77 918.05 482.61 917.94 469.45 C 916.47 468.23 917.31 466.07 916.40 464.56 C 915.56 462.81 914.23 461.34 912.39 460.67 C 910.29 459.28 907.93 458.70 905.44 458.90 C 905.08 458.69 904.35 458.26 903.99 458.04 C 888.99 457.95 873.98 458.00 858.98 458.02 C 857.50 457.80 855.52 458.58 854.56 457.05 C 851.30 456.47 847.30 458.11 844.56 456.08 C 843.51 456.02 842.47 455.96 841.44 455.91 C 840.21 454.41 837.95 455.49 836.57 454.26 C 835.07 454.00 833.69 453.40 832.38 452.70 C 830.42 451.98 828.42 451.36 826.62 450.31 C 824.87 449.43 823.12 448.56 821.37 447.72 C 820.45 447.24 819.53 446.77 818.61 446.32 C 809.87 440.96 801.55 434.89 794.78 427.15 C 791.87 422.80 788.29 418.94 785.65 414.41 C 785.42 413.90 784.95 412.89 784.71 412.38 C 783.52 410.15 782.49 407.84 781.24 405.65 C 780.31 403.58 779.67 401.41 778.76 399.35 C 776.93 396.58 776.06 393.37 774.71 390.38 C 773.93 388.44 773.41 386.39 772.25 384.64 C 771.51 382.99 770.95 381.29 770.28 379.63 C 769.27 377.60 768.72 375.39 767.71 373.38 C 767.04 371.71 766.49 370.00 765.72 368.38 C 765.16 367.13 764.79 365.81 764.27 364.56 C 764.10 363.51 763.77 362.52 763.28 361.61 C 762.58 360.28 762.01 358.90 761.72 357.43 C 761.19 356.17 760.80 354.87 760.29 353.62 C 759.59 352.29 759.00 350.91 758.72 349.43 C 758.17 348.16 757.81 346.82 757.26 345.56 C 757.12 344.48 756.78 343.48 756.24 342.56 C 756.11 341.48 755.78 340.48 755.24 339.56 C 755.12 338.47 754.78 337.47 754.23 336.56 C 754.16 335.42 753.79 334.41 753.11 333.55 C 753.06 333.02 752.95 331.97 752.89 331.44 C 751.39 330.22 752.20 328.08 751.91 326.44 C 750.03 324.32 751.41 321.04 750.95 318.44 L 750.15 317.59 C 749.86 314.22 749.86 310.78 750.15 307.41 L 750.96 306.56 C 751.46 303.63 749.96 300.00 751.91 297.56 C 752.20 295.91 751.38 293.76 752.91 292.56 C 753.20 290.91 752.39 288.77 753.89 287.56 C 753.95 287.03 754.06 285.97 754.11 285.45 C 754.79 284.58 755.17 283.57 755.26 282.44 C 755.82 281.18 756.16 279.83 756.72 278.57 C 757.01 277.09 757.59 275.71 758.26 274.36 C 758.52 273.87 759.03 272.87 759.29 272.38 C 759.75 271.46 760.24 270.54 760.73 269.63 C 760.96 269.12 761.42 268.10 761.64 267.58 C 765.83 260.30 771.69 254.33 776.74 247.73 C 781.90 242.53 787.20 237.46 792.23 232.16 C 794.89 227.35 800.11 224.65 802.77 219.84 C 805.94 216.81 808.37 213.15 811.00 209.66 C 808.11 204.79 804.33 200.57 800.21 196.71 C 797.20 191.87 792.57 188.40 788.76 184.24 C 786.64 181.61 783.35 180.39 781.24 177.76 C 778.24 174.22 774.29 171.79 770.66 169.00 C 766.86 171.34 763.31 174.08 760.16 177.23 C 754.62 180.48 751.38 186.52 745.84 189.77 C 740.80 194.43 736.20 199.57 731.16 204.23 C 727.71 205.95 725.77 209.52 722.44 211.39 C 718.41 214.50 714.24 217.54 709.61 219.69 C 709.12 219.96 708.14 220.49 707.64 220.76 C 705.99 221.47 704.29 222.05 702.62 222.70 C 701.29 223.40 699.91 223.99 698.43 224.26 C 697.50 224.78 696.50 225.11 695.44 225.24 C 694.06 226.53 691.77 225.38 690.56 226.91 C 689.51 226.97 688.47 227.03 687.44 227.09 C 686.01 229.04 682.93 226.94 681.56 228.95 C 678.85 229.03 676.14 228.97 673.44 229.05 L 672.59 229.85 C 668.89 230.22 665.15 229.94 661.44 229.95 C 659.15 227.52 654.96 230.42 652.56 228.14 C 651.22 227.90 649.62 228.29 648.57 227.23 C 647.47 227.12 646.47 226.79 645.56 226.24 C 644.41 226.17 643.41 225.80 642.56 225.12 C 642.03 225.06 640.98 224.93 640.45 224.86 C 639.28 224.03 637.80 223.92 636.56 223.26 C 635.48 223.12 634.48 222.78 633.56 222.24 C 632.47 222.12 631.47 221.79 630.56 221.25 C 629.50 221.11 628.52 220.78 627.61 220.28 C 626.28 219.59 624.90 219.01 623.44 218.71 C 622.15 218.19 620.82 217.82 619.56 217.27 C 618.50 217.12 617.52 216.78 616.61 216.26 C 614.98 215.50 613.28 214.96 611.63 214.28 C 610.00 213.50 608.29 212.96 606.63 212.28 C 605.00 211.51 603.28 210.96 601.63 210.28 C 600.00 209.50 598.28 208.96 596.63 208.28 C 594.35 207.14 591.79 206.66 589.64 205.26 C 587.59 204.31 585.42 203.66 583.34 202.78 C 582.44 202.26 581.55 201.74 580.66 201.22 C 578.57 200.34 576.41 199.67 574.35 198.75 C 572.80 197.88 571.20 197.10 569.63 196.28 C 569.12 196.05 568.10 195.58 567.59 195.35 C 563.51 192.87 559.70 190.01 555.84 187.22 C 547.88 179.75 540.14 171.92 534.71 162.37 C 533.86 160.61 532.64 159.08 531.64 157.42 C 531.42 156.90 530.96 155.88 530.74 155.37 C 530.24 154.46 529.75 153.55 529.26 152.64 C 528.76 151.54 528.23 150.45 527.74 149.36 C 527.24 148.45 526.75 147.55 526.26 146.64 C 525.76 145.54 525.23 144.46 524.72 143.36 C 524.05 141.95 522.85 140.64 523.00 138.98 C 522.95 132.47 523.08 125.96 522.95 119.44 C 521.41 118.46 522.18 116.46 521.98 114.99 C 522.04 106.66 521.96 98.33 522.02 90.00 C 521.80 88.53 522.58 86.54 521.05 85.56 C 520.91 81.19 521.08 76.81 520.95 72.44 C 519.37 71.26 520.29 69.06 519.86 67.41 C 518.39 65.75 516.88 63.71 514.43 63.77 C 512.24 61.77 508.53 64.33 506.56 62.05 C 495.52 61.96 484.48 61.97 473.44 62.05 Z" />
<path fill="#000000" opacity="1.00" d=" M 462.44 261.05 C 476.81 260.97 491.19 260.96 505.56 261.05 C 507.45 262.97 510.61 261.62 513.04 262.00 C 515.44 262.36 518.56 261.05 520.44 262.95 C 523.14 263.03 525.85 262.97 528.56 263.05 C 530.51 265.40 534.44 262.61 536.44 264.92 C 537.47 264.97 538.51 265.03 539.55 265.09 C 540.76 266.67 543.16 265.35 544.44 266.85 C 545.77 267.13 547.45 266.64 548.44 267.86 C 549.77 268.14 551.49 267.61 552.44 268.89 C 552.97 268.95 554.03 269.06 554.55 269.11 C 555.41 269.80 556.41 270.17 557.56 270.24 C 558.93 271.40 560.98 270.62 562.39 271.72 C 563.71 272.41 565.09 272.98 566.57 273.28 C 567.83 273.81 569.17 274.17 570.44 274.73 C 571.49 274.88 572.47 275.21 573.39 275.74 C 575.66 276.85 578.22 277.34 580.36 278.74 C 582.41 279.69 584.58 280.32 586.65 281.24 C 588.19 282.11 589.79 282.90 591.38 283.70 C 591.88 283.96 592.88 284.46 593.37 284.72 C 594.46 285.22 595.54 285.76 596.63 286.28 C 597.54 286.75 598.46 287.22 599.39 287.68 C 601.68 289.08 603.86 290.68 606.40 291.66 C 615.73 297.93 625.52 303.65 633.84 311.23 C 637.47 313.10 639.53 316.89 643.16 318.77 C 649.14 324.49 654.90 330.46 660.78 336.29 C 662.24 338.43 663.72 340.57 665.76 342.23 C 674.23 352.29 681.76 363.18 688.77 374.35 C 688.98 374.87 689.41 375.90 689.63 376.42 C 690.94 378.44 692.40 380.36 693.30 382.62 C 693.97 383.95 694.65 385.28 695.30 386.62 C 695.98 387.94 696.64 389.28 697.27 390.64 C 697.75 391.54 698.25 392.45 698.77 393.35 C 699.67 395.41 700.31 397.58 701.25 399.64 C 702.40 401.39 702.95 403.43 703.70 405.38 C 704.40 406.70 704.99 408.08 705.26 409.57 C 705.78 410.49 706.11 411.48 706.27 412.56 C 706.82 413.82 707.16 415.17 707.74 416.44 C 707.86 417.51 708.20 418.51 708.76 419.44 C 708.87 420.51 709.20 421.52 709.76 422.44 C 709.81 423.58 710.19 424.58 710.89 425.44 C 710.94 425.97 711.06 427.03 711.11 427.56 C 712.63 428.79 711.37 431.16 712.85 432.44 C 713.14 433.77 712.58 435.52 713.92 436.44 C 713.96 437.47 714.02 438.51 714.08 439.56 C 715.40 440.47 714.84 442.22 715.14 443.56 C 717.17 445.33 714.76 448.78 716.95 450.44 C 717.35 452.71 716.08 455.69 717.95 457.44 C 718.05 460.81 717.94 464.18 718.05 467.56 C 719.58 468.53 718.80 470.52 719.02 472.00 C 718.94 484.19 719.08 496.37 718.95 508.56 C 717.41 509.52 718.17 511.49 717.98 512.95 C 717.99 515.48 718.03 518.02 717.95 520.56 C 715.57 522.51 718.41 526.47 716.06 528.44 C 716.00 530.14 715.99 531.85 715.94 533.56 C 714.36 534.72 715.21 536.90 714.91 538.56 C 713.01 539.99 714.94 542.94 713.14 544.44 C 712.86 545.77 713.36 547.45 712.14 548.44 C 711.86 549.77 712.36 551.45 711.14 552.44 C 710.89 553.77 711.27 555.36 710.23 556.44 C 710.11 557.51 709.78 558.51 709.24 559.44 C 709.12 560.51 708.78 561.51 708.24 562.44 C 708.12 563.52 707.79 564.52 707.24 565.44 C 707.11 566.50 706.78 567.50 706.26 568.43 C 706.00 569.92 705.40 571.29 704.70 572.62 C 704.04 574.29 703.47 575.99 702.75 577.64 C 701.34 579.79 700.80 582.32 699.78 584.65 C 699.25 585.54 698.75 586.44 698.26 587.35 C 697.75 588.45 697.22 589.53 696.72 590.64 C 695.52 592.85 694.46 595.14 693.28 597.38 C 693.05 597.89 692.59 598.91 692.36 599.42 C 691.51 600.84 690.43 602.12 689.71 603.63 C 688.75 605.65 687.24 607.34 686.29 609.37 C 679.50 620.32 671.89 630.82 663.36 640.43 C 660.68 644.61 656.55 647.59 653.25 651.25 C 649.52 654.88 645.98 658.71 642.16 662.23 C 639.13 663.71 637.38 666.78 634.43 668.36 C 626.61 675.01 618.07 680.84 609.37 686.29 C 607.36 687.27 605.62 688.70 603.65 689.75 C 601.33 690.52 599.47 692.11 597.40 693.34 C 595.78 694.09 594.20 694.88 592.63 695.70 C 589.32 697.49 585.87 698.92 582.36 700.26 C 580.20 701.65 577.66 702.17 575.36 703.24 C 573.84 704.19 572.21 704.98 570.44 705.28 C 569.16 705.87 567.71 706.04 566.55 706.86 C 566.02 706.93 564.98 707.07 564.45 707.14 C 563.28 707.96 561.81 708.09 560.56 708.74 C 559.42 708.81 558.41 709.20 557.55 709.88 C 557.03 709.94 555.97 710.06 555.44 710.11 C 554.20 711.65 551.79 710.33 550.56 711.89 C 550.03 711.94 548.97 712.05 548.44 712.11 C 547.49 713.39 545.77 712.85 544.44 713.14 C 543.45 714.36 541.77 713.86 540.44 714.14 C 539.17 715.56 537.08 714.80 535.44 715.09 C 534.01 717.04 530.93 714.93 529.56 716.95 C 527.18 717.01 524.81 716.98 522.44 717.05 C 519.53 719.68 514.46 716.30 511.56 718.95 C 497.19 719.03 482.81 719.03 468.44 718.95 C 465.54 716.28 460.45 719.70 457.56 717.05 C 454.96 716.57 451.64 717.99 449.56 716.07 C 448.18 716.00 446.80 715.98 445.44 715.93 C 444.04 713.97 441.05 715.98 439.57 714.14 C 438.22 713.86 436.54 714.36 435.56 713.14 C 434.22 712.85 432.50 713.39 431.56 712.11 C 431.03 712.05 429.97 711.94 429.44 711.89 C 428.19 710.42 425.93 711.50 424.56 710.24 C 423.47 710.12 422.47 709.78 421.56 709.24 C 420.47 709.12 419.47 708.78 418.56 708.24 C 417.48 708.11 416.48 707.78 415.56 707.25 C 414.48 707.11 413.48 706.78 412.57 706.26 C 411.08 705.98 409.70 705.40 408.38 704.71 C 407.13 704.19 405.85 703.80 404.62 703.28 C 402.60 702.27 400.40 701.70 398.36 700.74 C 396.20 699.35 393.66 698.82 391.36 697.75 C 390.87 697.49 389.88 696.96 389.38 696.70 C 387.79 695.89 386.20 695.10 384.63 694.30 C 382.09 693.32 380.02 691.53 377.65 690.25 C 375.31 689.50 373.50 687.82 371.37 686.71 C 361.09 680.55 351.42 673.36 342.22 665.76 C 339.23 662.00 334.77 659.97 331.75 656.25 C 327.32 651.38 321.88 647.35 318.23 641.84 C 308.73 632.15 300.97 620.84 293.71 609.37 C 292.86 607.61 291.64 606.08 290.65 604.42 C 290.42 603.90 289.95 602.88 289.72 602.37 C 289.24 601.45 288.77 600.53 288.32 599.61 C 287.54 598.13 286.48 596.85 285.64 595.42 C 285.41 594.91 284.95 593.89 284.72 593.38 C 284.46 592.89 283.94 591.89 283.68 591.39 C 282.42 589.16 281.77 586.68 280.79 584.34 C 280.26 583.44 279.73 582.55 279.21 581.66 C 278.53 579.99 277.97 578.28 277.29 576.62 C 276.27 574.61 275.72 572.41 274.73 570.39 C 274.22 569.47 273.88 568.49 273.73 567.44 C 273.09 566.18 272.95 564.71 272.14 563.55 C 272.07 563.02 271.94 561.97 271.88 561.44 C 271.19 560.57 270.82 559.57 270.76 558.44 C 270.21 557.51 269.88 556.51 269.77 555.44 C 268.72 554.36 269.09 552.77 268.85 551.44 C 267.36 550.16 268.67 547.76 267.09 546.56 C 267.03 545.51 266.97 544.47 266.92 543.44 C 265.58 542.52 266.14 540.77 265.86 539.44 C 264.03 537.94 266.01 534.96 264.07 533.56 C 264.01 532.18 263.98 530.80 263.93 529.44 C 262.09 527.67 263.36 524.71 262.95 522.44 C 260.99 520.38 262.43 517.03 261.96 514.44 C 260.01 512.56 261.39 509.38 261.00 506.96 C 260.58 504.24 262.03 500.75 260.05 498.56 C 260.05 492.84 259.80 487.10 260.15 481.41 L 260.95 480.56 C 261.08 476.18 260.92 471.81 261.05 467.44 C 263.00 465.37 261.57 462.03 262.04 459.44 C 264.43 457.49 261.58 453.52 263.94 451.56 C 264.28 449.59 263.23 447.04 264.92 445.56 C 264.97 444.51 265.02 443.47 265.08 442.44 C 267.00 441.01 265.03 438.05 266.86 436.57 C 267.13 435.22 266.63 433.54 267.86 432.56 C 268.14 431.22 267.60 429.50 268.89 428.56 C 268.95 428.03 269.06 426.97 269.11 426.45 C 270.65 425.20 269.34 422.80 270.88 421.56 C 270.94 421.03 271.07 419.98 271.13 419.45 C 271.97 418.28 272.10 416.81 272.73 415.56 C 272.88 414.49 273.21 413.49 273.73 412.56 C 274.00 411.08 274.59 409.70 275.29 408.38 C 275.80 407.13 276.19 405.85 276.72 404.62 C 277.86 402.34 278.34 399.79 279.74 397.64 C 280.69 395.59 281.31 393.41 282.25 391.36 C 282.51 390.87 283.04 389.88 283.30 389.38 C 284.10 387.79 284.89 386.20 285.71 384.62 C 285.96 384.12 286.45 383.12 286.70 382.61 C 287.58 380.35 289.10 378.46 290.34 376.40 C 291.29 373.85 292.97 371.71 294.29 369.37 C 300.02 359.93 306.53 350.97 313.63 342.57 C 315.99 338.42 320.54 336.10 322.77 331.84 C 326.59 328.00 330.10 323.72 334.71 320.79 C 337.37 318.44 339.42 315.38 342.57 313.64 C 349.84 307.48 357.51 301.75 365.63 296.71 C 369.36 294.82 372.44 291.83 376.40 290.34 C 378.08 289.37 379.62 288.16 381.35 287.25 C 381.86 287.01 382.87 286.53 383.38 286.30 C 384.46 285.77 385.54 285.23 386.64 284.72 C 388.21 283.89 389.80 283.11 391.35 282.24 C 393.41 281.33 395.57 280.66 397.66 279.78 C 398.55 279.26 399.44 278.74 400.34 278.22 C 402.40 277.32 404.57 276.70 406.61 275.73 C 407.52 275.22 408.50 274.89 409.56 274.73 C 410.82 274.16 412.18 273.84 413.44 273.26 C 414.51 273.12 415.51 272.78 416.44 272.25 C 417.52 272.13 418.52 271.79 419.44 271.24 C 420.58 271.17 421.58 270.80 422.45 270.12 C 422.97 270.06 424.03 269.94 424.56 269.89 C 425.79 268.36 428.16 269.62 429.44 268.15 C 430.77 267.85 432.52 268.41 433.44 267.08 C 434.47 267.02 435.51 266.97 436.56 266.92 C 437.47 265.59 439.22 266.15 440.57 265.86 C 441.81 264.42 443.91 265.19 445.56 264.91 C 446.48 263.59 448.22 264.14 449.56 263.86 C 451.12 262.29 453.59 263.26 455.56 262.94 C 457.23 260.74 460.78 263.26 462.44 261.05 M 486.44 322.06 L 485.59 322.85 C 481.23 323.27 476.82 322.82 472.44 323.05 C 470.48 325.43 466.52 322.57 464.56 324.94 C 462.59 325.27 460.05 324.24 458.56 325.91 C 456.91 326.21 454.74 325.38 453.56 326.92 C 452.52 326.97 451.48 327.03 450.44 327.09 C 449.23 328.68 446.79 327.32 445.56 328.88 C 445.03 328.94 443.97 329.06 443.44 329.11 C 442.19 330.57 439.93 329.49 438.56 330.76 C 437.48 330.88 436.48 331.21 435.56 331.75 C 434.50 331.88 433.52 332.21 432.61 332.73 C 430.59 333.72 428.39 334.28 426.38 335.28 C 424.71 335.95 423.00 336.52 421.35 337.22 C 420.45 337.73 419.54 338.23 418.64 338.73 C 417.28 339.34 415.94 340.01 414.62 340.70 C 413.28 341.34 411.95 342.01 410.62 342.70 C 408.33 343.54 406.50 345.16 404.37 346.29 C 395.00 351.72 386.50 358.38 378.21 365.25 C 373.92 369.60 369.59 373.93 365.24 378.22 C 358.38 386.50 351.72 395.01 346.29 404.37 C 345.17 406.49 343.52 408.32 342.72 410.63 C 342.24 411.54 341.75 412.45 341.27 413.36 C 340.76 414.45 340.22 415.54 339.72 416.64 C 338.89 418.21 338.11 419.80 337.24 421.35 C 336.53 423.00 335.96 424.70 335.29 426.38 C 334.28 428.39 333.72 430.58 332.73 432.61 C 332.21 433.51 331.88 434.50 331.75 435.56 C 331.21 436.48 330.88 437.48 330.76 438.56 C 329.48 439.93 330.57 442.18 329.12 443.44 C 329.06 443.97 328.95 445.03 328.89 445.56 C 327.32 446.78 328.68 449.23 327.09 450.45 C 327.03 451.48 326.97 452.52 326.92 453.56 C 324.98 454.98 327.01 458.00 325.09 459.44 C 324.76 461.08 325.66 463.29 324.05 464.44 C 323.64 466.72 324.90 469.68 323.05 471.44 C 322.96 474.30 323.00 477.16 323.02 480.02 C 322.81 481.48 323.58 483.46 322.05 484.44 C 321.96 487.61 322.01 490.78 321.98 493.96 C 322.19 495.43 321.40 497.45 322.95 498.44 C 323.07 502.14 322.93 505.85 323.05 509.56 C 325.41 511.51 322.61 515.43 324.91 517.44 C 325.21 519.08 324.38 521.24 325.91 522.44 C 326.21 524.08 325.38 526.24 326.92 527.44 C 326.97 528.47 327.03 529.51 327.09 530.56 C 328.60 531.77 327.48 534.06 328.76 535.44 C 328.87 536.51 329.20 537.51 329.76 538.44 C 329.87 539.51 330.20 540.51 330.76 541.44 C 330.87 542.51 331.21 543.51 331.76 544.44 C 331.88 545.51 332.21 546.51 332.75 547.44 C 332.89 548.49 333.22 549.47 333.74 550.39 C 334.71 552.41 335.31 554.59 336.25 556.64 C 336.51 557.13 337.05 558.11 337.31 558.60 C 337.56 559.10 338.05 560.11 338.30 560.61 C 338.55 561.11 339.05 562.12 339.30 562.62 C 339.99 563.94 340.65 565.27 341.28 566.63 C 341.76 567.54 342.24 568.45 342.74 569.37 C 342.96 569.88 343.41 570.91 343.64 571.42 C 344.47 572.85 345.57 574.12 346.29 575.63 C 352.26 586.04 360.05 595.17 367.72 604.26 C 371.59 607.69 374.68 612.07 379.16 614.77 C 381.22 616.39 382.69 618.70 385.01 620.02 C 392.30 625.44 399.59 631.05 407.65 635.25 C 409.37 636.16 410.92 637.35 412.59 638.35 C 413.10 638.59 414.12 639.05 414.63 639.28 C 416.20 640.10 417.80 640.88 419.35 641.75 C 421.41 642.67 423.59 643.30 425.64 644.26 C 427.40 645.40 429.43 645.95 431.38 646.70 C 432.70 647.40 434.08 647.99 435.56 648.28 C 436.83 648.88 438.28 649.03 439.45 649.87 C 439.98 649.93 441.03 650.06 441.55 650.12 C 442.42 650.79 443.42 651.17 444.56 651.24 C 445.93 652.48 448.14 651.45 449.44 652.85 C 450.77 653.12 452.45 652.63 453.44 653.86 C 454.77 654.14 456.54 653.56 457.44 654.94 C 459.14 654.99 460.85 655.00 462.56 655.06 C 466.45 657.80 472.55 654.18 476.44 656.95 C 484.29 657.08 492.14 656.94 499.99 657.02 C 501.45 656.79 503.46 657.59 504.44 656.05 C 508.48 655.92 512.52 656.07 516.56 655.95 C 518.21 653.74 521.73 656.23 523.44 654.09 C 525.08 653.80 527.17 654.56 528.44 653.14 C 529.76 652.90 531.36 653.27 532.43 652.23 C 533.51 652.11 534.51 651.78 535.44 651.24 C 536.57 651.17 537.57 650.80 538.45 650.12 C 538.97 650.06 540.02 649.93 540.55 649.87 C 541.70 649.01 543.18 648.90 544.44 648.27 C 545.49 648.10 546.47 647.77 547.39 647.27 C 549.41 646.27 551.61 645.73 553.62 644.71 C 555.56 643.96 557.57 643.37 559.37 642.29 C 560.45 641.76 561.53 641.23 562.64 640.73 C 563.54 640.24 564.45 639.75 565.37 639.28 C 566.71 638.65 568.05 637.98 569.38 637.29 C 569.89 637.06 570.90 636.59 571.41 636.35 C 573.08 635.35 574.61 634.13 576.37 633.29 C 585.44 627.92 593.71 621.44 601.78 614.76 C 606.07 610.40 610.40 606.08 614.76 601.78 C 621.44 593.72 627.92 585.44 633.29 576.37 C 634.13 574.61 635.35 573.07 636.36 571.42 C 636.59 570.90 637.04 569.88 637.27 569.37 C 637.75 568.45 638.23 567.54 638.72 566.63 C 639.34 565.27 640.01 563.94 640.69 562.62 C 641.33 561.27 642.01 559.94 642.75 558.64 C 643.68 556.59 644.27 554.40 645.28 552.38 C 645.80 551.14 646.19 549.85 646.71 548.62 C 647.40 547.29 647.99 545.91 648.28 544.43 C 648.82 543.16 649.16 541.81 649.74 540.56 C 649.82 539.42 650.20 538.41 650.88 537.55 C 650.94 537.03 651.06 535.97 651.11 535.44 C 652.66 534.20 651.33 531.78 652.89 530.56 C 652.94 530.03 653.05 528.97 653.11 528.44 C 654.60 527.22 653.78 525.08 654.09 523.44 C 656.38 521.43 653.59 517.51 655.95 515.56 C 656.02 512.85 655.96 510.14 656.05 507.44 L 656.85 506.58 C 657.23 496.74 656.86 486.84 657.02 476.98 C 656.80 475.51 657.59 473.52 656.04 472.56 C 655.51 469.64 657.08 465.94 655.06 463.56 C 654.99 461.51 655.00 459.47 654.94 457.44 C 652.97 456.05 654.97 453.05 653.14 451.56 C 652.89 450.22 653.27 448.63 652.23 447.56 C 652.17 446.42 651.80 445.41 651.12 444.55 C 651.06 444.03 650.93 442.98 650.86 442.45 C 650.03 441.28 649.89 439.81 649.26 438.56 C 649.12 437.48 648.78 436.48 648.24 435.56 C 648.10 434.48 647.78 433.49 647.26 432.56 C 646.99 430.77 646.19 429.15 645.25 427.64 C 644.31 425.58 643.68 423.41 642.75 421.36 C 642.49 420.87 641.96 419.88 641.70 419.39 C 640.55 417.13 639.46 414.86 638.29 412.63 C 637.64 411.28 636.98 409.95 636.35 408.60 C 635.53 407.15 634.43 405.87 633.71 404.37 C 630.07 398.13 625.82 392.25 621.39 386.56 C 619.75 383.64 616.73 381.86 615.23 378.84 C 604.21 367.03 592.20 356.15 578.37 347.71 C 575.73 346.32 573.42 344.38 570.60 343.34 C 569.15 342.52 567.85 341.46 566.38 340.68 C 565.45 340.21 564.54 339.73 563.64 339.23 C 561.58 338.32 559.40 337.69 557.36 336.74 C 555.21 335.35 552.67 334.85 550.39 333.74 C 549.47 333.21 548.49 332.88 547.44 332.75 C 546.51 332.20 545.51 331.86 544.44 331.76 C 543.52 331.20 542.52 330.87 541.44 330.75 C 540.51 330.21 539.51 329.87 538.44 329.76 C 537.51 329.20 536.51 328.87 535.44 328.77 C 534.36 327.72 532.76 328.09 531.44 327.86 C 530.45 326.63 528.76 327.13 527.43 326.86 C 526.18 325.42 524.08 326.19 522.43 325.91 C 520.74 323.75 517.19 326.27 515.56 324.04 C 512.96 323.57 509.62 325.01 507.56 323.05 C 503.18 322.91 498.81 323.08 494.44 322.95 C 492.38 320.99 489.03 322.36 486.44 322.06 Z" />
</g>
</svg>
