<?xml version="1.0" encoding="UTF-8" ?>
<!DOCTYPE svg PUBLIC "-//W3C//DTD SVG 1.1//EN" "http://www.w3.org/Graphics/SVG/1.1/DTD/svg11.dtd">
<svg width="50pt" height="50pt" viewBox="0 0 50 50" version="1.1" xmlns="http://www.w3.org/2000/svg">
<g id="#000000fe">
<path fill="#000000" opacity="1.00" d=" M 19.44 0.00 L 50.00 0.00 L 50.00 30.04 C 49.72 30.90 49.15 32.63 48.87 33.49 C 45.05 36.48 39.60 34.52 35.12 34.90 C 34.96 38.88 35.41 42.91 34.76 46.86 C 34.43 48.68 32.55 49.39 31.04 50.00 L 0.00 50.00 L 0.00 21.31 C 0.17 19.01 0.44 15.99 3.16 15.38 C 7.13 14.88 11.15 15.26 15.14 15.15 C 15.25 11.22 14.89 7.26 15.33 3.34 C 15.68 1.34 17.73 0.51 19.44 0.00 M 18.36 3.42 C 18.30 7.33 18.33 11.23 18.34 15.14 C 22.57 15.22 26.81 15.02 31.04 15.22 C 33.05 15.22 34.77 17.04 34.92 19.00 C 35.28 23.22 35.04 27.47 34.92 31.70 C 38.85 31.76 42.78 31.81 46.71 31.66 C 46.76 22.25 46.75 12.85 46.72 3.45 C 37.27 3.26 27.81 3.29 18.36 3.42 M 3.40 18.39 C 3.37 27.80 3.35 37.20 3.42 46.60 C 12.87 46.77 22.33 46.77 31.78 46.60 C 31.81 37.19 31.81 27.79 31.78 18.38 C 22.32 18.24 12.86 18.21 3.40 18.39 Z" />
</g>
</svg>
