<?xml version="1.0" encoding="UTF-8" ?>
<!DOCTYPE svg PUBLIC "-//W3C//DTD SVG 1.1//EN" "http://www.w3.org/Graphics/SVG/1.1/DTD/svg11.dtd">
<svg width="518pt" height="666pt" viewBox="0 0 518 666" version="1.1" xmlns="http://www.w3.org/2000/svg">
<g id="#ffffffff">
<path fill="#ffffff" opacity="1.00" d=" M 396.45 0.00 L 405.39 0.00 C 425.31 1.26 443.66 16.78 447.28 36.55 C 448.96 46.92 448.18 58.03 443.26 67.46 C 436.37 80.56 422.83 89.91 408.14 91.69 C 399.16 92.59 389.81 92.05 381.42 88.46 C 368.10 82.83 357.47 70.62 354.82 56.27 C 353.04 45.96 353.64 34.88 358.41 25.40 C 365.46 11.02 380.43 0.97 396.45 0.00 Z" />
<path fill="#ffffff" opacity="1.00" d=" M 41.53 153.96 C 42.78 133.30 59.60 115.07 79.89 111.55 C 88.69 110.23 97.97 110.87 106.12 114.63 C 120.86 120.91 132.00 135.10 134.19 151.01 C 135.22 160.31 134.41 169.69 134.98 179.01 C 134.89 189.71 135.35 200.40 135.29 211.10 C 135.92 219.98 134.88 228.93 136.13 237.77 C 138.06 247.65 145.02 257.06 154.95 259.93 C 161.95 261.78 169.84 260.88 175.93 256.82 C 184.00 251.43 189.40 242.07 189.38 232.29 C 189.67 211.19 189.89 190.09 190.26 168.99 C 190.31 159.94 189.74 150.54 193.08 141.94 C 198.74 126.18 213.28 113.94 229.87 111.39 C 238.40 110.30 247.34 111.00 255.22 114.67 C 271.08 121.46 282.85 137.54 283.50 154.91 C 283.50 211.28 283.51 267.65 283.49 324.02 C 283.12 333.09 279.48 342.49 272.27 348.29 C 263.90 354.44 252.01 354.42 242.86 350.02 C 234.44 345.66 226.88 339.03 222.85 330.32 C 207.46 341.76 189.04 348.91 170.11 351.62 C 173.13 351.60 176.14 351.79 179.13 352.22 C 229.06 358.81 275.07 391.03 297.71 436.11 C 299.29 422.57 303.79 409.36 310.80 397.67 C 321.14 380.54 337.81 367.92 356.18 360.43 C 365.59 356.62 375.45 353.55 385.59 352.68 C 367.70 347.43 354.34 329.69 354.00 311.05 C 353.99 259.68 354.01 208.31 354.00 156.95 C 354.54 133.96 374.88 113.31 397.99 113.00 C 409.91 112.14 422.00 116.17 431.20 123.76 C 440.99 131.90 447.28 144.20 447.99 156.92 C 448.01 208.28 448.00 259.64 447.99 311.00 C 447.69 328.80 435.40 345.37 418.95 351.72 C 433.60 353.24 447.83 357.80 461.24 363.80 C 476.13 370.82 490.67 379.79 500.86 393.00 C 508.78 402.69 512.16 415.65 511.01 428.02 C 510.04 439.29 506.11 450.79 497.85 458.82 C 488.98 468.25 475.77 472.65 463.04 472.78 C 450.39 473.29 437.55 469.21 427.63 461.32 C 423.12 457.89 421.36 452.29 418.22 447.79 C 415.46 443.61 411.32 439.75 406.10 439.35 C 400.55 439.02 394.26 438.95 389.72 442.66 C 387.54 444.29 386.34 447.27 387.35 449.90 C 388.80 454.32 392.63 457.42 396.58 459.59 C 414.63 469.79 432.65 480.06 450.73 490.22 C 466.28 497.84 481.53 506.79 493.58 519.42 C 506.74 532.16 516.65 549.12 518.00 567.67 L 518.00 578.02 C 516.03 594.27 510.99 610.67 500.33 623.40 C 479.83 649.03 447.58 663.25 415.32 666.00 L 393.59 666.00 C 381.10 665.20 368.43 663.83 356.69 659.23 C 344.71 654.92 333.35 648.67 324.02 639.94 C 312.30 629.30 302.10 616.08 298.26 600.46 C 296.78 593.96 296.36 587.07 297.97 580.56 C 282.86 610.34 258.05 635.26 227.97 649.90 C 208.87 659.57 187.69 664.85 166.34 666.00 L 149.59 666.00 C 128.29 664.84 107.16 659.58 88.09 649.93 C 58.09 635.33 33.06 610.76 17.88 581.04 C -5.05 537.39 -5.54 482.69 16.55 438.61 C 31.13 408.57 55.99 383.91 85.59 368.62 C 102.00 360.18 119.87 353.87 138.35 352.35 C 110.84 349.39 84.93 334.75 67.96 312.94 C 49.89 289.84 40.83 260.20 41.50 230.99 C 41.52 205.31 41.45 179.63 41.53 153.96 M 148.64 444.85 C 140.00 446.17 131.72 449.51 124.38 454.24 C 110.39 463.27 100.55 478.06 96.49 494.11 C 89.27 522.20 104.14 553.88 129.88 566.95 C 143.75 574.28 160.52 575.86 175.51 571.26 C 193.13 565.69 208.00 552.25 215.50 535.38 C 222.62 519.98 223.30 501.67 217.18 485.83 C 211.43 470.66 199.67 458.07 185.25 450.75 C 174.10 444.85 161.07 442.99 148.64 444.85 M 315.42 504.22 C 316.18 524.90 312.89 545.90 304.97 565.06 C 312.60 553.59 326.87 548.51 340.14 547.81 C 352.83 547.52 365.90 551.89 375.04 560.89 C 380.85 566.27 385.03 574.05 393.09 576.42 C 399.06 577.84 405.67 578.72 411.52 576.39 C 416.63 574.31 417.98 567.62 416.08 562.89 C 414.30 558.29 409.98 555.44 405.88 553.10 C 383.29 539.80 359.64 528.44 336.11 516.93 C 328.78 513.50 321.44 509.70 315.42 504.22 Z" />
</g>
</svg>
