<?xml version="1.0" encoding="UTF-8" ?>
<!DOCTYPE svg PUBLIC "-//W3C//DTD SVG 1.1//EN" "http://www.w3.org/Graphics/SVG/1.1/DTD/svg11.dtd">
<svg width="64pt" height="50pt" viewBox="0 0 64 50" version="1.1" xmlns="http://www.w3.org/2000/svg">
<g id="#010101fc">
<path fill="#010101" opacity="1.00" d=" M 53.15 1.95 C 52.60 -0.42 55.74 0.07 56.28 1.69 C 66.70 15.51 66.40 36.79 55.07 50.00 L 53.11 50.00 C 53.35 46.37 56.35 43.90 57.64 40.66 C 61.78 31.36 61.91 20.35 58.20 10.89 C 57.02 7.63 54.72 4.98 53.15 1.95 Z" />
<path fill="#010101" opacity="1.00" d=" M 14.81 13.16 C 21.53 9.49 27.24 4.09 34.28 0.96 C 34.95 3.25 35.43 5.60 35.35 8.00 C 35.25 20.00 35.31 32.00 35.32 44.00 C 35.19 45.65 35.46 47.86 33.78 48.84 C 32.36 48.73 31.16 47.89 30.00 47.16 C 25.55 44.17 21.15 41.12 16.71 38.12 C 11.77 34.57 4.51 39.33 0.00 35.02 L 0.00 15.55 C 0.86 14.62 1.65 13.31 3.11 13.48 C 7.00 13.14 10.95 13.84 14.81 13.16 M 15.85 16.13 C 11.64 16.67 7.36 16.22 3.13 16.33 C 3.08 22.18 3.10 28.03 3.10 33.88 C 8.35 34.43 14.55 32.20 18.92 36.07 C 23.34 39.19 27.90 42.11 32.40 45.13 C 32.40 31.80 32.39 18.48 32.36 5.15 C 26.87 8.83 21.41 12.58 15.85 16.13 Z" />
<path fill="#010101" opacity="1.00" d=" M 47.47 6.39 C 48.52 5.80 49.33 6.05 49.88 7.14 C 56.82 17.97 56.76 32.90 49.54 43.59 C 49.09 45.30 46.13 43.39 47.32 42.11 C 49.83 36.72 52.33 31.06 52.16 24.96 C 52.25 18.83 49.66 13.18 47.13 7.75 C 47.22 7.41 47.38 6.73 47.47 6.39 Z" />
<path fill="#010101" opacity="1.00" d=" M 41.31 14.21 C 41.72 13.99 42.54 13.54 42.95 13.32 C 48.21 19.16 48.11 28.69 44.36 35.42 C 43.93 36.87 41.74 37.61 41.20 35.81 C 42.65 31.66 44.90 27.49 44.00 22.93 C 43.83 19.82 41.66 17.23 41.31 14.21 Z" />
</g>
</svg>
